G04 #@! TF.GenerationSoftware,KiCad,Pcbnew,5.1.4*
G04 #@! TF.CreationDate,2019-09-28T21:29:45+01:00*
G04 #@! TF.ProjectId,attenuverter_mixer,61747465-6e75-4766-9572-7465725f6d69,rev?*
G04 #@! TF.SameCoordinates,Original*
G04 #@! TF.FileFunction,Paste,Top*
G04 #@! TF.FilePolarity,Positive*
%FSLAX46Y46*%
G04 Gerber Fmt 4.6, Leading zero omitted, Abs format (unit mm)*
G04 Created by KiCad (PCBNEW 5.1.4) date 2019-09-28 21:29:45*
%MOMM*%
%LPD*%
G04 APERTURE LIST*
%ADD10C,0.100000*%
%ADD11C,0.600000*%
%ADD12C,1.425000*%
G04 APERTURE END LIST*
D10*
G36*
X57924703Y-76945722D02*
G01*
X57939264Y-76947882D01*
X57953543Y-76951459D01*
X57967403Y-76956418D01*
X57980710Y-76962712D01*
X57993336Y-76970280D01*
X58005159Y-76979048D01*
X58016066Y-76988934D01*
X58025952Y-76999841D01*
X58034720Y-77011664D01*
X58042288Y-77024290D01*
X58048582Y-77037597D01*
X58053541Y-77051457D01*
X58057118Y-77065736D01*
X58059278Y-77080297D01*
X58060000Y-77095000D01*
X58060000Y-77395000D01*
X58059278Y-77409703D01*
X58057118Y-77424264D01*
X58053541Y-77438543D01*
X58048582Y-77452403D01*
X58042288Y-77465710D01*
X58034720Y-77478336D01*
X58025952Y-77490159D01*
X58016066Y-77501066D01*
X58005159Y-77510952D01*
X57993336Y-77519720D01*
X57980710Y-77527288D01*
X57967403Y-77533582D01*
X57953543Y-77538541D01*
X57939264Y-77542118D01*
X57924703Y-77544278D01*
X57910000Y-77545000D01*
X56260000Y-77545000D01*
X56245297Y-77544278D01*
X56230736Y-77542118D01*
X56216457Y-77538541D01*
X56202597Y-77533582D01*
X56189290Y-77527288D01*
X56176664Y-77519720D01*
X56164841Y-77510952D01*
X56153934Y-77501066D01*
X56144048Y-77490159D01*
X56135280Y-77478336D01*
X56127712Y-77465710D01*
X56121418Y-77452403D01*
X56116459Y-77438543D01*
X56112882Y-77424264D01*
X56110722Y-77409703D01*
X56110000Y-77395000D01*
X56110000Y-77095000D01*
X56110722Y-77080297D01*
X56112882Y-77065736D01*
X56116459Y-77051457D01*
X56121418Y-77037597D01*
X56127712Y-77024290D01*
X56135280Y-77011664D01*
X56144048Y-76999841D01*
X56153934Y-76988934D01*
X56164841Y-76979048D01*
X56176664Y-76970280D01*
X56189290Y-76962712D01*
X56202597Y-76956418D01*
X56216457Y-76951459D01*
X56230736Y-76947882D01*
X56245297Y-76945722D01*
X56260000Y-76945000D01*
X57910000Y-76945000D01*
X57924703Y-76945722D01*
X57924703Y-76945722D01*
G37*
D11*
X57085000Y-77245000D03*
D10*
G36*
X57924703Y-78215722D02*
G01*
X57939264Y-78217882D01*
X57953543Y-78221459D01*
X57967403Y-78226418D01*
X57980710Y-78232712D01*
X57993336Y-78240280D01*
X58005159Y-78249048D01*
X58016066Y-78258934D01*
X58025952Y-78269841D01*
X58034720Y-78281664D01*
X58042288Y-78294290D01*
X58048582Y-78307597D01*
X58053541Y-78321457D01*
X58057118Y-78335736D01*
X58059278Y-78350297D01*
X58060000Y-78365000D01*
X58060000Y-78665000D01*
X58059278Y-78679703D01*
X58057118Y-78694264D01*
X58053541Y-78708543D01*
X58048582Y-78722403D01*
X58042288Y-78735710D01*
X58034720Y-78748336D01*
X58025952Y-78760159D01*
X58016066Y-78771066D01*
X58005159Y-78780952D01*
X57993336Y-78789720D01*
X57980710Y-78797288D01*
X57967403Y-78803582D01*
X57953543Y-78808541D01*
X57939264Y-78812118D01*
X57924703Y-78814278D01*
X57910000Y-78815000D01*
X56260000Y-78815000D01*
X56245297Y-78814278D01*
X56230736Y-78812118D01*
X56216457Y-78808541D01*
X56202597Y-78803582D01*
X56189290Y-78797288D01*
X56176664Y-78789720D01*
X56164841Y-78780952D01*
X56153934Y-78771066D01*
X56144048Y-78760159D01*
X56135280Y-78748336D01*
X56127712Y-78735710D01*
X56121418Y-78722403D01*
X56116459Y-78708543D01*
X56112882Y-78694264D01*
X56110722Y-78679703D01*
X56110000Y-78665000D01*
X56110000Y-78365000D01*
X56110722Y-78350297D01*
X56112882Y-78335736D01*
X56116459Y-78321457D01*
X56121418Y-78307597D01*
X56127712Y-78294290D01*
X56135280Y-78281664D01*
X56144048Y-78269841D01*
X56153934Y-78258934D01*
X56164841Y-78249048D01*
X56176664Y-78240280D01*
X56189290Y-78232712D01*
X56202597Y-78226418D01*
X56216457Y-78221459D01*
X56230736Y-78217882D01*
X56245297Y-78215722D01*
X56260000Y-78215000D01*
X57910000Y-78215000D01*
X57924703Y-78215722D01*
X57924703Y-78215722D01*
G37*
D11*
X57085000Y-78515000D03*
D10*
G36*
X57924703Y-79485722D02*
G01*
X57939264Y-79487882D01*
X57953543Y-79491459D01*
X57967403Y-79496418D01*
X57980710Y-79502712D01*
X57993336Y-79510280D01*
X58005159Y-79519048D01*
X58016066Y-79528934D01*
X58025952Y-79539841D01*
X58034720Y-79551664D01*
X58042288Y-79564290D01*
X58048582Y-79577597D01*
X58053541Y-79591457D01*
X58057118Y-79605736D01*
X58059278Y-79620297D01*
X58060000Y-79635000D01*
X58060000Y-79935000D01*
X58059278Y-79949703D01*
X58057118Y-79964264D01*
X58053541Y-79978543D01*
X58048582Y-79992403D01*
X58042288Y-80005710D01*
X58034720Y-80018336D01*
X58025952Y-80030159D01*
X58016066Y-80041066D01*
X58005159Y-80050952D01*
X57993336Y-80059720D01*
X57980710Y-80067288D01*
X57967403Y-80073582D01*
X57953543Y-80078541D01*
X57939264Y-80082118D01*
X57924703Y-80084278D01*
X57910000Y-80085000D01*
X56260000Y-80085000D01*
X56245297Y-80084278D01*
X56230736Y-80082118D01*
X56216457Y-80078541D01*
X56202597Y-80073582D01*
X56189290Y-80067288D01*
X56176664Y-80059720D01*
X56164841Y-80050952D01*
X56153934Y-80041066D01*
X56144048Y-80030159D01*
X56135280Y-80018336D01*
X56127712Y-80005710D01*
X56121418Y-79992403D01*
X56116459Y-79978543D01*
X56112882Y-79964264D01*
X56110722Y-79949703D01*
X56110000Y-79935000D01*
X56110000Y-79635000D01*
X56110722Y-79620297D01*
X56112882Y-79605736D01*
X56116459Y-79591457D01*
X56121418Y-79577597D01*
X56127712Y-79564290D01*
X56135280Y-79551664D01*
X56144048Y-79539841D01*
X56153934Y-79528934D01*
X56164841Y-79519048D01*
X56176664Y-79510280D01*
X56189290Y-79502712D01*
X56202597Y-79496418D01*
X56216457Y-79491459D01*
X56230736Y-79487882D01*
X56245297Y-79485722D01*
X56260000Y-79485000D01*
X57910000Y-79485000D01*
X57924703Y-79485722D01*
X57924703Y-79485722D01*
G37*
D11*
X57085000Y-79785000D03*
D10*
G36*
X57924703Y-80755722D02*
G01*
X57939264Y-80757882D01*
X57953543Y-80761459D01*
X57967403Y-80766418D01*
X57980710Y-80772712D01*
X57993336Y-80780280D01*
X58005159Y-80789048D01*
X58016066Y-80798934D01*
X58025952Y-80809841D01*
X58034720Y-80821664D01*
X58042288Y-80834290D01*
X58048582Y-80847597D01*
X58053541Y-80861457D01*
X58057118Y-80875736D01*
X58059278Y-80890297D01*
X58060000Y-80905000D01*
X58060000Y-81205000D01*
X58059278Y-81219703D01*
X58057118Y-81234264D01*
X58053541Y-81248543D01*
X58048582Y-81262403D01*
X58042288Y-81275710D01*
X58034720Y-81288336D01*
X58025952Y-81300159D01*
X58016066Y-81311066D01*
X58005159Y-81320952D01*
X57993336Y-81329720D01*
X57980710Y-81337288D01*
X57967403Y-81343582D01*
X57953543Y-81348541D01*
X57939264Y-81352118D01*
X57924703Y-81354278D01*
X57910000Y-81355000D01*
X56260000Y-81355000D01*
X56245297Y-81354278D01*
X56230736Y-81352118D01*
X56216457Y-81348541D01*
X56202597Y-81343582D01*
X56189290Y-81337288D01*
X56176664Y-81329720D01*
X56164841Y-81320952D01*
X56153934Y-81311066D01*
X56144048Y-81300159D01*
X56135280Y-81288336D01*
X56127712Y-81275710D01*
X56121418Y-81262403D01*
X56116459Y-81248543D01*
X56112882Y-81234264D01*
X56110722Y-81219703D01*
X56110000Y-81205000D01*
X56110000Y-80905000D01*
X56110722Y-80890297D01*
X56112882Y-80875736D01*
X56116459Y-80861457D01*
X56121418Y-80847597D01*
X56127712Y-80834290D01*
X56135280Y-80821664D01*
X56144048Y-80809841D01*
X56153934Y-80798934D01*
X56164841Y-80789048D01*
X56176664Y-80780280D01*
X56189290Y-80772712D01*
X56202597Y-80766418D01*
X56216457Y-80761459D01*
X56230736Y-80757882D01*
X56245297Y-80755722D01*
X56260000Y-80755000D01*
X57910000Y-80755000D01*
X57924703Y-80755722D01*
X57924703Y-80755722D01*
G37*
D11*
X57085000Y-81055000D03*
D10*
G36*
X52974703Y-80755722D02*
G01*
X52989264Y-80757882D01*
X53003543Y-80761459D01*
X53017403Y-80766418D01*
X53030710Y-80772712D01*
X53043336Y-80780280D01*
X53055159Y-80789048D01*
X53066066Y-80798934D01*
X53075952Y-80809841D01*
X53084720Y-80821664D01*
X53092288Y-80834290D01*
X53098582Y-80847597D01*
X53103541Y-80861457D01*
X53107118Y-80875736D01*
X53109278Y-80890297D01*
X53110000Y-80905000D01*
X53110000Y-81205000D01*
X53109278Y-81219703D01*
X53107118Y-81234264D01*
X53103541Y-81248543D01*
X53098582Y-81262403D01*
X53092288Y-81275710D01*
X53084720Y-81288336D01*
X53075952Y-81300159D01*
X53066066Y-81311066D01*
X53055159Y-81320952D01*
X53043336Y-81329720D01*
X53030710Y-81337288D01*
X53017403Y-81343582D01*
X53003543Y-81348541D01*
X52989264Y-81352118D01*
X52974703Y-81354278D01*
X52960000Y-81355000D01*
X51310000Y-81355000D01*
X51295297Y-81354278D01*
X51280736Y-81352118D01*
X51266457Y-81348541D01*
X51252597Y-81343582D01*
X51239290Y-81337288D01*
X51226664Y-81329720D01*
X51214841Y-81320952D01*
X51203934Y-81311066D01*
X51194048Y-81300159D01*
X51185280Y-81288336D01*
X51177712Y-81275710D01*
X51171418Y-81262403D01*
X51166459Y-81248543D01*
X51162882Y-81234264D01*
X51160722Y-81219703D01*
X51160000Y-81205000D01*
X51160000Y-80905000D01*
X51160722Y-80890297D01*
X51162882Y-80875736D01*
X51166459Y-80861457D01*
X51171418Y-80847597D01*
X51177712Y-80834290D01*
X51185280Y-80821664D01*
X51194048Y-80809841D01*
X51203934Y-80798934D01*
X51214841Y-80789048D01*
X51226664Y-80780280D01*
X51239290Y-80772712D01*
X51252597Y-80766418D01*
X51266457Y-80761459D01*
X51280736Y-80757882D01*
X51295297Y-80755722D01*
X51310000Y-80755000D01*
X52960000Y-80755000D01*
X52974703Y-80755722D01*
X52974703Y-80755722D01*
G37*
D11*
X52135000Y-81055000D03*
D10*
G36*
X52974703Y-79485722D02*
G01*
X52989264Y-79487882D01*
X53003543Y-79491459D01*
X53017403Y-79496418D01*
X53030710Y-79502712D01*
X53043336Y-79510280D01*
X53055159Y-79519048D01*
X53066066Y-79528934D01*
X53075952Y-79539841D01*
X53084720Y-79551664D01*
X53092288Y-79564290D01*
X53098582Y-79577597D01*
X53103541Y-79591457D01*
X53107118Y-79605736D01*
X53109278Y-79620297D01*
X53110000Y-79635000D01*
X53110000Y-79935000D01*
X53109278Y-79949703D01*
X53107118Y-79964264D01*
X53103541Y-79978543D01*
X53098582Y-79992403D01*
X53092288Y-80005710D01*
X53084720Y-80018336D01*
X53075952Y-80030159D01*
X53066066Y-80041066D01*
X53055159Y-80050952D01*
X53043336Y-80059720D01*
X53030710Y-80067288D01*
X53017403Y-80073582D01*
X53003543Y-80078541D01*
X52989264Y-80082118D01*
X52974703Y-80084278D01*
X52960000Y-80085000D01*
X51310000Y-80085000D01*
X51295297Y-80084278D01*
X51280736Y-80082118D01*
X51266457Y-80078541D01*
X51252597Y-80073582D01*
X51239290Y-80067288D01*
X51226664Y-80059720D01*
X51214841Y-80050952D01*
X51203934Y-80041066D01*
X51194048Y-80030159D01*
X51185280Y-80018336D01*
X51177712Y-80005710D01*
X51171418Y-79992403D01*
X51166459Y-79978543D01*
X51162882Y-79964264D01*
X51160722Y-79949703D01*
X51160000Y-79935000D01*
X51160000Y-79635000D01*
X51160722Y-79620297D01*
X51162882Y-79605736D01*
X51166459Y-79591457D01*
X51171418Y-79577597D01*
X51177712Y-79564290D01*
X51185280Y-79551664D01*
X51194048Y-79539841D01*
X51203934Y-79528934D01*
X51214841Y-79519048D01*
X51226664Y-79510280D01*
X51239290Y-79502712D01*
X51252597Y-79496418D01*
X51266457Y-79491459D01*
X51280736Y-79487882D01*
X51295297Y-79485722D01*
X51310000Y-79485000D01*
X52960000Y-79485000D01*
X52974703Y-79485722D01*
X52974703Y-79485722D01*
G37*
D11*
X52135000Y-79785000D03*
D10*
G36*
X52974703Y-78215722D02*
G01*
X52989264Y-78217882D01*
X53003543Y-78221459D01*
X53017403Y-78226418D01*
X53030710Y-78232712D01*
X53043336Y-78240280D01*
X53055159Y-78249048D01*
X53066066Y-78258934D01*
X53075952Y-78269841D01*
X53084720Y-78281664D01*
X53092288Y-78294290D01*
X53098582Y-78307597D01*
X53103541Y-78321457D01*
X53107118Y-78335736D01*
X53109278Y-78350297D01*
X53110000Y-78365000D01*
X53110000Y-78665000D01*
X53109278Y-78679703D01*
X53107118Y-78694264D01*
X53103541Y-78708543D01*
X53098582Y-78722403D01*
X53092288Y-78735710D01*
X53084720Y-78748336D01*
X53075952Y-78760159D01*
X53066066Y-78771066D01*
X53055159Y-78780952D01*
X53043336Y-78789720D01*
X53030710Y-78797288D01*
X53017403Y-78803582D01*
X53003543Y-78808541D01*
X52989264Y-78812118D01*
X52974703Y-78814278D01*
X52960000Y-78815000D01*
X51310000Y-78815000D01*
X51295297Y-78814278D01*
X51280736Y-78812118D01*
X51266457Y-78808541D01*
X51252597Y-78803582D01*
X51239290Y-78797288D01*
X51226664Y-78789720D01*
X51214841Y-78780952D01*
X51203934Y-78771066D01*
X51194048Y-78760159D01*
X51185280Y-78748336D01*
X51177712Y-78735710D01*
X51171418Y-78722403D01*
X51166459Y-78708543D01*
X51162882Y-78694264D01*
X51160722Y-78679703D01*
X51160000Y-78665000D01*
X51160000Y-78365000D01*
X51160722Y-78350297D01*
X51162882Y-78335736D01*
X51166459Y-78321457D01*
X51171418Y-78307597D01*
X51177712Y-78294290D01*
X51185280Y-78281664D01*
X51194048Y-78269841D01*
X51203934Y-78258934D01*
X51214841Y-78249048D01*
X51226664Y-78240280D01*
X51239290Y-78232712D01*
X51252597Y-78226418D01*
X51266457Y-78221459D01*
X51280736Y-78217882D01*
X51295297Y-78215722D01*
X51310000Y-78215000D01*
X52960000Y-78215000D01*
X52974703Y-78215722D01*
X52974703Y-78215722D01*
G37*
D11*
X52135000Y-78515000D03*
D10*
G36*
X52974703Y-76945722D02*
G01*
X52989264Y-76947882D01*
X53003543Y-76951459D01*
X53017403Y-76956418D01*
X53030710Y-76962712D01*
X53043336Y-76970280D01*
X53055159Y-76979048D01*
X53066066Y-76988934D01*
X53075952Y-76999841D01*
X53084720Y-77011664D01*
X53092288Y-77024290D01*
X53098582Y-77037597D01*
X53103541Y-77051457D01*
X53107118Y-77065736D01*
X53109278Y-77080297D01*
X53110000Y-77095000D01*
X53110000Y-77395000D01*
X53109278Y-77409703D01*
X53107118Y-77424264D01*
X53103541Y-77438543D01*
X53098582Y-77452403D01*
X53092288Y-77465710D01*
X53084720Y-77478336D01*
X53075952Y-77490159D01*
X53066066Y-77501066D01*
X53055159Y-77510952D01*
X53043336Y-77519720D01*
X53030710Y-77527288D01*
X53017403Y-77533582D01*
X53003543Y-77538541D01*
X52989264Y-77542118D01*
X52974703Y-77544278D01*
X52960000Y-77545000D01*
X51310000Y-77545000D01*
X51295297Y-77544278D01*
X51280736Y-77542118D01*
X51266457Y-77538541D01*
X51252597Y-77533582D01*
X51239290Y-77527288D01*
X51226664Y-77519720D01*
X51214841Y-77510952D01*
X51203934Y-77501066D01*
X51194048Y-77490159D01*
X51185280Y-77478336D01*
X51177712Y-77465710D01*
X51171418Y-77452403D01*
X51166459Y-77438543D01*
X51162882Y-77424264D01*
X51160722Y-77409703D01*
X51160000Y-77395000D01*
X51160000Y-77095000D01*
X51160722Y-77080297D01*
X51162882Y-77065736D01*
X51166459Y-77051457D01*
X51171418Y-77037597D01*
X51177712Y-77024290D01*
X51185280Y-77011664D01*
X51194048Y-76999841D01*
X51203934Y-76988934D01*
X51214841Y-76979048D01*
X51226664Y-76970280D01*
X51239290Y-76962712D01*
X51252597Y-76956418D01*
X51266457Y-76951459D01*
X51280736Y-76947882D01*
X51295297Y-76945722D01*
X51310000Y-76945000D01*
X52960000Y-76945000D01*
X52974703Y-76945722D01*
X52974703Y-76945722D01*
G37*
D11*
X52135000Y-77245000D03*
D10*
G36*
X40655703Y-125430722D02*
G01*
X40670264Y-125432882D01*
X40684543Y-125436459D01*
X40698403Y-125441418D01*
X40711710Y-125447712D01*
X40724336Y-125455280D01*
X40736159Y-125464048D01*
X40747066Y-125473934D01*
X40756952Y-125484841D01*
X40765720Y-125496664D01*
X40773288Y-125509290D01*
X40779582Y-125522597D01*
X40784541Y-125536457D01*
X40788118Y-125550736D01*
X40790278Y-125565297D01*
X40791000Y-125580000D01*
X40791000Y-125880000D01*
X40790278Y-125894703D01*
X40788118Y-125909264D01*
X40784541Y-125923543D01*
X40779582Y-125937403D01*
X40773288Y-125950710D01*
X40765720Y-125963336D01*
X40756952Y-125975159D01*
X40747066Y-125986066D01*
X40736159Y-125995952D01*
X40724336Y-126004720D01*
X40711710Y-126012288D01*
X40698403Y-126018582D01*
X40684543Y-126023541D01*
X40670264Y-126027118D01*
X40655703Y-126029278D01*
X40641000Y-126030000D01*
X38991000Y-126030000D01*
X38976297Y-126029278D01*
X38961736Y-126027118D01*
X38947457Y-126023541D01*
X38933597Y-126018582D01*
X38920290Y-126012288D01*
X38907664Y-126004720D01*
X38895841Y-125995952D01*
X38884934Y-125986066D01*
X38875048Y-125975159D01*
X38866280Y-125963336D01*
X38858712Y-125950710D01*
X38852418Y-125937403D01*
X38847459Y-125923543D01*
X38843882Y-125909264D01*
X38841722Y-125894703D01*
X38841000Y-125880000D01*
X38841000Y-125580000D01*
X38841722Y-125565297D01*
X38843882Y-125550736D01*
X38847459Y-125536457D01*
X38852418Y-125522597D01*
X38858712Y-125509290D01*
X38866280Y-125496664D01*
X38875048Y-125484841D01*
X38884934Y-125473934D01*
X38895841Y-125464048D01*
X38907664Y-125455280D01*
X38920290Y-125447712D01*
X38933597Y-125441418D01*
X38947457Y-125436459D01*
X38961736Y-125432882D01*
X38976297Y-125430722D01*
X38991000Y-125430000D01*
X40641000Y-125430000D01*
X40655703Y-125430722D01*
X40655703Y-125430722D01*
G37*
D11*
X39816000Y-125730000D03*
D10*
G36*
X40655703Y-126700722D02*
G01*
X40670264Y-126702882D01*
X40684543Y-126706459D01*
X40698403Y-126711418D01*
X40711710Y-126717712D01*
X40724336Y-126725280D01*
X40736159Y-126734048D01*
X40747066Y-126743934D01*
X40756952Y-126754841D01*
X40765720Y-126766664D01*
X40773288Y-126779290D01*
X40779582Y-126792597D01*
X40784541Y-126806457D01*
X40788118Y-126820736D01*
X40790278Y-126835297D01*
X40791000Y-126850000D01*
X40791000Y-127150000D01*
X40790278Y-127164703D01*
X40788118Y-127179264D01*
X40784541Y-127193543D01*
X40779582Y-127207403D01*
X40773288Y-127220710D01*
X40765720Y-127233336D01*
X40756952Y-127245159D01*
X40747066Y-127256066D01*
X40736159Y-127265952D01*
X40724336Y-127274720D01*
X40711710Y-127282288D01*
X40698403Y-127288582D01*
X40684543Y-127293541D01*
X40670264Y-127297118D01*
X40655703Y-127299278D01*
X40641000Y-127300000D01*
X38991000Y-127300000D01*
X38976297Y-127299278D01*
X38961736Y-127297118D01*
X38947457Y-127293541D01*
X38933597Y-127288582D01*
X38920290Y-127282288D01*
X38907664Y-127274720D01*
X38895841Y-127265952D01*
X38884934Y-127256066D01*
X38875048Y-127245159D01*
X38866280Y-127233336D01*
X38858712Y-127220710D01*
X38852418Y-127207403D01*
X38847459Y-127193543D01*
X38843882Y-127179264D01*
X38841722Y-127164703D01*
X38841000Y-127150000D01*
X38841000Y-126850000D01*
X38841722Y-126835297D01*
X38843882Y-126820736D01*
X38847459Y-126806457D01*
X38852418Y-126792597D01*
X38858712Y-126779290D01*
X38866280Y-126766664D01*
X38875048Y-126754841D01*
X38884934Y-126743934D01*
X38895841Y-126734048D01*
X38907664Y-126725280D01*
X38920290Y-126717712D01*
X38933597Y-126711418D01*
X38947457Y-126706459D01*
X38961736Y-126702882D01*
X38976297Y-126700722D01*
X38991000Y-126700000D01*
X40641000Y-126700000D01*
X40655703Y-126700722D01*
X40655703Y-126700722D01*
G37*
D11*
X39816000Y-127000000D03*
D10*
G36*
X40655703Y-127970722D02*
G01*
X40670264Y-127972882D01*
X40684543Y-127976459D01*
X40698403Y-127981418D01*
X40711710Y-127987712D01*
X40724336Y-127995280D01*
X40736159Y-128004048D01*
X40747066Y-128013934D01*
X40756952Y-128024841D01*
X40765720Y-128036664D01*
X40773288Y-128049290D01*
X40779582Y-128062597D01*
X40784541Y-128076457D01*
X40788118Y-128090736D01*
X40790278Y-128105297D01*
X40791000Y-128120000D01*
X40791000Y-128420000D01*
X40790278Y-128434703D01*
X40788118Y-128449264D01*
X40784541Y-128463543D01*
X40779582Y-128477403D01*
X40773288Y-128490710D01*
X40765720Y-128503336D01*
X40756952Y-128515159D01*
X40747066Y-128526066D01*
X40736159Y-128535952D01*
X40724336Y-128544720D01*
X40711710Y-128552288D01*
X40698403Y-128558582D01*
X40684543Y-128563541D01*
X40670264Y-128567118D01*
X40655703Y-128569278D01*
X40641000Y-128570000D01*
X38991000Y-128570000D01*
X38976297Y-128569278D01*
X38961736Y-128567118D01*
X38947457Y-128563541D01*
X38933597Y-128558582D01*
X38920290Y-128552288D01*
X38907664Y-128544720D01*
X38895841Y-128535952D01*
X38884934Y-128526066D01*
X38875048Y-128515159D01*
X38866280Y-128503336D01*
X38858712Y-128490710D01*
X38852418Y-128477403D01*
X38847459Y-128463543D01*
X38843882Y-128449264D01*
X38841722Y-128434703D01*
X38841000Y-128420000D01*
X38841000Y-128120000D01*
X38841722Y-128105297D01*
X38843882Y-128090736D01*
X38847459Y-128076457D01*
X38852418Y-128062597D01*
X38858712Y-128049290D01*
X38866280Y-128036664D01*
X38875048Y-128024841D01*
X38884934Y-128013934D01*
X38895841Y-128004048D01*
X38907664Y-127995280D01*
X38920290Y-127987712D01*
X38933597Y-127981418D01*
X38947457Y-127976459D01*
X38961736Y-127972882D01*
X38976297Y-127970722D01*
X38991000Y-127970000D01*
X40641000Y-127970000D01*
X40655703Y-127970722D01*
X40655703Y-127970722D01*
G37*
D11*
X39816000Y-128270000D03*
D10*
G36*
X40655703Y-129240722D02*
G01*
X40670264Y-129242882D01*
X40684543Y-129246459D01*
X40698403Y-129251418D01*
X40711710Y-129257712D01*
X40724336Y-129265280D01*
X40736159Y-129274048D01*
X40747066Y-129283934D01*
X40756952Y-129294841D01*
X40765720Y-129306664D01*
X40773288Y-129319290D01*
X40779582Y-129332597D01*
X40784541Y-129346457D01*
X40788118Y-129360736D01*
X40790278Y-129375297D01*
X40791000Y-129390000D01*
X40791000Y-129690000D01*
X40790278Y-129704703D01*
X40788118Y-129719264D01*
X40784541Y-129733543D01*
X40779582Y-129747403D01*
X40773288Y-129760710D01*
X40765720Y-129773336D01*
X40756952Y-129785159D01*
X40747066Y-129796066D01*
X40736159Y-129805952D01*
X40724336Y-129814720D01*
X40711710Y-129822288D01*
X40698403Y-129828582D01*
X40684543Y-129833541D01*
X40670264Y-129837118D01*
X40655703Y-129839278D01*
X40641000Y-129840000D01*
X38991000Y-129840000D01*
X38976297Y-129839278D01*
X38961736Y-129837118D01*
X38947457Y-129833541D01*
X38933597Y-129828582D01*
X38920290Y-129822288D01*
X38907664Y-129814720D01*
X38895841Y-129805952D01*
X38884934Y-129796066D01*
X38875048Y-129785159D01*
X38866280Y-129773336D01*
X38858712Y-129760710D01*
X38852418Y-129747403D01*
X38847459Y-129733543D01*
X38843882Y-129719264D01*
X38841722Y-129704703D01*
X38841000Y-129690000D01*
X38841000Y-129390000D01*
X38841722Y-129375297D01*
X38843882Y-129360736D01*
X38847459Y-129346457D01*
X38852418Y-129332597D01*
X38858712Y-129319290D01*
X38866280Y-129306664D01*
X38875048Y-129294841D01*
X38884934Y-129283934D01*
X38895841Y-129274048D01*
X38907664Y-129265280D01*
X38920290Y-129257712D01*
X38933597Y-129251418D01*
X38947457Y-129246459D01*
X38961736Y-129242882D01*
X38976297Y-129240722D01*
X38991000Y-129240000D01*
X40641000Y-129240000D01*
X40655703Y-129240722D01*
X40655703Y-129240722D01*
G37*
D11*
X39816000Y-129540000D03*
D10*
G36*
X40655703Y-130510722D02*
G01*
X40670264Y-130512882D01*
X40684543Y-130516459D01*
X40698403Y-130521418D01*
X40711710Y-130527712D01*
X40724336Y-130535280D01*
X40736159Y-130544048D01*
X40747066Y-130553934D01*
X40756952Y-130564841D01*
X40765720Y-130576664D01*
X40773288Y-130589290D01*
X40779582Y-130602597D01*
X40784541Y-130616457D01*
X40788118Y-130630736D01*
X40790278Y-130645297D01*
X40791000Y-130660000D01*
X40791000Y-130960000D01*
X40790278Y-130974703D01*
X40788118Y-130989264D01*
X40784541Y-131003543D01*
X40779582Y-131017403D01*
X40773288Y-131030710D01*
X40765720Y-131043336D01*
X40756952Y-131055159D01*
X40747066Y-131066066D01*
X40736159Y-131075952D01*
X40724336Y-131084720D01*
X40711710Y-131092288D01*
X40698403Y-131098582D01*
X40684543Y-131103541D01*
X40670264Y-131107118D01*
X40655703Y-131109278D01*
X40641000Y-131110000D01*
X38991000Y-131110000D01*
X38976297Y-131109278D01*
X38961736Y-131107118D01*
X38947457Y-131103541D01*
X38933597Y-131098582D01*
X38920290Y-131092288D01*
X38907664Y-131084720D01*
X38895841Y-131075952D01*
X38884934Y-131066066D01*
X38875048Y-131055159D01*
X38866280Y-131043336D01*
X38858712Y-131030710D01*
X38852418Y-131017403D01*
X38847459Y-131003543D01*
X38843882Y-130989264D01*
X38841722Y-130974703D01*
X38841000Y-130960000D01*
X38841000Y-130660000D01*
X38841722Y-130645297D01*
X38843882Y-130630736D01*
X38847459Y-130616457D01*
X38852418Y-130602597D01*
X38858712Y-130589290D01*
X38866280Y-130576664D01*
X38875048Y-130564841D01*
X38884934Y-130553934D01*
X38895841Y-130544048D01*
X38907664Y-130535280D01*
X38920290Y-130527712D01*
X38933597Y-130521418D01*
X38947457Y-130516459D01*
X38961736Y-130512882D01*
X38976297Y-130510722D01*
X38991000Y-130510000D01*
X40641000Y-130510000D01*
X40655703Y-130510722D01*
X40655703Y-130510722D01*
G37*
D11*
X39816000Y-130810000D03*
D10*
G36*
X40655703Y-131780722D02*
G01*
X40670264Y-131782882D01*
X40684543Y-131786459D01*
X40698403Y-131791418D01*
X40711710Y-131797712D01*
X40724336Y-131805280D01*
X40736159Y-131814048D01*
X40747066Y-131823934D01*
X40756952Y-131834841D01*
X40765720Y-131846664D01*
X40773288Y-131859290D01*
X40779582Y-131872597D01*
X40784541Y-131886457D01*
X40788118Y-131900736D01*
X40790278Y-131915297D01*
X40791000Y-131930000D01*
X40791000Y-132230000D01*
X40790278Y-132244703D01*
X40788118Y-132259264D01*
X40784541Y-132273543D01*
X40779582Y-132287403D01*
X40773288Y-132300710D01*
X40765720Y-132313336D01*
X40756952Y-132325159D01*
X40747066Y-132336066D01*
X40736159Y-132345952D01*
X40724336Y-132354720D01*
X40711710Y-132362288D01*
X40698403Y-132368582D01*
X40684543Y-132373541D01*
X40670264Y-132377118D01*
X40655703Y-132379278D01*
X40641000Y-132380000D01*
X38991000Y-132380000D01*
X38976297Y-132379278D01*
X38961736Y-132377118D01*
X38947457Y-132373541D01*
X38933597Y-132368582D01*
X38920290Y-132362288D01*
X38907664Y-132354720D01*
X38895841Y-132345952D01*
X38884934Y-132336066D01*
X38875048Y-132325159D01*
X38866280Y-132313336D01*
X38858712Y-132300710D01*
X38852418Y-132287403D01*
X38847459Y-132273543D01*
X38843882Y-132259264D01*
X38841722Y-132244703D01*
X38841000Y-132230000D01*
X38841000Y-131930000D01*
X38841722Y-131915297D01*
X38843882Y-131900736D01*
X38847459Y-131886457D01*
X38852418Y-131872597D01*
X38858712Y-131859290D01*
X38866280Y-131846664D01*
X38875048Y-131834841D01*
X38884934Y-131823934D01*
X38895841Y-131814048D01*
X38907664Y-131805280D01*
X38920290Y-131797712D01*
X38933597Y-131791418D01*
X38947457Y-131786459D01*
X38961736Y-131782882D01*
X38976297Y-131780722D01*
X38991000Y-131780000D01*
X40641000Y-131780000D01*
X40655703Y-131780722D01*
X40655703Y-131780722D01*
G37*
D11*
X39816000Y-132080000D03*
D10*
G36*
X40655703Y-133050722D02*
G01*
X40670264Y-133052882D01*
X40684543Y-133056459D01*
X40698403Y-133061418D01*
X40711710Y-133067712D01*
X40724336Y-133075280D01*
X40736159Y-133084048D01*
X40747066Y-133093934D01*
X40756952Y-133104841D01*
X40765720Y-133116664D01*
X40773288Y-133129290D01*
X40779582Y-133142597D01*
X40784541Y-133156457D01*
X40788118Y-133170736D01*
X40790278Y-133185297D01*
X40791000Y-133200000D01*
X40791000Y-133500000D01*
X40790278Y-133514703D01*
X40788118Y-133529264D01*
X40784541Y-133543543D01*
X40779582Y-133557403D01*
X40773288Y-133570710D01*
X40765720Y-133583336D01*
X40756952Y-133595159D01*
X40747066Y-133606066D01*
X40736159Y-133615952D01*
X40724336Y-133624720D01*
X40711710Y-133632288D01*
X40698403Y-133638582D01*
X40684543Y-133643541D01*
X40670264Y-133647118D01*
X40655703Y-133649278D01*
X40641000Y-133650000D01*
X38991000Y-133650000D01*
X38976297Y-133649278D01*
X38961736Y-133647118D01*
X38947457Y-133643541D01*
X38933597Y-133638582D01*
X38920290Y-133632288D01*
X38907664Y-133624720D01*
X38895841Y-133615952D01*
X38884934Y-133606066D01*
X38875048Y-133595159D01*
X38866280Y-133583336D01*
X38858712Y-133570710D01*
X38852418Y-133557403D01*
X38847459Y-133543543D01*
X38843882Y-133529264D01*
X38841722Y-133514703D01*
X38841000Y-133500000D01*
X38841000Y-133200000D01*
X38841722Y-133185297D01*
X38843882Y-133170736D01*
X38847459Y-133156457D01*
X38852418Y-133142597D01*
X38858712Y-133129290D01*
X38866280Y-133116664D01*
X38875048Y-133104841D01*
X38884934Y-133093934D01*
X38895841Y-133084048D01*
X38907664Y-133075280D01*
X38920290Y-133067712D01*
X38933597Y-133061418D01*
X38947457Y-133056459D01*
X38961736Y-133052882D01*
X38976297Y-133050722D01*
X38991000Y-133050000D01*
X40641000Y-133050000D01*
X40655703Y-133050722D01*
X40655703Y-133050722D01*
G37*
D11*
X39816000Y-133350000D03*
D10*
G36*
X45605703Y-133050722D02*
G01*
X45620264Y-133052882D01*
X45634543Y-133056459D01*
X45648403Y-133061418D01*
X45661710Y-133067712D01*
X45674336Y-133075280D01*
X45686159Y-133084048D01*
X45697066Y-133093934D01*
X45706952Y-133104841D01*
X45715720Y-133116664D01*
X45723288Y-133129290D01*
X45729582Y-133142597D01*
X45734541Y-133156457D01*
X45738118Y-133170736D01*
X45740278Y-133185297D01*
X45741000Y-133200000D01*
X45741000Y-133500000D01*
X45740278Y-133514703D01*
X45738118Y-133529264D01*
X45734541Y-133543543D01*
X45729582Y-133557403D01*
X45723288Y-133570710D01*
X45715720Y-133583336D01*
X45706952Y-133595159D01*
X45697066Y-133606066D01*
X45686159Y-133615952D01*
X45674336Y-133624720D01*
X45661710Y-133632288D01*
X45648403Y-133638582D01*
X45634543Y-133643541D01*
X45620264Y-133647118D01*
X45605703Y-133649278D01*
X45591000Y-133650000D01*
X43941000Y-133650000D01*
X43926297Y-133649278D01*
X43911736Y-133647118D01*
X43897457Y-133643541D01*
X43883597Y-133638582D01*
X43870290Y-133632288D01*
X43857664Y-133624720D01*
X43845841Y-133615952D01*
X43834934Y-133606066D01*
X43825048Y-133595159D01*
X43816280Y-133583336D01*
X43808712Y-133570710D01*
X43802418Y-133557403D01*
X43797459Y-133543543D01*
X43793882Y-133529264D01*
X43791722Y-133514703D01*
X43791000Y-133500000D01*
X43791000Y-133200000D01*
X43791722Y-133185297D01*
X43793882Y-133170736D01*
X43797459Y-133156457D01*
X43802418Y-133142597D01*
X43808712Y-133129290D01*
X43816280Y-133116664D01*
X43825048Y-133104841D01*
X43834934Y-133093934D01*
X43845841Y-133084048D01*
X43857664Y-133075280D01*
X43870290Y-133067712D01*
X43883597Y-133061418D01*
X43897457Y-133056459D01*
X43911736Y-133052882D01*
X43926297Y-133050722D01*
X43941000Y-133050000D01*
X45591000Y-133050000D01*
X45605703Y-133050722D01*
X45605703Y-133050722D01*
G37*
D11*
X44766000Y-133350000D03*
D10*
G36*
X45605703Y-131780722D02*
G01*
X45620264Y-131782882D01*
X45634543Y-131786459D01*
X45648403Y-131791418D01*
X45661710Y-131797712D01*
X45674336Y-131805280D01*
X45686159Y-131814048D01*
X45697066Y-131823934D01*
X45706952Y-131834841D01*
X45715720Y-131846664D01*
X45723288Y-131859290D01*
X45729582Y-131872597D01*
X45734541Y-131886457D01*
X45738118Y-131900736D01*
X45740278Y-131915297D01*
X45741000Y-131930000D01*
X45741000Y-132230000D01*
X45740278Y-132244703D01*
X45738118Y-132259264D01*
X45734541Y-132273543D01*
X45729582Y-132287403D01*
X45723288Y-132300710D01*
X45715720Y-132313336D01*
X45706952Y-132325159D01*
X45697066Y-132336066D01*
X45686159Y-132345952D01*
X45674336Y-132354720D01*
X45661710Y-132362288D01*
X45648403Y-132368582D01*
X45634543Y-132373541D01*
X45620264Y-132377118D01*
X45605703Y-132379278D01*
X45591000Y-132380000D01*
X43941000Y-132380000D01*
X43926297Y-132379278D01*
X43911736Y-132377118D01*
X43897457Y-132373541D01*
X43883597Y-132368582D01*
X43870290Y-132362288D01*
X43857664Y-132354720D01*
X43845841Y-132345952D01*
X43834934Y-132336066D01*
X43825048Y-132325159D01*
X43816280Y-132313336D01*
X43808712Y-132300710D01*
X43802418Y-132287403D01*
X43797459Y-132273543D01*
X43793882Y-132259264D01*
X43791722Y-132244703D01*
X43791000Y-132230000D01*
X43791000Y-131930000D01*
X43791722Y-131915297D01*
X43793882Y-131900736D01*
X43797459Y-131886457D01*
X43802418Y-131872597D01*
X43808712Y-131859290D01*
X43816280Y-131846664D01*
X43825048Y-131834841D01*
X43834934Y-131823934D01*
X43845841Y-131814048D01*
X43857664Y-131805280D01*
X43870290Y-131797712D01*
X43883597Y-131791418D01*
X43897457Y-131786459D01*
X43911736Y-131782882D01*
X43926297Y-131780722D01*
X43941000Y-131780000D01*
X45591000Y-131780000D01*
X45605703Y-131780722D01*
X45605703Y-131780722D01*
G37*
D11*
X44766000Y-132080000D03*
D10*
G36*
X45605703Y-130510722D02*
G01*
X45620264Y-130512882D01*
X45634543Y-130516459D01*
X45648403Y-130521418D01*
X45661710Y-130527712D01*
X45674336Y-130535280D01*
X45686159Y-130544048D01*
X45697066Y-130553934D01*
X45706952Y-130564841D01*
X45715720Y-130576664D01*
X45723288Y-130589290D01*
X45729582Y-130602597D01*
X45734541Y-130616457D01*
X45738118Y-130630736D01*
X45740278Y-130645297D01*
X45741000Y-130660000D01*
X45741000Y-130960000D01*
X45740278Y-130974703D01*
X45738118Y-130989264D01*
X45734541Y-131003543D01*
X45729582Y-131017403D01*
X45723288Y-131030710D01*
X45715720Y-131043336D01*
X45706952Y-131055159D01*
X45697066Y-131066066D01*
X45686159Y-131075952D01*
X45674336Y-131084720D01*
X45661710Y-131092288D01*
X45648403Y-131098582D01*
X45634543Y-131103541D01*
X45620264Y-131107118D01*
X45605703Y-131109278D01*
X45591000Y-131110000D01*
X43941000Y-131110000D01*
X43926297Y-131109278D01*
X43911736Y-131107118D01*
X43897457Y-131103541D01*
X43883597Y-131098582D01*
X43870290Y-131092288D01*
X43857664Y-131084720D01*
X43845841Y-131075952D01*
X43834934Y-131066066D01*
X43825048Y-131055159D01*
X43816280Y-131043336D01*
X43808712Y-131030710D01*
X43802418Y-131017403D01*
X43797459Y-131003543D01*
X43793882Y-130989264D01*
X43791722Y-130974703D01*
X43791000Y-130960000D01*
X43791000Y-130660000D01*
X43791722Y-130645297D01*
X43793882Y-130630736D01*
X43797459Y-130616457D01*
X43802418Y-130602597D01*
X43808712Y-130589290D01*
X43816280Y-130576664D01*
X43825048Y-130564841D01*
X43834934Y-130553934D01*
X43845841Y-130544048D01*
X43857664Y-130535280D01*
X43870290Y-130527712D01*
X43883597Y-130521418D01*
X43897457Y-130516459D01*
X43911736Y-130512882D01*
X43926297Y-130510722D01*
X43941000Y-130510000D01*
X45591000Y-130510000D01*
X45605703Y-130510722D01*
X45605703Y-130510722D01*
G37*
D11*
X44766000Y-130810000D03*
D10*
G36*
X45605703Y-129240722D02*
G01*
X45620264Y-129242882D01*
X45634543Y-129246459D01*
X45648403Y-129251418D01*
X45661710Y-129257712D01*
X45674336Y-129265280D01*
X45686159Y-129274048D01*
X45697066Y-129283934D01*
X45706952Y-129294841D01*
X45715720Y-129306664D01*
X45723288Y-129319290D01*
X45729582Y-129332597D01*
X45734541Y-129346457D01*
X45738118Y-129360736D01*
X45740278Y-129375297D01*
X45741000Y-129390000D01*
X45741000Y-129690000D01*
X45740278Y-129704703D01*
X45738118Y-129719264D01*
X45734541Y-129733543D01*
X45729582Y-129747403D01*
X45723288Y-129760710D01*
X45715720Y-129773336D01*
X45706952Y-129785159D01*
X45697066Y-129796066D01*
X45686159Y-129805952D01*
X45674336Y-129814720D01*
X45661710Y-129822288D01*
X45648403Y-129828582D01*
X45634543Y-129833541D01*
X45620264Y-129837118D01*
X45605703Y-129839278D01*
X45591000Y-129840000D01*
X43941000Y-129840000D01*
X43926297Y-129839278D01*
X43911736Y-129837118D01*
X43897457Y-129833541D01*
X43883597Y-129828582D01*
X43870290Y-129822288D01*
X43857664Y-129814720D01*
X43845841Y-129805952D01*
X43834934Y-129796066D01*
X43825048Y-129785159D01*
X43816280Y-129773336D01*
X43808712Y-129760710D01*
X43802418Y-129747403D01*
X43797459Y-129733543D01*
X43793882Y-129719264D01*
X43791722Y-129704703D01*
X43791000Y-129690000D01*
X43791000Y-129390000D01*
X43791722Y-129375297D01*
X43793882Y-129360736D01*
X43797459Y-129346457D01*
X43802418Y-129332597D01*
X43808712Y-129319290D01*
X43816280Y-129306664D01*
X43825048Y-129294841D01*
X43834934Y-129283934D01*
X43845841Y-129274048D01*
X43857664Y-129265280D01*
X43870290Y-129257712D01*
X43883597Y-129251418D01*
X43897457Y-129246459D01*
X43911736Y-129242882D01*
X43926297Y-129240722D01*
X43941000Y-129240000D01*
X45591000Y-129240000D01*
X45605703Y-129240722D01*
X45605703Y-129240722D01*
G37*
D11*
X44766000Y-129540000D03*
D10*
G36*
X45605703Y-127970722D02*
G01*
X45620264Y-127972882D01*
X45634543Y-127976459D01*
X45648403Y-127981418D01*
X45661710Y-127987712D01*
X45674336Y-127995280D01*
X45686159Y-128004048D01*
X45697066Y-128013934D01*
X45706952Y-128024841D01*
X45715720Y-128036664D01*
X45723288Y-128049290D01*
X45729582Y-128062597D01*
X45734541Y-128076457D01*
X45738118Y-128090736D01*
X45740278Y-128105297D01*
X45741000Y-128120000D01*
X45741000Y-128420000D01*
X45740278Y-128434703D01*
X45738118Y-128449264D01*
X45734541Y-128463543D01*
X45729582Y-128477403D01*
X45723288Y-128490710D01*
X45715720Y-128503336D01*
X45706952Y-128515159D01*
X45697066Y-128526066D01*
X45686159Y-128535952D01*
X45674336Y-128544720D01*
X45661710Y-128552288D01*
X45648403Y-128558582D01*
X45634543Y-128563541D01*
X45620264Y-128567118D01*
X45605703Y-128569278D01*
X45591000Y-128570000D01*
X43941000Y-128570000D01*
X43926297Y-128569278D01*
X43911736Y-128567118D01*
X43897457Y-128563541D01*
X43883597Y-128558582D01*
X43870290Y-128552288D01*
X43857664Y-128544720D01*
X43845841Y-128535952D01*
X43834934Y-128526066D01*
X43825048Y-128515159D01*
X43816280Y-128503336D01*
X43808712Y-128490710D01*
X43802418Y-128477403D01*
X43797459Y-128463543D01*
X43793882Y-128449264D01*
X43791722Y-128434703D01*
X43791000Y-128420000D01*
X43791000Y-128120000D01*
X43791722Y-128105297D01*
X43793882Y-128090736D01*
X43797459Y-128076457D01*
X43802418Y-128062597D01*
X43808712Y-128049290D01*
X43816280Y-128036664D01*
X43825048Y-128024841D01*
X43834934Y-128013934D01*
X43845841Y-128004048D01*
X43857664Y-127995280D01*
X43870290Y-127987712D01*
X43883597Y-127981418D01*
X43897457Y-127976459D01*
X43911736Y-127972882D01*
X43926297Y-127970722D01*
X43941000Y-127970000D01*
X45591000Y-127970000D01*
X45605703Y-127970722D01*
X45605703Y-127970722D01*
G37*
D11*
X44766000Y-128270000D03*
D10*
G36*
X45605703Y-126700722D02*
G01*
X45620264Y-126702882D01*
X45634543Y-126706459D01*
X45648403Y-126711418D01*
X45661710Y-126717712D01*
X45674336Y-126725280D01*
X45686159Y-126734048D01*
X45697066Y-126743934D01*
X45706952Y-126754841D01*
X45715720Y-126766664D01*
X45723288Y-126779290D01*
X45729582Y-126792597D01*
X45734541Y-126806457D01*
X45738118Y-126820736D01*
X45740278Y-126835297D01*
X45741000Y-126850000D01*
X45741000Y-127150000D01*
X45740278Y-127164703D01*
X45738118Y-127179264D01*
X45734541Y-127193543D01*
X45729582Y-127207403D01*
X45723288Y-127220710D01*
X45715720Y-127233336D01*
X45706952Y-127245159D01*
X45697066Y-127256066D01*
X45686159Y-127265952D01*
X45674336Y-127274720D01*
X45661710Y-127282288D01*
X45648403Y-127288582D01*
X45634543Y-127293541D01*
X45620264Y-127297118D01*
X45605703Y-127299278D01*
X45591000Y-127300000D01*
X43941000Y-127300000D01*
X43926297Y-127299278D01*
X43911736Y-127297118D01*
X43897457Y-127293541D01*
X43883597Y-127288582D01*
X43870290Y-127282288D01*
X43857664Y-127274720D01*
X43845841Y-127265952D01*
X43834934Y-127256066D01*
X43825048Y-127245159D01*
X43816280Y-127233336D01*
X43808712Y-127220710D01*
X43802418Y-127207403D01*
X43797459Y-127193543D01*
X43793882Y-127179264D01*
X43791722Y-127164703D01*
X43791000Y-127150000D01*
X43791000Y-126850000D01*
X43791722Y-126835297D01*
X43793882Y-126820736D01*
X43797459Y-126806457D01*
X43802418Y-126792597D01*
X43808712Y-126779290D01*
X43816280Y-126766664D01*
X43825048Y-126754841D01*
X43834934Y-126743934D01*
X43845841Y-126734048D01*
X43857664Y-126725280D01*
X43870290Y-126717712D01*
X43883597Y-126711418D01*
X43897457Y-126706459D01*
X43911736Y-126702882D01*
X43926297Y-126700722D01*
X43941000Y-126700000D01*
X45591000Y-126700000D01*
X45605703Y-126700722D01*
X45605703Y-126700722D01*
G37*
D11*
X44766000Y-127000000D03*
D10*
G36*
X45605703Y-125430722D02*
G01*
X45620264Y-125432882D01*
X45634543Y-125436459D01*
X45648403Y-125441418D01*
X45661710Y-125447712D01*
X45674336Y-125455280D01*
X45686159Y-125464048D01*
X45697066Y-125473934D01*
X45706952Y-125484841D01*
X45715720Y-125496664D01*
X45723288Y-125509290D01*
X45729582Y-125522597D01*
X45734541Y-125536457D01*
X45738118Y-125550736D01*
X45740278Y-125565297D01*
X45741000Y-125580000D01*
X45741000Y-125880000D01*
X45740278Y-125894703D01*
X45738118Y-125909264D01*
X45734541Y-125923543D01*
X45729582Y-125937403D01*
X45723288Y-125950710D01*
X45715720Y-125963336D01*
X45706952Y-125975159D01*
X45697066Y-125986066D01*
X45686159Y-125995952D01*
X45674336Y-126004720D01*
X45661710Y-126012288D01*
X45648403Y-126018582D01*
X45634543Y-126023541D01*
X45620264Y-126027118D01*
X45605703Y-126029278D01*
X45591000Y-126030000D01*
X43941000Y-126030000D01*
X43926297Y-126029278D01*
X43911736Y-126027118D01*
X43897457Y-126023541D01*
X43883597Y-126018582D01*
X43870290Y-126012288D01*
X43857664Y-126004720D01*
X43845841Y-125995952D01*
X43834934Y-125986066D01*
X43825048Y-125975159D01*
X43816280Y-125963336D01*
X43808712Y-125950710D01*
X43802418Y-125937403D01*
X43797459Y-125923543D01*
X43793882Y-125909264D01*
X43791722Y-125894703D01*
X43791000Y-125880000D01*
X43791000Y-125580000D01*
X43791722Y-125565297D01*
X43793882Y-125550736D01*
X43797459Y-125536457D01*
X43802418Y-125522597D01*
X43808712Y-125509290D01*
X43816280Y-125496664D01*
X43825048Y-125484841D01*
X43834934Y-125473934D01*
X43845841Y-125464048D01*
X43857664Y-125455280D01*
X43870290Y-125447712D01*
X43883597Y-125441418D01*
X43897457Y-125436459D01*
X43911736Y-125432882D01*
X43926297Y-125430722D01*
X43941000Y-125430000D01*
X45591000Y-125430000D01*
X45605703Y-125430722D01*
X45605703Y-125430722D01*
G37*
D11*
X44766000Y-125730000D03*
D10*
G36*
X34867504Y-59578204D02*
G01*
X34891773Y-59581804D01*
X34915571Y-59587765D01*
X34938671Y-59596030D01*
X34960849Y-59606520D01*
X34981893Y-59619133D01*
X35001598Y-59633747D01*
X35019777Y-59650223D01*
X35036253Y-59668402D01*
X35050867Y-59688107D01*
X35063480Y-59709151D01*
X35073970Y-59731329D01*
X35082235Y-59754429D01*
X35088196Y-59778227D01*
X35091796Y-59802496D01*
X35093000Y-59827000D01*
X35093000Y-61077000D01*
X35091796Y-61101504D01*
X35088196Y-61125773D01*
X35082235Y-61149571D01*
X35073970Y-61172671D01*
X35063480Y-61194849D01*
X35050867Y-61215893D01*
X35036253Y-61235598D01*
X35019777Y-61253777D01*
X35001598Y-61270253D01*
X34981893Y-61284867D01*
X34960849Y-61297480D01*
X34938671Y-61307970D01*
X34915571Y-61316235D01*
X34891773Y-61322196D01*
X34867504Y-61325796D01*
X34843000Y-61327000D01*
X33918000Y-61327000D01*
X33893496Y-61325796D01*
X33869227Y-61322196D01*
X33845429Y-61316235D01*
X33822329Y-61307970D01*
X33800151Y-61297480D01*
X33779107Y-61284867D01*
X33759402Y-61270253D01*
X33741223Y-61253777D01*
X33724747Y-61235598D01*
X33710133Y-61215893D01*
X33697520Y-61194849D01*
X33687030Y-61172671D01*
X33678765Y-61149571D01*
X33672804Y-61125773D01*
X33669204Y-61101504D01*
X33668000Y-61077000D01*
X33668000Y-59827000D01*
X33669204Y-59802496D01*
X33672804Y-59778227D01*
X33678765Y-59754429D01*
X33687030Y-59731329D01*
X33697520Y-59709151D01*
X33710133Y-59688107D01*
X33724747Y-59668402D01*
X33741223Y-59650223D01*
X33759402Y-59633747D01*
X33779107Y-59619133D01*
X33800151Y-59606520D01*
X33822329Y-59596030D01*
X33845429Y-59587765D01*
X33869227Y-59581804D01*
X33893496Y-59578204D01*
X33918000Y-59577000D01*
X34843000Y-59577000D01*
X34867504Y-59578204D01*
X34867504Y-59578204D01*
G37*
D12*
X34380500Y-60452000D03*
D10*
G36*
X31892504Y-59578204D02*
G01*
X31916773Y-59581804D01*
X31940571Y-59587765D01*
X31963671Y-59596030D01*
X31985849Y-59606520D01*
X32006893Y-59619133D01*
X32026598Y-59633747D01*
X32044777Y-59650223D01*
X32061253Y-59668402D01*
X32075867Y-59688107D01*
X32088480Y-59709151D01*
X32098970Y-59731329D01*
X32107235Y-59754429D01*
X32113196Y-59778227D01*
X32116796Y-59802496D01*
X32118000Y-59827000D01*
X32118000Y-61077000D01*
X32116796Y-61101504D01*
X32113196Y-61125773D01*
X32107235Y-61149571D01*
X32098970Y-61172671D01*
X32088480Y-61194849D01*
X32075867Y-61215893D01*
X32061253Y-61235598D01*
X32044777Y-61253777D01*
X32026598Y-61270253D01*
X32006893Y-61284867D01*
X31985849Y-61297480D01*
X31963671Y-61307970D01*
X31940571Y-61316235D01*
X31916773Y-61322196D01*
X31892504Y-61325796D01*
X31868000Y-61327000D01*
X30943000Y-61327000D01*
X30918496Y-61325796D01*
X30894227Y-61322196D01*
X30870429Y-61316235D01*
X30847329Y-61307970D01*
X30825151Y-61297480D01*
X30804107Y-61284867D01*
X30784402Y-61270253D01*
X30766223Y-61253777D01*
X30749747Y-61235598D01*
X30735133Y-61215893D01*
X30722520Y-61194849D01*
X30712030Y-61172671D01*
X30703765Y-61149571D01*
X30697804Y-61125773D01*
X30694204Y-61101504D01*
X30693000Y-61077000D01*
X30693000Y-59827000D01*
X30694204Y-59802496D01*
X30697804Y-59778227D01*
X30703765Y-59754429D01*
X30712030Y-59731329D01*
X30722520Y-59709151D01*
X30735133Y-59688107D01*
X30749747Y-59668402D01*
X30766223Y-59650223D01*
X30784402Y-59633747D01*
X30804107Y-59619133D01*
X30825151Y-59606520D01*
X30847329Y-59596030D01*
X30870429Y-59587765D01*
X30894227Y-59581804D01*
X30918496Y-59578204D01*
X30943000Y-59577000D01*
X31868000Y-59577000D01*
X31892504Y-59578204D01*
X31892504Y-59578204D01*
G37*
D12*
X31405500Y-60452000D03*
D10*
G36*
X31892504Y-81930204D02*
G01*
X31916773Y-81933804D01*
X31940571Y-81939765D01*
X31963671Y-81948030D01*
X31985849Y-81958520D01*
X32006893Y-81971133D01*
X32026598Y-81985747D01*
X32044777Y-82002223D01*
X32061253Y-82020402D01*
X32075867Y-82040107D01*
X32088480Y-82061151D01*
X32098970Y-82083329D01*
X32107235Y-82106429D01*
X32113196Y-82130227D01*
X32116796Y-82154496D01*
X32118000Y-82179000D01*
X32118000Y-83429000D01*
X32116796Y-83453504D01*
X32113196Y-83477773D01*
X32107235Y-83501571D01*
X32098970Y-83524671D01*
X32088480Y-83546849D01*
X32075867Y-83567893D01*
X32061253Y-83587598D01*
X32044777Y-83605777D01*
X32026598Y-83622253D01*
X32006893Y-83636867D01*
X31985849Y-83649480D01*
X31963671Y-83659970D01*
X31940571Y-83668235D01*
X31916773Y-83674196D01*
X31892504Y-83677796D01*
X31868000Y-83679000D01*
X30943000Y-83679000D01*
X30918496Y-83677796D01*
X30894227Y-83674196D01*
X30870429Y-83668235D01*
X30847329Y-83659970D01*
X30825151Y-83649480D01*
X30804107Y-83636867D01*
X30784402Y-83622253D01*
X30766223Y-83605777D01*
X30749747Y-83587598D01*
X30735133Y-83567893D01*
X30722520Y-83546849D01*
X30712030Y-83524671D01*
X30703765Y-83501571D01*
X30697804Y-83477773D01*
X30694204Y-83453504D01*
X30693000Y-83429000D01*
X30693000Y-82179000D01*
X30694204Y-82154496D01*
X30697804Y-82130227D01*
X30703765Y-82106429D01*
X30712030Y-82083329D01*
X30722520Y-82061151D01*
X30735133Y-82040107D01*
X30749747Y-82020402D01*
X30766223Y-82002223D01*
X30784402Y-81985747D01*
X30804107Y-81971133D01*
X30825151Y-81958520D01*
X30847329Y-81948030D01*
X30870429Y-81939765D01*
X30894227Y-81933804D01*
X30918496Y-81930204D01*
X30943000Y-81929000D01*
X31868000Y-81929000D01*
X31892504Y-81930204D01*
X31892504Y-81930204D01*
G37*
D12*
X31405500Y-82804000D03*
D10*
G36*
X34867504Y-81930204D02*
G01*
X34891773Y-81933804D01*
X34915571Y-81939765D01*
X34938671Y-81948030D01*
X34960849Y-81958520D01*
X34981893Y-81971133D01*
X35001598Y-81985747D01*
X35019777Y-82002223D01*
X35036253Y-82020402D01*
X35050867Y-82040107D01*
X35063480Y-82061151D01*
X35073970Y-82083329D01*
X35082235Y-82106429D01*
X35088196Y-82130227D01*
X35091796Y-82154496D01*
X35093000Y-82179000D01*
X35093000Y-83429000D01*
X35091796Y-83453504D01*
X35088196Y-83477773D01*
X35082235Y-83501571D01*
X35073970Y-83524671D01*
X35063480Y-83546849D01*
X35050867Y-83567893D01*
X35036253Y-83587598D01*
X35019777Y-83605777D01*
X35001598Y-83622253D01*
X34981893Y-83636867D01*
X34960849Y-83649480D01*
X34938671Y-83659970D01*
X34915571Y-83668235D01*
X34891773Y-83674196D01*
X34867504Y-83677796D01*
X34843000Y-83679000D01*
X33918000Y-83679000D01*
X33893496Y-83677796D01*
X33869227Y-83674196D01*
X33845429Y-83668235D01*
X33822329Y-83659970D01*
X33800151Y-83649480D01*
X33779107Y-83636867D01*
X33759402Y-83622253D01*
X33741223Y-83605777D01*
X33724747Y-83587598D01*
X33710133Y-83567893D01*
X33697520Y-83546849D01*
X33687030Y-83524671D01*
X33678765Y-83501571D01*
X33672804Y-83477773D01*
X33669204Y-83453504D01*
X33668000Y-83429000D01*
X33668000Y-82179000D01*
X33669204Y-82154496D01*
X33672804Y-82130227D01*
X33678765Y-82106429D01*
X33687030Y-82083329D01*
X33697520Y-82061151D01*
X33710133Y-82040107D01*
X33724747Y-82020402D01*
X33741223Y-82002223D01*
X33759402Y-81985747D01*
X33779107Y-81971133D01*
X33800151Y-81958520D01*
X33822329Y-81948030D01*
X33845429Y-81939765D01*
X33869227Y-81933804D01*
X33893496Y-81930204D01*
X33918000Y-81929000D01*
X34843000Y-81929000D01*
X34867504Y-81930204D01*
X34867504Y-81930204D01*
G37*
D12*
X34380500Y-82804000D03*
D10*
G36*
X34740504Y-102123204D02*
G01*
X34764773Y-102126804D01*
X34788571Y-102132765D01*
X34811671Y-102141030D01*
X34833849Y-102151520D01*
X34854893Y-102164133D01*
X34874598Y-102178747D01*
X34892777Y-102195223D01*
X34909253Y-102213402D01*
X34923867Y-102233107D01*
X34936480Y-102254151D01*
X34946970Y-102276329D01*
X34955235Y-102299429D01*
X34961196Y-102323227D01*
X34964796Y-102347496D01*
X34966000Y-102372000D01*
X34966000Y-103622000D01*
X34964796Y-103646504D01*
X34961196Y-103670773D01*
X34955235Y-103694571D01*
X34946970Y-103717671D01*
X34936480Y-103739849D01*
X34923867Y-103760893D01*
X34909253Y-103780598D01*
X34892777Y-103798777D01*
X34874598Y-103815253D01*
X34854893Y-103829867D01*
X34833849Y-103842480D01*
X34811671Y-103852970D01*
X34788571Y-103861235D01*
X34764773Y-103867196D01*
X34740504Y-103870796D01*
X34716000Y-103872000D01*
X33791000Y-103872000D01*
X33766496Y-103870796D01*
X33742227Y-103867196D01*
X33718429Y-103861235D01*
X33695329Y-103852970D01*
X33673151Y-103842480D01*
X33652107Y-103829867D01*
X33632402Y-103815253D01*
X33614223Y-103798777D01*
X33597747Y-103780598D01*
X33583133Y-103760893D01*
X33570520Y-103739849D01*
X33560030Y-103717671D01*
X33551765Y-103694571D01*
X33545804Y-103670773D01*
X33542204Y-103646504D01*
X33541000Y-103622000D01*
X33541000Y-102372000D01*
X33542204Y-102347496D01*
X33545804Y-102323227D01*
X33551765Y-102299429D01*
X33560030Y-102276329D01*
X33570520Y-102254151D01*
X33583133Y-102233107D01*
X33597747Y-102213402D01*
X33614223Y-102195223D01*
X33632402Y-102178747D01*
X33652107Y-102164133D01*
X33673151Y-102151520D01*
X33695329Y-102141030D01*
X33718429Y-102132765D01*
X33742227Y-102126804D01*
X33766496Y-102123204D01*
X33791000Y-102122000D01*
X34716000Y-102122000D01*
X34740504Y-102123204D01*
X34740504Y-102123204D01*
G37*
D12*
X34253500Y-102997000D03*
D10*
G36*
X31765504Y-102123204D02*
G01*
X31789773Y-102126804D01*
X31813571Y-102132765D01*
X31836671Y-102141030D01*
X31858849Y-102151520D01*
X31879893Y-102164133D01*
X31899598Y-102178747D01*
X31917777Y-102195223D01*
X31934253Y-102213402D01*
X31948867Y-102233107D01*
X31961480Y-102254151D01*
X31971970Y-102276329D01*
X31980235Y-102299429D01*
X31986196Y-102323227D01*
X31989796Y-102347496D01*
X31991000Y-102372000D01*
X31991000Y-103622000D01*
X31989796Y-103646504D01*
X31986196Y-103670773D01*
X31980235Y-103694571D01*
X31971970Y-103717671D01*
X31961480Y-103739849D01*
X31948867Y-103760893D01*
X31934253Y-103780598D01*
X31917777Y-103798777D01*
X31899598Y-103815253D01*
X31879893Y-103829867D01*
X31858849Y-103842480D01*
X31836671Y-103852970D01*
X31813571Y-103861235D01*
X31789773Y-103867196D01*
X31765504Y-103870796D01*
X31741000Y-103872000D01*
X30816000Y-103872000D01*
X30791496Y-103870796D01*
X30767227Y-103867196D01*
X30743429Y-103861235D01*
X30720329Y-103852970D01*
X30698151Y-103842480D01*
X30677107Y-103829867D01*
X30657402Y-103815253D01*
X30639223Y-103798777D01*
X30622747Y-103780598D01*
X30608133Y-103760893D01*
X30595520Y-103739849D01*
X30585030Y-103717671D01*
X30576765Y-103694571D01*
X30570804Y-103670773D01*
X30567204Y-103646504D01*
X30566000Y-103622000D01*
X30566000Y-102372000D01*
X30567204Y-102347496D01*
X30570804Y-102323227D01*
X30576765Y-102299429D01*
X30585030Y-102276329D01*
X30595520Y-102254151D01*
X30608133Y-102233107D01*
X30622747Y-102213402D01*
X30639223Y-102195223D01*
X30657402Y-102178747D01*
X30677107Y-102164133D01*
X30698151Y-102151520D01*
X30720329Y-102141030D01*
X30743429Y-102132765D01*
X30767227Y-102126804D01*
X30791496Y-102123204D01*
X30816000Y-102122000D01*
X31741000Y-102122000D01*
X31765504Y-102123204D01*
X31765504Y-102123204D01*
G37*
D12*
X31278500Y-102997000D03*
D10*
G36*
X32272504Y-109170704D02*
G01*
X32296773Y-109174304D01*
X32320571Y-109180265D01*
X32343671Y-109188530D01*
X32365849Y-109199020D01*
X32386893Y-109211633D01*
X32406598Y-109226247D01*
X32424777Y-109242723D01*
X32441253Y-109260902D01*
X32455867Y-109280607D01*
X32468480Y-109301651D01*
X32478970Y-109323829D01*
X32487235Y-109346929D01*
X32493196Y-109370727D01*
X32496796Y-109394996D01*
X32498000Y-109419500D01*
X32498000Y-110344500D01*
X32496796Y-110369004D01*
X32493196Y-110393273D01*
X32487235Y-110417071D01*
X32478970Y-110440171D01*
X32468480Y-110462349D01*
X32455867Y-110483393D01*
X32441253Y-110503098D01*
X32424777Y-110521277D01*
X32406598Y-110537753D01*
X32386893Y-110552367D01*
X32365849Y-110564980D01*
X32343671Y-110575470D01*
X32320571Y-110583735D01*
X32296773Y-110589696D01*
X32272504Y-110593296D01*
X32248000Y-110594500D01*
X30998000Y-110594500D01*
X30973496Y-110593296D01*
X30949227Y-110589696D01*
X30925429Y-110583735D01*
X30902329Y-110575470D01*
X30880151Y-110564980D01*
X30859107Y-110552367D01*
X30839402Y-110537753D01*
X30821223Y-110521277D01*
X30804747Y-110503098D01*
X30790133Y-110483393D01*
X30777520Y-110462349D01*
X30767030Y-110440171D01*
X30758765Y-110417071D01*
X30752804Y-110393273D01*
X30749204Y-110369004D01*
X30748000Y-110344500D01*
X30748000Y-109419500D01*
X30749204Y-109394996D01*
X30752804Y-109370727D01*
X30758765Y-109346929D01*
X30767030Y-109323829D01*
X30777520Y-109301651D01*
X30790133Y-109280607D01*
X30804747Y-109260902D01*
X30821223Y-109242723D01*
X30839402Y-109226247D01*
X30859107Y-109211633D01*
X30880151Y-109199020D01*
X30902329Y-109188530D01*
X30925429Y-109180265D01*
X30949227Y-109174304D01*
X30973496Y-109170704D01*
X30998000Y-109169500D01*
X32248000Y-109169500D01*
X32272504Y-109170704D01*
X32272504Y-109170704D01*
G37*
D12*
X31623000Y-109882000D03*
D10*
G36*
X32272504Y-106195704D02*
G01*
X32296773Y-106199304D01*
X32320571Y-106205265D01*
X32343671Y-106213530D01*
X32365849Y-106224020D01*
X32386893Y-106236633D01*
X32406598Y-106251247D01*
X32424777Y-106267723D01*
X32441253Y-106285902D01*
X32455867Y-106305607D01*
X32468480Y-106326651D01*
X32478970Y-106348829D01*
X32487235Y-106371929D01*
X32493196Y-106395727D01*
X32496796Y-106419996D01*
X32498000Y-106444500D01*
X32498000Y-107369500D01*
X32496796Y-107394004D01*
X32493196Y-107418273D01*
X32487235Y-107442071D01*
X32478970Y-107465171D01*
X32468480Y-107487349D01*
X32455867Y-107508393D01*
X32441253Y-107528098D01*
X32424777Y-107546277D01*
X32406598Y-107562753D01*
X32386893Y-107577367D01*
X32365849Y-107589980D01*
X32343671Y-107600470D01*
X32320571Y-107608735D01*
X32296773Y-107614696D01*
X32272504Y-107618296D01*
X32248000Y-107619500D01*
X30998000Y-107619500D01*
X30973496Y-107618296D01*
X30949227Y-107614696D01*
X30925429Y-107608735D01*
X30902329Y-107600470D01*
X30880151Y-107589980D01*
X30859107Y-107577367D01*
X30839402Y-107562753D01*
X30821223Y-107546277D01*
X30804747Y-107528098D01*
X30790133Y-107508393D01*
X30777520Y-107487349D01*
X30767030Y-107465171D01*
X30758765Y-107442071D01*
X30752804Y-107418273D01*
X30749204Y-107394004D01*
X30748000Y-107369500D01*
X30748000Y-106444500D01*
X30749204Y-106419996D01*
X30752804Y-106395727D01*
X30758765Y-106371929D01*
X30767030Y-106348829D01*
X30777520Y-106326651D01*
X30790133Y-106305607D01*
X30804747Y-106285902D01*
X30821223Y-106267723D01*
X30839402Y-106251247D01*
X30859107Y-106236633D01*
X30880151Y-106224020D01*
X30902329Y-106213530D01*
X30925429Y-106205265D01*
X30949227Y-106199304D01*
X30973496Y-106195704D01*
X30998000Y-106194500D01*
X32248000Y-106194500D01*
X32272504Y-106195704D01*
X32272504Y-106195704D01*
G37*
D12*
X31623000Y-106907000D03*
D10*
G36*
X33796504Y-128157204D02*
G01*
X33820773Y-128160804D01*
X33844571Y-128166765D01*
X33867671Y-128175030D01*
X33889849Y-128185520D01*
X33910893Y-128198133D01*
X33930598Y-128212747D01*
X33948777Y-128229223D01*
X33965253Y-128247402D01*
X33979867Y-128267107D01*
X33992480Y-128288151D01*
X34002970Y-128310329D01*
X34011235Y-128333429D01*
X34017196Y-128357227D01*
X34020796Y-128381496D01*
X34022000Y-128406000D01*
X34022000Y-129331000D01*
X34020796Y-129355504D01*
X34017196Y-129379773D01*
X34011235Y-129403571D01*
X34002970Y-129426671D01*
X33992480Y-129448849D01*
X33979867Y-129469893D01*
X33965253Y-129489598D01*
X33948777Y-129507777D01*
X33930598Y-129524253D01*
X33910893Y-129538867D01*
X33889849Y-129551480D01*
X33867671Y-129561970D01*
X33844571Y-129570235D01*
X33820773Y-129576196D01*
X33796504Y-129579796D01*
X33772000Y-129581000D01*
X32522000Y-129581000D01*
X32497496Y-129579796D01*
X32473227Y-129576196D01*
X32449429Y-129570235D01*
X32426329Y-129561970D01*
X32404151Y-129551480D01*
X32383107Y-129538867D01*
X32363402Y-129524253D01*
X32345223Y-129507777D01*
X32328747Y-129489598D01*
X32314133Y-129469893D01*
X32301520Y-129448849D01*
X32291030Y-129426671D01*
X32282765Y-129403571D01*
X32276804Y-129379773D01*
X32273204Y-129355504D01*
X32272000Y-129331000D01*
X32272000Y-128406000D01*
X32273204Y-128381496D01*
X32276804Y-128357227D01*
X32282765Y-128333429D01*
X32291030Y-128310329D01*
X32301520Y-128288151D01*
X32314133Y-128267107D01*
X32328747Y-128247402D01*
X32345223Y-128229223D01*
X32363402Y-128212747D01*
X32383107Y-128198133D01*
X32404151Y-128185520D01*
X32426329Y-128175030D01*
X32449429Y-128166765D01*
X32473227Y-128160804D01*
X32497496Y-128157204D01*
X32522000Y-128156000D01*
X33772000Y-128156000D01*
X33796504Y-128157204D01*
X33796504Y-128157204D01*
G37*
D12*
X33147000Y-128868500D03*
D10*
G36*
X33796504Y-125182204D02*
G01*
X33820773Y-125185804D01*
X33844571Y-125191765D01*
X33867671Y-125200030D01*
X33889849Y-125210520D01*
X33910893Y-125223133D01*
X33930598Y-125237747D01*
X33948777Y-125254223D01*
X33965253Y-125272402D01*
X33979867Y-125292107D01*
X33992480Y-125313151D01*
X34002970Y-125335329D01*
X34011235Y-125358429D01*
X34017196Y-125382227D01*
X34020796Y-125406496D01*
X34022000Y-125431000D01*
X34022000Y-126356000D01*
X34020796Y-126380504D01*
X34017196Y-126404773D01*
X34011235Y-126428571D01*
X34002970Y-126451671D01*
X33992480Y-126473849D01*
X33979867Y-126494893D01*
X33965253Y-126514598D01*
X33948777Y-126532777D01*
X33930598Y-126549253D01*
X33910893Y-126563867D01*
X33889849Y-126576480D01*
X33867671Y-126586970D01*
X33844571Y-126595235D01*
X33820773Y-126601196D01*
X33796504Y-126604796D01*
X33772000Y-126606000D01*
X32522000Y-126606000D01*
X32497496Y-126604796D01*
X32473227Y-126601196D01*
X32449429Y-126595235D01*
X32426329Y-126586970D01*
X32404151Y-126576480D01*
X32383107Y-126563867D01*
X32363402Y-126549253D01*
X32345223Y-126532777D01*
X32328747Y-126514598D01*
X32314133Y-126494893D01*
X32301520Y-126473849D01*
X32291030Y-126451671D01*
X32282765Y-126428571D01*
X32276804Y-126404773D01*
X32273204Y-126380504D01*
X32272000Y-126356000D01*
X32272000Y-125431000D01*
X32273204Y-125406496D01*
X32276804Y-125382227D01*
X32282765Y-125358429D01*
X32291030Y-125335329D01*
X32301520Y-125313151D01*
X32314133Y-125292107D01*
X32328747Y-125272402D01*
X32345223Y-125254223D01*
X32363402Y-125237747D01*
X32383107Y-125223133D01*
X32404151Y-125210520D01*
X32426329Y-125200030D01*
X32449429Y-125191765D01*
X32473227Y-125185804D01*
X32497496Y-125182204D01*
X32522000Y-125181000D01*
X33772000Y-125181000D01*
X33796504Y-125182204D01*
X33796504Y-125182204D01*
G37*
D12*
X33147000Y-125893500D03*
D10*
G36*
X36336504Y-125182204D02*
G01*
X36360773Y-125185804D01*
X36384571Y-125191765D01*
X36407671Y-125200030D01*
X36429849Y-125210520D01*
X36450893Y-125223133D01*
X36470598Y-125237747D01*
X36488777Y-125254223D01*
X36505253Y-125272402D01*
X36519867Y-125292107D01*
X36532480Y-125313151D01*
X36542970Y-125335329D01*
X36551235Y-125358429D01*
X36557196Y-125382227D01*
X36560796Y-125406496D01*
X36562000Y-125431000D01*
X36562000Y-126356000D01*
X36560796Y-126380504D01*
X36557196Y-126404773D01*
X36551235Y-126428571D01*
X36542970Y-126451671D01*
X36532480Y-126473849D01*
X36519867Y-126494893D01*
X36505253Y-126514598D01*
X36488777Y-126532777D01*
X36470598Y-126549253D01*
X36450893Y-126563867D01*
X36429849Y-126576480D01*
X36407671Y-126586970D01*
X36384571Y-126595235D01*
X36360773Y-126601196D01*
X36336504Y-126604796D01*
X36312000Y-126606000D01*
X35062000Y-126606000D01*
X35037496Y-126604796D01*
X35013227Y-126601196D01*
X34989429Y-126595235D01*
X34966329Y-126586970D01*
X34944151Y-126576480D01*
X34923107Y-126563867D01*
X34903402Y-126549253D01*
X34885223Y-126532777D01*
X34868747Y-126514598D01*
X34854133Y-126494893D01*
X34841520Y-126473849D01*
X34831030Y-126451671D01*
X34822765Y-126428571D01*
X34816804Y-126404773D01*
X34813204Y-126380504D01*
X34812000Y-126356000D01*
X34812000Y-125431000D01*
X34813204Y-125406496D01*
X34816804Y-125382227D01*
X34822765Y-125358429D01*
X34831030Y-125335329D01*
X34841520Y-125313151D01*
X34854133Y-125292107D01*
X34868747Y-125272402D01*
X34885223Y-125254223D01*
X34903402Y-125237747D01*
X34923107Y-125223133D01*
X34944151Y-125210520D01*
X34966329Y-125200030D01*
X34989429Y-125191765D01*
X35013227Y-125185804D01*
X35037496Y-125182204D01*
X35062000Y-125181000D01*
X36312000Y-125181000D01*
X36336504Y-125182204D01*
X36336504Y-125182204D01*
G37*
D12*
X35687000Y-125893500D03*
D10*
G36*
X36336504Y-128157204D02*
G01*
X36360773Y-128160804D01*
X36384571Y-128166765D01*
X36407671Y-128175030D01*
X36429849Y-128185520D01*
X36450893Y-128198133D01*
X36470598Y-128212747D01*
X36488777Y-128229223D01*
X36505253Y-128247402D01*
X36519867Y-128267107D01*
X36532480Y-128288151D01*
X36542970Y-128310329D01*
X36551235Y-128333429D01*
X36557196Y-128357227D01*
X36560796Y-128381496D01*
X36562000Y-128406000D01*
X36562000Y-129331000D01*
X36560796Y-129355504D01*
X36557196Y-129379773D01*
X36551235Y-129403571D01*
X36542970Y-129426671D01*
X36532480Y-129448849D01*
X36519867Y-129469893D01*
X36505253Y-129489598D01*
X36488777Y-129507777D01*
X36470598Y-129524253D01*
X36450893Y-129538867D01*
X36429849Y-129551480D01*
X36407671Y-129561970D01*
X36384571Y-129570235D01*
X36360773Y-129576196D01*
X36336504Y-129579796D01*
X36312000Y-129581000D01*
X35062000Y-129581000D01*
X35037496Y-129579796D01*
X35013227Y-129576196D01*
X34989429Y-129570235D01*
X34966329Y-129561970D01*
X34944151Y-129551480D01*
X34923107Y-129538867D01*
X34903402Y-129524253D01*
X34885223Y-129507777D01*
X34868747Y-129489598D01*
X34854133Y-129469893D01*
X34841520Y-129448849D01*
X34831030Y-129426671D01*
X34822765Y-129403571D01*
X34816804Y-129379773D01*
X34813204Y-129355504D01*
X34812000Y-129331000D01*
X34812000Y-128406000D01*
X34813204Y-128381496D01*
X34816804Y-128357227D01*
X34822765Y-128333429D01*
X34831030Y-128310329D01*
X34841520Y-128288151D01*
X34854133Y-128267107D01*
X34868747Y-128247402D01*
X34885223Y-128229223D01*
X34903402Y-128212747D01*
X34923107Y-128198133D01*
X34944151Y-128185520D01*
X34966329Y-128175030D01*
X34989429Y-128166765D01*
X35013227Y-128160804D01*
X35037496Y-128157204D01*
X35062000Y-128156000D01*
X36312000Y-128156000D01*
X36336504Y-128157204D01*
X36336504Y-128157204D01*
G37*
D12*
X35687000Y-128868500D03*
D10*
G36*
X33796504Y-133564204D02*
G01*
X33820773Y-133567804D01*
X33844571Y-133573765D01*
X33867671Y-133582030D01*
X33889849Y-133592520D01*
X33910893Y-133605133D01*
X33930598Y-133619747D01*
X33948777Y-133636223D01*
X33965253Y-133654402D01*
X33979867Y-133674107D01*
X33992480Y-133695151D01*
X34002970Y-133717329D01*
X34011235Y-133740429D01*
X34017196Y-133764227D01*
X34020796Y-133788496D01*
X34022000Y-133813000D01*
X34022000Y-134738000D01*
X34020796Y-134762504D01*
X34017196Y-134786773D01*
X34011235Y-134810571D01*
X34002970Y-134833671D01*
X33992480Y-134855849D01*
X33979867Y-134876893D01*
X33965253Y-134896598D01*
X33948777Y-134914777D01*
X33930598Y-134931253D01*
X33910893Y-134945867D01*
X33889849Y-134958480D01*
X33867671Y-134968970D01*
X33844571Y-134977235D01*
X33820773Y-134983196D01*
X33796504Y-134986796D01*
X33772000Y-134988000D01*
X32522000Y-134988000D01*
X32497496Y-134986796D01*
X32473227Y-134983196D01*
X32449429Y-134977235D01*
X32426329Y-134968970D01*
X32404151Y-134958480D01*
X32383107Y-134945867D01*
X32363402Y-134931253D01*
X32345223Y-134914777D01*
X32328747Y-134896598D01*
X32314133Y-134876893D01*
X32301520Y-134855849D01*
X32291030Y-134833671D01*
X32282765Y-134810571D01*
X32276804Y-134786773D01*
X32273204Y-134762504D01*
X32272000Y-134738000D01*
X32272000Y-133813000D01*
X32273204Y-133788496D01*
X32276804Y-133764227D01*
X32282765Y-133740429D01*
X32291030Y-133717329D01*
X32301520Y-133695151D01*
X32314133Y-133674107D01*
X32328747Y-133654402D01*
X32345223Y-133636223D01*
X32363402Y-133619747D01*
X32383107Y-133605133D01*
X32404151Y-133592520D01*
X32426329Y-133582030D01*
X32449429Y-133573765D01*
X32473227Y-133567804D01*
X32497496Y-133564204D01*
X32522000Y-133563000D01*
X33772000Y-133563000D01*
X33796504Y-133564204D01*
X33796504Y-133564204D01*
G37*
D12*
X33147000Y-134275500D03*
D10*
G36*
X33796504Y-136539204D02*
G01*
X33820773Y-136542804D01*
X33844571Y-136548765D01*
X33867671Y-136557030D01*
X33889849Y-136567520D01*
X33910893Y-136580133D01*
X33930598Y-136594747D01*
X33948777Y-136611223D01*
X33965253Y-136629402D01*
X33979867Y-136649107D01*
X33992480Y-136670151D01*
X34002970Y-136692329D01*
X34011235Y-136715429D01*
X34017196Y-136739227D01*
X34020796Y-136763496D01*
X34022000Y-136788000D01*
X34022000Y-137713000D01*
X34020796Y-137737504D01*
X34017196Y-137761773D01*
X34011235Y-137785571D01*
X34002970Y-137808671D01*
X33992480Y-137830849D01*
X33979867Y-137851893D01*
X33965253Y-137871598D01*
X33948777Y-137889777D01*
X33930598Y-137906253D01*
X33910893Y-137920867D01*
X33889849Y-137933480D01*
X33867671Y-137943970D01*
X33844571Y-137952235D01*
X33820773Y-137958196D01*
X33796504Y-137961796D01*
X33772000Y-137963000D01*
X32522000Y-137963000D01*
X32497496Y-137961796D01*
X32473227Y-137958196D01*
X32449429Y-137952235D01*
X32426329Y-137943970D01*
X32404151Y-137933480D01*
X32383107Y-137920867D01*
X32363402Y-137906253D01*
X32345223Y-137889777D01*
X32328747Y-137871598D01*
X32314133Y-137851893D01*
X32301520Y-137830849D01*
X32291030Y-137808671D01*
X32282765Y-137785571D01*
X32276804Y-137761773D01*
X32273204Y-137737504D01*
X32272000Y-137713000D01*
X32272000Y-136788000D01*
X32273204Y-136763496D01*
X32276804Y-136739227D01*
X32282765Y-136715429D01*
X32291030Y-136692329D01*
X32301520Y-136670151D01*
X32314133Y-136649107D01*
X32328747Y-136629402D01*
X32345223Y-136611223D01*
X32363402Y-136594747D01*
X32383107Y-136580133D01*
X32404151Y-136567520D01*
X32426329Y-136557030D01*
X32449429Y-136548765D01*
X32473227Y-136542804D01*
X32497496Y-136539204D01*
X32522000Y-136538000D01*
X33772000Y-136538000D01*
X33796504Y-136539204D01*
X33796504Y-136539204D01*
G37*
D12*
X33147000Y-137250500D03*
D10*
G36*
X56203504Y-134127204D02*
G01*
X56227773Y-134130804D01*
X56251571Y-134136765D01*
X56274671Y-134145030D01*
X56296849Y-134155520D01*
X56317893Y-134168133D01*
X56337598Y-134182747D01*
X56355777Y-134199223D01*
X56372253Y-134217402D01*
X56386867Y-134237107D01*
X56399480Y-134258151D01*
X56409970Y-134280329D01*
X56418235Y-134303429D01*
X56424196Y-134327227D01*
X56427796Y-134351496D01*
X56429000Y-134376000D01*
X56429000Y-135626000D01*
X56427796Y-135650504D01*
X56424196Y-135674773D01*
X56418235Y-135698571D01*
X56409970Y-135721671D01*
X56399480Y-135743849D01*
X56386867Y-135764893D01*
X56372253Y-135784598D01*
X56355777Y-135802777D01*
X56337598Y-135819253D01*
X56317893Y-135833867D01*
X56296849Y-135846480D01*
X56274671Y-135856970D01*
X56251571Y-135865235D01*
X56227773Y-135871196D01*
X56203504Y-135874796D01*
X56179000Y-135876000D01*
X55254000Y-135876000D01*
X55229496Y-135874796D01*
X55205227Y-135871196D01*
X55181429Y-135865235D01*
X55158329Y-135856970D01*
X55136151Y-135846480D01*
X55115107Y-135833867D01*
X55095402Y-135819253D01*
X55077223Y-135802777D01*
X55060747Y-135784598D01*
X55046133Y-135764893D01*
X55033520Y-135743849D01*
X55023030Y-135721671D01*
X55014765Y-135698571D01*
X55008804Y-135674773D01*
X55005204Y-135650504D01*
X55004000Y-135626000D01*
X55004000Y-134376000D01*
X55005204Y-134351496D01*
X55008804Y-134327227D01*
X55014765Y-134303429D01*
X55023030Y-134280329D01*
X55033520Y-134258151D01*
X55046133Y-134237107D01*
X55060747Y-134217402D01*
X55077223Y-134199223D01*
X55095402Y-134182747D01*
X55115107Y-134168133D01*
X55136151Y-134155520D01*
X55158329Y-134145030D01*
X55181429Y-134136765D01*
X55205227Y-134130804D01*
X55229496Y-134127204D01*
X55254000Y-134126000D01*
X56179000Y-134126000D01*
X56203504Y-134127204D01*
X56203504Y-134127204D01*
G37*
D12*
X55716500Y-135001000D03*
D10*
G36*
X53228504Y-134127204D02*
G01*
X53252773Y-134130804D01*
X53276571Y-134136765D01*
X53299671Y-134145030D01*
X53321849Y-134155520D01*
X53342893Y-134168133D01*
X53362598Y-134182747D01*
X53380777Y-134199223D01*
X53397253Y-134217402D01*
X53411867Y-134237107D01*
X53424480Y-134258151D01*
X53434970Y-134280329D01*
X53443235Y-134303429D01*
X53449196Y-134327227D01*
X53452796Y-134351496D01*
X53454000Y-134376000D01*
X53454000Y-135626000D01*
X53452796Y-135650504D01*
X53449196Y-135674773D01*
X53443235Y-135698571D01*
X53434970Y-135721671D01*
X53424480Y-135743849D01*
X53411867Y-135764893D01*
X53397253Y-135784598D01*
X53380777Y-135802777D01*
X53362598Y-135819253D01*
X53342893Y-135833867D01*
X53321849Y-135846480D01*
X53299671Y-135856970D01*
X53276571Y-135865235D01*
X53252773Y-135871196D01*
X53228504Y-135874796D01*
X53204000Y-135876000D01*
X52279000Y-135876000D01*
X52254496Y-135874796D01*
X52230227Y-135871196D01*
X52206429Y-135865235D01*
X52183329Y-135856970D01*
X52161151Y-135846480D01*
X52140107Y-135833867D01*
X52120402Y-135819253D01*
X52102223Y-135802777D01*
X52085747Y-135784598D01*
X52071133Y-135764893D01*
X52058520Y-135743849D01*
X52048030Y-135721671D01*
X52039765Y-135698571D01*
X52033804Y-135674773D01*
X52030204Y-135650504D01*
X52029000Y-135626000D01*
X52029000Y-134376000D01*
X52030204Y-134351496D01*
X52033804Y-134327227D01*
X52039765Y-134303429D01*
X52048030Y-134280329D01*
X52058520Y-134258151D01*
X52071133Y-134237107D01*
X52085747Y-134217402D01*
X52102223Y-134199223D01*
X52120402Y-134182747D01*
X52140107Y-134168133D01*
X52161151Y-134155520D01*
X52183329Y-134145030D01*
X52206429Y-134136765D01*
X52230227Y-134130804D01*
X52254496Y-134127204D01*
X52279000Y-134126000D01*
X53204000Y-134126000D01*
X53228504Y-134127204D01*
X53228504Y-134127204D01*
G37*
D12*
X52741500Y-135001000D03*
D10*
G36*
X48021504Y-132984204D02*
G01*
X48045773Y-132987804D01*
X48069571Y-132993765D01*
X48092671Y-133002030D01*
X48114849Y-133012520D01*
X48135893Y-133025133D01*
X48155598Y-133039747D01*
X48173777Y-133056223D01*
X48190253Y-133074402D01*
X48204867Y-133094107D01*
X48217480Y-133115151D01*
X48227970Y-133137329D01*
X48236235Y-133160429D01*
X48242196Y-133184227D01*
X48245796Y-133208496D01*
X48247000Y-133233000D01*
X48247000Y-134483000D01*
X48245796Y-134507504D01*
X48242196Y-134531773D01*
X48236235Y-134555571D01*
X48227970Y-134578671D01*
X48217480Y-134600849D01*
X48204867Y-134621893D01*
X48190253Y-134641598D01*
X48173777Y-134659777D01*
X48155598Y-134676253D01*
X48135893Y-134690867D01*
X48114849Y-134703480D01*
X48092671Y-134713970D01*
X48069571Y-134722235D01*
X48045773Y-134728196D01*
X48021504Y-134731796D01*
X47997000Y-134733000D01*
X47072000Y-134733000D01*
X47047496Y-134731796D01*
X47023227Y-134728196D01*
X46999429Y-134722235D01*
X46976329Y-134713970D01*
X46954151Y-134703480D01*
X46933107Y-134690867D01*
X46913402Y-134676253D01*
X46895223Y-134659777D01*
X46878747Y-134641598D01*
X46864133Y-134621893D01*
X46851520Y-134600849D01*
X46841030Y-134578671D01*
X46832765Y-134555571D01*
X46826804Y-134531773D01*
X46823204Y-134507504D01*
X46822000Y-134483000D01*
X46822000Y-133233000D01*
X46823204Y-133208496D01*
X46826804Y-133184227D01*
X46832765Y-133160429D01*
X46841030Y-133137329D01*
X46851520Y-133115151D01*
X46864133Y-133094107D01*
X46878747Y-133074402D01*
X46895223Y-133056223D01*
X46913402Y-133039747D01*
X46933107Y-133025133D01*
X46954151Y-133012520D01*
X46976329Y-133002030D01*
X46999429Y-132993765D01*
X47023227Y-132987804D01*
X47047496Y-132984204D01*
X47072000Y-132983000D01*
X47997000Y-132983000D01*
X48021504Y-132984204D01*
X48021504Y-132984204D01*
G37*
D12*
X47534500Y-133858000D03*
D10*
G36*
X50996504Y-132984204D02*
G01*
X51020773Y-132987804D01*
X51044571Y-132993765D01*
X51067671Y-133002030D01*
X51089849Y-133012520D01*
X51110893Y-133025133D01*
X51130598Y-133039747D01*
X51148777Y-133056223D01*
X51165253Y-133074402D01*
X51179867Y-133094107D01*
X51192480Y-133115151D01*
X51202970Y-133137329D01*
X51211235Y-133160429D01*
X51217196Y-133184227D01*
X51220796Y-133208496D01*
X51222000Y-133233000D01*
X51222000Y-134483000D01*
X51220796Y-134507504D01*
X51217196Y-134531773D01*
X51211235Y-134555571D01*
X51202970Y-134578671D01*
X51192480Y-134600849D01*
X51179867Y-134621893D01*
X51165253Y-134641598D01*
X51148777Y-134659777D01*
X51130598Y-134676253D01*
X51110893Y-134690867D01*
X51089849Y-134703480D01*
X51067671Y-134713970D01*
X51044571Y-134722235D01*
X51020773Y-134728196D01*
X50996504Y-134731796D01*
X50972000Y-134733000D01*
X50047000Y-134733000D01*
X50022496Y-134731796D01*
X49998227Y-134728196D01*
X49974429Y-134722235D01*
X49951329Y-134713970D01*
X49929151Y-134703480D01*
X49908107Y-134690867D01*
X49888402Y-134676253D01*
X49870223Y-134659777D01*
X49853747Y-134641598D01*
X49839133Y-134621893D01*
X49826520Y-134600849D01*
X49816030Y-134578671D01*
X49807765Y-134555571D01*
X49801804Y-134531773D01*
X49798204Y-134507504D01*
X49797000Y-134483000D01*
X49797000Y-133233000D01*
X49798204Y-133208496D01*
X49801804Y-133184227D01*
X49807765Y-133160429D01*
X49816030Y-133137329D01*
X49826520Y-133115151D01*
X49839133Y-133094107D01*
X49853747Y-133074402D01*
X49870223Y-133056223D01*
X49888402Y-133039747D01*
X49908107Y-133025133D01*
X49929151Y-133012520D01*
X49951329Y-133002030D01*
X49974429Y-132993765D01*
X49998227Y-132987804D01*
X50022496Y-132984204D01*
X50047000Y-132983000D01*
X50972000Y-132983000D01*
X50996504Y-132984204D01*
X50996504Y-132984204D01*
G37*
D12*
X50509500Y-133858000D03*
D10*
G36*
X52647504Y-45862204D02*
G01*
X52671773Y-45865804D01*
X52695571Y-45871765D01*
X52718671Y-45880030D01*
X52740849Y-45890520D01*
X52761893Y-45903133D01*
X52781598Y-45917747D01*
X52799777Y-45934223D01*
X52816253Y-45952402D01*
X52830867Y-45972107D01*
X52843480Y-45993151D01*
X52853970Y-46015329D01*
X52862235Y-46038429D01*
X52868196Y-46062227D01*
X52871796Y-46086496D01*
X52873000Y-46111000D01*
X52873000Y-47361000D01*
X52871796Y-47385504D01*
X52868196Y-47409773D01*
X52862235Y-47433571D01*
X52853970Y-47456671D01*
X52843480Y-47478849D01*
X52830867Y-47499893D01*
X52816253Y-47519598D01*
X52799777Y-47537777D01*
X52781598Y-47554253D01*
X52761893Y-47568867D01*
X52740849Y-47581480D01*
X52718671Y-47591970D01*
X52695571Y-47600235D01*
X52671773Y-47606196D01*
X52647504Y-47609796D01*
X52623000Y-47611000D01*
X51698000Y-47611000D01*
X51673496Y-47609796D01*
X51649227Y-47606196D01*
X51625429Y-47600235D01*
X51602329Y-47591970D01*
X51580151Y-47581480D01*
X51559107Y-47568867D01*
X51539402Y-47554253D01*
X51521223Y-47537777D01*
X51504747Y-47519598D01*
X51490133Y-47499893D01*
X51477520Y-47478849D01*
X51467030Y-47456671D01*
X51458765Y-47433571D01*
X51452804Y-47409773D01*
X51449204Y-47385504D01*
X51448000Y-47361000D01*
X51448000Y-46111000D01*
X51449204Y-46086496D01*
X51452804Y-46062227D01*
X51458765Y-46038429D01*
X51467030Y-46015329D01*
X51477520Y-45993151D01*
X51490133Y-45972107D01*
X51504747Y-45952402D01*
X51521223Y-45934223D01*
X51539402Y-45917747D01*
X51559107Y-45903133D01*
X51580151Y-45890520D01*
X51602329Y-45880030D01*
X51625429Y-45871765D01*
X51649227Y-45865804D01*
X51673496Y-45862204D01*
X51698000Y-45861000D01*
X52623000Y-45861000D01*
X52647504Y-45862204D01*
X52647504Y-45862204D01*
G37*
D12*
X52160500Y-46736000D03*
D10*
G36*
X49672504Y-45862204D02*
G01*
X49696773Y-45865804D01*
X49720571Y-45871765D01*
X49743671Y-45880030D01*
X49765849Y-45890520D01*
X49786893Y-45903133D01*
X49806598Y-45917747D01*
X49824777Y-45934223D01*
X49841253Y-45952402D01*
X49855867Y-45972107D01*
X49868480Y-45993151D01*
X49878970Y-46015329D01*
X49887235Y-46038429D01*
X49893196Y-46062227D01*
X49896796Y-46086496D01*
X49898000Y-46111000D01*
X49898000Y-47361000D01*
X49896796Y-47385504D01*
X49893196Y-47409773D01*
X49887235Y-47433571D01*
X49878970Y-47456671D01*
X49868480Y-47478849D01*
X49855867Y-47499893D01*
X49841253Y-47519598D01*
X49824777Y-47537777D01*
X49806598Y-47554253D01*
X49786893Y-47568867D01*
X49765849Y-47581480D01*
X49743671Y-47591970D01*
X49720571Y-47600235D01*
X49696773Y-47606196D01*
X49672504Y-47609796D01*
X49648000Y-47611000D01*
X48723000Y-47611000D01*
X48698496Y-47609796D01*
X48674227Y-47606196D01*
X48650429Y-47600235D01*
X48627329Y-47591970D01*
X48605151Y-47581480D01*
X48584107Y-47568867D01*
X48564402Y-47554253D01*
X48546223Y-47537777D01*
X48529747Y-47519598D01*
X48515133Y-47499893D01*
X48502520Y-47478849D01*
X48492030Y-47456671D01*
X48483765Y-47433571D01*
X48477804Y-47409773D01*
X48474204Y-47385504D01*
X48473000Y-47361000D01*
X48473000Y-46111000D01*
X48474204Y-46086496D01*
X48477804Y-46062227D01*
X48483765Y-46038429D01*
X48492030Y-46015329D01*
X48502520Y-45993151D01*
X48515133Y-45972107D01*
X48529747Y-45952402D01*
X48546223Y-45934223D01*
X48564402Y-45917747D01*
X48584107Y-45903133D01*
X48605151Y-45890520D01*
X48627329Y-45880030D01*
X48650429Y-45871765D01*
X48674227Y-45865804D01*
X48698496Y-45862204D01*
X48723000Y-45861000D01*
X49648000Y-45861000D01*
X49672504Y-45862204D01*
X49672504Y-45862204D01*
G37*
D12*
X49185500Y-46736000D03*
D10*
G36*
X52647504Y-67862204D02*
G01*
X52671773Y-67865804D01*
X52695571Y-67871765D01*
X52718671Y-67880030D01*
X52740849Y-67890520D01*
X52761893Y-67903133D01*
X52781598Y-67917747D01*
X52799777Y-67934223D01*
X52816253Y-67952402D01*
X52830867Y-67972107D01*
X52843480Y-67993151D01*
X52853970Y-68015329D01*
X52862235Y-68038429D01*
X52868196Y-68062227D01*
X52871796Y-68086496D01*
X52873000Y-68111000D01*
X52873000Y-69361000D01*
X52871796Y-69385504D01*
X52868196Y-69409773D01*
X52862235Y-69433571D01*
X52853970Y-69456671D01*
X52843480Y-69478849D01*
X52830867Y-69499893D01*
X52816253Y-69519598D01*
X52799777Y-69537777D01*
X52781598Y-69554253D01*
X52761893Y-69568867D01*
X52740849Y-69581480D01*
X52718671Y-69591970D01*
X52695571Y-69600235D01*
X52671773Y-69606196D01*
X52647504Y-69609796D01*
X52623000Y-69611000D01*
X51698000Y-69611000D01*
X51673496Y-69609796D01*
X51649227Y-69606196D01*
X51625429Y-69600235D01*
X51602329Y-69591970D01*
X51580151Y-69581480D01*
X51559107Y-69568867D01*
X51539402Y-69554253D01*
X51521223Y-69537777D01*
X51504747Y-69519598D01*
X51490133Y-69499893D01*
X51477520Y-69478849D01*
X51467030Y-69456671D01*
X51458765Y-69433571D01*
X51452804Y-69409773D01*
X51449204Y-69385504D01*
X51448000Y-69361000D01*
X51448000Y-68111000D01*
X51449204Y-68086496D01*
X51452804Y-68062227D01*
X51458765Y-68038429D01*
X51467030Y-68015329D01*
X51477520Y-67993151D01*
X51490133Y-67972107D01*
X51504747Y-67952402D01*
X51521223Y-67934223D01*
X51539402Y-67917747D01*
X51559107Y-67903133D01*
X51580151Y-67890520D01*
X51602329Y-67880030D01*
X51625429Y-67871765D01*
X51649227Y-67865804D01*
X51673496Y-67862204D01*
X51698000Y-67861000D01*
X52623000Y-67861000D01*
X52647504Y-67862204D01*
X52647504Y-67862204D01*
G37*
D12*
X52160500Y-68736000D03*
D10*
G36*
X49672504Y-67862204D02*
G01*
X49696773Y-67865804D01*
X49720571Y-67871765D01*
X49743671Y-67880030D01*
X49765849Y-67890520D01*
X49786893Y-67903133D01*
X49806598Y-67917747D01*
X49824777Y-67934223D01*
X49841253Y-67952402D01*
X49855867Y-67972107D01*
X49868480Y-67993151D01*
X49878970Y-68015329D01*
X49887235Y-68038429D01*
X49893196Y-68062227D01*
X49896796Y-68086496D01*
X49898000Y-68111000D01*
X49898000Y-69361000D01*
X49896796Y-69385504D01*
X49893196Y-69409773D01*
X49887235Y-69433571D01*
X49878970Y-69456671D01*
X49868480Y-69478849D01*
X49855867Y-69499893D01*
X49841253Y-69519598D01*
X49824777Y-69537777D01*
X49806598Y-69554253D01*
X49786893Y-69568867D01*
X49765849Y-69581480D01*
X49743671Y-69591970D01*
X49720571Y-69600235D01*
X49696773Y-69606196D01*
X49672504Y-69609796D01*
X49648000Y-69611000D01*
X48723000Y-69611000D01*
X48698496Y-69609796D01*
X48674227Y-69606196D01*
X48650429Y-69600235D01*
X48627329Y-69591970D01*
X48605151Y-69581480D01*
X48584107Y-69568867D01*
X48564402Y-69554253D01*
X48546223Y-69537777D01*
X48529747Y-69519598D01*
X48515133Y-69499893D01*
X48502520Y-69478849D01*
X48492030Y-69456671D01*
X48483765Y-69433571D01*
X48477804Y-69409773D01*
X48474204Y-69385504D01*
X48473000Y-69361000D01*
X48473000Y-68111000D01*
X48474204Y-68086496D01*
X48477804Y-68062227D01*
X48483765Y-68038429D01*
X48492030Y-68015329D01*
X48502520Y-67993151D01*
X48515133Y-67972107D01*
X48529747Y-67952402D01*
X48546223Y-67934223D01*
X48564402Y-67917747D01*
X48584107Y-67903133D01*
X48605151Y-67890520D01*
X48627329Y-67880030D01*
X48650429Y-67871765D01*
X48674227Y-67865804D01*
X48698496Y-67862204D01*
X48723000Y-67861000D01*
X49648000Y-67861000D01*
X49672504Y-67862204D01*
X49672504Y-67862204D01*
G37*
D12*
X49185500Y-68736000D03*
D10*
G36*
X52520504Y-90312204D02*
G01*
X52544773Y-90315804D01*
X52568571Y-90321765D01*
X52591671Y-90330030D01*
X52613849Y-90340520D01*
X52634893Y-90353133D01*
X52654598Y-90367747D01*
X52672777Y-90384223D01*
X52689253Y-90402402D01*
X52703867Y-90422107D01*
X52716480Y-90443151D01*
X52726970Y-90465329D01*
X52735235Y-90488429D01*
X52741196Y-90512227D01*
X52744796Y-90536496D01*
X52746000Y-90561000D01*
X52746000Y-91811000D01*
X52744796Y-91835504D01*
X52741196Y-91859773D01*
X52735235Y-91883571D01*
X52726970Y-91906671D01*
X52716480Y-91928849D01*
X52703867Y-91949893D01*
X52689253Y-91969598D01*
X52672777Y-91987777D01*
X52654598Y-92004253D01*
X52634893Y-92018867D01*
X52613849Y-92031480D01*
X52591671Y-92041970D01*
X52568571Y-92050235D01*
X52544773Y-92056196D01*
X52520504Y-92059796D01*
X52496000Y-92061000D01*
X51571000Y-92061000D01*
X51546496Y-92059796D01*
X51522227Y-92056196D01*
X51498429Y-92050235D01*
X51475329Y-92041970D01*
X51453151Y-92031480D01*
X51432107Y-92018867D01*
X51412402Y-92004253D01*
X51394223Y-91987777D01*
X51377747Y-91969598D01*
X51363133Y-91949893D01*
X51350520Y-91928849D01*
X51340030Y-91906671D01*
X51331765Y-91883571D01*
X51325804Y-91859773D01*
X51322204Y-91835504D01*
X51321000Y-91811000D01*
X51321000Y-90561000D01*
X51322204Y-90536496D01*
X51325804Y-90512227D01*
X51331765Y-90488429D01*
X51340030Y-90465329D01*
X51350520Y-90443151D01*
X51363133Y-90422107D01*
X51377747Y-90402402D01*
X51394223Y-90384223D01*
X51412402Y-90367747D01*
X51432107Y-90353133D01*
X51453151Y-90340520D01*
X51475329Y-90330030D01*
X51498429Y-90321765D01*
X51522227Y-90315804D01*
X51546496Y-90312204D01*
X51571000Y-90311000D01*
X52496000Y-90311000D01*
X52520504Y-90312204D01*
X52520504Y-90312204D01*
G37*
D12*
X52033500Y-91186000D03*
D10*
G36*
X49545504Y-90312204D02*
G01*
X49569773Y-90315804D01*
X49593571Y-90321765D01*
X49616671Y-90330030D01*
X49638849Y-90340520D01*
X49659893Y-90353133D01*
X49679598Y-90367747D01*
X49697777Y-90384223D01*
X49714253Y-90402402D01*
X49728867Y-90422107D01*
X49741480Y-90443151D01*
X49751970Y-90465329D01*
X49760235Y-90488429D01*
X49766196Y-90512227D01*
X49769796Y-90536496D01*
X49771000Y-90561000D01*
X49771000Y-91811000D01*
X49769796Y-91835504D01*
X49766196Y-91859773D01*
X49760235Y-91883571D01*
X49751970Y-91906671D01*
X49741480Y-91928849D01*
X49728867Y-91949893D01*
X49714253Y-91969598D01*
X49697777Y-91987777D01*
X49679598Y-92004253D01*
X49659893Y-92018867D01*
X49638849Y-92031480D01*
X49616671Y-92041970D01*
X49593571Y-92050235D01*
X49569773Y-92056196D01*
X49545504Y-92059796D01*
X49521000Y-92061000D01*
X48596000Y-92061000D01*
X48571496Y-92059796D01*
X48547227Y-92056196D01*
X48523429Y-92050235D01*
X48500329Y-92041970D01*
X48478151Y-92031480D01*
X48457107Y-92018867D01*
X48437402Y-92004253D01*
X48419223Y-91987777D01*
X48402747Y-91969598D01*
X48388133Y-91949893D01*
X48375520Y-91928849D01*
X48365030Y-91906671D01*
X48356765Y-91883571D01*
X48350804Y-91859773D01*
X48347204Y-91835504D01*
X48346000Y-91811000D01*
X48346000Y-90561000D01*
X48347204Y-90536496D01*
X48350804Y-90512227D01*
X48356765Y-90488429D01*
X48365030Y-90465329D01*
X48375520Y-90443151D01*
X48388133Y-90422107D01*
X48402747Y-90402402D01*
X48419223Y-90384223D01*
X48437402Y-90367747D01*
X48457107Y-90353133D01*
X48478151Y-90340520D01*
X48500329Y-90330030D01*
X48523429Y-90321765D01*
X48547227Y-90315804D01*
X48571496Y-90312204D01*
X48596000Y-90311000D01*
X49521000Y-90311000D01*
X49545504Y-90312204D01*
X49545504Y-90312204D01*
G37*
D12*
X49058500Y-91186000D03*
D10*
G36*
X49418504Y-105933204D02*
G01*
X49442773Y-105936804D01*
X49466571Y-105942765D01*
X49489671Y-105951030D01*
X49511849Y-105961520D01*
X49532893Y-105974133D01*
X49552598Y-105988747D01*
X49570777Y-106005223D01*
X49587253Y-106023402D01*
X49601867Y-106043107D01*
X49614480Y-106064151D01*
X49624970Y-106086329D01*
X49633235Y-106109429D01*
X49639196Y-106133227D01*
X49642796Y-106157496D01*
X49644000Y-106182000D01*
X49644000Y-107432000D01*
X49642796Y-107456504D01*
X49639196Y-107480773D01*
X49633235Y-107504571D01*
X49624970Y-107527671D01*
X49614480Y-107549849D01*
X49601867Y-107570893D01*
X49587253Y-107590598D01*
X49570777Y-107608777D01*
X49552598Y-107625253D01*
X49532893Y-107639867D01*
X49511849Y-107652480D01*
X49489671Y-107662970D01*
X49466571Y-107671235D01*
X49442773Y-107677196D01*
X49418504Y-107680796D01*
X49394000Y-107682000D01*
X48469000Y-107682000D01*
X48444496Y-107680796D01*
X48420227Y-107677196D01*
X48396429Y-107671235D01*
X48373329Y-107662970D01*
X48351151Y-107652480D01*
X48330107Y-107639867D01*
X48310402Y-107625253D01*
X48292223Y-107608777D01*
X48275747Y-107590598D01*
X48261133Y-107570893D01*
X48248520Y-107549849D01*
X48238030Y-107527671D01*
X48229765Y-107504571D01*
X48223804Y-107480773D01*
X48220204Y-107456504D01*
X48219000Y-107432000D01*
X48219000Y-106182000D01*
X48220204Y-106157496D01*
X48223804Y-106133227D01*
X48229765Y-106109429D01*
X48238030Y-106086329D01*
X48248520Y-106064151D01*
X48261133Y-106043107D01*
X48275747Y-106023402D01*
X48292223Y-106005223D01*
X48310402Y-105988747D01*
X48330107Y-105974133D01*
X48351151Y-105961520D01*
X48373329Y-105951030D01*
X48396429Y-105942765D01*
X48420227Y-105936804D01*
X48444496Y-105933204D01*
X48469000Y-105932000D01*
X49394000Y-105932000D01*
X49418504Y-105933204D01*
X49418504Y-105933204D01*
G37*
D12*
X48931500Y-106807000D03*
D10*
G36*
X52393504Y-105933204D02*
G01*
X52417773Y-105936804D01*
X52441571Y-105942765D01*
X52464671Y-105951030D01*
X52486849Y-105961520D01*
X52507893Y-105974133D01*
X52527598Y-105988747D01*
X52545777Y-106005223D01*
X52562253Y-106023402D01*
X52576867Y-106043107D01*
X52589480Y-106064151D01*
X52599970Y-106086329D01*
X52608235Y-106109429D01*
X52614196Y-106133227D01*
X52617796Y-106157496D01*
X52619000Y-106182000D01*
X52619000Y-107432000D01*
X52617796Y-107456504D01*
X52614196Y-107480773D01*
X52608235Y-107504571D01*
X52599970Y-107527671D01*
X52589480Y-107549849D01*
X52576867Y-107570893D01*
X52562253Y-107590598D01*
X52545777Y-107608777D01*
X52527598Y-107625253D01*
X52507893Y-107639867D01*
X52486849Y-107652480D01*
X52464671Y-107662970D01*
X52441571Y-107671235D01*
X52417773Y-107677196D01*
X52393504Y-107680796D01*
X52369000Y-107682000D01*
X51444000Y-107682000D01*
X51419496Y-107680796D01*
X51395227Y-107677196D01*
X51371429Y-107671235D01*
X51348329Y-107662970D01*
X51326151Y-107652480D01*
X51305107Y-107639867D01*
X51285402Y-107625253D01*
X51267223Y-107608777D01*
X51250747Y-107590598D01*
X51236133Y-107570893D01*
X51223520Y-107549849D01*
X51213030Y-107527671D01*
X51204765Y-107504571D01*
X51198804Y-107480773D01*
X51195204Y-107456504D01*
X51194000Y-107432000D01*
X51194000Y-106182000D01*
X51195204Y-106157496D01*
X51198804Y-106133227D01*
X51204765Y-106109429D01*
X51213030Y-106086329D01*
X51223520Y-106064151D01*
X51236133Y-106043107D01*
X51250747Y-106023402D01*
X51267223Y-106005223D01*
X51285402Y-105988747D01*
X51305107Y-105974133D01*
X51326151Y-105961520D01*
X51348329Y-105951030D01*
X51371429Y-105942765D01*
X51395227Y-105936804D01*
X51419496Y-105933204D01*
X51444000Y-105932000D01*
X52369000Y-105932000D01*
X52393504Y-105933204D01*
X52393504Y-105933204D01*
G37*
D12*
X51906500Y-106807000D03*
D10*
G36*
X46370504Y-54752204D02*
G01*
X46394773Y-54755804D01*
X46418571Y-54761765D01*
X46441671Y-54770030D01*
X46463849Y-54780520D01*
X46484893Y-54793133D01*
X46504598Y-54807747D01*
X46522777Y-54824223D01*
X46539253Y-54842402D01*
X46553867Y-54862107D01*
X46566480Y-54883151D01*
X46576970Y-54905329D01*
X46585235Y-54928429D01*
X46591196Y-54952227D01*
X46594796Y-54976496D01*
X46596000Y-55001000D01*
X46596000Y-56251000D01*
X46594796Y-56275504D01*
X46591196Y-56299773D01*
X46585235Y-56323571D01*
X46576970Y-56346671D01*
X46566480Y-56368849D01*
X46553867Y-56389893D01*
X46539253Y-56409598D01*
X46522777Y-56427777D01*
X46504598Y-56444253D01*
X46484893Y-56458867D01*
X46463849Y-56471480D01*
X46441671Y-56481970D01*
X46418571Y-56490235D01*
X46394773Y-56496196D01*
X46370504Y-56499796D01*
X46346000Y-56501000D01*
X45421000Y-56501000D01*
X45396496Y-56499796D01*
X45372227Y-56496196D01*
X45348429Y-56490235D01*
X45325329Y-56481970D01*
X45303151Y-56471480D01*
X45282107Y-56458867D01*
X45262402Y-56444253D01*
X45244223Y-56427777D01*
X45227747Y-56409598D01*
X45213133Y-56389893D01*
X45200520Y-56368849D01*
X45190030Y-56346671D01*
X45181765Y-56323571D01*
X45175804Y-56299773D01*
X45172204Y-56275504D01*
X45171000Y-56251000D01*
X45171000Y-55001000D01*
X45172204Y-54976496D01*
X45175804Y-54952227D01*
X45181765Y-54928429D01*
X45190030Y-54905329D01*
X45200520Y-54883151D01*
X45213133Y-54862107D01*
X45227747Y-54842402D01*
X45244223Y-54824223D01*
X45262402Y-54807747D01*
X45282107Y-54793133D01*
X45303151Y-54780520D01*
X45325329Y-54770030D01*
X45348429Y-54761765D01*
X45372227Y-54755804D01*
X45396496Y-54752204D01*
X45421000Y-54751000D01*
X46346000Y-54751000D01*
X46370504Y-54752204D01*
X46370504Y-54752204D01*
G37*
D12*
X45883500Y-55626000D03*
D10*
G36*
X49345504Y-54752204D02*
G01*
X49369773Y-54755804D01*
X49393571Y-54761765D01*
X49416671Y-54770030D01*
X49438849Y-54780520D01*
X49459893Y-54793133D01*
X49479598Y-54807747D01*
X49497777Y-54824223D01*
X49514253Y-54842402D01*
X49528867Y-54862107D01*
X49541480Y-54883151D01*
X49551970Y-54905329D01*
X49560235Y-54928429D01*
X49566196Y-54952227D01*
X49569796Y-54976496D01*
X49571000Y-55001000D01*
X49571000Y-56251000D01*
X49569796Y-56275504D01*
X49566196Y-56299773D01*
X49560235Y-56323571D01*
X49551970Y-56346671D01*
X49541480Y-56368849D01*
X49528867Y-56389893D01*
X49514253Y-56409598D01*
X49497777Y-56427777D01*
X49479598Y-56444253D01*
X49459893Y-56458867D01*
X49438849Y-56471480D01*
X49416671Y-56481970D01*
X49393571Y-56490235D01*
X49369773Y-56496196D01*
X49345504Y-56499796D01*
X49321000Y-56501000D01*
X48396000Y-56501000D01*
X48371496Y-56499796D01*
X48347227Y-56496196D01*
X48323429Y-56490235D01*
X48300329Y-56481970D01*
X48278151Y-56471480D01*
X48257107Y-56458867D01*
X48237402Y-56444253D01*
X48219223Y-56427777D01*
X48202747Y-56409598D01*
X48188133Y-56389893D01*
X48175520Y-56368849D01*
X48165030Y-56346671D01*
X48156765Y-56323571D01*
X48150804Y-56299773D01*
X48147204Y-56275504D01*
X48146000Y-56251000D01*
X48146000Y-55001000D01*
X48147204Y-54976496D01*
X48150804Y-54952227D01*
X48156765Y-54928429D01*
X48165030Y-54905329D01*
X48175520Y-54883151D01*
X48188133Y-54862107D01*
X48202747Y-54842402D01*
X48219223Y-54824223D01*
X48237402Y-54807747D01*
X48257107Y-54793133D01*
X48278151Y-54780520D01*
X48300329Y-54770030D01*
X48323429Y-54761765D01*
X48347227Y-54755804D01*
X48371496Y-54752204D01*
X48396000Y-54751000D01*
X49321000Y-54751000D01*
X49345504Y-54752204D01*
X49345504Y-54752204D01*
G37*
D12*
X48858500Y-55626000D03*
D10*
G36*
X49345504Y-76752204D02*
G01*
X49369773Y-76755804D01*
X49393571Y-76761765D01*
X49416671Y-76770030D01*
X49438849Y-76780520D01*
X49459893Y-76793133D01*
X49479598Y-76807747D01*
X49497777Y-76824223D01*
X49514253Y-76842402D01*
X49528867Y-76862107D01*
X49541480Y-76883151D01*
X49551970Y-76905329D01*
X49560235Y-76928429D01*
X49566196Y-76952227D01*
X49569796Y-76976496D01*
X49571000Y-77001000D01*
X49571000Y-78251000D01*
X49569796Y-78275504D01*
X49566196Y-78299773D01*
X49560235Y-78323571D01*
X49551970Y-78346671D01*
X49541480Y-78368849D01*
X49528867Y-78389893D01*
X49514253Y-78409598D01*
X49497777Y-78427777D01*
X49479598Y-78444253D01*
X49459893Y-78458867D01*
X49438849Y-78471480D01*
X49416671Y-78481970D01*
X49393571Y-78490235D01*
X49369773Y-78496196D01*
X49345504Y-78499796D01*
X49321000Y-78501000D01*
X48396000Y-78501000D01*
X48371496Y-78499796D01*
X48347227Y-78496196D01*
X48323429Y-78490235D01*
X48300329Y-78481970D01*
X48278151Y-78471480D01*
X48257107Y-78458867D01*
X48237402Y-78444253D01*
X48219223Y-78427777D01*
X48202747Y-78409598D01*
X48188133Y-78389893D01*
X48175520Y-78368849D01*
X48165030Y-78346671D01*
X48156765Y-78323571D01*
X48150804Y-78299773D01*
X48147204Y-78275504D01*
X48146000Y-78251000D01*
X48146000Y-77001000D01*
X48147204Y-76976496D01*
X48150804Y-76952227D01*
X48156765Y-76928429D01*
X48165030Y-76905329D01*
X48175520Y-76883151D01*
X48188133Y-76862107D01*
X48202747Y-76842402D01*
X48219223Y-76824223D01*
X48237402Y-76807747D01*
X48257107Y-76793133D01*
X48278151Y-76780520D01*
X48300329Y-76770030D01*
X48323429Y-76761765D01*
X48347227Y-76755804D01*
X48371496Y-76752204D01*
X48396000Y-76751000D01*
X49321000Y-76751000D01*
X49345504Y-76752204D01*
X49345504Y-76752204D01*
G37*
D12*
X48858500Y-77626000D03*
D10*
G36*
X46370504Y-76752204D02*
G01*
X46394773Y-76755804D01*
X46418571Y-76761765D01*
X46441671Y-76770030D01*
X46463849Y-76780520D01*
X46484893Y-76793133D01*
X46504598Y-76807747D01*
X46522777Y-76824223D01*
X46539253Y-76842402D01*
X46553867Y-76862107D01*
X46566480Y-76883151D01*
X46576970Y-76905329D01*
X46585235Y-76928429D01*
X46591196Y-76952227D01*
X46594796Y-76976496D01*
X46596000Y-77001000D01*
X46596000Y-78251000D01*
X46594796Y-78275504D01*
X46591196Y-78299773D01*
X46585235Y-78323571D01*
X46576970Y-78346671D01*
X46566480Y-78368849D01*
X46553867Y-78389893D01*
X46539253Y-78409598D01*
X46522777Y-78427777D01*
X46504598Y-78444253D01*
X46484893Y-78458867D01*
X46463849Y-78471480D01*
X46441671Y-78481970D01*
X46418571Y-78490235D01*
X46394773Y-78496196D01*
X46370504Y-78499796D01*
X46346000Y-78501000D01*
X45421000Y-78501000D01*
X45396496Y-78499796D01*
X45372227Y-78496196D01*
X45348429Y-78490235D01*
X45325329Y-78481970D01*
X45303151Y-78471480D01*
X45282107Y-78458867D01*
X45262402Y-78444253D01*
X45244223Y-78427777D01*
X45227747Y-78409598D01*
X45213133Y-78389893D01*
X45200520Y-78368849D01*
X45190030Y-78346671D01*
X45181765Y-78323571D01*
X45175804Y-78299773D01*
X45172204Y-78275504D01*
X45171000Y-78251000D01*
X45171000Y-77001000D01*
X45172204Y-76976496D01*
X45175804Y-76952227D01*
X45181765Y-76928429D01*
X45190030Y-76905329D01*
X45200520Y-76883151D01*
X45213133Y-76862107D01*
X45227747Y-76842402D01*
X45244223Y-76824223D01*
X45262402Y-76807747D01*
X45282107Y-76793133D01*
X45303151Y-76780520D01*
X45325329Y-76770030D01*
X45348429Y-76761765D01*
X45372227Y-76755804D01*
X45396496Y-76752204D01*
X45421000Y-76751000D01*
X46346000Y-76751000D01*
X46370504Y-76752204D01*
X46370504Y-76752204D01*
G37*
D12*
X45883500Y-77626000D03*
D10*
G36*
X48964504Y-98567204D02*
G01*
X48988773Y-98570804D01*
X49012571Y-98576765D01*
X49035671Y-98585030D01*
X49057849Y-98595520D01*
X49078893Y-98608133D01*
X49098598Y-98622747D01*
X49116777Y-98639223D01*
X49133253Y-98657402D01*
X49147867Y-98677107D01*
X49160480Y-98698151D01*
X49170970Y-98720329D01*
X49179235Y-98743429D01*
X49185196Y-98767227D01*
X49188796Y-98791496D01*
X49190000Y-98816000D01*
X49190000Y-100066000D01*
X49188796Y-100090504D01*
X49185196Y-100114773D01*
X49179235Y-100138571D01*
X49170970Y-100161671D01*
X49160480Y-100183849D01*
X49147867Y-100204893D01*
X49133253Y-100224598D01*
X49116777Y-100242777D01*
X49098598Y-100259253D01*
X49078893Y-100273867D01*
X49057849Y-100286480D01*
X49035671Y-100296970D01*
X49012571Y-100305235D01*
X48988773Y-100311196D01*
X48964504Y-100314796D01*
X48940000Y-100316000D01*
X48015000Y-100316000D01*
X47990496Y-100314796D01*
X47966227Y-100311196D01*
X47942429Y-100305235D01*
X47919329Y-100296970D01*
X47897151Y-100286480D01*
X47876107Y-100273867D01*
X47856402Y-100259253D01*
X47838223Y-100242777D01*
X47821747Y-100224598D01*
X47807133Y-100204893D01*
X47794520Y-100183849D01*
X47784030Y-100161671D01*
X47775765Y-100138571D01*
X47769804Y-100114773D01*
X47766204Y-100090504D01*
X47765000Y-100066000D01*
X47765000Y-98816000D01*
X47766204Y-98791496D01*
X47769804Y-98767227D01*
X47775765Y-98743429D01*
X47784030Y-98720329D01*
X47794520Y-98698151D01*
X47807133Y-98677107D01*
X47821747Y-98657402D01*
X47838223Y-98639223D01*
X47856402Y-98622747D01*
X47876107Y-98608133D01*
X47897151Y-98595520D01*
X47919329Y-98585030D01*
X47942429Y-98576765D01*
X47966227Y-98570804D01*
X47990496Y-98567204D01*
X48015000Y-98566000D01*
X48940000Y-98566000D01*
X48964504Y-98567204D01*
X48964504Y-98567204D01*
G37*
D12*
X48477500Y-99441000D03*
D10*
G36*
X45989504Y-98567204D02*
G01*
X46013773Y-98570804D01*
X46037571Y-98576765D01*
X46060671Y-98585030D01*
X46082849Y-98595520D01*
X46103893Y-98608133D01*
X46123598Y-98622747D01*
X46141777Y-98639223D01*
X46158253Y-98657402D01*
X46172867Y-98677107D01*
X46185480Y-98698151D01*
X46195970Y-98720329D01*
X46204235Y-98743429D01*
X46210196Y-98767227D01*
X46213796Y-98791496D01*
X46215000Y-98816000D01*
X46215000Y-100066000D01*
X46213796Y-100090504D01*
X46210196Y-100114773D01*
X46204235Y-100138571D01*
X46195970Y-100161671D01*
X46185480Y-100183849D01*
X46172867Y-100204893D01*
X46158253Y-100224598D01*
X46141777Y-100242777D01*
X46123598Y-100259253D01*
X46103893Y-100273867D01*
X46082849Y-100286480D01*
X46060671Y-100296970D01*
X46037571Y-100305235D01*
X46013773Y-100311196D01*
X45989504Y-100314796D01*
X45965000Y-100316000D01*
X45040000Y-100316000D01*
X45015496Y-100314796D01*
X44991227Y-100311196D01*
X44967429Y-100305235D01*
X44944329Y-100296970D01*
X44922151Y-100286480D01*
X44901107Y-100273867D01*
X44881402Y-100259253D01*
X44863223Y-100242777D01*
X44846747Y-100224598D01*
X44832133Y-100204893D01*
X44819520Y-100183849D01*
X44809030Y-100161671D01*
X44800765Y-100138571D01*
X44794804Y-100114773D01*
X44791204Y-100090504D01*
X44790000Y-100066000D01*
X44790000Y-98816000D01*
X44791204Y-98791496D01*
X44794804Y-98767227D01*
X44800765Y-98743429D01*
X44809030Y-98720329D01*
X44819520Y-98698151D01*
X44832133Y-98677107D01*
X44846747Y-98657402D01*
X44863223Y-98639223D01*
X44881402Y-98622747D01*
X44901107Y-98608133D01*
X44922151Y-98595520D01*
X44944329Y-98585030D01*
X44967429Y-98576765D01*
X44991227Y-98570804D01*
X45015496Y-98567204D01*
X45040000Y-98566000D01*
X45965000Y-98566000D01*
X45989504Y-98567204D01*
X45989504Y-98567204D01*
G37*
D12*
X45502500Y-99441000D03*
D10*
G36*
X49418504Y-112410204D02*
G01*
X49442773Y-112413804D01*
X49466571Y-112419765D01*
X49489671Y-112428030D01*
X49511849Y-112438520D01*
X49532893Y-112451133D01*
X49552598Y-112465747D01*
X49570777Y-112482223D01*
X49587253Y-112500402D01*
X49601867Y-112520107D01*
X49614480Y-112541151D01*
X49624970Y-112563329D01*
X49633235Y-112586429D01*
X49639196Y-112610227D01*
X49642796Y-112634496D01*
X49644000Y-112659000D01*
X49644000Y-113909000D01*
X49642796Y-113933504D01*
X49639196Y-113957773D01*
X49633235Y-113981571D01*
X49624970Y-114004671D01*
X49614480Y-114026849D01*
X49601867Y-114047893D01*
X49587253Y-114067598D01*
X49570777Y-114085777D01*
X49552598Y-114102253D01*
X49532893Y-114116867D01*
X49511849Y-114129480D01*
X49489671Y-114139970D01*
X49466571Y-114148235D01*
X49442773Y-114154196D01*
X49418504Y-114157796D01*
X49394000Y-114159000D01*
X48469000Y-114159000D01*
X48444496Y-114157796D01*
X48420227Y-114154196D01*
X48396429Y-114148235D01*
X48373329Y-114139970D01*
X48351151Y-114129480D01*
X48330107Y-114116867D01*
X48310402Y-114102253D01*
X48292223Y-114085777D01*
X48275747Y-114067598D01*
X48261133Y-114047893D01*
X48248520Y-114026849D01*
X48238030Y-114004671D01*
X48229765Y-113981571D01*
X48223804Y-113957773D01*
X48220204Y-113933504D01*
X48219000Y-113909000D01*
X48219000Y-112659000D01*
X48220204Y-112634496D01*
X48223804Y-112610227D01*
X48229765Y-112586429D01*
X48238030Y-112563329D01*
X48248520Y-112541151D01*
X48261133Y-112520107D01*
X48275747Y-112500402D01*
X48292223Y-112482223D01*
X48310402Y-112465747D01*
X48330107Y-112451133D01*
X48351151Y-112438520D01*
X48373329Y-112428030D01*
X48396429Y-112419765D01*
X48420227Y-112413804D01*
X48444496Y-112410204D01*
X48469000Y-112409000D01*
X49394000Y-112409000D01*
X49418504Y-112410204D01*
X49418504Y-112410204D01*
G37*
D12*
X48931500Y-113284000D03*
D10*
G36*
X52393504Y-112410204D02*
G01*
X52417773Y-112413804D01*
X52441571Y-112419765D01*
X52464671Y-112428030D01*
X52486849Y-112438520D01*
X52507893Y-112451133D01*
X52527598Y-112465747D01*
X52545777Y-112482223D01*
X52562253Y-112500402D01*
X52576867Y-112520107D01*
X52589480Y-112541151D01*
X52599970Y-112563329D01*
X52608235Y-112586429D01*
X52614196Y-112610227D01*
X52617796Y-112634496D01*
X52619000Y-112659000D01*
X52619000Y-113909000D01*
X52617796Y-113933504D01*
X52614196Y-113957773D01*
X52608235Y-113981571D01*
X52599970Y-114004671D01*
X52589480Y-114026849D01*
X52576867Y-114047893D01*
X52562253Y-114067598D01*
X52545777Y-114085777D01*
X52527598Y-114102253D01*
X52507893Y-114116867D01*
X52486849Y-114129480D01*
X52464671Y-114139970D01*
X52441571Y-114148235D01*
X52417773Y-114154196D01*
X52393504Y-114157796D01*
X52369000Y-114159000D01*
X51444000Y-114159000D01*
X51419496Y-114157796D01*
X51395227Y-114154196D01*
X51371429Y-114148235D01*
X51348329Y-114139970D01*
X51326151Y-114129480D01*
X51305107Y-114116867D01*
X51285402Y-114102253D01*
X51267223Y-114085777D01*
X51250747Y-114067598D01*
X51236133Y-114047893D01*
X51223520Y-114026849D01*
X51213030Y-114004671D01*
X51204765Y-113981571D01*
X51198804Y-113957773D01*
X51195204Y-113933504D01*
X51194000Y-113909000D01*
X51194000Y-112659000D01*
X51195204Y-112634496D01*
X51198804Y-112610227D01*
X51204765Y-112586429D01*
X51213030Y-112563329D01*
X51223520Y-112541151D01*
X51236133Y-112520107D01*
X51250747Y-112500402D01*
X51267223Y-112482223D01*
X51285402Y-112465747D01*
X51305107Y-112451133D01*
X51326151Y-112438520D01*
X51348329Y-112428030D01*
X51371429Y-112419765D01*
X51395227Y-112413804D01*
X51419496Y-112410204D01*
X51444000Y-112409000D01*
X52369000Y-112409000D01*
X52393504Y-112410204D01*
X52393504Y-112410204D01*
G37*
D12*
X51906500Y-113284000D03*
D10*
G36*
X53409504Y-48656204D02*
G01*
X53433773Y-48659804D01*
X53457571Y-48665765D01*
X53480671Y-48674030D01*
X53502849Y-48684520D01*
X53523893Y-48697133D01*
X53543598Y-48711747D01*
X53561777Y-48728223D01*
X53578253Y-48746402D01*
X53592867Y-48766107D01*
X53605480Y-48787151D01*
X53615970Y-48809329D01*
X53624235Y-48832429D01*
X53630196Y-48856227D01*
X53633796Y-48880496D01*
X53635000Y-48905000D01*
X53635000Y-50155000D01*
X53633796Y-50179504D01*
X53630196Y-50203773D01*
X53624235Y-50227571D01*
X53615970Y-50250671D01*
X53605480Y-50272849D01*
X53592867Y-50293893D01*
X53578253Y-50313598D01*
X53561777Y-50331777D01*
X53543598Y-50348253D01*
X53523893Y-50362867D01*
X53502849Y-50375480D01*
X53480671Y-50385970D01*
X53457571Y-50394235D01*
X53433773Y-50400196D01*
X53409504Y-50403796D01*
X53385000Y-50405000D01*
X52460000Y-50405000D01*
X52435496Y-50403796D01*
X52411227Y-50400196D01*
X52387429Y-50394235D01*
X52364329Y-50385970D01*
X52342151Y-50375480D01*
X52321107Y-50362867D01*
X52301402Y-50348253D01*
X52283223Y-50331777D01*
X52266747Y-50313598D01*
X52252133Y-50293893D01*
X52239520Y-50272849D01*
X52229030Y-50250671D01*
X52220765Y-50227571D01*
X52214804Y-50203773D01*
X52211204Y-50179504D01*
X52210000Y-50155000D01*
X52210000Y-48905000D01*
X52211204Y-48880496D01*
X52214804Y-48856227D01*
X52220765Y-48832429D01*
X52229030Y-48809329D01*
X52239520Y-48787151D01*
X52252133Y-48766107D01*
X52266747Y-48746402D01*
X52283223Y-48728223D01*
X52301402Y-48711747D01*
X52321107Y-48697133D01*
X52342151Y-48684520D01*
X52364329Y-48674030D01*
X52387429Y-48665765D01*
X52411227Y-48659804D01*
X52435496Y-48656204D01*
X52460000Y-48655000D01*
X53385000Y-48655000D01*
X53409504Y-48656204D01*
X53409504Y-48656204D01*
G37*
D12*
X52922500Y-49530000D03*
D10*
G36*
X50434504Y-48656204D02*
G01*
X50458773Y-48659804D01*
X50482571Y-48665765D01*
X50505671Y-48674030D01*
X50527849Y-48684520D01*
X50548893Y-48697133D01*
X50568598Y-48711747D01*
X50586777Y-48728223D01*
X50603253Y-48746402D01*
X50617867Y-48766107D01*
X50630480Y-48787151D01*
X50640970Y-48809329D01*
X50649235Y-48832429D01*
X50655196Y-48856227D01*
X50658796Y-48880496D01*
X50660000Y-48905000D01*
X50660000Y-50155000D01*
X50658796Y-50179504D01*
X50655196Y-50203773D01*
X50649235Y-50227571D01*
X50640970Y-50250671D01*
X50630480Y-50272849D01*
X50617867Y-50293893D01*
X50603253Y-50313598D01*
X50586777Y-50331777D01*
X50568598Y-50348253D01*
X50548893Y-50362867D01*
X50527849Y-50375480D01*
X50505671Y-50385970D01*
X50482571Y-50394235D01*
X50458773Y-50400196D01*
X50434504Y-50403796D01*
X50410000Y-50405000D01*
X49485000Y-50405000D01*
X49460496Y-50403796D01*
X49436227Y-50400196D01*
X49412429Y-50394235D01*
X49389329Y-50385970D01*
X49367151Y-50375480D01*
X49346107Y-50362867D01*
X49326402Y-50348253D01*
X49308223Y-50331777D01*
X49291747Y-50313598D01*
X49277133Y-50293893D01*
X49264520Y-50272849D01*
X49254030Y-50250671D01*
X49245765Y-50227571D01*
X49239804Y-50203773D01*
X49236204Y-50179504D01*
X49235000Y-50155000D01*
X49235000Y-48905000D01*
X49236204Y-48880496D01*
X49239804Y-48856227D01*
X49245765Y-48832429D01*
X49254030Y-48809329D01*
X49264520Y-48787151D01*
X49277133Y-48766107D01*
X49291747Y-48746402D01*
X49308223Y-48728223D01*
X49326402Y-48711747D01*
X49346107Y-48697133D01*
X49367151Y-48684520D01*
X49389329Y-48674030D01*
X49412429Y-48665765D01*
X49436227Y-48659804D01*
X49460496Y-48656204D01*
X49485000Y-48655000D01*
X50410000Y-48655000D01*
X50434504Y-48656204D01*
X50434504Y-48656204D01*
G37*
D12*
X49947500Y-49530000D03*
D10*
G36*
X53409504Y-70656204D02*
G01*
X53433773Y-70659804D01*
X53457571Y-70665765D01*
X53480671Y-70674030D01*
X53502849Y-70684520D01*
X53523893Y-70697133D01*
X53543598Y-70711747D01*
X53561777Y-70728223D01*
X53578253Y-70746402D01*
X53592867Y-70766107D01*
X53605480Y-70787151D01*
X53615970Y-70809329D01*
X53624235Y-70832429D01*
X53630196Y-70856227D01*
X53633796Y-70880496D01*
X53635000Y-70905000D01*
X53635000Y-72155000D01*
X53633796Y-72179504D01*
X53630196Y-72203773D01*
X53624235Y-72227571D01*
X53615970Y-72250671D01*
X53605480Y-72272849D01*
X53592867Y-72293893D01*
X53578253Y-72313598D01*
X53561777Y-72331777D01*
X53543598Y-72348253D01*
X53523893Y-72362867D01*
X53502849Y-72375480D01*
X53480671Y-72385970D01*
X53457571Y-72394235D01*
X53433773Y-72400196D01*
X53409504Y-72403796D01*
X53385000Y-72405000D01*
X52460000Y-72405000D01*
X52435496Y-72403796D01*
X52411227Y-72400196D01*
X52387429Y-72394235D01*
X52364329Y-72385970D01*
X52342151Y-72375480D01*
X52321107Y-72362867D01*
X52301402Y-72348253D01*
X52283223Y-72331777D01*
X52266747Y-72313598D01*
X52252133Y-72293893D01*
X52239520Y-72272849D01*
X52229030Y-72250671D01*
X52220765Y-72227571D01*
X52214804Y-72203773D01*
X52211204Y-72179504D01*
X52210000Y-72155000D01*
X52210000Y-70905000D01*
X52211204Y-70880496D01*
X52214804Y-70856227D01*
X52220765Y-70832429D01*
X52229030Y-70809329D01*
X52239520Y-70787151D01*
X52252133Y-70766107D01*
X52266747Y-70746402D01*
X52283223Y-70728223D01*
X52301402Y-70711747D01*
X52321107Y-70697133D01*
X52342151Y-70684520D01*
X52364329Y-70674030D01*
X52387429Y-70665765D01*
X52411227Y-70659804D01*
X52435496Y-70656204D01*
X52460000Y-70655000D01*
X53385000Y-70655000D01*
X53409504Y-70656204D01*
X53409504Y-70656204D01*
G37*
D12*
X52922500Y-71530000D03*
D10*
G36*
X50434504Y-70656204D02*
G01*
X50458773Y-70659804D01*
X50482571Y-70665765D01*
X50505671Y-70674030D01*
X50527849Y-70684520D01*
X50548893Y-70697133D01*
X50568598Y-70711747D01*
X50586777Y-70728223D01*
X50603253Y-70746402D01*
X50617867Y-70766107D01*
X50630480Y-70787151D01*
X50640970Y-70809329D01*
X50649235Y-70832429D01*
X50655196Y-70856227D01*
X50658796Y-70880496D01*
X50660000Y-70905000D01*
X50660000Y-72155000D01*
X50658796Y-72179504D01*
X50655196Y-72203773D01*
X50649235Y-72227571D01*
X50640970Y-72250671D01*
X50630480Y-72272849D01*
X50617867Y-72293893D01*
X50603253Y-72313598D01*
X50586777Y-72331777D01*
X50568598Y-72348253D01*
X50548893Y-72362867D01*
X50527849Y-72375480D01*
X50505671Y-72385970D01*
X50482571Y-72394235D01*
X50458773Y-72400196D01*
X50434504Y-72403796D01*
X50410000Y-72405000D01*
X49485000Y-72405000D01*
X49460496Y-72403796D01*
X49436227Y-72400196D01*
X49412429Y-72394235D01*
X49389329Y-72385970D01*
X49367151Y-72375480D01*
X49346107Y-72362867D01*
X49326402Y-72348253D01*
X49308223Y-72331777D01*
X49291747Y-72313598D01*
X49277133Y-72293893D01*
X49264520Y-72272849D01*
X49254030Y-72250671D01*
X49245765Y-72227571D01*
X49239804Y-72203773D01*
X49236204Y-72179504D01*
X49235000Y-72155000D01*
X49235000Y-70905000D01*
X49236204Y-70880496D01*
X49239804Y-70856227D01*
X49245765Y-70832429D01*
X49254030Y-70809329D01*
X49264520Y-70787151D01*
X49277133Y-70766107D01*
X49291747Y-70746402D01*
X49308223Y-70728223D01*
X49326402Y-70711747D01*
X49346107Y-70697133D01*
X49367151Y-70684520D01*
X49389329Y-70674030D01*
X49412429Y-70665765D01*
X49436227Y-70659804D01*
X49460496Y-70656204D01*
X49485000Y-70655000D01*
X50410000Y-70655000D01*
X50434504Y-70656204D01*
X50434504Y-70656204D01*
G37*
D12*
X49947500Y-71530000D03*
D10*
G36*
X52520504Y-92598204D02*
G01*
X52544773Y-92601804D01*
X52568571Y-92607765D01*
X52591671Y-92616030D01*
X52613849Y-92626520D01*
X52634893Y-92639133D01*
X52654598Y-92653747D01*
X52672777Y-92670223D01*
X52689253Y-92688402D01*
X52703867Y-92708107D01*
X52716480Y-92729151D01*
X52726970Y-92751329D01*
X52735235Y-92774429D01*
X52741196Y-92798227D01*
X52744796Y-92822496D01*
X52746000Y-92847000D01*
X52746000Y-94097000D01*
X52744796Y-94121504D01*
X52741196Y-94145773D01*
X52735235Y-94169571D01*
X52726970Y-94192671D01*
X52716480Y-94214849D01*
X52703867Y-94235893D01*
X52689253Y-94255598D01*
X52672777Y-94273777D01*
X52654598Y-94290253D01*
X52634893Y-94304867D01*
X52613849Y-94317480D01*
X52591671Y-94327970D01*
X52568571Y-94336235D01*
X52544773Y-94342196D01*
X52520504Y-94345796D01*
X52496000Y-94347000D01*
X51571000Y-94347000D01*
X51546496Y-94345796D01*
X51522227Y-94342196D01*
X51498429Y-94336235D01*
X51475329Y-94327970D01*
X51453151Y-94317480D01*
X51432107Y-94304867D01*
X51412402Y-94290253D01*
X51394223Y-94273777D01*
X51377747Y-94255598D01*
X51363133Y-94235893D01*
X51350520Y-94214849D01*
X51340030Y-94192671D01*
X51331765Y-94169571D01*
X51325804Y-94145773D01*
X51322204Y-94121504D01*
X51321000Y-94097000D01*
X51321000Y-92847000D01*
X51322204Y-92822496D01*
X51325804Y-92798227D01*
X51331765Y-92774429D01*
X51340030Y-92751329D01*
X51350520Y-92729151D01*
X51363133Y-92708107D01*
X51377747Y-92688402D01*
X51394223Y-92670223D01*
X51412402Y-92653747D01*
X51432107Y-92639133D01*
X51453151Y-92626520D01*
X51475329Y-92616030D01*
X51498429Y-92607765D01*
X51522227Y-92601804D01*
X51546496Y-92598204D01*
X51571000Y-92597000D01*
X52496000Y-92597000D01*
X52520504Y-92598204D01*
X52520504Y-92598204D01*
G37*
D12*
X52033500Y-93472000D03*
D10*
G36*
X49545504Y-92598204D02*
G01*
X49569773Y-92601804D01*
X49593571Y-92607765D01*
X49616671Y-92616030D01*
X49638849Y-92626520D01*
X49659893Y-92639133D01*
X49679598Y-92653747D01*
X49697777Y-92670223D01*
X49714253Y-92688402D01*
X49728867Y-92708107D01*
X49741480Y-92729151D01*
X49751970Y-92751329D01*
X49760235Y-92774429D01*
X49766196Y-92798227D01*
X49769796Y-92822496D01*
X49771000Y-92847000D01*
X49771000Y-94097000D01*
X49769796Y-94121504D01*
X49766196Y-94145773D01*
X49760235Y-94169571D01*
X49751970Y-94192671D01*
X49741480Y-94214849D01*
X49728867Y-94235893D01*
X49714253Y-94255598D01*
X49697777Y-94273777D01*
X49679598Y-94290253D01*
X49659893Y-94304867D01*
X49638849Y-94317480D01*
X49616671Y-94327970D01*
X49593571Y-94336235D01*
X49569773Y-94342196D01*
X49545504Y-94345796D01*
X49521000Y-94347000D01*
X48596000Y-94347000D01*
X48571496Y-94345796D01*
X48547227Y-94342196D01*
X48523429Y-94336235D01*
X48500329Y-94327970D01*
X48478151Y-94317480D01*
X48457107Y-94304867D01*
X48437402Y-94290253D01*
X48419223Y-94273777D01*
X48402747Y-94255598D01*
X48388133Y-94235893D01*
X48375520Y-94214849D01*
X48365030Y-94192671D01*
X48356765Y-94169571D01*
X48350804Y-94145773D01*
X48347204Y-94121504D01*
X48346000Y-94097000D01*
X48346000Y-92847000D01*
X48347204Y-92822496D01*
X48350804Y-92798227D01*
X48356765Y-92774429D01*
X48365030Y-92751329D01*
X48375520Y-92729151D01*
X48388133Y-92708107D01*
X48402747Y-92688402D01*
X48419223Y-92670223D01*
X48437402Y-92653747D01*
X48457107Y-92639133D01*
X48478151Y-92626520D01*
X48500329Y-92616030D01*
X48523429Y-92607765D01*
X48547227Y-92601804D01*
X48571496Y-92598204D01*
X48596000Y-92597000D01*
X49521000Y-92597000D01*
X49545504Y-92598204D01*
X49545504Y-92598204D01*
G37*
D12*
X49058500Y-93472000D03*
D10*
G36*
X49418504Y-114696204D02*
G01*
X49442773Y-114699804D01*
X49466571Y-114705765D01*
X49489671Y-114714030D01*
X49511849Y-114724520D01*
X49532893Y-114737133D01*
X49552598Y-114751747D01*
X49570777Y-114768223D01*
X49587253Y-114786402D01*
X49601867Y-114806107D01*
X49614480Y-114827151D01*
X49624970Y-114849329D01*
X49633235Y-114872429D01*
X49639196Y-114896227D01*
X49642796Y-114920496D01*
X49644000Y-114945000D01*
X49644000Y-116195000D01*
X49642796Y-116219504D01*
X49639196Y-116243773D01*
X49633235Y-116267571D01*
X49624970Y-116290671D01*
X49614480Y-116312849D01*
X49601867Y-116333893D01*
X49587253Y-116353598D01*
X49570777Y-116371777D01*
X49552598Y-116388253D01*
X49532893Y-116402867D01*
X49511849Y-116415480D01*
X49489671Y-116425970D01*
X49466571Y-116434235D01*
X49442773Y-116440196D01*
X49418504Y-116443796D01*
X49394000Y-116445000D01*
X48469000Y-116445000D01*
X48444496Y-116443796D01*
X48420227Y-116440196D01*
X48396429Y-116434235D01*
X48373329Y-116425970D01*
X48351151Y-116415480D01*
X48330107Y-116402867D01*
X48310402Y-116388253D01*
X48292223Y-116371777D01*
X48275747Y-116353598D01*
X48261133Y-116333893D01*
X48248520Y-116312849D01*
X48238030Y-116290671D01*
X48229765Y-116267571D01*
X48223804Y-116243773D01*
X48220204Y-116219504D01*
X48219000Y-116195000D01*
X48219000Y-114945000D01*
X48220204Y-114920496D01*
X48223804Y-114896227D01*
X48229765Y-114872429D01*
X48238030Y-114849329D01*
X48248520Y-114827151D01*
X48261133Y-114806107D01*
X48275747Y-114786402D01*
X48292223Y-114768223D01*
X48310402Y-114751747D01*
X48330107Y-114737133D01*
X48351151Y-114724520D01*
X48373329Y-114714030D01*
X48396429Y-114705765D01*
X48420227Y-114699804D01*
X48444496Y-114696204D01*
X48469000Y-114695000D01*
X49394000Y-114695000D01*
X49418504Y-114696204D01*
X49418504Y-114696204D01*
G37*
D12*
X48931500Y-115570000D03*
D10*
G36*
X52393504Y-114696204D02*
G01*
X52417773Y-114699804D01*
X52441571Y-114705765D01*
X52464671Y-114714030D01*
X52486849Y-114724520D01*
X52507893Y-114737133D01*
X52527598Y-114751747D01*
X52545777Y-114768223D01*
X52562253Y-114786402D01*
X52576867Y-114806107D01*
X52589480Y-114827151D01*
X52599970Y-114849329D01*
X52608235Y-114872429D01*
X52614196Y-114896227D01*
X52617796Y-114920496D01*
X52619000Y-114945000D01*
X52619000Y-116195000D01*
X52617796Y-116219504D01*
X52614196Y-116243773D01*
X52608235Y-116267571D01*
X52599970Y-116290671D01*
X52589480Y-116312849D01*
X52576867Y-116333893D01*
X52562253Y-116353598D01*
X52545777Y-116371777D01*
X52527598Y-116388253D01*
X52507893Y-116402867D01*
X52486849Y-116415480D01*
X52464671Y-116425970D01*
X52441571Y-116434235D01*
X52417773Y-116440196D01*
X52393504Y-116443796D01*
X52369000Y-116445000D01*
X51444000Y-116445000D01*
X51419496Y-116443796D01*
X51395227Y-116440196D01*
X51371429Y-116434235D01*
X51348329Y-116425970D01*
X51326151Y-116415480D01*
X51305107Y-116402867D01*
X51285402Y-116388253D01*
X51267223Y-116371777D01*
X51250747Y-116353598D01*
X51236133Y-116333893D01*
X51223520Y-116312849D01*
X51213030Y-116290671D01*
X51204765Y-116267571D01*
X51198804Y-116243773D01*
X51195204Y-116219504D01*
X51194000Y-116195000D01*
X51194000Y-114945000D01*
X51195204Y-114920496D01*
X51198804Y-114896227D01*
X51204765Y-114872429D01*
X51213030Y-114849329D01*
X51223520Y-114827151D01*
X51236133Y-114806107D01*
X51250747Y-114786402D01*
X51267223Y-114768223D01*
X51285402Y-114751747D01*
X51305107Y-114737133D01*
X51326151Y-114724520D01*
X51348329Y-114714030D01*
X51371429Y-114705765D01*
X51395227Y-114699804D01*
X51419496Y-114696204D01*
X51444000Y-114695000D01*
X52369000Y-114695000D01*
X52393504Y-114696204D01*
X52393504Y-114696204D01*
G37*
D12*
X51906500Y-115570000D03*
D10*
G36*
X42560504Y-40528204D02*
G01*
X42584773Y-40531804D01*
X42608571Y-40537765D01*
X42631671Y-40546030D01*
X42653849Y-40556520D01*
X42674893Y-40569133D01*
X42694598Y-40583747D01*
X42712777Y-40600223D01*
X42729253Y-40618402D01*
X42743867Y-40638107D01*
X42756480Y-40659151D01*
X42766970Y-40681329D01*
X42775235Y-40704429D01*
X42781196Y-40728227D01*
X42784796Y-40752496D01*
X42786000Y-40777000D01*
X42786000Y-42027000D01*
X42784796Y-42051504D01*
X42781196Y-42075773D01*
X42775235Y-42099571D01*
X42766970Y-42122671D01*
X42756480Y-42144849D01*
X42743867Y-42165893D01*
X42729253Y-42185598D01*
X42712777Y-42203777D01*
X42694598Y-42220253D01*
X42674893Y-42234867D01*
X42653849Y-42247480D01*
X42631671Y-42257970D01*
X42608571Y-42266235D01*
X42584773Y-42272196D01*
X42560504Y-42275796D01*
X42536000Y-42277000D01*
X41611000Y-42277000D01*
X41586496Y-42275796D01*
X41562227Y-42272196D01*
X41538429Y-42266235D01*
X41515329Y-42257970D01*
X41493151Y-42247480D01*
X41472107Y-42234867D01*
X41452402Y-42220253D01*
X41434223Y-42203777D01*
X41417747Y-42185598D01*
X41403133Y-42165893D01*
X41390520Y-42144849D01*
X41380030Y-42122671D01*
X41371765Y-42099571D01*
X41365804Y-42075773D01*
X41362204Y-42051504D01*
X41361000Y-42027000D01*
X41361000Y-40777000D01*
X41362204Y-40752496D01*
X41365804Y-40728227D01*
X41371765Y-40704429D01*
X41380030Y-40681329D01*
X41390520Y-40659151D01*
X41403133Y-40638107D01*
X41417747Y-40618402D01*
X41434223Y-40600223D01*
X41452402Y-40583747D01*
X41472107Y-40569133D01*
X41493151Y-40556520D01*
X41515329Y-40546030D01*
X41538429Y-40537765D01*
X41562227Y-40531804D01*
X41586496Y-40528204D01*
X41611000Y-40527000D01*
X42536000Y-40527000D01*
X42560504Y-40528204D01*
X42560504Y-40528204D01*
G37*
D12*
X42073500Y-41402000D03*
D10*
G36*
X45535504Y-40528204D02*
G01*
X45559773Y-40531804D01*
X45583571Y-40537765D01*
X45606671Y-40546030D01*
X45628849Y-40556520D01*
X45649893Y-40569133D01*
X45669598Y-40583747D01*
X45687777Y-40600223D01*
X45704253Y-40618402D01*
X45718867Y-40638107D01*
X45731480Y-40659151D01*
X45741970Y-40681329D01*
X45750235Y-40704429D01*
X45756196Y-40728227D01*
X45759796Y-40752496D01*
X45761000Y-40777000D01*
X45761000Y-42027000D01*
X45759796Y-42051504D01*
X45756196Y-42075773D01*
X45750235Y-42099571D01*
X45741970Y-42122671D01*
X45731480Y-42144849D01*
X45718867Y-42165893D01*
X45704253Y-42185598D01*
X45687777Y-42203777D01*
X45669598Y-42220253D01*
X45649893Y-42234867D01*
X45628849Y-42247480D01*
X45606671Y-42257970D01*
X45583571Y-42266235D01*
X45559773Y-42272196D01*
X45535504Y-42275796D01*
X45511000Y-42277000D01*
X44586000Y-42277000D01*
X44561496Y-42275796D01*
X44537227Y-42272196D01*
X44513429Y-42266235D01*
X44490329Y-42257970D01*
X44468151Y-42247480D01*
X44447107Y-42234867D01*
X44427402Y-42220253D01*
X44409223Y-42203777D01*
X44392747Y-42185598D01*
X44378133Y-42165893D01*
X44365520Y-42144849D01*
X44355030Y-42122671D01*
X44346765Y-42099571D01*
X44340804Y-42075773D01*
X44337204Y-42051504D01*
X44336000Y-42027000D01*
X44336000Y-40777000D01*
X44337204Y-40752496D01*
X44340804Y-40728227D01*
X44346765Y-40704429D01*
X44355030Y-40681329D01*
X44365520Y-40659151D01*
X44378133Y-40638107D01*
X44392747Y-40618402D01*
X44409223Y-40600223D01*
X44427402Y-40583747D01*
X44447107Y-40569133D01*
X44468151Y-40556520D01*
X44490329Y-40546030D01*
X44513429Y-40537765D01*
X44537227Y-40531804D01*
X44561496Y-40528204D01*
X44586000Y-40527000D01*
X45511000Y-40527000D01*
X45535504Y-40528204D01*
X45535504Y-40528204D01*
G37*
D12*
X45048500Y-41402000D03*
D10*
G36*
X45789504Y-62499204D02*
G01*
X45813773Y-62502804D01*
X45837571Y-62508765D01*
X45860671Y-62517030D01*
X45882849Y-62527520D01*
X45903893Y-62540133D01*
X45923598Y-62554747D01*
X45941777Y-62571223D01*
X45958253Y-62589402D01*
X45972867Y-62609107D01*
X45985480Y-62630151D01*
X45995970Y-62652329D01*
X46004235Y-62675429D01*
X46010196Y-62699227D01*
X46013796Y-62723496D01*
X46015000Y-62748000D01*
X46015000Y-63998000D01*
X46013796Y-64022504D01*
X46010196Y-64046773D01*
X46004235Y-64070571D01*
X45995970Y-64093671D01*
X45985480Y-64115849D01*
X45972867Y-64136893D01*
X45958253Y-64156598D01*
X45941777Y-64174777D01*
X45923598Y-64191253D01*
X45903893Y-64205867D01*
X45882849Y-64218480D01*
X45860671Y-64228970D01*
X45837571Y-64237235D01*
X45813773Y-64243196D01*
X45789504Y-64246796D01*
X45765000Y-64248000D01*
X44840000Y-64248000D01*
X44815496Y-64246796D01*
X44791227Y-64243196D01*
X44767429Y-64237235D01*
X44744329Y-64228970D01*
X44722151Y-64218480D01*
X44701107Y-64205867D01*
X44681402Y-64191253D01*
X44663223Y-64174777D01*
X44646747Y-64156598D01*
X44632133Y-64136893D01*
X44619520Y-64115849D01*
X44609030Y-64093671D01*
X44600765Y-64070571D01*
X44594804Y-64046773D01*
X44591204Y-64022504D01*
X44590000Y-63998000D01*
X44590000Y-62748000D01*
X44591204Y-62723496D01*
X44594804Y-62699227D01*
X44600765Y-62675429D01*
X44609030Y-62652329D01*
X44619520Y-62630151D01*
X44632133Y-62609107D01*
X44646747Y-62589402D01*
X44663223Y-62571223D01*
X44681402Y-62554747D01*
X44701107Y-62540133D01*
X44722151Y-62527520D01*
X44744329Y-62517030D01*
X44767429Y-62508765D01*
X44791227Y-62502804D01*
X44815496Y-62499204D01*
X44840000Y-62498000D01*
X45765000Y-62498000D01*
X45789504Y-62499204D01*
X45789504Y-62499204D01*
G37*
D12*
X45302500Y-63373000D03*
D10*
G36*
X42814504Y-62499204D02*
G01*
X42838773Y-62502804D01*
X42862571Y-62508765D01*
X42885671Y-62517030D01*
X42907849Y-62527520D01*
X42928893Y-62540133D01*
X42948598Y-62554747D01*
X42966777Y-62571223D01*
X42983253Y-62589402D01*
X42997867Y-62609107D01*
X43010480Y-62630151D01*
X43020970Y-62652329D01*
X43029235Y-62675429D01*
X43035196Y-62699227D01*
X43038796Y-62723496D01*
X43040000Y-62748000D01*
X43040000Y-63998000D01*
X43038796Y-64022504D01*
X43035196Y-64046773D01*
X43029235Y-64070571D01*
X43020970Y-64093671D01*
X43010480Y-64115849D01*
X42997867Y-64136893D01*
X42983253Y-64156598D01*
X42966777Y-64174777D01*
X42948598Y-64191253D01*
X42928893Y-64205867D01*
X42907849Y-64218480D01*
X42885671Y-64228970D01*
X42862571Y-64237235D01*
X42838773Y-64243196D01*
X42814504Y-64246796D01*
X42790000Y-64248000D01*
X41865000Y-64248000D01*
X41840496Y-64246796D01*
X41816227Y-64243196D01*
X41792429Y-64237235D01*
X41769329Y-64228970D01*
X41747151Y-64218480D01*
X41726107Y-64205867D01*
X41706402Y-64191253D01*
X41688223Y-64174777D01*
X41671747Y-64156598D01*
X41657133Y-64136893D01*
X41644520Y-64115849D01*
X41634030Y-64093671D01*
X41625765Y-64070571D01*
X41619804Y-64046773D01*
X41616204Y-64022504D01*
X41615000Y-63998000D01*
X41615000Y-62748000D01*
X41616204Y-62723496D01*
X41619804Y-62699227D01*
X41625765Y-62675429D01*
X41634030Y-62652329D01*
X41644520Y-62630151D01*
X41657133Y-62609107D01*
X41671747Y-62589402D01*
X41688223Y-62571223D01*
X41706402Y-62554747D01*
X41726107Y-62540133D01*
X41747151Y-62527520D01*
X41769329Y-62517030D01*
X41792429Y-62508765D01*
X41816227Y-62502804D01*
X41840496Y-62499204D01*
X41865000Y-62498000D01*
X42790000Y-62498000D01*
X42814504Y-62499204D01*
X42814504Y-62499204D01*
G37*
D12*
X42327500Y-63373000D03*
D10*
G36*
X45408504Y-83962204D02*
G01*
X45432773Y-83965804D01*
X45456571Y-83971765D01*
X45479671Y-83980030D01*
X45501849Y-83990520D01*
X45522893Y-84003133D01*
X45542598Y-84017747D01*
X45560777Y-84034223D01*
X45577253Y-84052402D01*
X45591867Y-84072107D01*
X45604480Y-84093151D01*
X45614970Y-84115329D01*
X45623235Y-84138429D01*
X45629196Y-84162227D01*
X45632796Y-84186496D01*
X45634000Y-84211000D01*
X45634000Y-85461000D01*
X45632796Y-85485504D01*
X45629196Y-85509773D01*
X45623235Y-85533571D01*
X45614970Y-85556671D01*
X45604480Y-85578849D01*
X45591867Y-85599893D01*
X45577253Y-85619598D01*
X45560777Y-85637777D01*
X45542598Y-85654253D01*
X45522893Y-85668867D01*
X45501849Y-85681480D01*
X45479671Y-85691970D01*
X45456571Y-85700235D01*
X45432773Y-85706196D01*
X45408504Y-85709796D01*
X45384000Y-85711000D01*
X44459000Y-85711000D01*
X44434496Y-85709796D01*
X44410227Y-85706196D01*
X44386429Y-85700235D01*
X44363329Y-85691970D01*
X44341151Y-85681480D01*
X44320107Y-85668867D01*
X44300402Y-85654253D01*
X44282223Y-85637777D01*
X44265747Y-85619598D01*
X44251133Y-85599893D01*
X44238520Y-85578849D01*
X44228030Y-85556671D01*
X44219765Y-85533571D01*
X44213804Y-85509773D01*
X44210204Y-85485504D01*
X44209000Y-85461000D01*
X44209000Y-84211000D01*
X44210204Y-84186496D01*
X44213804Y-84162227D01*
X44219765Y-84138429D01*
X44228030Y-84115329D01*
X44238520Y-84093151D01*
X44251133Y-84072107D01*
X44265747Y-84052402D01*
X44282223Y-84034223D01*
X44300402Y-84017747D01*
X44320107Y-84003133D01*
X44341151Y-83990520D01*
X44363329Y-83980030D01*
X44386429Y-83971765D01*
X44410227Y-83965804D01*
X44434496Y-83962204D01*
X44459000Y-83961000D01*
X45384000Y-83961000D01*
X45408504Y-83962204D01*
X45408504Y-83962204D01*
G37*
D12*
X44921500Y-84836000D03*
D10*
G36*
X42433504Y-83962204D02*
G01*
X42457773Y-83965804D01*
X42481571Y-83971765D01*
X42504671Y-83980030D01*
X42526849Y-83990520D01*
X42547893Y-84003133D01*
X42567598Y-84017747D01*
X42585777Y-84034223D01*
X42602253Y-84052402D01*
X42616867Y-84072107D01*
X42629480Y-84093151D01*
X42639970Y-84115329D01*
X42648235Y-84138429D01*
X42654196Y-84162227D01*
X42657796Y-84186496D01*
X42659000Y-84211000D01*
X42659000Y-85461000D01*
X42657796Y-85485504D01*
X42654196Y-85509773D01*
X42648235Y-85533571D01*
X42639970Y-85556671D01*
X42629480Y-85578849D01*
X42616867Y-85599893D01*
X42602253Y-85619598D01*
X42585777Y-85637777D01*
X42567598Y-85654253D01*
X42547893Y-85668867D01*
X42526849Y-85681480D01*
X42504671Y-85691970D01*
X42481571Y-85700235D01*
X42457773Y-85706196D01*
X42433504Y-85709796D01*
X42409000Y-85711000D01*
X41484000Y-85711000D01*
X41459496Y-85709796D01*
X41435227Y-85706196D01*
X41411429Y-85700235D01*
X41388329Y-85691970D01*
X41366151Y-85681480D01*
X41345107Y-85668867D01*
X41325402Y-85654253D01*
X41307223Y-85637777D01*
X41290747Y-85619598D01*
X41276133Y-85599893D01*
X41263520Y-85578849D01*
X41253030Y-85556671D01*
X41244765Y-85533571D01*
X41238804Y-85509773D01*
X41235204Y-85485504D01*
X41234000Y-85461000D01*
X41234000Y-84211000D01*
X41235204Y-84186496D01*
X41238804Y-84162227D01*
X41244765Y-84138429D01*
X41253030Y-84115329D01*
X41263520Y-84093151D01*
X41276133Y-84072107D01*
X41290747Y-84052402D01*
X41307223Y-84034223D01*
X41325402Y-84017747D01*
X41345107Y-84003133D01*
X41366151Y-83990520D01*
X41388329Y-83980030D01*
X41411429Y-83971765D01*
X41435227Y-83965804D01*
X41459496Y-83962204D01*
X41484000Y-83961000D01*
X42409000Y-83961000D01*
X42433504Y-83962204D01*
X42433504Y-83962204D01*
G37*
D12*
X41946500Y-84836000D03*
D10*
G36*
X48456504Y-120792204D02*
G01*
X48480773Y-120795804D01*
X48504571Y-120801765D01*
X48527671Y-120810030D01*
X48549849Y-120820520D01*
X48570893Y-120833133D01*
X48590598Y-120847747D01*
X48608777Y-120864223D01*
X48625253Y-120882402D01*
X48639867Y-120902107D01*
X48652480Y-120923151D01*
X48662970Y-120945329D01*
X48671235Y-120968429D01*
X48677196Y-120992227D01*
X48680796Y-121016496D01*
X48682000Y-121041000D01*
X48682000Y-122291000D01*
X48680796Y-122315504D01*
X48677196Y-122339773D01*
X48671235Y-122363571D01*
X48662970Y-122386671D01*
X48652480Y-122408849D01*
X48639867Y-122429893D01*
X48625253Y-122449598D01*
X48608777Y-122467777D01*
X48590598Y-122484253D01*
X48570893Y-122498867D01*
X48549849Y-122511480D01*
X48527671Y-122521970D01*
X48504571Y-122530235D01*
X48480773Y-122536196D01*
X48456504Y-122539796D01*
X48432000Y-122541000D01*
X47507000Y-122541000D01*
X47482496Y-122539796D01*
X47458227Y-122536196D01*
X47434429Y-122530235D01*
X47411329Y-122521970D01*
X47389151Y-122511480D01*
X47368107Y-122498867D01*
X47348402Y-122484253D01*
X47330223Y-122467777D01*
X47313747Y-122449598D01*
X47299133Y-122429893D01*
X47286520Y-122408849D01*
X47276030Y-122386671D01*
X47267765Y-122363571D01*
X47261804Y-122339773D01*
X47258204Y-122315504D01*
X47257000Y-122291000D01*
X47257000Y-121041000D01*
X47258204Y-121016496D01*
X47261804Y-120992227D01*
X47267765Y-120968429D01*
X47276030Y-120945329D01*
X47286520Y-120923151D01*
X47299133Y-120902107D01*
X47313747Y-120882402D01*
X47330223Y-120864223D01*
X47348402Y-120847747D01*
X47368107Y-120833133D01*
X47389151Y-120820520D01*
X47411329Y-120810030D01*
X47434429Y-120801765D01*
X47458227Y-120795804D01*
X47482496Y-120792204D01*
X47507000Y-120791000D01*
X48432000Y-120791000D01*
X48456504Y-120792204D01*
X48456504Y-120792204D01*
G37*
D12*
X47969500Y-121666000D03*
D10*
G36*
X45481504Y-120792204D02*
G01*
X45505773Y-120795804D01*
X45529571Y-120801765D01*
X45552671Y-120810030D01*
X45574849Y-120820520D01*
X45595893Y-120833133D01*
X45615598Y-120847747D01*
X45633777Y-120864223D01*
X45650253Y-120882402D01*
X45664867Y-120902107D01*
X45677480Y-120923151D01*
X45687970Y-120945329D01*
X45696235Y-120968429D01*
X45702196Y-120992227D01*
X45705796Y-121016496D01*
X45707000Y-121041000D01*
X45707000Y-122291000D01*
X45705796Y-122315504D01*
X45702196Y-122339773D01*
X45696235Y-122363571D01*
X45687970Y-122386671D01*
X45677480Y-122408849D01*
X45664867Y-122429893D01*
X45650253Y-122449598D01*
X45633777Y-122467777D01*
X45615598Y-122484253D01*
X45595893Y-122498867D01*
X45574849Y-122511480D01*
X45552671Y-122521970D01*
X45529571Y-122530235D01*
X45505773Y-122536196D01*
X45481504Y-122539796D01*
X45457000Y-122541000D01*
X44532000Y-122541000D01*
X44507496Y-122539796D01*
X44483227Y-122536196D01*
X44459429Y-122530235D01*
X44436329Y-122521970D01*
X44414151Y-122511480D01*
X44393107Y-122498867D01*
X44373402Y-122484253D01*
X44355223Y-122467777D01*
X44338747Y-122449598D01*
X44324133Y-122429893D01*
X44311520Y-122408849D01*
X44301030Y-122386671D01*
X44292765Y-122363571D01*
X44286804Y-122339773D01*
X44283204Y-122315504D01*
X44282000Y-122291000D01*
X44282000Y-121041000D01*
X44283204Y-121016496D01*
X44286804Y-120992227D01*
X44292765Y-120968429D01*
X44301030Y-120945329D01*
X44311520Y-120923151D01*
X44324133Y-120902107D01*
X44338747Y-120882402D01*
X44355223Y-120864223D01*
X44373402Y-120847747D01*
X44393107Y-120833133D01*
X44414151Y-120820520D01*
X44436329Y-120810030D01*
X44459429Y-120801765D01*
X44483227Y-120795804D01*
X44507496Y-120792204D01*
X44532000Y-120791000D01*
X45457000Y-120791000D01*
X45481504Y-120792204D01*
X45481504Y-120792204D01*
G37*
D12*
X44994500Y-121666000D03*
D10*
G36*
X52974703Y-54945722D02*
G01*
X52989264Y-54947882D01*
X53003543Y-54951459D01*
X53017403Y-54956418D01*
X53030710Y-54962712D01*
X53043336Y-54970280D01*
X53055159Y-54979048D01*
X53066066Y-54988934D01*
X53075952Y-54999841D01*
X53084720Y-55011664D01*
X53092288Y-55024290D01*
X53098582Y-55037597D01*
X53103541Y-55051457D01*
X53107118Y-55065736D01*
X53109278Y-55080297D01*
X53110000Y-55095000D01*
X53110000Y-55395000D01*
X53109278Y-55409703D01*
X53107118Y-55424264D01*
X53103541Y-55438543D01*
X53098582Y-55452403D01*
X53092288Y-55465710D01*
X53084720Y-55478336D01*
X53075952Y-55490159D01*
X53066066Y-55501066D01*
X53055159Y-55510952D01*
X53043336Y-55519720D01*
X53030710Y-55527288D01*
X53017403Y-55533582D01*
X53003543Y-55538541D01*
X52989264Y-55542118D01*
X52974703Y-55544278D01*
X52960000Y-55545000D01*
X51310000Y-55545000D01*
X51295297Y-55544278D01*
X51280736Y-55542118D01*
X51266457Y-55538541D01*
X51252597Y-55533582D01*
X51239290Y-55527288D01*
X51226664Y-55519720D01*
X51214841Y-55510952D01*
X51203934Y-55501066D01*
X51194048Y-55490159D01*
X51185280Y-55478336D01*
X51177712Y-55465710D01*
X51171418Y-55452403D01*
X51166459Y-55438543D01*
X51162882Y-55424264D01*
X51160722Y-55409703D01*
X51160000Y-55395000D01*
X51160000Y-55095000D01*
X51160722Y-55080297D01*
X51162882Y-55065736D01*
X51166459Y-55051457D01*
X51171418Y-55037597D01*
X51177712Y-55024290D01*
X51185280Y-55011664D01*
X51194048Y-54999841D01*
X51203934Y-54988934D01*
X51214841Y-54979048D01*
X51226664Y-54970280D01*
X51239290Y-54962712D01*
X51252597Y-54956418D01*
X51266457Y-54951459D01*
X51280736Y-54947882D01*
X51295297Y-54945722D01*
X51310000Y-54945000D01*
X52960000Y-54945000D01*
X52974703Y-54945722D01*
X52974703Y-54945722D01*
G37*
D11*
X52135000Y-55245000D03*
D10*
G36*
X52974703Y-56215722D02*
G01*
X52989264Y-56217882D01*
X53003543Y-56221459D01*
X53017403Y-56226418D01*
X53030710Y-56232712D01*
X53043336Y-56240280D01*
X53055159Y-56249048D01*
X53066066Y-56258934D01*
X53075952Y-56269841D01*
X53084720Y-56281664D01*
X53092288Y-56294290D01*
X53098582Y-56307597D01*
X53103541Y-56321457D01*
X53107118Y-56335736D01*
X53109278Y-56350297D01*
X53110000Y-56365000D01*
X53110000Y-56665000D01*
X53109278Y-56679703D01*
X53107118Y-56694264D01*
X53103541Y-56708543D01*
X53098582Y-56722403D01*
X53092288Y-56735710D01*
X53084720Y-56748336D01*
X53075952Y-56760159D01*
X53066066Y-56771066D01*
X53055159Y-56780952D01*
X53043336Y-56789720D01*
X53030710Y-56797288D01*
X53017403Y-56803582D01*
X53003543Y-56808541D01*
X52989264Y-56812118D01*
X52974703Y-56814278D01*
X52960000Y-56815000D01*
X51310000Y-56815000D01*
X51295297Y-56814278D01*
X51280736Y-56812118D01*
X51266457Y-56808541D01*
X51252597Y-56803582D01*
X51239290Y-56797288D01*
X51226664Y-56789720D01*
X51214841Y-56780952D01*
X51203934Y-56771066D01*
X51194048Y-56760159D01*
X51185280Y-56748336D01*
X51177712Y-56735710D01*
X51171418Y-56722403D01*
X51166459Y-56708543D01*
X51162882Y-56694264D01*
X51160722Y-56679703D01*
X51160000Y-56665000D01*
X51160000Y-56365000D01*
X51160722Y-56350297D01*
X51162882Y-56335736D01*
X51166459Y-56321457D01*
X51171418Y-56307597D01*
X51177712Y-56294290D01*
X51185280Y-56281664D01*
X51194048Y-56269841D01*
X51203934Y-56258934D01*
X51214841Y-56249048D01*
X51226664Y-56240280D01*
X51239290Y-56232712D01*
X51252597Y-56226418D01*
X51266457Y-56221459D01*
X51280736Y-56217882D01*
X51295297Y-56215722D01*
X51310000Y-56215000D01*
X52960000Y-56215000D01*
X52974703Y-56215722D01*
X52974703Y-56215722D01*
G37*
D11*
X52135000Y-56515000D03*
D10*
G36*
X52974703Y-57485722D02*
G01*
X52989264Y-57487882D01*
X53003543Y-57491459D01*
X53017403Y-57496418D01*
X53030710Y-57502712D01*
X53043336Y-57510280D01*
X53055159Y-57519048D01*
X53066066Y-57528934D01*
X53075952Y-57539841D01*
X53084720Y-57551664D01*
X53092288Y-57564290D01*
X53098582Y-57577597D01*
X53103541Y-57591457D01*
X53107118Y-57605736D01*
X53109278Y-57620297D01*
X53110000Y-57635000D01*
X53110000Y-57935000D01*
X53109278Y-57949703D01*
X53107118Y-57964264D01*
X53103541Y-57978543D01*
X53098582Y-57992403D01*
X53092288Y-58005710D01*
X53084720Y-58018336D01*
X53075952Y-58030159D01*
X53066066Y-58041066D01*
X53055159Y-58050952D01*
X53043336Y-58059720D01*
X53030710Y-58067288D01*
X53017403Y-58073582D01*
X53003543Y-58078541D01*
X52989264Y-58082118D01*
X52974703Y-58084278D01*
X52960000Y-58085000D01*
X51310000Y-58085000D01*
X51295297Y-58084278D01*
X51280736Y-58082118D01*
X51266457Y-58078541D01*
X51252597Y-58073582D01*
X51239290Y-58067288D01*
X51226664Y-58059720D01*
X51214841Y-58050952D01*
X51203934Y-58041066D01*
X51194048Y-58030159D01*
X51185280Y-58018336D01*
X51177712Y-58005710D01*
X51171418Y-57992403D01*
X51166459Y-57978543D01*
X51162882Y-57964264D01*
X51160722Y-57949703D01*
X51160000Y-57935000D01*
X51160000Y-57635000D01*
X51160722Y-57620297D01*
X51162882Y-57605736D01*
X51166459Y-57591457D01*
X51171418Y-57577597D01*
X51177712Y-57564290D01*
X51185280Y-57551664D01*
X51194048Y-57539841D01*
X51203934Y-57528934D01*
X51214841Y-57519048D01*
X51226664Y-57510280D01*
X51239290Y-57502712D01*
X51252597Y-57496418D01*
X51266457Y-57491459D01*
X51280736Y-57487882D01*
X51295297Y-57485722D01*
X51310000Y-57485000D01*
X52960000Y-57485000D01*
X52974703Y-57485722D01*
X52974703Y-57485722D01*
G37*
D11*
X52135000Y-57785000D03*
D10*
G36*
X52974703Y-58755722D02*
G01*
X52989264Y-58757882D01*
X53003543Y-58761459D01*
X53017403Y-58766418D01*
X53030710Y-58772712D01*
X53043336Y-58780280D01*
X53055159Y-58789048D01*
X53066066Y-58798934D01*
X53075952Y-58809841D01*
X53084720Y-58821664D01*
X53092288Y-58834290D01*
X53098582Y-58847597D01*
X53103541Y-58861457D01*
X53107118Y-58875736D01*
X53109278Y-58890297D01*
X53110000Y-58905000D01*
X53110000Y-59205000D01*
X53109278Y-59219703D01*
X53107118Y-59234264D01*
X53103541Y-59248543D01*
X53098582Y-59262403D01*
X53092288Y-59275710D01*
X53084720Y-59288336D01*
X53075952Y-59300159D01*
X53066066Y-59311066D01*
X53055159Y-59320952D01*
X53043336Y-59329720D01*
X53030710Y-59337288D01*
X53017403Y-59343582D01*
X53003543Y-59348541D01*
X52989264Y-59352118D01*
X52974703Y-59354278D01*
X52960000Y-59355000D01*
X51310000Y-59355000D01*
X51295297Y-59354278D01*
X51280736Y-59352118D01*
X51266457Y-59348541D01*
X51252597Y-59343582D01*
X51239290Y-59337288D01*
X51226664Y-59329720D01*
X51214841Y-59320952D01*
X51203934Y-59311066D01*
X51194048Y-59300159D01*
X51185280Y-59288336D01*
X51177712Y-59275710D01*
X51171418Y-59262403D01*
X51166459Y-59248543D01*
X51162882Y-59234264D01*
X51160722Y-59219703D01*
X51160000Y-59205000D01*
X51160000Y-58905000D01*
X51160722Y-58890297D01*
X51162882Y-58875736D01*
X51166459Y-58861457D01*
X51171418Y-58847597D01*
X51177712Y-58834290D01*
X51185280Y-58821664D01*
X51194048Y-58809841D01*
X51203934Y-58798934D01*
X51214841Y-58789048D01*
X51226664Y-58780280D01*
X51239290Y-58772712D01*
X51252597Y-58766418D01*
X51266457Y-58761459D01*
X51280736Y-58757882D01*
X51295297Y-58755722D01*
X51310000Y-58755000D01*
X52960000Y-58755000D01*
X52974703Y-58755722D01*
X52974703Y-58755722D01*
G37*
D11*
X52135000Y-59055000D03*
D10*
G36*
X57924703Y-58755722D02*
G01*
X57939264Y-58757882D01*
X57953543Y-58761459D01*
X57967403Y-58766418D01*
X57980710Y-58772712D01*
X57993336Y-58780280D01*
X58005159Y-58789048D01*
X58016066Y-58798934D01*
X58025952Y-58809841D01*
X58034720Y-58821664D01*
X58042288Y-58834290D01*
X58048582Y-58847597D01*
X58053541Y-58861457D01*
X58057118Y-58875736D01*
X58059278Y-58890297D01*
X58060000Y-58905000D01*
X58060000Y-59205000D01*
X58059278Y-59219703D01*
X58057118Y-59234264D01*
X58053541Y-59248543D01*
X58048582Y-59262403D01*
X58042288Y-59275710D01*
X58034720Y-59288336D01*
X58025952Y-59300159D01*
X58016066Y-59311066D01*
X58005159Y-59320952D01*
X57993336Y-59329720D01*
X57980710Y-59337288D01*
X57967403Y-59343582D01*
X57953543Y-59348541D01*
X57939264Y-59352118D01*
X57924703Y-59354278D01*
X57910000Y-59355000D01*
X56260000Y-59355000D01*
X56245297Y-59354278D01*
X56230736Y-59352118D01*
X56216457Y-59348541D01*
X56202597Y-59343582D01*
X56189290Y-59337288D01*
X56176664Y-59329720D01*
X56164841Y-59320952D01*
X56153934Y-59311066D01*
X56144048Y-59300159D01*
X56135280Y-59288336D01*
X56127712Y-59275710D01*
X56121418Y-59262403D01*
X56116459Y-59248543D01*
X56112882Y-59234264D01*
X56110722Y-59219703D01*
X56110000Y-59205000D01*
X56110000Y-58905000D01*
X56110722Y-58890297D01*
X56112882Y-58875736D01*
X56116459Y-58861457D01*
X56121418Y-58847597D01*
X56127712Y-58834290D01*
X56135280Y-58821664D01*
X56144048Y-58809841D01*
X56153934Y-58798934D01*
X56164841Y-58789048D01*
X56176664Y-58780280D01*
X56189290Y-58772712D01*
X56202597Y-58766418D01*
X56216457Y-58761459D01*
X56230736Y-58757882D01*
X56245297Y-58755722D01*
X56260000Y-58755000D01*
X57910000Y-58755000D01*
X57924703Y-58755722D01*
X57924703Y-58755722D01*
G37*
D11*
X57085000Y-59055000D03*
D10*
G36*
X57924703Y-57485722D02*
G01*
X57939264Y-57487882D01*
X57953543Y-57491459D01*
X57967403Y-57496418D01*
X57980710Y-57502712D01*
X57993336Y-57510280D01*
X58005159Y-57519048D01*
X58016066Y-57528934D01*
X58025952Y-57539841D01*
X58034720Y-57551664D01*
X58042288Y-57564290D01*
X58048582Y-57577597D01*
X58053541Y-57591457D01*
X58057118Y-57605736D01*
X58059278Y-57620297D01*
X58060000Y-57635000D01*
X58060000Y-57935000D01*
X58059278Y-57949703D01*
X58057118Y-57964264D01*
X58053541Y-57978543D01*
X58048582Y-57992403D01*
X58042288Y-58005710D01*
X58034720Y-58018336D01*
X58025952Y-58030159D01*
X58016066Y-58041066D01*
X58005159Y-58050952D01*
X57993336Y-58059720D01*
X57980710Y-58067288D01*
X57967403Y-58073582D01*
X57953543Y-58078541D01*
X57939264Y-58082118D01*
X57924703Y-58084278D01*
X57910000Y-58085000D01*
X56260000Y-58085000D01*
X56245297Y-58084278D01*
X56230736Y-58082118D01*
X56216457Y-58078541D01*
X56202597Y-58073582D01*
X56189290Y-58067288D01*
X56176664Y-58059720D01*
X56164841Y-58050952D01*
X56153934Y-58041066D01*
X56144048Y-58030159D01*
X56135280Y-58018336D01*
X56127712Y-58005710D01*
X56121418Y-57992403D01*
X56116459Y-57978543D01*
X56112882Y-57964264D01*
X56110722Y-57949703D01*
X56110000Y-57935000D01*
X56110000Y-57635000D01*
X56110722Y-57620297D01*
X56112882Y-57605736D01*
X56116459Y-57591457D01*
X56121418Y-57577597D01*
X56127712Y-57564290D01*
X56135280Y-57551664D01*
X56144048Y-57539841D01*
X56153934Y-57528934D01*
X56164841Y-57519048D01*
X56176664Y-57510280D01*
X56189290Y-57502712D01*
X56202597Y-57496418D01*
X56216457Y-57491459D01*
X56230736Y-57487882D01*
X56245297Y-57485722D01*
X56260000Y-57485000D01*
X57910000Y-57485000D01*
X57924703Y-57485722D01*
X57924703Y-57485722D01*
G37*
D11*
X57085000Y-57785000D03*
D10*
G36*
X57924703Y-56215722D02*
G01*
X57939264Y-56217882D01*
X57953543Y-56221459D01*
X57967403Y-56226418D01*
X57980710Y-56232712D01*
X57993336Y-56240280D01*
X58005159Y-56249048D01*
X58016066Y-56258934D01*
X58025952Y-56269841D01*
X58034720Y-56281664D01*
X58042288Y-56294290D01*
X58048582Y-56307597D01*
X58053541Y-56321457D01*
X58057118Y-56335736D01*
X58059278Y-56350297D01*
X58060000Y-56365000D01*
X58060000Y-56665000D01*
X58059278Y-56679703D01*
X58057118Y-56694264D01*
X58053541Y-56708543D01*
X58048582Y-56722403D01*
X58042288Y-56735710D01*
X58034720Y-56748336D01*
X58025952Y-56760159D01*
X58016066Y-56771066D01*
X58005159Y-56780952D01*
X57993336Y-56789720D01*
X57980710Y-56797288D01*
X57967403Y-56803582D01*
X57953543Y-56808541D01*
X57939264Y-56812118D01*
X57924703Y-56814278D01*
X57910000Y-56815000D01*
X56260000Y-56815000D01*
X56245297Y-56814278D01*
X56230736Y-56812118D01*
X56216457Y-56808541D01*
X56202597Y-56803582D01*
X56189290Y-56797288D01*
X56176664Y-56789720D01*
X56164841Y-56780952D01*
X56153934Y-56771066D01*
X56144048Y-56760159D01*
X56135280Y-56748336D01*
X56127712Y-56735710D01*
X56121418Y-56722403D01*
X56116459Y-56708543D01*
X56112882Y-56694264D01*
X56110722Y-56679703D01*
X56110000Y-56665000D01*
X56110000Y-56365000D01*
X56110722Y-56350297D01*
X56112882Y-56335736D01*
X56116459Y-56321457D01*
X56121418Y-56307597D01*
X56127712Y-56294290D01*
X56135280Y-56281664D01*
X56144048Y-56269841D01*
X56153934Y-56258934D01*
X56164841Y-56249048D01*
X56176664Y-56240280D01*
X56189290Y-56232712D01*
X56202597Y-56226418D01*
X56216457Y-56221459D01*
X56230736Y-56217882D01*
X56245297Y-56215722D01*
X56260000Y-56215000D01*
X57910000Y-56215000D01*
X57924703Y-56215722D01*
X57924703Y-56215722D01*
G37*
D11*
X57085000Y-56515000D03*
D10*
G36*
X57924703Y-54945722D02*
G01*
X57939264Y-54947882D01*
X57953543Y-54951459D01*
X57967403Y-54956418D01*
X57980710Y-54962712D01*
X57993336Y-54970280D01*
X58005159Y-54979048D01*
X58016066Y-54988934D01*
X58025952Y-54999841D01*
X58034720Y-55011664D01*
X58042288Y-55024290D01*
X58048582Y-55037597D01*
X58053541Y-55051457D01*
X58057118Y-55065736D01*
X58059278Y-55080297D01*
X58060000Y-55095000D01*
X58060000Y-55395000D01*
X58059278Y-55409703D01*
X58057118Y-55424264D01*
X58053541Y-55438543D01*
X58048582Y-55452403D01*
X58042288Y-55465710D01*
X58034720Y-55478336D01*
X58025952Y-55490159D01*
X58016066Y-55501066D01*
X58005159Y-55510952D01*
X57993336Y-55519720D01*
X57980710Y-55527288D01*
X57967403Y-55533582D01*
X57953543Y-55538541D01*
X57939264Y-55542118D01*
X57924703Y-55544278D01*
X57910000Y-55545000D01*
X56260000Y-55545000D01*
X56245297Y-55544278D01*
X56230736Y-55542118D01*
X56216457Y-55538541D01*
X56202597Y-55533582D01*
X56189290Y-55527288D01*
X56176664Y-55519720D01*
X56164841Y-55510952D01*
X56153934Y-55501066D01*
X56144048Y-55490159D01*
X56135280Y-55478336D01*
X56127712Y-55465710D01*
X56121418Y-55452403D01*
X56116459Y-55438543D01*
X56112882Y-55424264D01*
X56110722Y-55409703D01*
X56110000Y-55395000D01*
X56110000Y-55095000D01*
X56110722Y-55080297D01*
X56112882Y-55065736D01*
X56116459Y-55051457D01*
X56121418Y-55037597D01*
X56127712Y-55024290D01*
X56135280Y-55011664D01*
X56144048Y-54999841D01*
X56153934Y-54988934D01*
X56164841Y-54979048D01*
X56176664Y-54970280D01*
X56189290Y-54962712D01*
X56202597Y-54956418D01*
X56216457Y-54951459D01*
X56230736Y-54947882D01*
X56245297Y-54945722D01*
X56260000Y-54945000D01*
X57910000Y-54945000D01*
X57924703Y-54945722D01*
X57924703Y-54945722D01*
G37*
D11*
X57085000Y-55245000D03*
D10*
G36*
X57924703Y-98945722D02*
G01*
X57939264Y-98947882D01*
X57953543Y-98951459D01*
X57967403Y-98956418D01*
X57980710Y-98962712D01*
X57993336Y-98970280D01*
X58005159Y-98979048D01*
X58016066Y-98988934D01*
X58025952Y-98999841D01*
X58034720Y-99011664D01*
X58042288Y-99024290D01*
X58048582Y-99037597D01*
X58053541Y-99051457D01*
X58057118Y-99065736D01*
X58059278Y-99080297D01*
X58060000Y-99095000D01*
X58060000Y-99395000D01*
X58059278Y-99409703D01*
X58057118Y-99424264D01*
X58053541Y-99438543D01*
X58048582Y-99452403D01*
X58042288Y-99465710D01*
X58034720Y-99478336D01*
X58025952Y-99490159D01*
X58016066Y-99501066D01*
X58005159Y-99510952D01*
X57993336Y-99519720D01*
X57980710Y-99527288D01*
X57967403Y-99533582D01*
X57953543Y-99538541D01*
X57939264Y-99542118D01*
X57924703Y-99544278D01*
X57910000Y-99545000D01*
X56260000Y-99545000D01*
X56245297Y-99544278D01*
X56230736Y-99542118D01*
X56216457Y-99538541D01*
X56202597Y-99533582D01*
X56189290Y-99527288D01*
X56176664Y-99519720D01*
X56164841Y-99510952D01*
X56153934Y-99501066D01*
X56144048Y-99490159D01*
X56135280Y-99478336D01*
X56127712Y-99465710D01*
X56121418Y-99452403D01*
X56116459Y-99438543D01*
X56112882Y-99424264D01*
X56110722Y-99409703D01*
X56110000Y-99395000D01*
X56110000Y-99095000D01*
X56110722Y-99080297D01*
X56112882Y-99065736D01*
X56116459Y-99051457D01*
X56121418Y-99037597D01*
X56127712Y-99024290D01*
X56135280Y-99011664D01*
X56144048Y-98999841D01*
X56153934Y-98988934D01*
X56164841Y-98979048D01*
X56176664Y-98970280D01*
X56189290Y-98962712D01*
X56202597Y-98956418D01*
X56216457Y-98951459D01*
X56230736Y-98947882D01*
X56245297Y-98945722D01*
X56260000Y-98945000D01*
X57910000Y-98945000D01*
X57924703Y-98945722D01*
X57924703Y-98945722D01*
G37*
D11*
X57085000Y-99245000D03*
D10*
G36*
X57924703Y-100215722D02*
G01*
X57939264Y-100217882D01*
X57953543Y-100221459D01*
X57967403Y-100226418D01*
X57980710Y-100232712D01*
X57993336Y-100240280D01*
X58005159Y-100249048D01*
X58016066Y-100258934D01*
X58025952Y-100269841D01*
X58034720Y-100281664D01*
X58042288Y-100294290D01*
X58048582Y-100307597D01*
X58053541Y-100321457D01*
X58057118Y-100335736D01*
X58059278Y-100350297D01*
X58060000Y-100365000D01*
X58060000Y-100665000D01*
X58059278Y-100679703D01*
X58057118Y-100694264D01*
X58053541Y-100708543D01*
X58048582Y-100722403D01*
X58042288Y-100735710D01*
X58034720Y-100748336D01*
X58025952Y-100760159D01*
X58016066Y-100771066D01*
X58005159Y-100780952D01*
X57993336Y-100789720D01*
X57980710Y-100797288D01*
X57967403Y-100803582D01*
X57953543Y-100808541D01*
X57939264Y-100812118D01*
X57924703Y-100814278D01*
X57910000Y-100815000D01*
X56260000Y-100815000D01*
X56245297Y-100814278D01*
X56230736Y-100812118D01*
X56216457Y-100808541D01*
X56202597Y-100803582D01*
X56189290Y-100797288D01*
X56176664Y-100789720D01*
X56164841Y-100780952D01*
X56153934Y-100771066D01*
X56144048Y-100760159D01*
X56135280Y-100748336D01*
X56127712Y-100735710D01*
X56121418Y-100722403D01*
X56116459Y-100708543D01*
X56112882Y-100694264D01*
X56110722Y-100679703D01*
X56110000Y-100665000D01*
X56110000Y-100365000D01*
X56110722Y-100350297D01*
X56112882Y-100335736D01*
X56116459Y-100321457D01*
X56121418Y-100307597D01*
X56127712Y-100294290D01*
X56135280Y-100281664D01*
X56144048Y-100269841D01*
X56153934Y-100258934D01*
X56164841Y-100249048D01*
X56176664Y-100240280D01*
X56189290Y-100232712D01*
X56202597Y-100226418D01*
X56216457Y-100221459D01*
X56230736Y-100217882D01*
X56245297Y-100215722D01*
X56260000Y-100215000D01*
X57910000Y-100215000D01*
X57924703Y-100215722D01*
X57924703Y-100215722D01*
G37*
D11*
X57085000Y-100515000D03*
D10*
G36*
X57924703Y-101485722D02*
G01*
X57939264Y-101487882D01*
X57953543Y-101491459D01*
X57967403Y-101496418D01*
X57980710Y-101502712D01*
X57993336Y-101510280D01*
X58005159Y-101519048D01*
X58016066Y-101528934D01*
X58025952Y-101539841D01*
X58034720Y-101551664D01*
X58042288Y-101564290D01*
X58048582Y-101577597D01*
X58053541Y-101591457D01*
X58057118Y-101605736D01*
X58059278Y-101620297D01*
X58060000Y-101635000D01*
X58060000Y-101935000D01*
X58059278Y-101949703D01*
X58057118Y-101964264D01*
X58053541Y-101978543D01*
X58048582Y-101992403D01*
X58042288Y-102005710D01*
X58034720Y-102018336D01*
X58025952Y-102030159D01*
X58016066Y-102041066D01*
X58005159Y-102050952D01*
X57993336Y-102059720D01*
X57980710Y-102067288D01*
X57967403Y-102073582D01*
X57953543Y-102078541D01*
X57939264Y-102082118D01*
X57924703Y-102084278D01*
X57910000Y-102085000D01*
X56260000Y-102085000D01*
X56245297Y-102084278D01*
X56230736Y-102082118D01*
X56216457Y-102078541D01*
X56202597Y-102073582D01*
X56189290Y-102067288D01*
X56176664Y-102059720D01*
X56164841Y-102050952D01*
X56153934Y-102041066D01*
X56144048Y-102030159D01*
X56135280Y-102018336D01*
X56127712Y-102005710D01*
X56121418Y-101992403D01*
X56116459Y-101978543D01*
X56112882Y-101964264D01*
X56110722Y-101949703D01*
X56110000Y-101935000D01*
X56110000Y-101635000D01*
X56110722Y-101620297D01*
X56112882Y-101605736D01*
X56116459Y-101591457D01*
X56121418Y-101577597D01*
X56127712Y-101564290D01*
X56135280Y-101551664D01*
X56144048Y-101539841D01*
X56153934Y-101528934D01*
X56164841Y-101519048D01*
X56176664Y-101510280D01*
X56189290Y-101502712D01*
X56202597Y-101496418D01*
X56216457Y-101491459D01*
X56230736Y-101487882D01*
X56245297Y-101485722D01*
X56260000Y-101485000D01*
X57910000Y-101485000D01*
X57924703Y-101485722D01*
X57924703Y-101485722D01*
G37*
D11*
X57085000Y-101785000D03*
D10*
G36*
X57924703Y-102755722D02*
G01*
X57939264Y-102757882D01*
X57953543Y-102761459D01*
X57967403Y-102766418D01*
X57980710Y-102772712D01*
X57993336Y-102780280D01*
X58005159Y-102789048D01*
X58016066Y-102798934D01*
X58025952Y-102809841D01*
X58034720Y-102821664D01*
X58042288Y-102834290D01*
X58048582Y-102847597D01*
X58053541Y-102861457D01*
X58057118Y-102875736D01*
X58059278Y-102890297D01*
X58060000Y-102905000D01*
X58060000Y-103205000D01*
X58059278Y-103219703D01*
X58057118Y-103234264D01*
X58053541Y-103248543D01*
X58048582Y-103262403D01*
X58042288Y-103275710D01*
X58034720Y-103288336D01*
X58025952Y-103300159D01*
X58016066Y-103311066D01*
X58005159Y-103320952D01*
X57993336Y-103329720D01*
X57980710Y-103337288D01*
X57967403Y-103343582D01*
X57953543Y-103348541D01*
X57939264Y-103352118D01*
X57924703Y-103354278D01*
X57910000Y-103355000D01*
X56260000Y-103355000D01*
X56245297Y-103354278D01*
X56230736Y-103352118D01*
X56216457Y-103348541D01*
X56202597Y-103343582D01*
X56189290Y-103337288D01*
X56176664Y-103329720D01*
X56164841Y-103320952D01*
X56153934Y-103311066D01*
X56144048Y-103300159D01*
X56135280Y-103288336D01*
X56127712Y-103275710D01*
X56121418Y-103262403D01*
X56116459Y-103248543D01*
X56112882Y-103234264D01*
X56110722Y-103219703D01*
X56110000Y-103205000D01*
X56110000Y-102905000D01*
X56110722Y-102890297D01*
X56112882Y-102875736D01*
X56116459Y-102861457D01*
X56121418Y-102847597D01*
X56127712Y-102834290D01*
X56135280Y-102821664D01*
X56144048Y-102809841D01*
X56153934Y-102798934D01*
X56164841Y-102789048D01*
X56176664Y-102780280D01*
X56189290Y-102772712D01*
X56202597Y-102766418D01*
X56216457Y-102761459D01*
X56230736Y-102757882D01*
X56245297Y-102755722D01*
X56260000Y-102755000D01*
X57910000Y-102755000D01*
X57924703Y-102755722D01*
X57924703Y-102755722D01*
G37*
D11*
X57085000Y-103055000D03*
D10*
G36*
X52974703Y-102755722D02*
G01*
X52989264Y-102757882D01*
X53003543Y-102761459D01*
X53017403Y-102766418D01*
X53030710Y-102772712D01*
X53043336Y-102780280D01*
X53055159Y-102789048D01*
X53066066Y-102798934D01*
X53075952Y-102809841D01*
X53084720Y-102821664D01*
X53092288Y-102834290D01*
X53098582Y-102847597D01*
X53103541Y-102861457D01*
X53107118Y-102875736D01*
X53109278Y-102890297D01*
X53110000Y-102905000D01*
X53110000Y-103205000D01*
X53109278Y-103219703D01*
X53107118Y-103234264D01*
X53103541Y-103248543D01*
X53098582Y-103262403D01*
X53092288Y-103275710D01*
X53084720Y-103288336D01*
X53075952Y-103300159D01*
X53066066Y-103311066D01*
X53055159Y-103320952D01*
X53043336Y-103329720D01*
X53030710Y-103337288D01*
X53017403Y-103343582D01*
X53003543Y-103348541D01*
X52989264Y-103352118D01*
X52974703Y-103354278D01*
X52960000Y-103355000D01*
X51310000Y-103355000D01*
X51295297Y-103354278D01*
X51280736Y-103352118D01*
X51266457Y-103348541D01*
X51252597Y-103343582D01*
X51239290Y-103337288D01*
X51226664Y-103329720D01*
X51214841Y-103320952D01*
X51203934Y-103311066D01*
X51194048Y-103300159D01*
X51185280Y-103288336D01*
X51177712Y-103275710D01*
X51171418Y-103262403D01*
X51166459Y-103248543D01*
X51162882Y-103234264D01*
X51160722Y-103219703D01*
X51160000Y-103205000D01*
X51160000Y-102905000D01*
X51160722Y-102890297D01*
X51162882Y-102875736D01*
X51166459Y-102861457D01*
X51171418Y-102847597D01*
X51177712Y-102834290D01*
X51185280Y-102821664D01*
X51194048Y-102809841D01*
X51203934Y-102798934D01*
X51214841Y-102789048D01*
X51226664Y-102780280D01*
X51239290Y-102772712D01*
X51252597Y-102766418D01*
X51266457Y-102761459D01*
X51280736Y-102757882D01*
X51295297Y-102755722D01*
X51310000Y-102755000D01*
X52960000Y-102755000D01*
X52974703Y-102755722D01*
X52974703Y-102755722D01*
G37*
D11*
X52135000Y-103055000D03*
D10*
G36*
X52974703Y-101485722D02*
G01*
X52989264Y-101487882D01*
X53003543Y-101491459D01*
X53017403Y-101496418D01*
X53030710Y-101502712D01*
X53043336Y-101510280D01*
X53055159Y-101519048D01*
X53066066Y-101528934D01*
X53075952Y-101539841D01*
X53084720Y-101551664D01*
X53092288Y-101564290D01*
X53098582Y-101577597D01*
X53103541Y-101591457D01*
X53107118Y-101605736D01*
X53109278Y-101620297D01*
X53110000Y-101635000D01*
X53110000Y-101935000D01*
X53109278Y-101949703D01*
X53107118Y-101964264D01*
X53103541Y-101978543D01*
X53098582Y-101992403D01*
X53092288Y-102005710D01*
X53084720Y-102018336D01*
X53075952Y-102030159D01*
X53066066Y-102041066D01*
X53055159Y-102050952D01*
X53043336Y-102059720D01*
X53030710Y-102067288D01*
X53017403Y-102073582D01*
X53003543Y-102078541D01*
X52989264Y-102082118D01*
X52974703Y-102084278D01*
X52960000Y-102085000D01*
X51310000Y-102085000D01*
X51295297Y-102084278D01*
X51280736Y-102082118D01*
X51266457Y-102078541D01*
X51252597Y-102073582D01*
X51239290Y-102067288D01*
X51226664Y-102059720D01*
X51214841Y-102050952D01*
X51203934Y-102041066D01*
X51194048Y-102030159D01*
X51185280Y-102018336D01*
X51177712Y-102005710D01*
X51171418Y-101992403D01*
X51166459Y-101978543D01*
X51162882Y-101964264D01*
X51160722Y-101949703D01*
X51160000Y-101935000D01*
X51160000Y-101635000D01*
X51160722Y-101620297D01*
X51162882Y-101605736D01*
X51166459Y-101591457D01*
X51171418Y-101577597D01*
X51177712Y-101564290D01*
X51185280Y-101551664D01*
X51194048Y-101539841D01*
X51203934Y-101528934D01*
X51214841Y-101519048D01*
X51226664Y-101510280D01*
X51239290Y-101502712D01*
X51252597Y-101496418D01*
X51266457Y-101491459D01*
X51280736Y-101487882D01*
X51295297Y-101485722D01*
X51310000Y-101485000D01*
X52960000Y-101485000D01*
X52974703Y-101485722D01*
X52974703Y-101485722D01*
G37*
D11*
X52135000Y-101785000D03*
D10*
G36*
X52974703Y-100215722D02*
G01*
X52989264Y-100217882D01*
X53003543Y-100221459D01*
X53017403Y-100226418D01*
X53030710Y-100232712D01*
X53043336Y-100240280D01*
X53055159Y-100249048D01*
X53066066Y-100258934D01*
X53075952Y-100269841D01*
X53084720Y-100281664D01*
X53092288Y-100294290D01*
X53098582Y-100307597D01*
X53103541Y-100321457D01*
X53107118Y-100335736D01*
X53109278Y-100350297D01*
X53110000Y-100365000D01*
X53110000Y-100665000D01*
X53109278Y-100679703D01*
X53107118Y-100694264D01*
X53103541Y-100708543D01*
X53098582Y-100722403D01*
X53092288Y-100735710D01*
X53084720Y-100748336D01*
X53075952Y-100760159D01*
X53066066Y-100771066D01*
X53055159Y-100780952D01*
X53043336Y-100789720D01*
X53030710Y-100797288D01*
X53017403Y-100803582D01*
X53003543Y-100808541D01*
X52989264Y-100812118D01*
X52974703Y-100814278D01*
X52960000Y-100815000D01*
X51310000Y-100815000D01*
X51295297Y-100814278D01*
X51280736Y-100812118D01*
X51266457Y-100808541D01*
X51252597Y-100803582D01*
X51239290Y-100797288D01*
X51226664Y-100789720D01*
X51214841Y-100780952D01*
X51203934Y-100771066D01*
X51194048Y-100760159D01*
X51185280Y-100748336D01*
X51177712Y-100735710D01*
X51171418Y-100722403D01*
X51166459Y-100708543D01*
X51162882Y-100694264D01*
X51160722Y-100679703D01*
X51160000Y-100665000D01*
X51160000Y-100365000D01*
X51160722Y-100350297D01*
X51162882Y-100335736D01*
X51166459Y-100321457D01*
X51171418Y-100307597D01*
X51177712Y-100294290D01*
X51185280Y-100281664D01*
X51194048Y-100269841D01*
X51203934Y-100258934D01*
X51214841Y-100249048D01*
X51226664Y-100240280D01*
X51239290Y-100232712D01*
X51252597Y-100226418D01*
X51266457Y-100221459D01*
X51280736Y-100217882D01*
X51295297Y-100215722D01*
X51310000Y-100215000D01*
X52960000Y-100215000D01*
X52974703Y-100215722D01*
X52974703Y-100215722D01*
G37*
D11*
X52135000Y-100515000D03*
D10*
G36*
X52974703Y-98945722D02*
G01*
X52989264Y-98947882D01*
X53003543Y-98951459D01*
X53017403Y-98956418D01*
X53030710Y-98962712D01*
X53043336Y-98970280D01*
X53055159Y-98979048D01*
X53066066Y-98988934D01*
X53075952Y-98999841D01*
X53084720Y-99011664D01*
X53092288Y-99024290D01*
X53098582Y-99037597D01*
X53103541Y-99051457D01*
X53107118Y-99065736D01*
X53109278Y-99080297D01*
X53110000Y-99095000D01*
X53110000Y-99395000D01*
X53109278Y-99409703D01*
X53107118Y-99424264D01*
X53103541Y-99438543D01*
X53098582Y-99452403D01*
X53092288Y-99465710D01*
X53084720Y-99478336D01*
X53075952Y-99490159D01*
X53066066Y-99501066D01*
X53055159Y-99510952D01*
X53043336Y-99519720D01*
X53030710Y-99527288D01*
X53017403Y-99533582D01*
X53003543Y-99538541D01*
X52989264Y-99542118D01*
X52974703Y-99544278D01*
X52960000Y-99545000D01*
X51310000Y-99545000D01*
X51295297Y-99544278D01*
X51280736Y-99542118D01*
X51266457Y-99538541D01*
X51252597Y-99533582D01*
X51239290Y-99527288D01*
X51226664Y-99519720D01*
X51214841Y-99510952D01*
X51203934Y-99501066D01*
X51194048Y-99490159D01*
X51185280Y-99478336D01*
X51177712Y-99465710D01*
X51171418Y-99452403D01*
X51166459Y-99438543D01*
X51162882Y-99424264D01*
X51160722Y-99409703D01*
X51160000Y-99395000D01*
X51160000Y-99095000D01*
X51160722Y-99080297D01*
X51162882Y-99065736D01*
X51166459Y-99051457D01*
X51171418Y-99037597D01*
X51177712Y-99024290D01*
X51185280Y-99011664D01*
X51194048Y-98999841D01*
X51203934Y-98988934D01*
X51214841Y-98979048D01*
X51226664Y-98970280D01*
X51239290Y-98962712D01*
X51252597Y-98956418D01*
X51266457Y-98951459D01*
X51280736Y-98947882D01*
X51295297Y-98945722D01*
X51310000Y-98945000D01*
X52960000Y-98945000D01*
X52974703Y-98945722D01*
X52974703Y-98945722D01*
G37*
D11*
X52135000Y-99245000D03*
D10*
G36*
X57165703Y-115143722D02*
G01*
X57180264Y-115145882D01*
X57194543Y-115149459D01*
X57208403Y-115154418D01*
X57221710Y-115160712D01*
X57234336Y-115168280D01*
X57246159Y-115177048D01*
X57257066Y-115186934D01*
X57266952Y-115197841D01*
X57275720Y-115209664D01*
X57283288Y-115222290D01*
X57289582Y-115235597D01*
X57294541Y-115249457D01*
X57298118Y-115263736D01*
X57300278Y-115278297D01*
X57301000Y-115293000D01*
X57301000Y-115593000D01*
X57300278Y-115607703D01*
X57298118Y-115622264D01*
X57294541Y-115636543D01*
X57289582Y-115650403D01*
X57283288Y-115663710D01*
X57275720Y-115676336D01*
X57266952Y-115688159D01*
X57257066Y-115699066D01*
X57246159Y-115708952D01*
X57234336Y-115717720D01*
X57221710Y-115725288D01*
X57208403Y-115731582D01*
X57194543Y-115736541D01*
X57180264Y-115740118D01*
X57165703Y-115742278D01*
X57151000Y-115743000D01*
X55501000Y-115743000D01*
X55486297Y-115742278D01*
X55471736Y-115740118D01*
X55457457Y-115736541D01*
X55443597Y-115731582D01*
X55430290Y-115725288D01*
X55417664Y-115717720D01*
X55405841Y-115708952D01*
X55394934Y-115699066D01*
X55385048Y-115688159D01*
X55376280Y-115676336D01*
X55368712Y-115663710D01*
X55362418Y-115650403D01*
X55357459Y-115636543D01*
X55353882Y-115622264D01*
X55351722Y-115607703D01*
X55351000Y-115593000D01*
X55351000Y-115293000D01*
X55351722Y-115278297D01*
X55353882Y-115263736D01*
X55357459Y-115249457D01*
X55362418Y-115235597D01*
X55368712Y-115222290D01*
X55376280Y-115209664D01*
X55385048Y-115197841D01*
X55394934Y-115186934D01*
X55405841Y-115177048D01*
X55417664Y-115168280D01*
X55430290Y-115160712D01*
X55443597Y-115154418D01*
X55457457Y-115149459D01*
X55471736Y-115145882D01*
X55486297Y-115143722D01*
X55501000Y-115143000D01*
X57151000Y-115143000D01*
X57165703Y-115143722D01*
X57165703Y-115143722D01*
G37*
D11*
X56326000Y-115443000D03*
D10*
G36*
X57165703Y-116413722D02*
G01*
X57180264Y-116415882D01*
X57194543Y-116419459D01*
X57208403Y-116424418D01*
X57221710Y-116430712D01*
X57234336Y-116438280D01*
X57246159Y-116447048D01*
X57257066Y-116456934D01*
X57266952Y-116467841D01*
X57275720Y-116479664D01*
X57283288Y-116492290D01*
X57289582Y-116505597D01*
X57294541Y-116519457D01*
X57298118Y-116533736D01*
X57300278Y-116548297D01*
X57301000Y-116563000D01*
X57301000Y-116863000D01*
X57300278Y-116877703D01*
X57298118Y-116892264D01*
X57294541Y-116906543D01*
X57289582Y-116920403D01*
X57283288Y-116933710D01*
X57275720Y-116946336D01*
X57266952Y-116958159D01*
X57257066Y-116969066D01*
X57246159Y-116978952D01*
X57234336Y-116987720D01*
X57221710Y-116995288D01*
X57208403Y-117001582D01*
X57194543Y-117006541D01*
X57180264Y-117010118D01*
X57165703Y-117012278D01*
X57151000Y-117013000D01*
X55501000Y-117013000D01*
X55486297Y-117012278D01*
X55471736Y-117010118D01*
X55457457Y-117006541D01*
X55443597Y-117001582D01*
X55430290Y-116995288D01*
X55417664Y-116987720D01*
X55405841Y-116978952D01*
X55394934Y-116969066D01*
X55385048Y-116958159D01*
X55376280Y-116946336D01*
X55368712Y-116933710D01*
X55362418Y-116920403D01*
X55357459Y-116906543D01*
X55353882Y-116892264D01*
X55351722Y-116877703D01*
X55351000Y-116863000D01*
X55351000Y-116563000D01*
X55351722Y-116548297D01*
X55353882Y-116533736D01*
X55357459Y-116519457D01*
X55362418Y-116505597D01*
X55368712Y-116492290D01*
X55376280Y-116479664D01*
X55385048Y-116467841D01*
X55394934Y-116456934D01*
X55405841Y-116447048D01*
X55417664Y-116438280D01*
X55430290Y-116430712D01*
X55443597Y-116424418D01*
X55457457Y-116419459D01*
X55471736Y-116415882D01*
X55486297Y-116413722D01*
X55501000Y-116413000D01*
X57151000Y-116413000D01*
X57165703Y-116413722D01*
X57165703Y-116413722D01*
G37*
D11*
X56326000Y-116713000D03*
D10*
G36*
X57165703Y-117683722D02*
G01*
X57180264Y-117685882D01*
X57194543Y-117689459D01*
X57208403Y-117694418D01*
X57221710Y-117700712D01*
X57234336Y-117708280D01*
X57246159Y-117717048D01*
X57257066Y-117726934D01*
X57266952Y-117737841D01*
X57275720Y-117749664D01*
X57283288Y-117762290D01*
X57289582Y-117775597D01*
X57294541Y-117789457D01*
X57298118Y-117803736D01*
X57300278Y-117818297D01*
X57301000Y-117833000D01*
X57301000Y-118133000D01*
X57300278Y-118147703D01*
X57298118Y-118162264D01*
X57294541Y-118176543D01*
X57289582Y-118190403D01*
X57283288Y-118203710D01*
X57275720Y-118216336D01*
X57266952Y-118228159D01*
X57257066Y-118239066D01*
X57246159Y-118248952D01*
X57234336Y-118257720D01*
X57221710Y-118265288D01*
X57208403Y-118271582D01*
X57194543Y-118276541D01*
X57180264Y-118280118D01*
X57165703Y-118282278D01*
X57151000Y-118283000D01*
X55501000Y-118283000D01*
X55486297Y-118282278D01*
X55471736Y-118280118D01*
X55457457Y-118276541D01*
X55443597Y-118271582D01*
X55430290Y-118265288D01*
X55417664Y-118257720D01*
X55405841Y-118248952D01*
X55394934Y-118239066D01*
X55385048Y-118228159D01*
X55376280Y-118216336D01*
X55368712Y-118203710D01*
X55362418Y-118190403D01*
X55357459Y-118176543D01*
X55353882Y-118162264D01*
X55351722Y-118147703D01*
X55351000Y-118133000D01*
X55351000Y-117833000D01*
X55351722Y-117818297D01*
X55353882Y-117803736D01*
X55357459Y-117789457D01*
X55362418Y-117775597D01*
X55368712Y-117762290D01*
X55376280Y-117749664D01*
X55385048Y-117737841D01*
X55394934Y-117726934D01*
X55405841Y-117717048D01*
X55417664Y-117708280D01*
X55430290Y-117700712D01*
X55443597Y-117694418D01*
X55457457Y-117689459D01*
X55471736Y-117685882D01*
X55486297Y-117683722D01*
X55501000Y-117683000D01*
X57151000Y-117683000D01*
X57165703Y-117683722D01*
X57165703Y-117683722D01*
G37*
D11*
X56326000Y-117983000D03*
D10*
G36*
X57165703Y-118953722D02*
G01*
X57180264Y-118955882D01*
X57194543Y-118959459D01*
X57208403Y-118964418D01*
X57221710Y-118970712D01*
X57234336Y-118978280D01*
X57246159Y-118987048D01*
X57257066Y-118996934D01*
X57266952Y-119007841D01*
X57275720Y-119019664D01*
X57283288Y-119032290D01*
X57289582Y-119045597D01*
X57294541Y-119059457D01*
X57298118Y-119073736D01*
X57300278Y-119088297D01*
X57301000Y-119103000D01*
X57301000Y-119403000D01*
X57300278Y-119417703D01*
X57298118Y-119432264D01*
X57294541Y-119446543D01*
X57289582Y-119460403D01*
X57283288Y-119473710D01*
X57275720Y-119486336D01*
X57266952Y-119498159D01*
X57257066Y-119509066D01*
X57246159Y-119518952D01*
X57234336Y-119527720D01*
X57221710Y-119535288D01*
X57208403Y-119541582D01*
X57194543Y-119546541D01*
X57180264Y-119550118D01*
X57165703Y-119552278D01*
X57151000Y-119553000D01*
X55501000Y-119553000D01*
X55486297Y-119552278D01*
X55471736Y-119550118D01*
X55457457Y-119546541D01*
X55443597Y-119541582D01*
X55430290Y-119535288D01*
X55417664Y-119527720D01*
X55405841Y-119518952D01*
X55394934Y-119509066D01*
X55385048Y-119498159D01*
X55376280Y-119486336D01*
X55368712Y-119473710D01*
X55362418Y-119460403D01*
X55357459Y-119446543D01*
X55353882Y-119432264D01*
X55351722Y-119417703D01*
X55351000Y-119403000D01*
X55351000Y-119103000D01*
X55351722Y-119088297D01*
X55353882Y-119073736D01*
X55357459Y-119059457D01*
X55362418Y-119045597D01*
X55368712Y-119032290D01*
X55376280Y-119019664D01*
X55385048Y-119007841D01*
X55394934Y-118996934D01*
X55405841Y-118987048D01*
X55417664Y-118978280D01*
X55430290Y-118970712D01*
X55443597Y-118964418D01*
X55457457Y-118959459D01*
X55471736Y-118955882D01*
X55486297Y-118953722D01*
X55501000Y-118953000D01*
X57151000Y-118953000D01*
X57165703Y-118953722D01*
X57165703Y-118953722D01*
G37*
D11*
X56326000Y-119253000D03*
D10*
G36*
X62115703Y-118953722D02*
G01*
X62130264Y-118955882D01*
X62144543Y-118959459D01*
X62158403Y-118964418D01*
X62171710Y-118970712D01*
X62184336Y-118978280D01*
X62196159Y-118987048D01*
X62207066Y-118996934D01*
X62216952Y-119007841D01*
X62225720Y-119019664D01*
X62233288Y-119032290D01*
X62239582Y-119045597D01*
X62244541Y-119059457D01*
X62248118Y-119073736D01*
X62250278Y-119088297D01*
X62251000Y-119103000D01*
X62251000Y-119403000D01*
X62250278Y-119417703D01*
X62248118Y-119432264D01*
X62244541Y-119446543D01*
X62239582Y-119460403D01*
X62233288Y-119473710D01*
X62225720Y-119486336D01*
X62216952Y-119498159D01*
X62207066Y-119509066D01*
X62196159Y-119518952D01*
X62184336Y-119527720D01*
X62171710Y-119535288D01*
X62158403Y-119541582D01*
X62144543Y-119546541D01*
X62130264Y-119550118D01*
X62115703Y-119552278D01*
X62101000Y-119553000D01*
X60451000Y-119553000D01*
X60436297Y-119552278D01*
X60421736Y-119550118D01*
X60407457Y-119546541D01*
X60393597Y-119541582D01*
X60380290Y-119535288D01*
X60367664Y-119527720D01*
X60355841Y-119518952D01*
X60344934Y-119509066D01*
X60335048Y-119498159D01*
X60326280Y-119486336D01*
X60318712Y-119473710D01*
X60312418Y-119460403D01*
X60307459Y-119446543D01*
X60303882Y-119432264D01*
X60301722Y-119417703D01*
X60301000Y-119403000D01*
X60301000Y-119103000D01*
X60301722Y-119088297D01*
X60303882Y-119073736D01*
X60307459Y-119059457D01*
X60312418Y-119045597D01*
X60318712Y-119032290D01*
X60326280Y-119019664D01*
X60335048Y-119007841D01*
X60344934Y-118996934D01*
X60355841Y-118987048D01*
X60367664Y-118978280D01*
X60380290Y-118970712D01*
X60393597Y-118964418D01*
X60407457Y-118959459D01*
X60421736Y-118955882D01*
X60436297Y-118953722D01*
X60451000Y-118953000D01*
X62101000Y-118953000D01*
X62115703Y-118953722D01*
X62115703Y-118953722D01*
G37*
D11*
X61276000Y-119253000D03*
D10*
G36*
X62115703Y-117683722D02*
G01*
X62130264Y-117685882D01*
X62144543Y-117689459D01*
X62158403Y-117694418D01*
X62171710Y-117700712D01*
X62184336Y-117708280D01*
X62196159Y-117717048D01*
X62207066Y-117726934D01*
X62216952Y-117737841D01*
X62225720Y-117749664D01*
X62233288Y-117762290D01*
X62239582Y-117775597D01*
X62244541Y-117789457D01*
X62248118Y-117803736D01*
X62250278Y-117818297D01*
X62251000Y-117833000D01*
X62251000Y-118133000D01*
X62250278Y-118147703D01*
X62248118Y-118162264D01*
X62244541Y-118176543D01*
X62239582Y-118190403D01*
X62233288Y-118203710D01*
X62225720Y-118216336D01*
X62216952Y-118228159D01*
X62207066Y-118239066D01*
X62196159Y-118248952D01*
X62184336Y-118257720D01*
X62171710Y-118265288D01*
X62158403Y-118271582D01*
X62144543Y-118276541D01*
X62130264Y-118280118D01*
X62115703Y-118282278D01*
X62101000Y-118283000D01*
X60451000Y-118283000D01*
X60436297Y-118282278D01*
X60421736Y-118280118D01*
X60407457Y-118276541D01*
X60393597Y-118271582D01*
X60380290Y-118265288D01*
X60367664Y-118257720D01*
X60355841Y-118248952D01*
X60344934Y-118239066D01*
X60335048Y-118228159D01*
X60326280Y-118216336D01*
X60318712Y-118203710D01*
X60312418Y-118190403D01*
X60307459Y-118176543D01*
X60303882Y-118162264D01*
X60301722Y-118147703D01*
X60301000Y-118133000D01*
X60301000Y-117833000D01*
X60301722Y-117818297D01*
X60303882Y-117803736D01*
X60307459Y-117789457D01*
X60312418Y-117775597D01*
X60318712Y-117762290D01*
X60326280Y-117749664D01*
X60335048Y-117737841D01*
X60344934Y-117726934D01*
X60355841Y-117717048D01*
X60367664Y-117708280D01*
X60380290Y-117700712D01*
X60393597Y-117694418D01*
X60407457Y-117689459D01*
X60421736Y-117685882D01*
X60436297Y-117683722D01*
X60451000Y-117683000D01*
X62101000Y-117683000D01*
X62115703Y-117683722D01*
X62115703Y-117683722D01*
G37*
D11*
X61276000Y-117983000D03*
D10*
G36*
X62115703Y-116413722D02*
G01*
X62130264Y-116415882D01*
X62144543Y-116419459D01*
X62158403Y-116424418D01*
X62171710Y-116430712D01*
X62184336Y-116438280D01*
X62196159Y-116447048D01*
X62207066Y-116456934D01*
X62216952Y-116467841D01*
X62225720Y-116479664D01*
X62233288Y-116492290D01*
X62239582Y-116505597D01*
X62244541Y-116519457D01*
X62248118Y-116533736D01*
X62250278Y-116548297D01*
X62251000Y-116563000D01*
X62251000Y-116863000D01*
X62250278Y-116877703D01*
X62248118Y-116892264D01*
X62244541Y-116906543D01*
X62239582Y-116920403D01*
X62233288Y-116933710D01*
X62225720Y-116946336D01*
X62216952Y-116958159D01*
X62207066Y-116969066D01*
X62196159Y-116978952D01*
X62184336Y-116987720D01*
X62171710Y-116995288D01*
X62158403Y-117001582D01*
X62144543Y-117006541D01*
X62130264Y-117010118D01*
X62115703Y-117012278D01*
X62101000Y-117013000D01*
X60451000Y-117013000D01*
X60436297Y-117012278D01*
X60421736Y-117010118D01*
X60407457Y-117006541D01*
X60393597Y-117001582D01*
X60380290Y-116995288D01*
X60367664Y-116987720D01*
X60355841Y-116978952D01*
X60344934Y-116969066D01*
X60335048Y-116958159D01*
X60326280Y-116946336D01*
X60318712Y-116933710D01*
X60312418Y-116920403D01*
X60307459Y-116906543D01*
X60303882Y-116892264D01*
X60301722Y-116877703D01*
X60301000Y-116863000D01*
X60301000Y-116563000D01*
X60301722Y-116548297D01*
X60303882Y-116533736D01*
X60307459Y-116519457D01*
X60312418Y-116505597D01*
X60318712Y-116492290D01*
X60326280Y-116479664D01*
X60335048Y-116467841D01*
X60344934Y-116456934D01*
X60355841Y-116447048D01*
X60367664Y-116438280D01*
X60380290Y-116430712D01*
X60393597Y-116424418D01*
X60407457Y-116419459D01*
X60421736Y-116415882D01*
X60436297Y-116413722D01*
X60451000Y-116413000D01*
X62101000Y-116413000D01*
X62115703Y-116413722D01*
X62115703Y-116413722D01*
G37*
D11*
X61276000Y-116713000D03*
D10*
G36*
X62115703Y-115143722D02*
G01*
X62130264Y-115145882D01*
X62144543Y-115149459D01*
X62158403Y-115154418D01*
X62171710Y-115160712D01*
X62184336Y-115168280D01*
X62196159Y-115177048D01*
X62207066Y-115186934D01*
X62216952Y-115197841D01*
X62225720Y-115209664D01*
X62233288Y-115222290D01*
X62239582Y-115235597D01*
X62244541Y-115249457D01*
X62248118Y-115263736D01*
X62250278Y-115278297D01*
X62251000Y-115293000D01*
X62251000Y-115593000D01*
X62250278Y-115607703D01*
X62248118Y-115622264D01*
X62244541Y-115636543D01*
X62239582Y-115650403D01*
X62233288Y-115663710D01*
X62225720Y-115676336D01*
X62216952Y-115688159D01*
X62207066Y-115699066D01*
X62196159Y-115708952D01*
X62184336Y-115717720D01*
X62171710Y-115725288D01*
X62158403Y-115731582D01*
X62144543Y-115736541D01*
X62130264Y-115740118D01*
X62115703Y-115742278D01*
X62101000Y-115743000D01*
X60451000Y-115743000D01*
X60436297Y-115742278D01*
X60421736Y-115740118D01*
X60407457Y-115736541D01*
X60393597Y-115731582D01*
X60380290Y-115725288D01*
X60367664Y-115717720D01*
X60355841Y-115708952D01*
X60344934Y-115699066D01*
X60335048Y-115688159D01*
X60326280Y-115676336D01*
X60318712Y-115663710D01*
X60312418Y-115650403D01*
X60307459Y-115636543D01*
X60303882Y-115622264D01*
X60301722Y-115607703D01*
X60301000Y-115593000D01*
X60301000Y-115293000D01*
X60301722Y-115278297D01*
X60303882Y-115263736D01*
X60307459Y-115249457D01*
X60312418Y-115235597D01*
X60318712Y-115222290D01*
X60326280Y-115209664D01*
X60335048Y-115197841D01*
X60344934Y-115186934D01*
X60355841Y-115177048D01*
X60367664Y-115168280D01*
X60380290Y-115160712D01*
X60393597Y-115154418D01*
X60407457Y-115149459D01*
X60421736Y-115145882D01*
X60436297Y-115143722D01*
X60451000Y-115143000D01*
X62101000Y-115143000D01*
X62115703Y-115143722D01*
X62115703Y-115143722D01*
G37*
D11*
X61276000Y-115443000D03*
M02*
