G04 #@! TF.GenerationSoftware,KiCad,Pcbnew,5.1.4*
G04 #@! TF.CreationDate,2019-09-28T21:29:46+01:00*
G04 #@! TF.ProjectId,attenuverter_mixer,61747465-6e75-4766-9572-7465725f6d69,rev?*
G04 #@! TF.SameCoordinates,Original*
G04 #@! TF.FileFunction,Soldermask,Top*
G04 #@! TF.FilePolarity,Negative*
%FSLAX46Y46*%
G04 Gerber Fmt 4.6, Leading zero omitted, Abs format (unit mm)*
G04 Created by KiCad (PCBNEW 5.1.4) date 2019-09-28 21:29:46*
%MOMM*%
%LPD*%
G04 APERTURE LIST*
%ADD10C,0.100000*%
G04 APERTURE END LIST*
D10*
G36*
X68182442Y-147060518D02*
G01*
X68248627Y-147067037D01*
X68418466Y-147118557D01*
X68574991Y-147202222D01*
X68610729Y-147231552D01*
X68712186Y-147314814D01*
X68795448Y-147416271D01*
X68824778Y-147452009D01*
X68908443Y-147608534D01*
X68959963Y-147778373D01*
X68977359Y-147955000D01*
X68959963Y-148131627D01*
X68908443Y-148301466D01*
X68824778Y-148457991D01*
X68795448Y-148493729D01*
X68712186Y-148595186D01*
X68610729Y-148678448D01*
X68574991Y-148707778D01*
X68418466Y-148791443D01*
X68248627Y-148842963D01*
X68182443Y-148849481D01*
X68116260Y-148856000D01*
X68027740Y-148856000D01*
X67961557Y-148849481D01*
X67895373Y-148842963D01*
X67725534Y-148791443D01*
X67569009Y-148707778D01*
X67533271Y-148678448D01*
X67431814Y-148595186D01*
X67348552Y-148493729D01*
X67319222Y-148457991D01*
X67235557Y-148301466D01*
X67184037Y-148131627D01*
X67166641Y-147955000D01*
X67184037Y-147778373D01*
X67235557Y-147608534D01*
X67319222Y-147452009D01*
X67348552Y-147416271D01*
X67431814Y-147314814D01*
X67533271Y-147231552D01*
X67569009Y-147202222D01*
X67725534Y-147118557D01*
X67895373Y-147067037D01*
X67961558Y-147060518D01*
X68027740Y-147054000D01*
X68116260Y-147054000D01*
X68182442Y-147060518D01*
X68182442Y-147060518D01*
G37*
G36*
X65642442Y-147060518D02*
G01*
X65708627Y-147067037D01*
X65878466Y-147118557D01*
X66034991Y-147202222D01*
X66070729Y-147231552D01*
X66172186Y-147314814D01*
X66255448Y-147416271D01*
X66284778Y-147452009D01*
X66368443Y-147608534D01*
X66419963Y-147778373D01*
X66437359Y-147955000D01*
X66419963Y-148131627D01*
X66368443Y-148301466D01*
X66284778Y-148457991D01*
X66255448Y-148493729D01*
X66172186Y-148595186D01*
X66070729Y-148678448D01*
X66034991Y-148707778D01*
X65878466Y-148791443D01*
X65708627Y-148842963D01*
X65642443Y-148849481D01*
X65576260Y-148856000D01*
X65487740Y-148856000D01*
X65421557Y-148849481D01*
X65355373Y-148842963D01*
X65185534Y-148791443D01*
X65029009Y-148707778D01*
X64993271Y-148678448D01*
X64891814Y-148595186D01*
X64808552Y-148493729D01*
X64779222Y-148457991D01*
X64695557Y-148301466D01*
X64644037Y-148131627D01*
X64626641Y-147955000D01*
X64644037Y-147778373D01*
X64695557Y-147608534D01*
X64779222Y-147452009D01*
X64808552Y-147416271D01*
X64891814Y-147314814D01*
X64993271Y-147231552D01*
X65029009Y-147202222D01*
X65185534Y-147118557D01*
X65355373Y-147067037D01*
X65421558Y-147060518D01*
X65487740Y-147054000D01*
X65576260Y-147054000D01*
X65642442Y-147060518D01*
X65642442Y-147060518D01*
G37*
G36*
X65642442Y-144520518D02*
G01*
X65708627Y-144527037D01*
X65878466Y-144578557D01*
X66034991Y-144662222D01*
X66070729Y-144691552D01*
X66172186Y-144774814D01*
X66255448Y-144876271D01*
X66284778Y-144912009D01*
X66368443Y-145068534D01*
X66419963Y-145238373D01*
X66437359Y-145415000D01*
X66419963Y-145591627D01*
X66368443Y-145761466D01*
X66284778Y-145917991D01*
X66255448Y-145953729D01*
X66172186Y-146055186D01*
X66070729Y-146138448D01*
X66034991Y-146167778D01*
X65878466Y-146251443D01*
X65708627Y-146302963D01*
X65642442Y-146309482D01*
X65576260Y-146316000D01*
X65487740Y-146316000D01*
X65421558Y-146309482D01*
X65355373Y-146302963D01*
X65185534Y-146251443D01*
X65029009Y-146167778D01*
X64993271Y-146138448D01*
X64891814Y-146055186D01*
X64808552Y-145953729D01*
X64779222Y-145917991D01*
X64695557Y-145761466D01*
X64644037Y-145591627D01*
X64626641Y-145415000D01*
X64644037Y-145238373D01*
X64695557Y-145068534D01*
X64779222Y-144912009D01*
X64808552Y-144876271D01*
X64891814Y-144774814D01*
X64993271Y-144691552D01*
X65029009Y-144662222D01*
X65185534Y-144578557D01*
X65355373Y-144527037D01*
X65421558Y-144520518D01*
X65487740Y-144514000D01*
X65576260Y-144514000D01*
X65642442Y-144520518D01*
X65642442Y-144520518D01*
G37*
G36*
X68182442Y-144520518D02*
G01*
X68248627Y-144527037D01*
X68418466Y-144578557D01*
X68574991Y-144662222D01*
X68610729Y-144691552D01*
X68712186Y-144774814D01*
X68795448Y-144876271D01*
X68824778Y-144912009D01*
X68908443Y-145068534D01*
X68959963Y-145238373D01*
X68977359Y-145415000D01*
X68959963Y-145591627D01*
X68908443Y-145761466D01*
X68824778Y-145917991D01*
X68795448Y-145953729D01*
X68712186Y-146055186D01*
X68610729Y-146138448D01*
X68574991Y-146167778D01*
X68418466Y-146251443D01*
X68248627Y-146302963D01*
X68182442Y-146309482D01*
X68116260Y-146316000D01*
X68027740Y-146316000D01*
X67961558Y-146309482D01*
X67895373Y-146302963D01*
X67725534Y-146251443D01*
X67569009Y-146167778D01*
X67533271Y-146138448D01*
X67431814Y-146055186D01*
X67348552Y-145953729D01*
X67319222Y-145917991D01*
X67235557Y-145761466D01*
X67184037Y-145591627D01*
X67166641Y-145415000D01*
X67184037Y-145238373D01*
X67235557Y-145068534D01*
X67319222Y-144912009D01*
X67348552Y-144876271D01*
X67431814Y-144774814D01*
X67533271Y-144691552D01*
X67569009Y-144662222D01*
X67725534Y-144578557D01*
X67895373Y-144527037D01*
X67961558Y-144520518D01*
X68027740Y-144514000D01*
X68116260Y-144514000D01*
X68182442Y-144520518D01*
X68182442Y-144520518D01*
G37*
G36*
X62199655Y-143565591D02*
G01*
X62271525Y-143579887D01*
X62474624Y-143664013D01*
X62657409Y-143786146D01*
X62812854Y-143941591D01*
X62934987Y-144124376D01*
X62934987Y-144124377D01*
X63019113Y-144327476D01*
X63062000Y-144543082D01*
X63062000Y-144762918D01*
X63033409Y-144906655D01*
X63019113Y-144978525D01*
X62934987Y-145181624D01*
X62812854Y-145364409D01*
X62657409Y-145519854D01*
X62474624Y-145641987D01*
X62271525Y-145726113D01*
X62199655Y-145740409D01*
X62055918Y-145769000D01*
X61836082Y-145769000D01*
X61692345Y-145740409D01*
X61620475Y-145726113D01*
X61417376Y-145641987D01*
X61234591Y-145519854D01*
X61079146Y-145364409D01*
X60957013Y-145181624D01*
X60872887Y-144978525D01*
X60858591Y-144906655D01*
X60830000Y-144762918D01*
X60830000Y-144543082D01*
X60872887Y-144327476D01*
X60957013Y-144124377D01*
X60957013Y-144124376D01*
X61079146Y-143941591D01*
X61234591Y-143786146D01*
X61417376Y-143664013D01*
X61620475Y-143579887D01*
X61692345Y-143565591D01*
X61836082Y-143537000D01*
X62055918Y-143537000D01*
X62199655Y-143565591D01*
X62199655Y-143565591D01*
G37*
G36*
X47721655Y-143565591D02*
G01*
X47793525Y-143579887D01*
X47996624Y-143664013D01*
X48179409Y-143786146D01*
X48334854Y-143941591D01*
X48456987Y-144124376D01*
X48456987Y-144124377D01*
X48541113Y-144327476D01*
X48584000Y-144543082D01*
X48584000Y-144762918D01*
X48555409Y-144906655D01*
X48541113Y-144978525D01*
X48456987Y-145181624D01*
X48334854Y-145364409D01*
X48179409Y-145519854D01*
X47996624Y-145641987D01*
X47793525Y-145726113D01*
X47721655Y-145740409D01*
X47577918Y-145769000D01*
X47358082Y-145769000D01*
X47214345Y-145740409D01*
X47142475Y-145726113D01*
X46939376Y-145641987D01*
X46756591Y-145519854D01*
X46601146Y-145364409D01*
X46479013Y-145181624D01*
X46394887Y-144978525D01*
X46380591Y-144906655D01*
X46352000Y-144762918D01*
X46352000Y-144543082D01*
X46394887Y-144327476D01*
X46479013Y-144124377D01*
X46479013Y-144124376D01*
X46601146Y-143941591D01*
X46756591Y-143786146D01*
X46939376Y-143664013D01*
X47142475Y-143579887D01*
X47214345Y-143565591D01*
X47358082Y-143537000D01*
X47577918Y-143537000D01*
X47721655Y-143565591D01*
X47721655Y-143565591D01*
G37*
G36*
X53899655Y-143565591D02*
G01*
X53971525Y-143579887D01*
X54174624Y-143664013D01*
X54357409Y-143786146D01*
X54512854Y-143941591D01*
X54634987Y-144124376D01*
X54634987Y-144124377D01*
X54719113Y-144327476D01*
X54762000Y-144543082D01*
X54762000Y-144762918D01*
X54733409Y-144906655D01*
X54719113Y-144978525D01*
X54634987Y-145181624D01*
X54512854Y-145364409D01*
X54357409Y-145519854D01*
X54174624Y-145641987D01*
X53971525Y-145726113D01*
X53899655Y-145740409D01*
X53755918Y-145769000D01*
X53536082Y-145769000D01*
X53392345Y-145740409D01*
X53320475Y-145726113D01*
X53117376Y-145641987D01*
X52934591Y-145519854D01*
X52779146Y-145364409D01*
X52657013Y-145181624D01*
X52572887Y-144978525D01*
X52558591Y-144906655D01*
X52530000Y-144762918D01*
X52530000Y-144543082D01*
X52572887Y-144327476D01*
X52657013Y-144124377D01*
X52657013Y-144124376D01*
X52779146Y-143941591D01*
X52934591Y-143786146D01*
X53117376Y-143664013D01*
X53320475Y-143579887D01*
X53392345Y-143565591D01*
X53536082Y-143537000D01*
X53755918Y-143537000D01*
X53899655Y-143565591D01*
X53899655Y-143565591D01*
G37*
G36*
X39421655Y-143565591D02*
G01*
X39493525Y-143579887D01*
X39696624Y-143664013D01*
X39879409Y-143786146D01*
X40034854Y-143941591D01*
X40156987Y-144124376D01*
X40156987Y-144124377D01*
X40241113Y-144327476D01*
X40284000Y-144543082D01*
X40284000Y-144762918D01*
X40255409Y-144906655D01*
X40241113Y-144978525D01*
X40156987Y-145181624D01*
X40034854Y-145364409D01*
X39879409Y-145519854D01*
X39696624Y-145641987D01*
X39493525Y-145726113D01*
X39421655Y-145740409D01*
X39277918Y-145769000D01*
X39058082Y-145769000D01*
X38914345Y-145740409D01*
X38842475Y-145726113D01*
X38639376Y-145641987D01*
X38456591Y-145519854D01*
X38301146Y-145364409D01*
X38179013Y-145181624D01*
X38094887Y-144978525D01*
X38080591Y-144906655D01*
X38052000Y-144762918D01*
X38052000Y-144543082D01*
X38094887Y-144327476D01*
X38179013Y-144124377D01*
X38179013Y-144124376D01*
X38301146Y-143941591D01*
X38456591Y-143786146D01*
X38639376Y-143664013D01*
X38842475Y-143579887D01*
X38914345Y-143565591D01*
X39058082Y-143537000D01*
X39277918Y-143537000D01*
X39421655Y-143565591D01*
X39421655Y-143565591D01*
G37*
G36*
X51512000Y-145669000D02*
G01*
X49580000Y-145669000D01*
X49580000Y-143637000D01*
X51512000Y-143637000D01*
X51512000Y-145669000D01*
X51512000Y-145669000D01*
G37*
G36*
X37034000Y-145669000D02*
G01*
X35102000Y-145669000D01*
X35102000Y-143637000D01*
X37034000Y-143637000D01*
X37034000Y-145669000D01*
X37034000Y-145669000D01*
G37*
G36*
X68182443Y-141980519D02*
G01*
X68248627Y-141987037D01*
X68418466Y-142038557D01*
X68574991Y-142122222D01*
X68610729Y-142151552D01*
X68712186Y-142234814D01*
X68795448Y-142336271D01*
X68824778Y-142372009D01*
X68908443Y-142528534D01*
X68959963Y-142698373D01*
X68977359Y-142875000D01*
X68959963Y-143051627D01*
X68908443Y-143221466D01*
X68824778Y-143377991D01*
X68795448Y-143413729D01*
X68712186Y-143515186D01*
X68633346Y-143579887D01*
X68574991Y-143627778D01*
X68418466Y-143711443D01*
X68248627Y-143762963D01*
X68182442Y-143769482D01*
X68116260Y-143776000D01*
X68027740Y-143776000D01*
X67961558Y-143769482D01*
X67895373Y-143762963D01*
X67725534Y-143711443D01*
X67569009Y-143627778D01*
X67510654Y-143579887D01*
X67431814Y-143515186D01*
X67348552Y-143413729D01*
X67319222Y-143377991D01*
X67235557Y-143221466D01*
X67184037Y-143051627D01*
X67166641Y-142875000D01*
X67184037Y-142698373D01*
X67235557Y-142528534D01*
X67319222Y-142372009D01*
X67348552Y-142336271D01*
X67431814Y-142234814D01*
X67533271Y-142151552D01*
X67569009Y-142122222D01*
X67725534Y-142038557D01*
X67895373Y-141987037D01*
X67961557Y-141980519D01*
X68027740Y-141974000D01*
X68116260Y-141974000D01*
X68182443Y-141980519D01*
X68182443Y-141980519D01*
G37*
G36*
X65642443Y-141980519D02*
G01*
X65708627Y-141987037D01*
X65878466Y-142038557D01*
X66034991Y-142122222D01*
X66070729Y-142151552D01*
X66172186Y-142234814D01*
X66255448Y-142336271D01*
X66284778Y-142372009D01*
X66368443Y-142528534D01*
X66419963Y-142698373D01*
X66437359Y-142875000D01*
X66419963Y-143051627D01*
X66368443Y-143221466D01*
X66284778Y-143377991D01*
X66255448Y-143413729D01*
X66172186Y-143515186D01*
X66093346Y-143579887D01*
X66034991Y-143627778D01*
X65878466Y-143711443D01*
X65708627Y-143762963D01*
X65642442Y-143769482D01*
X65576260Y-143776000D01*
X65487740Y-143776000D01*
X65421558Y-143769482D01*
X65355373Y-143762963D01*
X65185534Y-143711443D01*
X65029009Y-143627778D01*
X64970654Y-143579887D01*
X64891814Y-143515186D01*
X64808552Y-143413729D01*
X64779222Y-143377991D01*
X64695557Y-143221466D01*
X64644037Y-143051627D01*
X64626641Y-142875000D01*
X64644037Y-142698373D01*
X64695557Y-142528534D01*
X64779222Y-142372009D01*
X64808552Y-142336271D01*
X64891814Y-142234814D01*
X64993271Y-142151552D01*
X65029009Y-142122222D01*
X65185534Y-142038557D01*
X65355373Y-141987037D01*
X65421557Y-141980519D01*
X65487740Y-141974000D01*
X65576260Y-141974000D01*
X65642443Y-141980519D01*
X65642443Y-141980519D01*
G37*
G36*
X65642443Y-139440519D02*
G01*
X65708627Y-139447037D01*
X65878466Y-139498557D01*
X66034991Y-139582222D01*
X66070729Y-139611552D01*
X66172186Y-139694814D01*
X66255448Y-139796271D01*
X66284778Y-139832009D01*
X66368443Y-139988534D01*
X66419963Y-140158373D01*
X66437359Y-140335000D01*
X66419963Y-140511627D01*
X66368443Y-140681466D01*
X66284778Y-140837991D01*
X66255448Y-140873729D01*
X66172186Y-140975186D01*
X66070729Y-141058448D01*
X66034991Y-141087778D01*
X65878466Y-141171443D01*
X65708627Y-141222963D01*
X65642442Y-141229482D01*
X65576260Y-141236000D01*
X65487740Y-141236000D01*
X65421558Y-141229482D01*
X65355373Y-141222963D01*
X65185534Y-141171443D01*
X65029009Y-141087778D01*
X64993271Y-141058448D01*
X64891814Y-140975186D01*
X64808552Y-140873729D01*
X64779222Y-140837991D01*
X64695557Y-140681466D01*
X64644037Y-140511627D01*
X64626641Y-140335000D01*
X64644037Y-140158373D01*
X64695557Y-139988534D01*
X64779222Y-139832009D01*
X64808552Y-139796271D01*
X64891814Y-139694814D01*
X64993271Y-139611552D01*
X65029009Y-139582222D01*
X65185534Y-139498557D01*
X65355373Y-139447037D01*
X65421557Y-139440519D01*
X65487740Y-139434000D01*
X65576260Y-139434000D01*
X65642443Y-139440519D01*
X65642443Y-139440519D01*
G37*
G36*
X68182443Y-139440519D02*
G01*
X68248627Y-139447037D01*
X68418466Y-139498557D01*
X68574991Y-139582222D01*
X68610729Y-139611552D01*
X68712186Y-139694814D01*
X68795448Y-139796271D01*
X68824778Y-139832009D01*
X68908443Y-139988534D01*
X68959963Y-140158373D01*
X68977359Y-140335000D01*
X68959963Y-140511627D01*
X68908443Y-140681466D01*
X68824778Y-140837991D01*
X68795448Y-140873729D01*
X68712186Y-140975186D01*
X68610729Y-141058448D01*
X68574991Y-141087778D01*
X68418466Y-141171443D01*
X68248627Y-141222963D01*
X68182442Y-141229482D01*
X68116260Y-141236000D01*
X68027740Y-141236000D01*
X67961558Y-141229482D01*
X67895373Y-141222963D01*
X67725534Y-141171443D01*
X67569009Y-141087778D01*
X67533271Y-141058448D01*
X67431814Y-140975186D01*
X67348552Y-140873729D01*
X67319222Y-140837991D01*
X67235557Y-140681466D01*
X67184037Y-140511627D01*
X67166641Y-140335000D01*
X67184037Y-140158373D01*
X67235557Y-139988534D01*
X67319222Y-139832009D01*
X67348552Y-139796271D01*
X67431814Y-139694814D01*
X67533271Y-139611552D01*
X67569009Y-139582222D01*
X67725534Y-139498557D01*
X67895373Y-139447037D01*
X67961557Y-139440519D01*
X68027740Y-139434000D01*
X68116260Y-139434000D01*
X68182443Y-139440519D01*
X68182443Y-139440519D01*
G37*
G36*
X63254000Y-138946000D02*
G01*
X60952000Y-138946000D01*
X60952000Y-136644000D01*
X63254000Y-136644000D01*
X63254000Y-138946000D01*
X63254000Y-138946000D01*
G37*
G36*
X52084587Y-136652376D02*
G01*
X52168635Y-136660654D01*
X52385600Y-136726470D01*
X52385602Y-136726471D01*
X52585555Y-136833347D01*
X52760818Y-136977182D01*
X52904653Y-137152445D01*
X52988384Y-137309097D01*
X53011530Y-137352400D01*
X53077346Y-137569365D01*
X53099569Y-137795000D01*
X53078507Y-138008852D01*
X53077346Y-138020634D01*
X53011529Y-138237602D01*
X52904653Y-138437555D01*
X52760818Y-138612818D01*
X52585555Y-138756653D01*
X52385602Y-138863529D01*
X52385600Y-138863530D01*
X52168635Y-138929346D01*
X52112271Y-138934897D01*
X51999545Y-138946000D01*
X51886455Y-138946000D01*
X51773729Y-138934897D01*
X51717365Y-138929346D01*
X51500400Y-138863530D01*
X51500398Y-138863529D01*
X51300445Y-138756653D01*
X51125182Y-138612818D01*
X50981347Y-138437555D01*
X50874471Y-138237602D01*
X50808654Y-138020634D01*
X50807494Y-138008852D01*
X50786431Y-137795000D01*
X50808654Y-137569365D01*
X50874470Y-137352400D01*
X50897616Y-137309097D01*
X50981347Y-137152445D01*
X51125182Y-136977182D01*
X51300445Y-136833347D01*
X51500398Y-136726471D01*
X51500400Y-136726470D01*
X51717365Y-136660654D01*
X51801413Y-136652376D01*
X51886455Y-136644000D01*
X51999545Y-136644000D01*
X52084587Y-136652376D01*
X52084587Y-136652376D01*
G37*
G36*
X68973000Y-138696000D02*
G01*
X67171000Y-138696000D01*
X67171000Y-136894000D01*
X68973000Y-136894000D01*
X68973000Y-138696000D01*
X68973000Y-138696000D01*
G37*
G36*
X65642442Y-136900518D02*
G01*
X65708627Y-136907037D01*
X65878466Y-136958557D01*
X66034991Y-137042222D01*
X66070729Y-137071552D01*
X66172186Y-137154814D01*
X66236549Y-137233242D01*
X66284778Y-137292009D01*
X66368443Y-137448534D01*
X66419963Y-137618373D01*
X66437359Y-137795000D01*
X66419963Y-137971627D01*
X66368443Y-138141466D01*
X66284778Y-138297991D01*
X66255448Y-138333729D01*
X66172186Y-138435186D01*
X66070729Y-138518448D01*
X66034991Y-138547778D01*
X65878466Y-138631443D01*
X65708627Y-138682963D01*
X65642443Y-138689481D01*
X65576260Y-138696000D01*
X65487740Y-138696000D01*
X65421557Y-138689481D01*
X65355373Y-138682963D01*
X65185534Y-138631443D01*
X65029009Y-138547778D01*
X64993271Y-138518448D01*
X64891814Y-138435186D01*
X64808552Y-138333729D01*
X64779222Y-138297991D01*
X64695557Y-138141466D01*
X64644037Y-137971627D01*
X64626641Y-137795000D01*
X64644037Y-137618373D01*
X64695557Y-137448534D01*
X64779222Y-137292009D01*
X64827451Y-137233242D01*
X64891814Y-137154814D01*
X64993271Y-137071552D01*
X65029009Y-137042222D01*
X65185534Y-136958557D01*
X65355373Y-136907037D01*
X65421558Y-136900518D01*
X65487740Y-136894000D01*
X65576260Y-136894000D01*
X65642442Y-136900518D01*
X65642442Y-136900518D01*
G37*
G36*
X33922562Y-136491181D02*
G01*
X33957481Y-136501774D01*
X33989663Y-136518976D01*
X34017873Y-136542127D01*
X34041024Y-136570337D01*
X34058226Y-136602519D01*
X34068819Y-136637438D01*
X34073000Y-136679895D01*
X34073000Y-137821105D01*
X34068819Y-137863562D01*
X34058226Y-137898481D01*
X34041024Y-137930663D01*
X34017873Y-137958873D01*
X33989663Y-137982024D01*
X33957481Y-137999226D01*
X33922562Y-138009819D01*
X33880105Y-138014000D01*
X32413895Y-138014000D01*
X32371438Y-138009819D01*
X32336519Y-137999226D01*
X32304337Y-137982024D01*
X32276127Y-137958873D01*
X32252976Y-137930663D01*
X32235774Y-137898481D01*
X32225181Y-137863562D01*
X32221000Y-137821105D01*
X32221000Y-136679895D01*
X32225181Y-136637438D01*
X32235774Y-136602519D01*
X32252976Y-136570337D01*
X32276127Y-136542127D01*
X32304337Y-136518976D01*
X32336519Y-136501774D01*
X32371438Y-136491181D01*
X32413895Y-136487000D01*
X33880105Y-136487000D01*
X33922562Y-136491181D01*
X33922562Y-136491181D01*
G37*
G36*
X48254228Y-136087703D02*
G01*
X48409100Y-136151853D01*
X48548481Y-136244985D01*
X48667015Y-136363519D01*
X48760147Y-136502900D01*
X48824297Y-136657772D01*
X48857000Y-136822184D01*
X48857000Y-136989816D01*
X48824297Y-137154228D01*
X48760147Y-137309100D01*
X48667015Y-137448481D01*
X48548481Y-137567015D01*
X48409100Y-137660147D01*
X48254228Y-137724297D01*
X48089816Y-137757000D01*
X47922184Y-137757000D01*
X47757772Y-137724297D01*
X47602900Y-137660147D01*
X47463519Y-137567015D01*
X47344985Y-137448481D01*
X47251853Y-137309100D01*
X47187703Y-137154228D01*
X47155000Y-136989816D01*
X47155000Y-136822184D01*
X47187703Y-136657772D01*
X47251853Y-136502900D01*
X47344985Y-136363519D01*
X47463519Y-136244985D01*
X47602900Y-136151853D01*
X47757772Y-136087703D01*
X47922184Y-136055000D01*
X48089816Y-136055000D01*
X48254228Y-136087703D01*
X48254228Y-136087703D01*
G37*
G36*
X36062228Y-136087703D02*
G01*
X36217100Y-136151853D01*
X36356481Y-136244985D01*
X36475015Y-136363519D01*
X36568147Y-136502900D01*
X36632297Y-136657772D01*
X36665000Y-136822184D01*
X36665000Y-136989816D01*
X36632297Y-137154228D01*
X36568147Y-137309100D01*
X36475015Y-137448481D01*
X36356481Y-137567015D01*
X36217100Y-137660147D01*
X36062228Y-137724297D01*
X35897816Y-137757000D01*
X35730184Y-137757000D01*
X35565772Y-137724297D01*
X35410900Y-137660147D01*
X35271519Y-137567015D01*
X35152985Y-137448481D01*
X35059853Y-137309100D01*
X34995703Y-137154228D01*
X34963000Y-136989816D01*
X34963000Y-136822184D01*
X34995703Y-136657772D01*
X35059853Y-136502900D01*
X35152985Y-136363519D01*
X35271519Y-136244985D01*
X35410900Y-136151853D01*
X35565772Y-136087703D01*
X35730184Y-136055000D01*
X35897816Y-136055000D01*
X36062228Y-136087703D01*
X36062228Y-136087703D01*
G37*
G36*
X42412228Y-136087703D02*
G01*
X42567100Y-136151853D01*
X42706481Y-136244985D01*
X42825015Y-136363519D01*
X42918147Y-136502900D01*
X42982297Y-136657772D01*
X43015000Y-136822184D01*
X43015000Y-136989816D01*
X42982297Y-137154228D01*
X42918147Y-137309100D01*
X42825015Y-137448481D01*
X42706481Y-137567015D01*
X42567100Y-137660147D01*
X42412228Y-137724297D01*
X42247816Y-137757000D01*
X42080184Y-137757000D01*
X41915772Y-137724297D01*
X41760900Y-137660147D01*
X41621519Y-137567015D01*
X41502985Y-137448481D01*
X41409853Y-137309100D01*
X41345703Y-137154228D01*
X41313000Y-136989816D01*
X41313000Y-136822184D01*
X41345703Y-136657772D01*
X41409853Y-136502900D01*
X41502985Y-136363519D01*
X41621519Y-136244985D01*
X41760900Y-136151853D01*
X41915772Y-136087703D01*
X42080184Y-136055000D01*
X42247816Y-136055000D01*
X42412228Y-136087703D01*
X42412228Y-136087703D01*
G37*
G36*
X39790823Y-136067313D02*
G01*
X39951242Y-136115976D01*
X40018361Y-136151852D01*
X40099078Y-136194996D01*
X40228659Y-136301341D01*
X40335004Y-136430922D01*
X40335005Y-136430924D01*
X40414024Y-136578758D01*
X40462687Y-136739177D01*
X40479117Y-136906000D01*
X40462687Y-137072823D01*
X40414024Y-137233242D01*
X40373477Y-137309100D01*
X40335004Y-137381078D01*
X40228659Y-137510659D01*
X40099078Y-137617004D01*
X40099076Y-137617005D01*
X39951242Y-137696024D01*
X39790823Y-137744687D01*
X39665804Y-137757000D01*
X39582196Y-137757000D01*
X39457177Y-137744687D01*
X39296758Y-137696024D01*
X39148924Y-137617005D01*
X39148922Y-137617004D01*
X39019341Y-137510659D01*
X38912996Y-137381078D01*
X38874523Y-137309100D01*
X38833976Y-137233242D01*
X38785313Y-137072823D01*
X38768883Y-136906000D01*
X38785313Y-136739177D01*
X38833976Y-136578758D01*
X38912995Y-136430924D01*
X38912996Y-136430922D01*
X39019341Y-136301341D01*
X39148922Y-136194996D01*
X39229639Y-136151852D01*
X39296758Y-136115976D01*
X39457177Y-136067313D01*
X39582196Y-136055000D01*
X39665804Y-136055000D01*
X39790823Y-136067313D01*
X39790823Y-136067313D01*
G37*
G36*
X45632823Y-136067313D02*
G01*
X45793242Y-136115976D01*
X45860361Y-136151852D01*
X45941078Y-136194996D01*
X46070659Y-136301341D01*
X46177004Y-136430922D01*
X46177005Y-136430924D01*
X46256024Y-136578758D01*
X46304687Y-136739177D01*
X46321117Y-136906000D01*
X46304687Y-137072823D01*
X46256024Y-137233242D01*
X46215477Y-137309100D01*
X46177004Y-137381078D01*
X46070659Y-137510659D01*
X45941078Y-137617004D01*
X45941076Y-137617005D01*
X45793242Y-137696024D01*
X45632823Y-137744687D01*
X45507804Y-137757000D01*
X45424196Y-137757000D01*
X45299177Y-137744687D01*
X45138758Y-137696024D01*
X44990924Y-137617005D01*
X44990922Y-137617004D01*
X44861341Y-137510659D01*
X44754996Y-137381078D01*
X44716523Y-137309100D01*
X44675976Y-137233242D01*
X44627313Y-137072823D01*
X44610883Y-136906000D01*
X44627313Y-136739177D01*
X44675976Y-136578758D01*
X44754995Y-136430924D01*
X44754996Y-136430922D01*
X44861341Y-136301341D01*
X44990922Y-136194996D01*
X45071639Y-136151852D01*
X45138758Y-136115976D01*
X45299177Y-136067313D01*
X45424196Y-136055000D01*
X45507804Y-136055000D01*
X45632823Y-136067313D01*
X45632823Y-136067313D01*
G37*
G36*
X53354562Y-134079181D02*
G01*
X53389481Y-134089774D01*
X53421663Y-134106976D01*
X53449873Y-134130127D01*
X53473024Y-134158337D01*
X53490226Y-134190519D01*
X53500819Y-134225438D01*
X53505000Y-134267895D01*
X53505000Y-135734105D01*
X53500819Y-135776562D01*
X53490226Y-135811481D01*
X53473024Y-135843663D01*
X53449873Y-135871873D01*
X53421663Y-135895024D01*
X53389481Y-135912226D01*
X53354562Y-135922819D01*
X53312105Y-135927000D01*
X52170895Y-135927000D01*
X52128438Y-135922819D01*
X52093519Y-135912226D01*
X52061337Y-135895024D01*
X52033127Y-135871873D01*
X52009976Y-135843663D01*
X51992774Y-135811481D01*
X51982181Y-135776562D01*
X51978000Y-135734105D01*
X51978000Y-134267895D01*
X51982181Y-134225438D01*
X51992774Y-134190519D01*
X52009976Y-134158337D01*
X52033127Y-134130127D01*
X52061337Y-134106976D01*
X52093519Y-134089774D01*
X52128438Y-134079181D01*
X52170895Y-134075000D01*
X53312105Y-134075000D01*
X53354562Y-134079181D01*
X53354562Y-134079181D01*
G37*
G36*
X56329562Y-134079181D02*
G01*
X56364481Y-134089774D01*
X56396663Y-134106976D01*
X56424873Y-134130127D01*
X56448024Y-134158337D01*
X56465226Y-134190519D01*
X56475819Y-134225438D01*
X56480000Y-134267895D01*
X56480000Y-135734105D01*
X56475819Y-135776562D01*
X56465226Y-135811481D01*
X56448024Y-135843663D01*
X56424873Y-135871873D01*
X56396663Y-135895024D01*
X56364481Y-135912226D01*
X56329562Y-135922819D01*
X56287105Y-135927000D01*
X55145895Y-135927000D01*
X55103438Y-135922819D01*
X55068519Y-135912226D01*
X55036337Y-135895024D01*
X55008127Y-135871873D01*
X54984976Y-135843663D01*
X54967774Y-135811481D01*
X54957181Y-135776562D01*
X54953000Y-135734105D01*
X54953000Y-134267895D01*
X54957181Y-134225438D01*
X54967774Y-134190519D01*
X54984976Y-134158337D01*
X55008127Y-134130127D01*
X55036337Y-134106976D01*
X55068519Y-134089774D01*
X55103438Y-134079181D01*
X55145895Y-134075000D01*
X56287105Y-134075000D01*
X56329562Y-134079181D01*
X56329562Y-134079181D01*
G37*
G36*
X69604000Y-135517000D02*
G01*
X67302000Y-135517000D01*
X67302000Y-133215000D01*
X69604000Y-133215000D01*
X69604000Y-135517000D01*
X69604000Y-135517000D01*
G37*
G36*
X58462271Y-133226103D02*
G01*
X58518635Y-133231654D01*
X58735600Y-133297470D01*
X58735602Y-133297471D01*
X58935555Y-133404347D01*
X59110818Y-133548182D01*
X59254653Y-133723445D01*
X59329523Y-133863519D01*
X59361530Y-133923400D01*
X59427346Y-134140365D01*
X59449569Y-134366000D01*
X59427346Y-134591635D01*
X59370261Y-134779819D01*
X59361529Y-134808602D01*
X59254653Y-135008555D01*
X59110818Y-135183818D01*
X58935555Y-135327653D01*
X58735602Y-135434529D01*
X58735600Y-135434530D01*
X58518635Y-135500346D01*
X58462271Y-135505897D01*
X58349545Y-135517000D01*
X58236455Y-135517000D01*
X58123729Y-135505897D01*
X58067365Y-135500346D01*
X57850400Y-135434530D01*
X57850398Y-135434529D01*
X57650445Y-135327653D01*
X57475182Y-135183818D01*
X57331347Y-135008555D01*
X57224471Y-134808602D01*
X57215740Y-134779819D01*
X57158654Y-134591635D01*
X57136431Y-134366000D01*
X57158654Y-134140365D01*
X57224470Y-133923400D01*
X57256477Y-133863519D01*
X57331347Y-133723445D01*
X57475182Y-133548182D01*
X57650445Y-133404347D01*
X57850398Y-133297471D01*
X57850400Y-133297470D01*
X58067365Y-133231654D01*
X58123729Y-133226103D01*
X58236455Y-133215000D01*
X58349545Y-133215000D01*
X58462271Y-133226103D01*
X58462271Y-133226103D01*
G37*
G36*
X36062228Y-133587703D02*
G01*
X36217100Y-133651853D01*
X36356481Y-133744985D01*
X36475015Y-133863519D01*
X36568147Y-134002900D01*
X36632297Y-134157772D01*
X36665000Y-134322184D01*
X36665000Y-134489816D01*
X36632297Y-134654228D01*
X36568147Y-134809100D01*
X36475015Y-134948481D01*
X36356481Y-135067015D01*
X36217100Y-135160147D01*
X36062228Y-135224297D01*
X35897816Y-135257000D01*
X35730184Y-135257000D01*
X35565772Y-135224297D01*
X35410900Y-135160147D01*
X35271519Y-135067015D01*
X35152985Y-134948481D01*
X35059853Y-134809100D01*
X34995703Y-134654228D01*
X34963000Y-134489816D01*
X34963000Y-134322184D01*
X34995703Y-134157772D01*
X35059853Y-134002900D01*
X35152985Y-133863519D01*
X35271519Y-133744985D01*
X35410900Y-133651853D01*
X35565772Y-133587703D01*
X35730184Y-133555000D01*
X35897816Y-133555000D01*
X36062228Y-133587703D01*
X36062228Y-133587703D01*
G37*
G36*
X33922562Y-133516181D02*
G01*
X33957481Y-133526774D01*
X33989663Y-133543976D01*
X34017873Y-133567127D01*
X34041024Y-133595337D01*
X34058226Y-133627519D01*
X34068819Y-133662438D01*
X34073000Y-133704895D01*
X34073000Y-134846105D01*
X34068819Y-134888562D01*
X34058226Y-134923481D01*
X34041024Y-134955663D01*
X34017873Y-134983873D01*
X33989663Y-135007024D01*
X33957481Y-135024226D01*
X33922562Y-135034819D01*
X33880105Y-135039000D01*
X32413895Y-135039000D01*
X32371438Y-135034819D01*
X32336519Y-135024226D01*
X32304337Y-135007024D01*
X32276127Y-134983873D01*
X32252976Y-134955663D01*
X32235774Y-134923481D01*
X32225181Y-134888562D01*
X32221000Y-134846105D01*
X32221000Y-133704895D01*
X32225181Y-133662438D01*
X32235774Y-133627519D01*
X32252976Y-133595337D01*
X32276127Y-133567127D01*
X32304337Y-133543976D01*
X32336519Y-133526774D01*
X32371438Y-133516181D01*
X32413895Y-133512000D01*
X33880105Y-133512000D01*
X33922562Y-133516181D01*
X33922562Y-133516181D01*
G37*
G36*
X48147562Y-132936181D02*
G01*
X48182481Y-132946774D01*
X48214663Y-132963976D01*
X48242873Y-132987127D01*
X48266024Y-133015337D01*
X48283226Y-133047519D01*
X48293819Y-133082438D01*
X48298000Y-133124895D01*
X48298000Y-134591105D01*
X48293819Y-134633562D01*
X48283226Y-134668481D01*
X48266024Y-134700663D01*
X48242873Y-134728873D01*
X48214663Y-134752024D01*
X48182481Y-134769226D01*
X48147562Y-134779819D01*
X48105105Y-134784000D01*
X46963895Y-134784000D01*
X46921438Y-134779819D01*
X46886519Y-134769226D01*
X46854337Y-134752024D01*
X46826127Y-134728873D01*
X46802976Y-134700663D01*
X46785774Y-134668481D01*
X46775181Y-134633562D01*
X46771000Y-134591105D01*
X46771000Y-133124895D01*
X46775181Y-133082438D01*
X46785774Y-133047519D01*
X46802976Y-133015337D01*
X46826127Y-132987127D01*
X46854337Y-132963976D01*
X46886519Y-132946774D01*
X46921438Y-132936181D01*
X46963895Y-132932000D01*
X48105105Y-132932000D01*
X48147562Y-132936181D01*
X48147562Y-132936181D01*
G37*
G36*
X51122562Y-132936181D02*
G01*
X51157481Y-132946774D01*
X51189663Y-132963976D01*
X51217873Y-132987127D01*
X51241024Y-133015337D01*
X51258226Y-133047519D01*
X51268819Y-133082438D01*
X51273000Y-133124895D01*
X51273000Y-134591105D01*
X51268819Y-134633562D01*
X51258226Y-134668481D01*
X51241024Y-134700663D01*
X51217873Y-134728873D01*
X51189663Y-134752024D01*
X51157481Y-134769226D01*
X51122562Y-134779819D01*
X51080105Y-134784000D01*
X49938895Y-134784000D01*
X49896438Y-134779819D01*
X49861519Y-134769226D01*
X49829337Y-134752024D01*
X49801127Y-134728873D01*
X49777976Y-134700663D01*
X49760774Y-134668481D01*
X49750181Y-134633562D01*
X49746000Y-134591105D01*
X49746000Y-133124895D01*
X49750181Y-133082438D01*
X49760774Y-133047519D01*
X49777976Y-133015337D01*
X49801127Y-132987127D01*
X49829337Y-132963976D01*
X49861519Y-132946774D01*
X49896438Y-132936181D01*
X49938895Y-132932000D01*
X51080105Y-132932000D01*
X51122562Y-132936181D01*
X51122562Y-132936181D01*
G37*
G36*
X40750928Y-133001764D02*
G01*
X40772009Y-133008160D01*
X40791445Y-133018548D01*
X40808476Y-133032524D01*
X40822452Y-133049555D01*
X40832840Y-133068991D01*
X40839236Y-133090072D01*
X40842000Y-133118140D01*
X40842000Y-133581860D01*
X40839236Y-133609928D01*
X40832840Y-133631009D01*
X40822452Y-133650445D01*
X40808476Y-133667476D01*
X40791445Y-133681452D01*
X40772009Y-133691840D01*
X40750928Y-133698236D01*
X40722860Y-133701000D01*
X38909140Y-133701000D01*
X38881072Y-133698236D01*
X38859991Y-133691840D01*
X38840555Y-133681452D01*
X38823524Y-133667476D01*
X38809548Y-133650445D01*
X38799160Y-133631009D01*
X38792764Y-133609928D01*
X38790000Y-133581860D01*
X38790000Y-133118140D01*
X38792764Y-133090072D01*
X38799160Y-133068991D01*
X38809548Y-133049555D01*
X38823524Y-133032524D01*
X38840555Y-133018548D01*
X38859991Y-133008160D01*
X38881072Y-133001764D01*
X38909140Y-132999000D01*
X40722860Y-132999000D01*
X40750928Y-133001764D01*
X40750928Y-133001764D01*
G37*
G36*
X45700928Y-133001764D02*
G01*
X45722009Y-133008160D01*
X45741445Y-133018548D01*
X45758476Y-133032524D01*
X45772452Y-133049555D01*
X45782840Y-133068991D01*
X45789236Y-133090072D01*
X45792000Y-133118140D01*
X45792000Y-133581860D01*
X45789236Y-133609928D01*
X45782840Y-133631009D01*
X45772452Y-133650445D01*
X45758476Y-133667476D01*
X45741445Y-133681452D01*
X45722009Y-133691840D01*
X45700928Y-133698236D01*
X45672860Y-133701000D01*
X43859140Y-133701000D01*
X43831072Y-133698236D01*
X43809991Y-133691840D01*
X43790555Y-133681452D01*
X43773524Y-133667476D01*
X43759548Y-133650445D01*
X43749160Y-133631009D01*
X43742764Y-133609928D01*
X43740000Y-133581860D01*
X43740000Y-133118140D01*
X43742764Y-133090072D01*
X43749160Y-133068991D01*
X43759548Y-133049555D01*
X43773524Y-133032524D01*
X43790555Y-133018548D01*
X43809991Y-133008160D01*
X43831072Y-133001764D01*
X43859140Y-132999000D01*
X45672860Y-132999000D01*
X45700928Y-133001764D01*
X45700928Y-133001764D01*
G37*
G36*
X45700928Y-131731764D02*
G01*
X45722009Y-131738160D01*
X45741445Y-131748548D01*
X45758476Y-131762524D01*
X45772452Y-131779555D01*
X45782840Y-131798991D01*
X45789236Y-131820072D01*
X45792000Y-131848140D01*
X45792000Y-132311860D01*
X45789236Y-132339928D01*
X45782840Y-132361009D01*
X45772452Y-132380445D01*
X45758476Y-132397476D01*
X45741445Y-132411452D01*
X45722009Y-132421840D01*
X45700928Y-132428236D01*
X45672860Y-132431000D01*
X43859140Y-132431000D01*
X43831072Y-132428236D01*
X43809991Y-132421840D01*
X43790555Y-132411452D01*
X43773524Y-132397476D01*
X43759548Y-132380445D01*
X43749160Y-132361009D01*
X43742764Y-132339928D01*
X43740000Y-132311860D01*
X43740000Y-131848140D01*
X43742764Y-131820072D01*
X43749160Y-131798991D01*
X43759548Y-131779555D01*
X43773524Y-131762524D01*
X43790555Y-131748548D01*
X43809991Y-131738160D01*
X43831072Y-131731764D01*
X43859140Y-131729000D01*
X45672860Y-131729000D01*
X45700928Y-131731764D01*
X45700928Y-131731764D01*
G37*
G36*
X40750928Y-131731764D02*
G01*
X40772009Y-131738160D01*
X40791445Y-131748548D01*
X40808476Y-131762524D01*
X40822452Y-131779555D01*
X40832840Y-131798991D01*
X40839236Y-131820072D01*
X40842000Y-131848140D01*
X40842000Y-132311860D01*
X40839236Y-132339928D01*
X40832840Y-132361009D01*
X40822452Y-132380445D01*
X40808476Y-132397476D01*
X40791445Y-132411452D01*
X40772009Y-132421840D01*
X40750928Y-132428236D01*
X40722860Y-132431000D01*
X38909140Y-132431000D01*
X38881072Y-132428236D01*
X38859991Y-132421840D01*
X38840555Y-132411452D01*
X38823524Y-132397476D01*
X38809548Y-132380445D01*
X38799160Y-132361009D01*
X38792764Y-132339928D01*
X38790000Y-132311860D01*
X38790000Y-131848140D01*
X38792764Y-131820072D01*
X38799160Y-131798991D01*
X38809548Y-131779555D01*
X38823524Y-131762524D01*
X38840555Y-131748548D01*
X38859991Y-131738160D01*
X38881072Y-131731764D01*
X38909140Y-131729000D01*
X40722860Y-131729000D01*
X40750928Y-131731764D01*
X40750928Y-131731764D01*
G37*
G36*
X56046823Y-130606313D02*
G01*
X56207242Y-130654976D01*
X56274361Y-130690852D01*
X56355078Y-130733996D01*
X56484659Y-130840341D01*
X56591004Y-130969922D01*
X56591005Y-130969924D01*
X56670024Y-131117758D01*
X56718687Y-131278177D01*
X56735117Y-131445000D01*
X56718687Y-131611823D01*
X56670024Y-131772242D01*
X56617631Y-131870262D01*
X56591004Y-131920078D01*
X56484659Y-132049659D01*
X56355078Y-132156004D01*
X56355076Y-132156005D01*
X56207242Y-132235024D01*
X56046823Y-132283687D01*
X55921804Y-132296000D01*
X55838196Y-132296000D01*
X55713177Y-132283687D01*
X55552758Y-132235024D01*
X55404924Y-132156005D01*
X55404922Y-132156004D01*
X55275341Y-132049659D01*
X55168996Y-131920078D01*
X55142369Y-131870262D01*
X55089976Y-131772242D01*
X55041313Y-131611823D01*
X55024883Y-131445000D01*
X55041313Y-131278177D01*
X55089976Y-131117758D01*
X55168995Y-130969924D01*
X55168996Y-130969922D01*
X55275341Y-130840341D01*
X55404922Y-130733996D01*
X55485639Y-130690852D01*
X55552758Y-130654976D01*
X55713177Y-130606313D01*
X55838196Y-130594000D01*
X55921804Y-130594000D01*
X56046823Y-130606313D01*
X56046823Y-130606313D01*
G37*
G36*
X49111000Y-132296000D02*
G01*
X47409000Y-132296000D01*
X47409000Y-130594000D01*
X49111000Y-130594000D01*
X49111000Y-132296000D01*
X49111000Y-132296000D01*
G37*
G36*
X33308228Y-130626703D02*
G01*
X33463100Y-130690853D01*
X33602481Y-130783985D01*
X33721015Y-130902519D01*
X33814147Y-131041900D01*
X33878297Y-131196772D01*
X33911000Y-131361184D01*
X33911000Y-131528816D01*
X33878297Y-131693228D01*
X33814147Y-131848100D01*
X33721015Y-131987481D01*
X33602481Y-132106015D01*
X33463100Y-132199147D01*
X33308228Y-132263297D01*
X33143816Y-132296000D01*
X32976184Y-132296000D01*
X32811772Y-132263297D01*
X32656900Y-132199147D01*
X32517519Y-132106015D01*
X32398985Y-131987481D01*
X32305853Y-131848100D01*
X32241703Y-131693228D01*
X32209000Y-131528816D01*
X32209000Y-131361184D01*
X32241703Y-131196772D01*
X32305853Y-131041900D01*
X32398985Y-130902519D01*
X32517519Y-130783985D01*
X32656900Y-130690853D01*
X32811772Y-130626703D01*
X32976184Y-130594000D01*
X33143816Y-130594000D01*
X33308228Y-130626703D01*
X33308228Y-130626703D01*
G37*
G36*
X35808228Y-130626703D02*
G01*
X35963100Y-130690853D01*
X36102481Y-130783985D01*
X36221015Y-130902519D01*
X36314147Y-131041900D01*
X36378297Y-131196772D01*
X36411000Y-131361184D01*
X36411000Y-131528816D01*
X36378297Y-131693228D01*
X36314147Y-131848100D01*
X36221015Y-131987481D01*
X36102481Y-132106015D01*
X35963100Y-132199147D01*
X35808228Y-132263297D01*
X35643816Y-132296000D01*
X35476184Y-132296000D01*
X35311772Y-132263297D01*
X35156900Y-132199147D01*
X35017519Y-132106015D01*
X34898985Y-131987481D01*
X34805853Y-131848100D01*
X34741703Y-131693228D01*
X34709000Y-131528816D01*
X34709000Y-131361184D01*
X34741703Y-131196772D01*
X34805853Y-131041900D01*
X34898985Y-130902519D01*
X35017519Y-130783985D01*
X35156900Y-130690853D01*
X35311772Y-130626703D01*
X35476184Y-130594000D01*
X35643816Y-130594000D01*
X35808228Y-130626703D01*
X35808228Y-130626703D01*
G37*
G36*
X45700928Y-130461764D02*
G01*
X45722009Y-130468160D01*
X45741445Y-130478548D01*
X45758476Y-130492524D01*
X45772452Y-130509555D01*
X45782840Y-130528991D01*
X45789236Y-130550072D01*
X45792000Y-130578140D01*
X45792000Y-131041860D01*
X45789236Y-131069928D01*
X45782840Y-131091009D01*
X45772452Y-131110445D01*
X45758476Y-131127476D01*
X45741445Y-131141452D01*
X45722009Y-131151840D01*
X45700928Y-131158236D01*
X45672860Y-131161000D01*
X43859140Y-131161000D01*
X43831072Y-131158236D01*
X43809991Y-131151840D01*
X43790555Y-131141452D01*
X43773524Y-131127476D01*
X43759548Y-131110445D01*
X43749160Y-131091009D01*
X43742764Y-131069928D01*
X43740000Y-131041860D01*
X43740000Y-130578140D01*
X43742764Y-130550072D01*
X43749160Y-130528991D01*
X43759548Y-130509555D01*
X43773524Y-130492524D01*
X43790555Y-130478548D01*
X43809991Y-130468160D01*
X43831072Y-130461764D01*
X43859140Y-130459000D01*
X45672860Y-130459000D01*
X45700928Y-130461764D01*
X45700928Y-130461764D01*
G37*
G36*
X40750928Y-130461764D02*
G01*
X40772009Y-130468160D01*
X40791445Y-130478548D01*
X40808476Y-130492524D01*
X40822452Y-130509555D01*
X40832840Y-130528991D01*
X40839236Y-130550072D01*
X40842000Y-130578140D01*
X40842000Y-131041860D01*
X40839236Y-131069928D01*
X40832840Y-131091009D01*
X40822452Y-131110445D01*
X40808476Y-131127476D01*
X40791445Y-131141452D01*
X40772009Y-131151840D01*
X40750928Y-131158236D01*
X40722860Y-131161000D01*
X38909140Y-131161000D01*
X38881072Y-131158236D01*
X38859991Y-131151840D01*
X38840555Y-131141452D01*
X38823524Y-131127476D01*
X38809548Y-131110445D01*
X38799160Y-131091009D01*
X38792764Y-131069928D01*
X38790000Y-131041860D01*
X38790000Y-130578140D01*
X38792764Y-130550072D01*
X38799160Y-130528991D01*
X38809548Y-130509555D01*
X38823524Y-130492524D01*
X38840555Y-130478548D01*
X38859991Y-130468160D01*
X38881072Y-130461764D01*
X38909140Y-130459000D01*
X40722860Y-130459000D01*
X40750928Y-130461764D01*
X40750928Y-130461764D01*
G37*
G36*
X68161228Y-128848703D02*
G01*
X68316100Y-128912853D01*
X68455481Y-129005985D01*
X68574015Y-129124519D01*
X68667147Y-129263900D01*
X68731297Y-129418772D01*
X68764000Y-129583184D01*
X68764000Y-129750816D01*
X68731297Y-129915228D01*
X68667147Y-130070100D01*
X68574015Y-130209481D01*
X68455481Y-130328015D01*
X68316100Y-130421147D01*
X68161228Y-130485297D01*
X67996816Y-130518000D01*
X67829184Y-130518000D01*
X67664772Y-130485297D01*
X67509900Y-130421147D01*
X67370519Y-130328015D01*
X67251985Y-130209481D01*
X67158853Y-130070100D01*
X67094703Y-129915228D01*
X67062000Y-129750816D01*
X67062000Y-129583184D01*
X67094703Y-129418772D01*
X67158853Y-129263900D01*
X67251985Y-129124519D01*
X67370519Y-129005985D01*
X67509900Y-128912853D01*
X67664772Y-128848703D01*
X67829184Y-128816000D01*
X67996816Y-128816000D01*
X68161228Y-128848703D01*
X68161228Y-128848703D01*
G37*
G36*
X66764000Y-130518000D02*
G01*
X65062000Y-130518000D01*
X65062000Y-128816000D01*
X66764000Y-128816000D01*
X66764000Y-130518000D01*
X66764000Y-130518000D01*
G37*
G36*
X60351228Y-128848703D02*
G01*
X60506100Y-128912853D01*
X60645481Y-129005985D01*
X60764015Y-129124519D01*
X60857147Y-129263900D01*
X60921297Y-129418772D01*
X60954000Y-129583184D01*
X60954000Y-129750816D01*
X60921297Y-129915228D01*
X60857147Y-130070100D01*
X60764015Y-130209481D01*
X60645481Y-130328015D01*
X60506100Y-130421147D01*
X60351228Y-130485297D01*
X60186816Y-130518000D01*
X60019184Y-130518000D01*
X59854772Y-130485297D01*
X59699900Y-130421147D01*
X59560519Y-130328015D01*
X59441985Y-130209481D01*
X59348853Y-130070100D01*
X59284703Y-129915228D01*
X59252000Y-129750816D01*
X59252000Y-129583184D01*
X59284703Y-129418772D01*
X59348853Y-129263900D01*
X59441985Y-129124519D01*
X59560519Y-129005985D01*
X59699900Y-128912853D01*
X59854772Y-128848703D01*
X60019184Y-128816000D01*
X60186816Y-128816000D01*
X60351228Y-128848703D01*
X60351228Y-128848703D01*
G37*
G36*
X62954000Y-130518000D02*
G01*
X61252000Y-130518000D01*
X61252000Y-128816000D01*
X62954000Y-128816000D01*
X62954000Y-130518000D01*
X62954000Y-130518000D01*
G37*
G36*
X40750928Y-129191764D02*
G01*
X40772009Y-129198160D01*
X40791445Y-129208548D01*
X40808476Y-129222524D01*
X40822452Y-129239555D01*
X40832840Y-129258991D01*
X40839236Y-129280072D01*
X40842000Y-129308140D01*
X40842000Y-129771860D01*
X40839236Y-129799928D01*
X40832840Y-129821009D01*
X40822452Y-129840445D01*
X40808476Y-129857476D01*
X40791445Y-129871452D01*
X40772009Y-129881840D01*
X40750928Y-129888236D01*
X40722860Y-129891000D01*
X38909140Y-129891000D01*
X38881072Y-129888236D01*
X38859991Y-129881840D01*
X38840555Y-129871452D01*
X38823524Y-129857476D01*
X38809548Y-129840445D01*
X38799160Y-129821009D01*
X38792764Y-129799928D01*
X38790000Y-129771860D01*
X38790000Y-129308140D01*
X38792764Y-129280072D01*
X38799160Y-129258991D01*
X38809548Y-129239555D01*
X38823524Y-129222524D01*
X38840555Y-129208548D01*
X38859991Y-129198160D01*
X38881072Y-129191764D01*
X38909140Y-129189000D01*
X40722860Y-129189000D01*
X40750928Y-129191764D01*
X40750928Y-129191764D01*
G37*
G36*
X45700928Y-129191764D02*
G01*
X45722009Y-129198160D01*
X45741445Y-129208548D01*
X45758476Y-129222524D01*
X45772452Y-129239555D01*
X45782840Y-129258991D01*
X45789236Y-129280072D01*
X45792000Y-129308140D01*
X45792000Y-129771860D01*
X45789236Y-129799928D01*
X45782840Y-129821009D01*
X45772452Y-129840445D01*
X45758476Y-129857476D01*
X45741445Y-129871452D01*
X45722009Y-129881840D01*
X45700928Y-129888236D01*
X45672860Y-129891000D01*
X43859140Y-129891000D01*
X43831072Y-129888236D01*
X43809991Y-129881840D01*
X43790555Y-129871452D01*
X43773524Y-129857476D01*
X43759548Y-129840445D01*
X43749160Y-129821009D01*
X43742764Y-129799928D01*
X43740000Y-129771860D01*
X43740000Y-129308140D01*
X43742764Y-129280072D01*
X43749160Y-129258991D01*
X43759548Y-129239555D01*
X43773524Y-129222524D01*
X43790555Y-129208548D01*
X43809991Y-129198160D01*
X43831072Y-129191764D01*
X43859140Y-129189000D01*
X45672860Y-129189000D01*
X45700928Y-129191764D01*
X45700928Y-129191764D01*
G37*
G36*
X56046823Y-128066313D02*
G01*
X56207242Y-128114976D01*
X56273044Y-128150148D01*
X56355078Y-128193996D01*
X56484659Y-128300341D01*
X56591004Y-128429922D01*
X56591005Y-128429924D01*
X56670024Y-128577758D01*
X56718687Y-128738177D01*
X56735117Y-128905000D01*
X56718687Y-129071823D01*
X56670024Y-129232242D01*
X56617631Y-129330262D01*
X56591004Y-129380078D01*
X56484659Y-129509659D01*
X56355078Y-129616004D01*
X56355076Y-129616005D01*
X56207242Y-129695024D01*
X56046823Y-129743687D01*
X55921804Y-129756000D01*
X55838196Y-129756000D01*
X55713177Y-129743687D01*
X55552758Y-129695024D01*
X55404924Y-129616005D01*
X55404922Y-129616004D01*
X55275341Y-129509659D01*
X55168996Y-129380078D01*
X55142369Y-129330262D01*
X55089976Y-129232242D01*
X55041313Y-129071823D01*
X55024883Y-128905000D01*
X55041313Y-128738177D01*
X55089976Y-128577758D01*
X55168995Y-128429924D01*
X55168996Y-128429922D01*
X55275341Y-128300341D01*
X55404922Y-128193996D01*
X55486956Y-128150148D01*
X55552758Y-128114976D01*
X55713177Y-128066313D01*
X55838196Y-128054000D01*
X55921804Y-128054000D01*
X56046823Y-128066313D01*
X56046823Y-128066313D01*
G37*
G36*
X49111000Y-129756000D02*
G01*
X47409000Y-129756000D01*
X47409000Y-128054000D01*
X49111000Y-128054000D01*
X49111000Y-129756000D01*
X49111000Y-129756000D01*
G37*
G36*
X36462562Y-128109181D02*
G01*
X36497481Y-128119774D01*
X36529663Y-128136976D01*
X36557873Y-128160127D01*
X36581024Y-128188337D01*
X36598226Y-128220519D01*
X36608819Y-128255438D01*
X36613000Y-128297895D01*
X36613000Y-129439105D01*
X36608819Y-129481562D01*
X36598226Y-129516481D01*
X36581024Y-129548663D01*
X36557873Y-129576873D01*
X36529663Y-129600024D01*
X36497481Y-129617226D01*
X36462562Y-129627819D01*
X36420105Y-129632000D01*
X34953895Y-129632000D01*
X34911438Y-129627819D01*
X34876519Y-129617226D01*
X34844337Y-129600024D01*
X34816127Y-129576873D01*
X34792976Y-129548663D01*
X34775774Y-129516481D01*
X34765181Y-129481562D01*
X34761000Y-129439105D01*
X34761000Y-128297895D01*
X34765181Y-128255438D01*
X34775774Y-128220519D01*
X34792976Y-128188337D01*
X34816127Y-128160127D01*
X34844337Y-128136976D01*
X34876519Y-128119774D01*
X34911438Y-128109181D01*
X34953895Y-128105000D01*
X36420105Y-128105000D01*
X36462562Y-128109181D01*
X36462562Y-128109181D01*
G37*
G36*
X33922562Y-128109181D02*
G01*
X33957481Y-128119774D01*
X33989663Y-128136976D01*
X34017873Y-128160127D01*
X34041024Y-128188337D01*
X34058226Y-128220519D01*
X34068819Y-128255438D01*
X34073000Y-128297895D01*
X34073000Y-129439105D01*
X34068819Y-129481562D01*
X34058226Y-129516481D01*
X34041024Y-129548663D01*
X34017873Y-129576873D01*
X33989663Y-129600024D01*
X33957481Y-129617226D01*
X33922562Y-129627819D01*
X33880105Y-129632000D01*
X32413895Y-129632000D01*
X32371438Y-129627819D01*
X32336519Y-129617226D01*
X32304337Y-129600024D01*
X32276127Y-129576873D01*
X32252976Y-129548663D01*
X32235774Y-129516481D01*
X32225181Y-129481562D01*
X32221000Y-129439105D01*
X32221000Y-128297895D01*
X32225181Y-128255438D01*
X32235774Y-128220519D01*
X32252976Y-128188337D01*
X32276127Y-128160127D01*
X32304337Y-128136976D01*
X32336519Y-128119774D01*
X32371438Y-128109181D01*
X32413895Y-128105000D01*
X33880105Y-128105000D01*
X33922562Y-128109181D01*
X33922562Y-128109181D01*
G37*
G36*
X45700928Y-127921764D02*
G01*
X45722009Y-127928160D01*
X45741445Y-127938548D01*
X45758476Y-127952524D01*
X45772452Y-127969555D01*
X45782840Y-127988991D01*
X45789236Y-128010072D01*
X45792000Y-128038140D01*
X45792000Y-128501860D01*
X45789236Y-128529928D01*
X45782840Y-128551009D01*
X45772452Y-128570445D01*
X45758476Y-128587476D01*
X45741445Y-128601452D01*
X45722009Y-128611840D01*
X45700928Y-128618236D01*
X45672860Y-128621000D01*
X43859140Y-128621000D01*
X43831072Y-128618236D01*
X43809991Y-128611840D01*
X43790555Y-128601452D01*
X43773524Y-128587476D01*
X43759548Y-128570445D01*
X43749160Y-128551009D01*
X43742764Y-128529928D01*
X43740000Y-128501860D01*
X43740000Y-128038140D01*
X43742764Y-128010072D01*
X43749160Y-127988991D01*
X43759548Y-127969555D01*
X43773524Y-127952524D01*
X43790555Y-127938548D01*
X43809991Y-127928160D01*
X43831072Y-127921764D01*
X43859140Y-127919000D01*
X45672860Y-127919000D01*
X45700928Y-127921764D01*
X45700928Y-127921764D01*
G37*
G36*
X40750928Y-127921764D02*
G01*
X40772009Y-127928160D01*
X40791445Y-127938548D01*
X40808476Y-127952524D01*
X40822452Y-127969555D01*
X40832840Y-127988991D01*
X40839236Y-128010072D01*
X40842000Y-128038140D01*
X40842000Y-128501860D01*
X40839236Y-128529928D01*
X40832840Y-128551009D01*
X40822452Y-128570445D01*
X40808476Y-128587476D01*
X40791445Y-128601452D01*
X40772009Y-128611840D01*
X40750928Y-128618236D01*
X40722860Y-128621000D01*
X38909140Y-128621000D01*
X38881072Y-128618236D01*
X38859991Y-128611840D01*
X38840555Y-128601452D01*
X38823524Y-128587476D01*
X38809548Y-128570445D01*
X38799160Y-128551009D01*
X38792764Y-128529928D01*
X38790000Y-128501860D01*
X38790000Y-128038140D01*
X38792764Y-128010072D01*
X38799160Y-127988991D01*
X38809548Y-127969555D01*
X38823524Y-127952524D01*
X38840555Y-127938548D01*
X38859991Y-127928160D01*
X38881072Y-127921764D01*
X38909140Y-127919000D01*
X40722860Y-127919000D01*
X40750928Y-127921764D01*
X40750928Y-127921764D01*
G37*
G36*
X45700928Y-126651764D02*
G01*
X45722009Y-126658160D01*
X45741445Y-126668548D01*
X45758476Y-126682524D01*
X45772452Y-126699555D01*
X45782840Y-126718991D01*
X45789236Y-126740072D01*
X45792000Y-126768140D01*
X45792000Y-127231860D01*
X45789236Y-127259928D01*
X45782840Y-127281009D01*
X45772452Y-127300445D01*
X45758476Y-127317476D01*
X45741445Y-127331452D01*
X45722009Y-127341840D01*
X45700928Y-127348236D01*
X45672860Y-127351000D01*
X43859140Y-127351000D01*
X43831072Y-127348236D01*
X43809991Y-127341840D01*
X43790555Y-127331452D01*
X43773524Y-127317476D01*
X43759548Y-127300445D01*
X43749160Y-127281009D01*
X43742764Y-127259928D01*
X43740000Y-127231860D01*
X43740000Y-126768140D01*
X43742764Y-126740072D01*
X43749160Y-126718991D01*
X43759548Y-126699555D01*
X43773524Y-126682524D01*
X43790555Y-126668548D01*
X43809991Y-126658160D01*
X43831072Y-126651764D01*
X43859140Y-126649000D01*
X45672860Y-126649000D01*
X45700928Y-126651764D01*
X45700928Y-126651764D01*
G37*
G36*
X40750928Y-126651764D02*
G01*
X40772009Y-126658160D01*
X40791445Y-126668548D01*
X40808476Y-126682524D01*
X40822452Y-126699555D01*
X40832840Y-126718991D01*
X40839236Y-126740072D01*
X40842000Y-126768140D01*
X40842000Y-127231860D01*
X40839236Y-127259928D01*
X40832840Y-127281009D01*
X40822452Y-127300445D01*
X40808476Y-127317476D01*
X40791445Y-127331452D01*
X40772009Y-127341840D01*
X40750928Y-127348236D01*
X40722860Y-127351000D01*
X38909140Y-127351000D01*
X38881072Y-127348236D01*
X38859991Y-127341840D01*
X38840555Y-127331452D01*
X38823524Y-127317476D01*
X38809548Y-127300445D01*
X38799160Y-127281009D01*
X38792764Y-127259928D01*
X38790000Y-127231860D01*
X38790000Y-126768140D01*
X38792764Y-126740072D01*
X38799160Y-126718991D01*
X38809548Y-126699555D01*
X38823524Y-126682524D01*
X38840555Y-126668548D01*
X38859991Y-126658160D01*
X38881072Y-126651764D01*
X38909140Y-126649000D01*
X40722860Y-126649000D01*
X40750928Y-126651764D01*
X40750928Y-126651764D01*
G37*
G36*
X33922562Y-125134181D02*
G01*
X33957481Y-125144774D01*
X33989663Y-125161976D01*
X34017873Y-125185127D01*
X34041024Y-125213337D01*
X34058226Y-125245519D01*
X34068819Y-125280438D01*
X34073000Y-125322895D01*
X34073000Y-126464105D01*
X34068819Y-126506562D01*
X34058226Y-126541481D01*
X34041024Y-126573663D01*
X34017873Y-126601873D01*
X33989663Y-126625024D01*
X33957481Y-126642226D01*
X33922562Y-126652819D01*
X33880105Y-126657000D01*
X32413895Y-126657000D01*
X32371438Y-126652819D01*
X32336519Y-126642226D01*
X32304337Y-126625024D01*
X32276127Y-126601873D01*
X32252976Y-126573663D01*
X32235774Y-126541481D01*
X32225181Y-126506562D01*
X32221000Y-126464105D01*
X32221000Y-125322895D01*
X32225181Y-125280438D01*
X32235774Y-125245519D01*
X32252976Y-125213337D01*
X32276127Y-125185127D01*
X32304337Y-125161976D01*
X32336519Y-125144774D01*
X32371438Y-125134181D01*
X32413895Y-125130000D01*
X33880105Y-125130000D01*
X33922562Y-125134181D01*
X33922562Y-125134181D01*
G37*
G36*
X36462562Y-125134181D02*
G01*
X36497481Y-125144774D01*
X36529663Y-125161976D01*
X36557873Y-125185127D01*
X36581024Y-125213337D01*
X36598226Y-125245519D01*
X36608819Y-125280438D01*
X36613000Y-125322895D01*
X36613000Y-126464105D01*
X36608819Y-126506562D01*
X36598226Y-126541481D01*
X36581024Y-126573663D01*
X36557873Y-126601873D01*
X36529663Y-126625024D01*
X36497481Y-126642226D01*
X36462562Y-126652819D01*
X36420105Y-126657000D01*
X34953895Y-126657000D01*
X34911438Y-126652819D01*
X34876519Y-126642226D01*
X34844337Y-126625024D01*
X34816127Y-126601873D01*
X34792976Y-126573663D01*
X34775774Y-126541481D01*
X34765181Y-126506562D01*
X34761000Y-126464105D01*
X34761000Y-125322895D01*
X34765181Y-125280438D01*
X34775774Y-125245519D01*
X34792976Y-125213337D01*
X34816127Y-125185127D01*
X34844337Y-125161976D01*
X34876519Y-125144774D01*
X34911438Y-125134181D01*
X34953895Y-125130000D01*
X36420105Y-125130000D01*
X36462562Y-125134181D01*
X36462562Y-125134181D01*
G37*
G36*
X52318228Y-124657703D02*
G01*
X52473100Y-124721853D01*
X52612481Y-124814985D01*
X52731015Y-124933519D01*
X52824147Y-125072900D01*
X52888297Y-125227772D01*
X52921000Y-125392184D01*
X52921000Y-125559816D01*
X52888297Y-125724228D01*
X52824147Y-125879100D01*
X52731015Y-126018481D01*
X52612481Y-126137015D01*
X52473100Y-126230147D01*
X52318228Y-126294297D01*
X52153816Y-126327000D01*
X51986184Y-126327000D01*
X51821772Y-126294297D01*
X51666900Y-126230147D01*
X51527519Y-126137015D01*
X51408985Y-126018481D01*
X51315853Y-125879100D01*
X51251703Y-125724228D01*
X51219000Y-125559816D01*
X51219000Y-125392184D01*
X51251703Y-125227772D01*
X51315853Y-125072900D01*
X51408985Y-124933519D01*
X51527519Y-124814985D01*
X51666900Y-124721853D01*
X51821772Y-124657703D01*
X51986184Y-124625000D01*
X52153816Y-124625000D01*
X52318228Y-124657703D01*
X52318228Y-124657703D01*
G37*
G36*
X49818228Y-124657703D02*
G01*
X49973100Y-124721853D01*
X50112481Y-124814985D01*
X50231015Y-124933519D01*
X50324147Y-125072900D01*
X50388297Y-125227772D01*
X50421000Y-125392184D01*
X50421000Y-125559816D01*
X50388297Y-125724228D01*
X50324147Y-125879100D01*
X50231015Y-126018481D01*
X50112481Y-126137015D01*
X49973100Y-126230147D01*
X49818228Y-126294297D01*
X49653816Y-126327000D01*
X49486184Y-126327000D01*
X49321772Y-126294297D01*
X49166900Y-126230147D01*
X49027519Y-126137015D01*
X48908985Y-126018481D01*
X48815853Y-125879100D01*
X48751703Y-125724228D01*
X48719000Y-125559816D01*
X48719000Y-125392184D01*
X48751703Y-125227772D01*
X48815853Y-125072900D01*
X48908985Y-124933519D01*
X49027519Y-124814985D01*
X49166900Y-124721853D01*
X49321772Y-124657703D01*
X49486184Y-124625000D01*
X49653816Y-124625000D01*
X49818228Y-124657703D01*
X49818228Y-124657703D01*
G37*
G36*
X45700928Y-125381764D02*
G01*
X45722009Y-125388160D01*
X45741445Y-125398548D01*
X45758476Y-125412524D01*
X45772452Y-125429555D01*
X45782840Y-125448991D01*
X45789236Y-125470072D01*
X45792000Y-125498140D01*
X45792000Y-125961860D01*
X45789236Y-125989928D01*
X45782840Y-126011009D01*
X45772452Y-126030445D01*
X45758476Y-126047476D01*
X45741445Y-126061452D01*
X45722009Y-126071840D01*
X45700928Y-126078236D01*
X45672860Y-126081000D01*
X43859140Y-126081000D01*
X43831072Y-126078236D01*
X43809991Y-126071840D01*
X43790555Y-126061452D01*
X43773524Y-126047476D01*
X43759548Y-126030445D01*
X43749160Y-126011009D01*
X43742764Y-125989928D01*
X43740000Y-125961860D01*
X43740000Y-125498140D01*
X43742764Y-125470072D01*
X43749160Y-125448991D01*
X43759548Y-125429555D01*
X43773524Y-125412524D01*
X43790555Y-125398548D01*
X43809991Y-125388160D01*
X43831072Y-125381764D01*
X43859140Y-125379000D01*
X45672860Y-125379000D01*
X45700928Y-125381764D01*
X45700928Y-125381764D01*
G37*
G36*
X40750928Y-125381764D02*
G01*
X40772009Y-125388160D01*
X40791445Y-125398548D01*
X40808476Y-125412524D01*
X40822452Y-125429555D01*
X40832840Y-125448991D01*
X40839236Y-125470072D01*
X40842000Y-125498140D01*
X40842000Y-125961860D01*
X40839236Y-125989928D01*
X40832840Y-126011009D01*
X40822452Y-126030445D01*
X40808476Y-126047476D01*
X40791445Y-126061452D01*
X40772009Y-126071840D01*
X40750928Y-126078236D01*
X40722860Y-126081000D01*
X38909140Y-126081000D01*
X38881072Y-126078236D01*
X38859991Y-126071840D01*
X38840555Y-126061452D01*
X38823524Y-126047476D01*
X38809548Y-126030445D01*
X38799160Y-126011009D01*
X38792764Y-125989928D01*
X38790000Y-125961860D01*
X38790000Y-125498140D01*
X38792764Y-125470072D01*
X38799160Y-125448991D01*
X38809548Y-125429555D01*
X38823524Y-125412524D01*
X38840555Y-125398548D01*
X38859991Y-125388160D01*
X38881072Y-125381764D01*
X38909140Y-125379000D01*
X40722860Y-125379000D01*
X40750928Y-125381764D01*
X40750928Y-125381764D01*
G37*
G36*
X61805916Y-122241334D02*
G01*
X61914492Y-122274271D01*
X61914495Y-122274272D01*
X61950601Y-122293571D01*
X62014557Y-122327756D01*
X62102264Y-122399736D01*
X62174244Y-122487443D01*
X62188190Y-122513535D01*
X62227728Y-122587505D01*
X62227729Y-122587508D01*
X62260666Y-122696084D01*
X62271787Y-122809000D01*
X62260666Y-122921916D01*
X62227729Y-123030492D01*
X62227728Y-123030495D01*
X62208429Y-123066601D01*
X62174244Y-123130557D01*
X62102264Y-123218264D01*
X62014557Y-123290244D01*
X61933141Y-123333761D01*
X61912766Y-123347375D01*
X61895439Y-123364702D01*
X61881826Y-123385076D01*
X61872448Y-123407715D01*
X61867668Y-123431748D01*
X61867668Y-123456252D01*
X61872448Y-123480285D01*
X61881826Y-123502924D01*
X61895440Y-123523299D01*
X61912767Y-123540626D01*
X61933141Y-123554239D01*
X62014557Y-123597756D01*
X62102264Y-123669736D01*
X62174244Y-123757443D01*
X62203305Y-123811813D01*
X62227728Y-123857505D01*
X62227729Y-123857508D01*
X62260666Y-123966084D01*
X62271787Y-124079000D01*
X62260666Y-124191916D01*
X62227729Y-124300492D01*
X62227728Y-124300495D01*
X62215561Y-124323258D01*
X62174244Y-124400557D01*
X62102264Y-124488264D01*
X62025354Y-124551383D01*
X62008035Y-124568702D01*
X61994421Y-124589077D01*
X61985043Y-124611716D01*
X61980263Y-124635749D01*
X61980263Y-124660253D01*
X61985043Y-124684286D01*
X61994421Y-124706925D01*
X62008034Y-124727299D01*
X62025361Y-124744626D01*
X62045736Y-124758240D01*
X62068375Y-124767618D01*
X62092408Y-124772398D01*
X62104660Y-124773000D01*
X62269000Y-124773000D01*
X62269000Y-125925000D01*
X60667000Y-125925000D01*
X60667000Y-124773000D01*
X60831340Y-124773000D01*
X60855726Y-124770598D01*
X60879175Y-124763485D01*
X60900786Y-124751934D01*
X60919728Y-124736389D01*
X60935273Y-124717447D01*
X60946824Y-124695836D01*
X60953937Y-124672387D01*
X60956339Y-124648001D01*
X60953937Y-124623615D01*
X60946824Y-124600166D01*
X60935273Y-124578555D01*
X60919728Y-124559613D01*
X60910655Y-124551391D01*
X60833736Y-124488264D01*
X60761756Y-124400557D01*
X60720439Y-124323258D01*
X60708272Y-124300495D01*
X60708271Y-124300492D01*
X60675334Y-124191916D01*
X60664213Y-124079000D01*
X60675334Y-123966084D01*
X60708271Y-123857508D01*
X60708272Y-123857505D01*
X60732695Y-123811813D01*
X60761756Y-123757443D01*
X60833736Y-123669736D01*
X60921443Y-123597756D01*
X61002859Y-123554239D01*
X61023234Y-123540625D01*
X61040561Y-123523298D01*
X61054174Y-123502924D01*
X61063552Y-123480285D01*
X61068332Y-123456252D01*
X61068332Y-123431748D01*
X61063552Y-123407715D01*
X61054174Y-123385076D01*
X61040560Y-123364701D01*
X61023233Y-123347374D01*
X61002859Y-123333761D01*
X60921443Y-123290244D01*
X60833736Y-123218264D01*
X60761756Y-123130557D01*
X60727571Y-123066601D01*
X60708272Y-123030495D01*
X60708271Y-123030492D01*
X60675334Y-122921916D01*
X60664213Y-122809000D01*
X60675334Y-122696084D01*
X60708271Y-122587508D01*
X60708272Y-122587505D01*
X60747810Y-122513535D01*
X60761756Y-122487443D01*
X60833736Y-122399736D01*
X60921443Y-122327756D01*
X60985399Y-122293571D01*
X61021505Y-122274272D01*
X61021508Y-122274271D01*
X61130084Y-122241334D01*
X61214702Y-122233000D01*
X61721298Y-122233000D01*
X61805916Y-122241334D01*
X61805916Y-122241334D01*
G37*
G36*
X66415228Y-123832203D02*
G01*
X66570100Y-123896353D01*
X66709481Y-123989485D01*
X66828015Y-124108019D01*
X66921147Y-124247400D01*
X66985297Y-124402272D01*
X67018000Y-124566684D01*
X67018000Y-124734316D01*
X66985297Y-124898728D01*
X66921147Y-125053600D01*
X66828015Y-125192981D01*
X66709481Y-125311515D01*
X66570100Y-125404647D01*
X66415228Y-125468797D01*
X66250816Y-125501500D01*
X66083184Y-125501500D01*
X65918772Y-125468797D01*
X65763900Y-125404647D01*
X65624519Y-125311515D01*
X65505985Y-125192981D01*
X65412853Y-125053600D01*
X65348703Y-124898728D01*
X65316000Y-124734316D01*
X65316000Y-124566684D01*
X65348703Y-124402272D01*
X65412853Y-124247400D01*
X65505985Y-124108019D01*
X65624519Y-123989485D01*
X65763900Y-123896353D01*
X65918772Y-123832203D01*
X66083184Y-123799500D01*
X66250816Y-123799500D01*
X66415228Y-123832203D01*
X66415228Y-123832203D01*
G37*
G36*
X68873823Y-123811813D02*
G01*
X69034242Y-123860476D01*
X69101361Y-123896352D01*
X69182078Y-123939496D01*
X69311659Y-124045841D01*
X69418004Y-124175422D01*
X69418005Y-124175424D01*
X69497024Y-124323258D01*
X69545687Y-124483677D01*
X69562117Y-124650500D01*
X69545687Y-124817323D01*
X69497024Y-124977742D01*
X69456477Y-125053600D01*
X69418004Y-125125578D01*
X69311659Y-125255159D01*
X69182078Y-125361504D01*
X69182076Y-125361505D01*
X69034242Y-125440524D01*
X68873823Y-125489187D01*
X68748804Y-125501500D01*
X68665196Y-125501500D01*
X68540177Y-125489187D01*
X68379758Y-125440524D01*
X68231924Y-125361505D01*
X68231922Y-125361504D01*
X68102341Y-125255159D01*
X67995996Y-125125578D01*
X67957523Y-125053600D01*
X67916976Y-124977742D01*
X67868313Y-124817323D01*
X67851883Y-124650500D01*
X67868313Y-124483677D01*
X67916976Y-124323258D01*
X67995995Y-124175424D01*
X67995996Y-124175422D01*
X68102341Y-124045841D01*
X68231922Y-123939496D01*
X68312639Y-123896352D01*
X68379758Y-123860476D01*
X68540177Y-123811813D01*
X68665196Y-123799500D01*
X68748804Y-123799500D01*
X68873823Y-123811813D01*
X68873823Y-123811813D01*
G37*
G36*
X42285228Y-121228703D02*
G01*
X42440100Y-121292853D01*
X42579481Y-121385985D01*
X42698015Y-121504519D01*
X42791147Y-121643900D01*
X42855297Y-121798772D01*
X42888000Y-121963184D01*
X42888000Y-122130816D01*
X42855297Y-122295228D01*
X42791147Y-122450100D01*
X42698015Y-122589481D01*
X42579481Y-122708015D01*
X42440100Y-122801147D01*
X42285228Y-122865297D01*
X42120816Y-122898000D01*
X41953184Y-122898000D01*
X41788772Y-122865297D01*
X41633900Y-122801147D01*
X41494519Y-122708015D01*
X41375985Y-122589481D01*
X41282853Y-122450100D01*
X41218703Y-122295228D01*
X41186000Y-122130816D01*
X41186000Y-121963184D01*
X41218703Y-121798772D01*
X41282853Y-121643900D01*
X41375985Y-121504519D01*
X41494519Y-121385985D01*
X41633900Y-121292853D01*
X41788772Y-121228703D01*
X41953184Y-121196000D01*
X42120816Y-121196000D01*
X42285228Y-121228703D01*
X42285228Y-121228703D01*
G37*
G36*
X39967000Y-122898000D02*
G01*
X38265000Y-122898000D01*
X38265000Y-121196000D01*
X39967000Y-121196000D01*
X39967000Y-122898000D01*
X39967000Y-122898000D01*
G37*
G36*
X31662823Y-121208313D02*
G01*
X31823242Y-121256976D01*
X31890361Y-121292852D01*
X31971078Y-121335996D01*
X32100659Y-121442341D01*
X32207004Y-121571922D01*
X32207005Y-121571924D01*
X32286024Y-121719758D01*
X32334687Y-121880177D01*
X32351117Y-122047000D01*
X32334687Y-122213823D01*
X32286024Y-122374242D01*
X32233269Y-122472939D01*
X32207004Y-122522078D01*
X32100659Y-122651659D01*
X31971078Y-122758004D01*
X31971076Y-122758005D01*
X31823242Y-122837024D01*
X31662823Y-122885687D01*
X31537804Y-122898000D01*
X31454196Y-122898000D01*
X31329177Y-122885687D01*
X31168758Y-122837024D01*
X31020924Y-122758005D01*
X31020922Y-122758004D01*
X30891341Y-122651659D01*
X30784996Y-122522078D01*
X30758731Y-122472939D01*
X30705976Y-122374242D01*
X30657313Y-122213823D01*
X30640883Y-122047000D01*
X30657313Y-121880177D01*
X30705976Y-121719758D01*
X30784995Y-121571924D01*
X30784996Y-121571922D01*
X30891341Y-121442341D01*
X31020922Y-121335996D01*
X31101639Y-121292852D01*
X31168758Y-121256976D01*
X31329177Y-121208313D01*
X31454196Y-121196000D01*
X31537804Y-121196000D01*
X31662823Y-121208313D01*
X31662823Y-121208313D01*
G37*
G36*
X45607562Y-120744181D02*
G01*
X45642481Y-120754774D01*
X45674663Y-120771976D01*
X45702873Y-120795127D01*
X45726024Y-120823337D01*
X45743226Y-120855519D01*
X45753819Y-120890438D01*
X45758000Y-120932895D01*
X45758000Y-122399105D01*
X45753819Y-122441562D01*
X45743226Y-122476481D01*
X45726024Y-122508663D01*
X45702873Y-122536873D01*
X45674663Y-122560024D01*
X45642481Y-122577226D01*
X45607562Y-122587819D01*
X45565105Y-122592000D01*
X44423895Y-122592000D01*
X44381438Y-122587819D01*
X44346519Y-122577226D01*
X44314337Y-122560024D01*
X44286127Y-122536873D01*
X44262976Y-122508663D01*
X44245774Y-122476481D01*
X44235181Y-122441562D01*
X44231000Y-122399105D01*
X44231000Y-120932895D01*
X44235181Y-120890438D01*
X44245774Y-120855519D01*
X44262976Y-120823337D01*
X44286127Y-120795127D01*
X44314337Y-120771976D01*
X44346519Y-120754774D01*
X44381438Y-120744181D01*
X44423895Y-120740000D01*
X45565105Y-120740000D01*
X45607562Y-120744181D01*
X45607562Y-120744181D01*
G37*
G36*
X48582562Y-120744181D02*
G01*
X48617481Y-120754774D01*
X48649663Y-120771976D01*
X48677873Y-120795127D01*
X48701024Y-120823337D01*
X48718226Y-120855519D01*
X48728819Y-120890438D01*
X48733000Y-120932895D01*
X48733000Y-122399105D01*
X48728819Y-122441562D01*
X48718226Y-122476481D01*
X48701024Y-122508663D01*
X48677873Y-122536873D01*
X48649663Y-122560024D01*
X48617481Y-122577226D01*
X48582562Y-122587819D01*
X48540105Y-122592000D01*
X47398895Y-122592000D01*
X47356438Y-122587819D01*
X47321519Y-122577226D01*
X47289337Y-122560024D01*
X47261127Y-122536873D01*
X47237976Y-122508663D01*
X47220774Y-122476481D01*
X47210181Y-122441562D01*
X47206000Y-122399105D01*
X47206000Y-120932895D01*
X47210181Y-120890438D01*
X47220774Y-120855519D01*
X47237976Y-120823337D01*
X47261127Y-120795127D01*
X47289337Y-120771976D01*
X47321519Y-120754774D01*
X47356438Y-120744181D01*
X47398895Y-120740000D01*
X48540105Y-120740000D01*
X48582562Y-120744181D01*
X48582562Y-120744181D01*
G37*
G36*
X56786728Y-120784203D02*
G01*
X56941600Y-120848353D01*
X57080981Y-120941485D01*
X57199515Y-121060019D01*
X57292647Y-121199400D01*
X57356797Y-121354272D01*
X57389500Y-121518684D01*
X57389500Y-121686316D01*
X57356797Y-121850728D01*
X57292647Y-122005600D01*
X57199515Y-122144981D01*
X57080981Y-122263515D01*
X56941600Y-122356647D01*
X56786728Y-122420797D01*
X56622316Y-122453500D01*
X56454684Y-122453500D01*
X56290272Y-122420797D01*
X56135400Y-122356647D01*
X55996019Y-122263515D01*
X55877485Y-122144981D01*
X55784353Y-122005600D01*
X55720203Y-121850728D01*
X55687500Y-121686316D01*
X55687500Y-121518684D01*
X55720203Y-121354272D01*
X55784353Y-121199400D01*
X55877485Y-121060019D01*
X55996019Y-120941485D01*
X56135400Y-120848353D01*
X56290272Y-120784203D01*
X56454684Y-120751500D01*
X56622316Y-120751500D01*
X56786728Y-120784203D01*
X56786728Y-120784203D01*
G37*
G36*
X54286728Y-120784203D02*
G01*
X54441600Y-120848353D01*
X54580981Y-120941485D01*
X54699515Y-121060019D01*
X54792647Y-121199400D01*
X54856797Y-121354272D01*
X54889500Y-121518684D01*
X54889500Y-121686316D01*
X54856797Y-121850728D01*
X54792647Y-122005600D01*
X54699515Y-122144981D01*
X54580981Y-122263515D01*
X54441600Y-122356647D01*
X54286728Y-122420797D01*
X54122316Y-122453500D01*
X53954684Y-122453500D01*
X53790272Y-122420797D01*
X53635400Y-122356647D01*
X53496019Y-122263515D01*
X53377485Y-122144981D01*
X53284353Y-122005600D01*
X53220203Y-121850728D01*
X53187500Y-121686316D01*
X53187500Y-121518684D01*
X53220203Y-121354272D01*
X53284353Y-121199400D01*
X53377485Y-121060019D01*
X53496019Y-120941485D01*
X53635400Y-120848353D01*
X53790272Y-120784203D01*
X53954684Y-120751500D01*
X54122316Y-120751500D01*
X54286728Y-120784203D01*
X54286728Y-120784203D01*
G37*
G36*
X64896655Y-117968591D02*
G01*
X64968525Y-117982887D01*
X65171624Y-118067013D01*
X65354409Y-118189146D01*
X65509854Y-118344591D01*
X65631987Y-118527376D01*
X65716113Y-118730475D01*
X65716113Y-118730476D01*
X65756900Y-118935524D01*
X65759000Y-118946084D01*
X65759000Y-119165916D01*
X65716113Y-119381525D01*
X65631987Y-119584624D01*
X65509854Y-119767409D01*
X65354409Y-119922854D01*
X65171624Y-120044987D01*
X64968525Y-120129113D01*
X64896655Y-120143409D01*
X64752918Y-120172000D01*
X64533082Y-120172000D01*
X64389345Y-120143409D01*
X64317475Y-120129113D01*
X64114376Y-120044987D01*
X63931591Y-119922854D01*
X63776146Y-119767409D01*
X63654013Y-119584624D01*
X63569887Y-119381525D01*
X63527000Y-119165916D01*
X63527000Y-118946084D01*
X63529101Y-118935524D01*
X63569887Y-118730476D01*
X63569887Y-118730475D01*
X63654013Y-118527376D01*
X63776146Y-118344591D01*
X63931591Y-118189146D01*
X64114376Y-118067013D01*
X64317475Y-117982887D01*
X64389345Y-117968591D01*
X64533082Y-117940000D01*
X64752918Y-117940000D01*
X64896655Y-117968591D01*
X64896655Y-117968591D01*
G37*
G36*
X35432655Y-117968591D02*
G01*
X35504525Y-117982887D01*
X35707624Y-118067013D01*
X35890409Y-118189146D01*
X36045854Y-118344591D01*
X36167987Y-118527376D01*
X36252113Y-118730475D01*
X36252113Y-118730476D01*
X36292900Y-118935524D01*
X36295000Y-118946084D01*
X36295000Y-119165916D01*
X36252113Y-119381525D01*
X36167987Y-119584624D01*
X36045854Y-119767409D01*
X35890409Y-119922854D01*
X35707624Y-120044987D01*
X35504525Y-120129113D01*
X35432655Y-120143409D01*
X35288918Y-120172000D01*
X35069082Y-120172000D01*
X34925345Y-120143409D01*
X34853475Y-120129113D01*
X34650376Y-120044987D01*
X34467591Y-119922854D01*
X34312146Y-119767409D01*
X34190013Y-119584624D01*
X34105887Y-119381525D01*
X34063000Y-119165916D01*
X34063000Y-118946084D01*
X34065101Y-118935524D01*
X34105887Y-118730476D01*
X34105887Y-118730475D01*
X34190013Y-118527376D01*
X34312146Y-118344591D01*
X34467591Y-118189146D01*
X34650376Y-118067013D01*
X34853475Y-117982887D01*
X34925345Y-117968591D01*
X35069082Y-117940000D01*
X35288918Y-117940000D01*
X35432655Y-117968591D01*
X35432655Y-117968591D01*
G37*
G36*
X53910000Y-119783000D02*
G01*
X52008000Y-119783000D01*
X52008000Y-117881000D01*
X53910000Y-117881000D01*
X53910000Y-119783000D01*
X53910000Y-119783000D01*
G37*
G36*
X50736395Y-117917546D02*
G01*
X50909466Y-117989234D01*
X50909467Y-117989235D01*
X51065227Y-118093310D01*
X51197690Y-118225773D01*
X51217889Y-118256003D01*
X51301766Y-118381534D01*
X51373454Y-118554605D01*
X51410000Y-118738333D01*
X51410000Y-118925667D01*
X51373454Y-119109395D01*
X51301766Y-119282466D01*
X51301765Y-119282467D01*
X51197690Y-119438227D01*
X51065227Y-119570690D01*
X51044373Y-119584624D01*
X50909466Y-119674766D01*
X50736395Y-119746454D01*
X50552667Y-119783000D01*
X50365333Y-119783000D01*
X50181605Y-119746454D01*
X50008534Y-119674766D01*
X49873627Y-119584624D01*
X49852773Y-119570690D01*
X49720310Y-119438227D01*
X49616235Y-119282467D01*
X49616234Y-119282466D01*
X49544546Y-119109395D01*
X49508000Y-118925667D01*
X49508000Y-118738333D01*
X49544546Y-118554605D01*
X49616234Y-118381534D01*
X49700111Y-118256003D01*
X49720310Y-118225773D01*
X49852773Y-118093310D01*
X50008533Y-117989235D01*
X50008534Y-117989234D01*
X50181605Y-117917546D01*
X50365333Y-117881000D01*
X50552667Y-117881000D01*
X50736395Y-117917546D01*
X50736395Y-117917546D01*
G37*
G36*
X48236395Y-117917546D02*
G01*
X48409466Y-117989234D01*
X48409467Y-117989235D01*
X48565227Y-118093310D01*
X48697690Y-118225773D01*
X48717889Y-118256003D01*
X48801766Y-118381534D01*
X48873454Y-118554605D01*
X48910000Y-118738333D01*
X48910000Y-118925667D01*
X48873454Y-119109395D01*
X48801766Y-119282466D01*
X48801765Y-119282467D01*
X48697690Y-119438227D01*
X48565227Y-119570690D01*
X48544373Y-119584624D01*
X48409466Y-119674766D01*
X48236395Y-119746454D01*
X48052667Y-119783000D01*
X47865333Y-119783000D01*
X47681605Y-119746454D01*
X47508534Y-119674766D01*
X47373627Y-119584624D01*
X47352773Y-119570690D01*
X47220310Y-119438227D01*
X47116235Y-119282467D01*
X47116234Y-119282466D01*
X47044546Y-119109395D01*
X47008000Y-118925667D01*
X47008000Y-118738333D01*
X47044546Y-118554605D01*
X47116234Y-118381534D01*
X47200111Y-118256003D01*
X47220310Y-118225773D01*
X47352773Y-118093310D01*
X47508533Y-117989235D01*
X47508534Y-117989234D01*
X47681605Y-117917546D01*
X47865333Y-117881000D01*
X48052667Y-117881000D01*
X48236395Y-117917546D01*
X48236395Y-117917546D01*
G37*
G36*
X62210928Y-118904764D02*
G01*
X62232009Y-118911160D01*
X62251445Y-118921548D01*
X62268476Y-118935524D01*
X62282452Y-118952555D01*
X62292840Y-118971991D01*
X62299236Y-118993072D01*
X62302000Y-119021140D01*
X62302000Y-119484860D01*
X62299236Y-119512928D01*
X62292840Y-119534009D01*
X62282452Y-119553445D01*
X62268476Y-119570476D01*
X62251445Y-119584452D01*
X62232009Y-119594840D01*
X62210928Y-119601236D01*
X62182860Y-119604000D01*
X60369140Y-119604000D01*
X60341072Y-119601236D01*
X60319991Y-119594840D01*
X60300555Y-119584452D01*
X60283524Y-119570476D01*
X60269548Y-119553445D01*
X60259160Y-119534009D01*
X60252764Y-119512928D01*
X60250000Y-119484860D01*
X60250000Y-119021140D01*
X60252764Y-118993072D01*
X60259160Y-118971991D01*
X60269548Y-118952555D01*
X60283524Y-118935524D01*
X60300555Y-118921548D01*
X60319991Y-118911160D01*
X60341072Y-118904764D01*
X60369140Y-118902000D01*
X62182860Y-118902000D01*
X62210928Y-118904764D01*
X62210928Y-118904764D01*
G37*
G36*
X57260928Y-118904764D02*
G01*
X57282009Y-118911160D01*
X57301445Y-118921548D01*
X57318476Y-118935524D01*
X57332452Y-118952555D01*
X57342840Y-118971991D01*
X57349236Y-118993072D01*
X57352000Y-119021140D01*
X57352000Y-119484860D01*
X57349236Y-119512928D01*
X57342840Y-119534009D01*
X57332452Y-119553445D01*
X57318476Y-119570476D01*
X57301445Y-119584452D01*
X57282009Y-119594840D01*
X57260928Y-119601236D01*
X57232860Y-119604000D01*
X55419140Y-119604000D01*
X55391072Y-119601236D01*
X55369991Y-119594840D01*
X55350555Y-119584452D01*
X55333524Y-119570476D01*
X55319548Y-119553445D01*
X55309160Y-119534009D01*
X55302764Y-119512928D01*
X55300000Y-119484860D01*
X55300000Y-119021140D01*
X55302764Y-118993072D01*
X55309160Y-118971991D01*
X55319548Y-118952555D01*
X55333524Y-118935524D01*
X55350555Y-118921548D01*
X55369991Y-118911160D01*
X55391072Y-118904764D01*
X55419140Y-118902000D01*
X57232860Y-118902000D01*
X57260928Y-118904764D01*
X57260928Y-118904764D01*
G37*
G36*
X57260928Y-117634764D02*
G01*
X57282009Y-117641160D01*
X57301445Y-117651548D01*
X57318476Y-117665524D01*
X57332452Y-117682555D01*
X57342840Y-117701991D01*
X57349236Y-117723072D01*
X57352000Y-117751140D01*
X57352000Y-118214860D01*
X57349236Y-118242928D01*
X57342840Y-118264009D01*
X57332452Y-118283445D01*
X57318476Y-118300476D01*
X57301445Y-118314452D01*
X57282009Y-118324840D01*
X57260928Y-118331236D01*
X57232860Y-118334000D01*
X55419140Y-118334000D01*
X55391072Y-118331236D01*
X55369991Y-118324840D01*
X55350555Y-118314452D01*
X55333524Y-118300476D01*
X55319548Y-118283445D01*
X55309160Y-118264009D01*
X55302764Y-118242928D01*
X55300000Y-118214860D01*
X55300000Y-117751140D01*
X55302764Y-117723072D01*
X55309160Y-117701991D01*
X55319548Y-117682555D01*
X55333524Y-117665524D01*
X55350555Y-117651548D01*
X55369991Y-117641160D01*
X55391072Y-117634764D01*
X55419140Y-117632000D01*
X57232860Y-117632000D01*
X57260928Y-117634764D01*
X57260928Y-117634764D01*
G37*
G36*
X62210928Y-117634764D02*
G01*
X62232009Y-117641160D01*
X62251445Y-117651548D01*
X62268476Y-117665524D01*
X62282452Y-117682555D01*
X62292840Y-117701991D01*
X62299236Y-117723072D01*
X62302000Y-117751140D01*
X62302000Y-118214860D01*
X62299236Y-118242928D01*
X62292840Y-118264009D01*
X62282452Y-118283445D01*
X62268476Y-118300476D01*
X62251445Y-118314452D01*
X62232009Y-118324840D01*
X62210928Y-118331236D01*
X62182860Y-118334000D01*
X60369140Y-118334000D01*
X60341072Y-118331236D01*
X60319991Y-118324840D01*
X60300555Y-118314452D01*
X60283524Y-118300476D01*
X60269548Y-118283445D01*
X60259160Y-118264009D01*
X60252764Y-118242928D01*
X60250000Y-118214860D01*
X60250000Y-117751140D01*
X60252764Y-117723072D01*
X60259160Y-117701991D01*
X60269548Y-117682555D01*
X60283524Y-117665524D01*
X60300555Y-117651548D01*
X60319991Y-117641160D01*
X60341072Y-117634764D01*
X60369140Y-117632000D01*
X62182860Y-117632000D01*
X62210928Y-117634764D01*
X62210928Y-117634764D01*
G37*
G36*
X57260928Y-116364764D02*
G01*
X57282009Y-116371160D01*
X57301445Y-116381548D01*
X57318476Y-116395524D01*
X57332452Y-116412555D01*
X57342840Y-116431991D01*
X57349236Y-116453072D01*
X57352000Y-116481140D01*
X57352000Y-116944860D01*
X57349236Y-116972928D01*
X57342840Y-116994009D01*
X57332452Y-117013445D01*
X57318476Y-117030476D01*
X57301445Y-117044452D01*
X57282009Y-117054840D01*
X57260928Y-117061236D01*
X57232860Y-117064000D01*
X55419140Y-117064000D01*
X55391072Y-117061236D01*
X55369991Y-117054840D01*
X55350555Y-117044452D01*
X55333524Y-117030476D01*
X55319548Y-117013445D01*
X55309160Y-116994009D01*
X55302764Y-116972928D01*
X55300000Y-116944860D01*
X55300000Y-116481140D01*
X55302764Y-116453072D01*
X55309160Y-116431991D01*
X55319548Y-116412555D01*
X55333524Y-116395524D01*
X55350555Y-116381548D01*
X55369991Y-116371160D01*
X55391072Y-116364764D01*
X55419140Y-116362000D01*
X57232860Y-116362000D01*
X57260928Y-116364764D01*
X57260928Y-116364764D01*
G37*
G36*
X62210928Y-116364764D02*
G01*
X62232009Y-116371160D01*
X62251445Y-116381548D01*
X62268476Y-116395524D01*
X62282452Y-116412555D01*
X62292840Y-116431991D01*
X62299236Y-116453072D01*
X62302000Y-116481140D01*
X62302000Y-116944860D01*
X62299236Y-116972928D01*
X62292840Y-116994009D01*
X62282452Y-117013445D01*
X62268476Y-117030476D01*
X62251445Y-117044452D01*
X62232009Y-117054840D01*
X62210928Y-117061236D01*
X62182860Y-117064000D01*
X60369140Y-117064000D01*
X60341072Y-117061236D01*
X60319991Y-117054840D01*
X60300555Y-117044452D01*
X60283524Y-117030476D01*
X60269548Y-117013445D01*
X60259160Y-116994009D01*
X60252764Y-116972928D01*
X60250000Y-116944860D01*
X60250000Y-116481140D01*
X60252764Y-116453072D01*
X60259160Y-116431991D01*
X60269548Y-116412555D01*
X60283524Y-116395524D01*
X60300555Y-116381548D01*
X60319991Y-116371160D01*
X60341072Y-116364764D01*
X60369140Y-116362000D01*
X62182860Y-116362000D01*
X62210928Y-116364764D01*
X62210928Y-116364764D01*
G37*
G36*
X49544562Y-114648181D02*
G01*
X49579481Y-114658774D01*
X49611663Y-114675976D01*
X49639873Y-114699127D01*
X49663024Y-114727337D01*
X49680226Y-114759519D01*
X49690819Y-114794438D01*
X49695000Y-114836895D01*
X49695000Y-116303105D01*
X49690819Y-116345562D01*
X49680226Y-116380481D01*
X49663024Y-116412663D01*
X49639873Y-116440873D01*
X49611663Y-116464024D01*
X49579481Y-116481226D01*
X49544562Y-116491819D01*
X49502105Y-116496000D01*
X48360895Y-116496000D01*
X48318438Y-116491819D01*
X48283519Y-116481226D01*
X48251337Y-116464024D01*
X48223127Y-116440873D01*
X48199976Y-116412663D01*
X48182774Y-116380481D01*
X48172181Y-116345562D01*
X48168000Y-116303105D01*
X48168000Y-114836895D01*
X48172181Y-114794438D01*
X48182774Y-114759519D01*
X48199976Y-114727337D01*
X48223127Y-114699127D01*
X48251337Y-114675976D01*
X48283519Y-114658774D01*
X48318438Y-114648181D01*
X48360895Y-114644000D01*
X49502105Y-114644000D01*
X49544562Y-114648181D01*
X49544562Y-114648181D01*
G37*
G36*
X52519562Y-114648181D02*
G01*
X52554481Y-114658774D01*
X52586663Y-114675976D01*
X52614873Y-114699127D01*
X52638024Y-114727337D01*
X52655226Y-114759519D01*
X52665819Y-114794438D01*
X52670000Y-114836895D01*
X52670000Y-116303105D01*
X52665819Y-116345562D01*
X52655226Y-116380481D01*
X52638024Y-116412663D01*
X52614873Y-116440873D01*
X52586663Y-116464024D01*
X52554481Y-116481226D01*
X52519562Y-116491819D01*
X52477105Y-116496000D01*
X51335895Y-116496000D01*
X51293438Y-116491819D01*
X51258519Y-116481226D01*
X51226337Y-116464024D01*
X51198127Y-116440873D01*
X51174976Y-116412663D01*
X51157774Y-116380481D01*
X51147181Y-116345562D01*
X51143000Y-116303105D01*
X51143000Y-114836895D01*
X51147181Y-114794438D01*
X51157774Y-114759519D01*
X51174976Y-114727337D01*
X51198127Y-114699127D01*
X51226337Y-114675976D01*
X51258519Y-114658774D01*
X51293438Y-114648181D01*
X51335895Y-114644000D01*
X52477105Y-114644000D01*
X52519562Y-114648181D01*
X52519562Y-114648181D01*
G37*
G36*
X62210928Y-115094764D02*
G01*
X62232009Y-115101160D01*
X62251445Y-115111548D01*
X62268476Y-115125524D01*
X62282452Y-115142555D01*
X62292840Y-115161991D01*
X62299236Y-115183072D01*
X62302000Y-115211140D01*
X62302000Y-115674860D01*
X62299236Y-115702928D01*
X62292840Y-115724009D01*
X62282452Y-115743445D01*
X62268476Y-115760476D01*
X62251445Y-115774452D01*
X62232009Y-115784840D01*
X62210928Y-115791236D01*
X62182860Y-115794000D01*
X60369140Y-115794000D01*
X60341072Y-115791236D01*
X60319991Y-115784840D01*
X60300555Y-115774452D01*
X60283524Y-115760476D01*
X60269548Y-115743445D01*
X60259160Y-115724009D01*
X60252764Y-115702928D01*
X60250000Y-115674860D01*
X60250000Y-115211140D01*
X60252764Y-115183072D01*
X60259160Y-115161991D01*
X60269548Y-115142555D01*
X60283524Y-115125524D01*
X60300555Y-115111548D01*
X60319991Y-115101160D01*
X60341072Y-115094764D01*
X60369140Y-115092000D01*
X62182860Y-115092000D01*
X62210928Y-115094764D01*
X62210928Y-115094764D01*
G37*
G36*
X57260928Y-115094764D02*
G01*
X57282009Y-115101160D01*
X57301445Y-115111548D01*
X57318476Y-115125524D01*
X57332452Y-115142555D01*
X57342840Y-115161991D01*
X57349236Y-115183072D01*
X57352000Y-115211140D01*
X57352000Y-115674860D01*
X57349236Y-115702928D01*
X57342840Y-115724009D01*
X57332452Y-115743445D01*
X57318476Y-115760476D01*
X57301445Y-115774452D01*
X57282009Y-115784840D01*
X57260928Y-115791236D01*
X57232860Y-115794000D01*
X55419140Y-115794000D01*
X55391072Y-115791236D01*
X55369991Y-115784840D01*
X55350555Y-115774452D01*
X55333524Y-115760476D01*
X55319548Y-115743445D01*
X55309160Y-115724009D01*
X55302764Y-115702928D01*
X55300000Y-115674860D01*
X55300000Y-115211140D01*
X55302764Y-115183072D01*
X55309160Y-115161991D01*
X55319548Y-115142555D01*
X55333524Y-115125524D01*
X55350555Y-115111548D01*
X55369991Y-115101160D01*
X55391072Y-115094764D01*
X55419140Y-115092000D01*
X57232860Y-115092000D01*
X57260928Y-115094764D01*
X57260928Y-115094764D01*
G37*
G36*
X58541228Y-112552703D02*
G01*
X58696100Y-112616853D01*
X58835481Y-112709985D01*
X58954015Y-112828519D01*
X59047147Y-112967900D01*
X59111297Y-113122772D01*
X59144000Y-113287184D01*
X59144000Y-113454816D01*
X59111297Y-113619228D01*
X59047147Y-113774100D01*
X58954015Y-113913481D01*
X58835481Y-114032015D01*
X58696100Y-114125147D01*
X58541228Y-114189297D01*
X58376816Y-114222000D01*
X58209184Y-114222000D01*
X58044772Y-114189297D01*
X57889900Y-114125147D01*
X57750519Y-114032015D01*
X57631985Y-113913481D01*
X57538853Y-113774100D01*
X57474703Y-113619228D01*
X57442000Y-113454816D01*
X57442000Y-113287184D01*
X57474703Y-113122772D01*
X57538853Y-112967900D01*
X57631985Y-112828519D01*
X57750519Y-112709985D01*
X57889900Y-112616853D01*
X58044772Y-112552703D01*
X58209184Y-112520000D01*
X58376816Y-112520000D01*
X58541228Y-112552703D01*
X58541228Y-112552703D01*
G37*
G36*
X52519562Y-112362181D02*
G01*
X52554481Y-112372774D01*
X52586663Y-112389976D01*
X52614873Y-112413127D01*
X52638024Y-112441337D01*
X52655226Y-112473519D01*
X52665819Y-112508438D01*
X52670000Y-112550895D01*
X52670000Y-114017105D01*
X52665819Y-114059562D01*
X52655226Y-114094481D01*
X52638024Y-114126663D01*
X52614873Y-114154873D01*
X52586663Y-114178024D01*
X52554481Y-114195226D01*
X52519562Y-114205819D01*
X52477105Y-114210000D01*
X51335895Y-114210000D01*
X51293438Y-114205819D01*
X51258519Y-114195226D01*
X51226337Y-114178024D01*
X51198127Y-114154873D01*
X51174976Y-114126663D01*
X51157774Y-114094481D01*
X51147181Y-114059562D01*
X51143000Y-114017105D01*
X51143000Y-112550895D01*
X51147181Y-112508438D01*
X51157774Y-112473519D01*
X51174976Y-112441337D01*
X51198127Y-112413127D01*
X51226337Y-112389976D01*
X51258519Y-112372774D01*
X51293438Y-112362181D01*
X51335895Y-112358000D01*
X52477105Y-112358000D01*
X52519562Y-112362181D01*
X52519562Y-112362181D01*
G37*
G36*
X49544562Y-112362181D02*
G01*
X49579481Y-112372774D01*
X49611663Y-112389976D01*
X49639873Y-112413127D01*
X49663024Y-112441337D01*
X49680226Y-112473519D01*
X49690819Y-112508438D01*
X49695000Y-112550895D01*
X49695000Y-114017105D01*
X49690819Y-114059562D01*
X49680226Y-114094481D01*
X49663024Y-114126663D01*
X49639873Y-114154873D01*
X49611663Y-114178024D01*
X49579481Y-114195226D01*
X49544562Y-114205819D01*
X49502105Y-114210000D01*
X48360895Y-114210000D01*
X48318438Y-114205819D01*
X48283519Y-114195226D01*
X48251337Y-114178024D01*
X48223127Y-114154873D01*
X48199976Y-114126663D01*
X48182774Y-114094481D01*
X48172181Y-114059562D01*
X48168000Y-114017105D01*
X48168000Y-112550895D01*
X48172181Y-112508438D01*
X48182774Y-112473519D01*
X48199976Y-112441337D01*
X48223127Y-112413127D01*
X48251337Y-112389976D01*
X48283519Y-112372774D01*
X48318438Y-112362181D01*
X48360895Y-112358000D01*
X49502105Y-112358000D01*
X49544562Y-112362181D01*
X49544562Y-112362181D01*
G37*
G36*
X45935603Y-109681416D02*
G01*
X46201578Y-109762099D01*
X46201580Y-109762100D01*
X46446700Y-109893119D01*
X46661556Y-110069444D01*
X46837881Y-110284299D01*
X46936019Y-110467903D01*
X46968901Y-110529421D01*
X47049584Y-110795396D01*
X47070000Y-111002684D01*
X47070000Y-111661315D01*
X47049584Y-111868603D01*
X46968901Y-112134579D01*
X46968900Y-112134582D01*
X46837881Y-112379701D01*
X46661556Y-112594556D01*
X46446701Y-112770881D01*
X46201581Y-112901900D01*
X46201579Y-112901901D01*
X45935604Y-112982584D01*
X45659000Y-113009827D01*
X45382397Y-112982584D01*
X45116422Y-112901901D01*
X45116420Y-112901900D01*
X44871300Y-112770881D01*
X44656444Y-112594556D01*
X44480119Y-112379701D01*
X44349100Y-112134581D01*
X44349099Y-112134579D01*
X44268416Y-111868604D01*
X44248000Y-111661316D01*
X44248000Y-111002685D01*
X44268416Y-110795397D01*
X44349099Y-110529422D01*
X44375449Y-110480124D01*
X44480119Y-110284300D01*
X44656444Y-110069444D01*
X44871299Y-109893119D01*
X45116419Y-109762100D01*
X45116421Y-109762099D01*
X45382396Y-109681416D01*
X45659000Y-109654173D01*
X45935603Y-109681416D01*
X45935603Y-109681416D01*
G37*
G36*
X55535603Y-109681416D02*
G01*
X55801578Y-109762099D01*
X55801580Y-109762100D01*
X56046700Y-109893119D01*
X56261556Y-110069444D01*
X56437881Y-110284299D01*
X56536019Y-110467903D01*
X56568901Y-110529421D01*
X56649584Y-110795396D01*
X56670000Y-111002684D01*
X56670000Y-111661315D01*
X56649584Y-111868603D01*
X56568901Y-112134579D01*
X56568900Y-112134582D01*
X56437881Y-112379701D01*
X56261556Y-112594556D01*
X56046701Y-112770881D01*
X55801581Y-112901900D01*
X55801579Y-112901901D01*
X55535604Y-112982584D01*
X55259000Y-113009827D01*
X54982397Y-112982584D01*
X54716422Y-112901901D01*
X54716420Y-112901900D01*
X54471300Y-112770881D01*
X54256444Y-112594556D01*
X54080119Y-112379701D01*
X53949100Y-112134581D01*
X53949099Y-112134579D01*
X53868416Y-111868604D01*
X53848000Y-111661316D01*
X53848000Y-111002685D01*
X53868416Y-110795397D01*
X53949099Y-110529422D01*
X53975449Y-110480124D01*
X54080119Y-110284300D01*
X54256444Y-110069444D01*
X54471299Y-109893119D01*
X54716419Y-109762100D01*
X54716421Y-109762099D01*
X54982396Y-109681416D01*
X55259000Y-109654173D01*
X55535603Y-109681416D01*
X55535603Y-109681416D01*
G37*
G36*
X35432655Y-109668591D02*
G01*
X35504525Y-109682887D01*
X35707624Y-109767013D01*
X35890409Y-109889146D01*
X36045854Y-110044591D01*
X36167987Y-110227376D01*
X36251862Y-110429869D01*
X36252113Y-110430476D01*
X36294053Y-110641319D01*
X36295000Y-110646084D01*
X36295000Y-110865916D01*
X36252113Y-111081525D01*
X36167987Y-111284624D01*
X36045854Y-111467409D01*
X35890409Y-111622854D01*
X35707624Y-111744987D01*
X35504525Y-111829113D01*
X35432655Y-111843409D01*
X35288918Y-111872000D01*
X35069082Y-111872000D01*
X34925345Y-111843409D01*
X34853475Y-111829113D01*
X34650376Y-111744987D01*
X34467591Y-111622854D01*
X34312146Y-111467409D01*
X34190013Y-111284624D01*
X34105887Y-111081525D01*
X34063000Y-110865916D01*
X34063000Y-110646084D01*
X34063948Y-110641319D01*
X34105887Y-110430476D01*
X34106138Y-110429869D01*
X34190013Y-110227376D01*
X34312146Y-110044591D01*
X34467591Y-109889146D01*
X34650376Y-109767013D01*
X34853475Y-109682887D01*
X34925345Y-109668591D01*
X35069082Y-109640000D01*
X35288918Y-109640000D01*
X35432655Y-109668591D01*
X35432655Y-109668591D01*
G37*
G36*
X64896655Y-109668591D02*
G01*
X64968525Y-109682887D01*
X65171624Y-109767013D01*
X65354409Y-109889146D01*
X65509854Y-110044591D01*
X65631987Y-110227376D01*
X65715862Y-110429869D01*
X65716113Y-110430476D01*
X65758053Y-110641319D01*
X65759000Y-110646084D01*
X65759000Y-110865916D01*
X65716113Y-111081525D01*
X65631987Y-111284624D01*
X65509854Y-111467409D01*
X65354409Y-111622854D01*
X65171624Y-111744987D01*
X64968525Y-111829113D01*
X64896655Y-111843409D01*
X64752918Y-111872000D01*
X64533082Y-111872000D01*
X64389345Y-111843409D01*
X64317475Y-111829113D01*
X64114376Y-111744987D01*
X63931591Y-111622854D01*
X63776146Y-111467409D01*
X63654013Y-111284624D01*
X63569887Y-111081525D01*
X63527000Y-110865916D01*
X63527000Y-110646084D01*
X63527948Y-110641319D01*
X63569887Y-110430476D01*
X63570138Y-110429869D01*
X63654013Y-110227376D01*
X63776146Y-110044591D01*
X63931591Y-109889146D01*
X64114376Y-109767013D01*
X64317475Y-109682887D01*
X64389345Y-109668591D01*
X64533082Y-109640000D01*
X64752918Y-109640000D01*
X64896655Y-109668591D01*
X64896655Y-109668591D01*
G37*
G36*
X58541228Y-110052703D02*
G01*
X58696100Y-110116853D01*
X58835481Y-110209985D01*
X58954015Y-110328519D01*
X59047147Y-110467900D01*
X59111297Y-110622772D01*
X59144000Y-110787184D01*
X59144000Y-110954816D01*
X59111297Y-111119228D01*
X59047147Y-111274100D01*
X58954015Y-111413481D01*
X58835481Y-111532015D01*
X58696100Y-111625147D01*
X58541228Y-111689297D01*
X58376816Y-111722000D01*
X58209184Y-111722000D01*
X58044772Y-111689297D01*
X57889900Y-111625147D01*
X57750519Y-111532015D01*
X57631985Y-111413481D01*
X57538853Y-111274100D01*
X57474703Y-111119228D01*
X57442000Y-110954816D01*
X57442000Y-110787184D01*
X57474703Y-110622772D01*
X57538853Y-110467900D01*
X57631985Y-110328519D01*
X57750519Y-110209985D01*
X57889900Y-110116853D01*
X58044772Y-110052703D01*
X58209184Y-110020000D01*
X58376816Y-110020000D01*
X58541228Y-110052703D01*
X58541228Y-110052703D01*
G37*
G36*
X32398562Y-109122681D02*
G01*
X32433481Y-109133274D01*
X32465663Y-109150476D01*
X32493873Y-109173627D01*
X32517024Y-109201837D01*
X32534226Y-109234019D01*
X32544819Y-109268938D01*
X32549000Y-109311395D01*
X32549000Y-110452605D01*
X32544819Y-110495062D01*
X32534226Y-110529981D01*
X32517024Y-110562163D01*
X32493873Y-110590373D01*
X32465663Y-110613524D01*
X32433481Y-110630726D01*
X32398562Y-110641319D01*
X32356105Y-110645500D01*
X30889895Y-110645500D01*
X30847438Y-110641319D01*
X30812519Y-110630726D01*
X30780337Y-110613524D01*
X30752127Y-110590373D01*
X30728976Y-110562163D01*
X30711774Y-110529981D01*
X30701181Y-110495062D01*
X30697000Y-110452605D01*
X30697000Y-109311395D01*
X30701181Y-109268938D01*
X30711774Y-109234019D01*
X30728976Y-109201837D01*
X30752127Y-109173627D01*
X30780337Y-109150476D01*
X30812519Y-109133274D01*
X30847438Y-109122681D01*
X30889895Y-109118500D01*
X32356105Y-109118500D01*
X32398562Y-109122681D01*
X32398562Y-109122681D01*
G37*
G36*
X42203823Y-108508313D02*
G01*
X42364242Y-108556976D01*
X42458017Y-108607100D01*
X42512078Y-108635996D01*
X42641659Y-108742341D01*
X42748004Y-108871922D01*
X42748005Y-108871924D01*
X42827024Y-109019758D01*
X42875687Y-109180177D01*
X42892117Y-109347000D01*
X42875687Y-109513823D01*
X42827024Y-109674242D01*
X42823189Y-109681416D01*
X42748004Y-109822078D01*
X42641659Y-109951659D01*
X42512078Y-110058004D01*
X42512076Y-110058005D01*
X42364242Y-110137024D01*
X42203823Y-110185687D01*
X42078804Y-110198000D01*
X41995196Y-110198000D01*
X41870177Y-110185687D01*
X41709758Y-110137024D01*
X41561924Y-110058005D01*
X41561922Y-110058004D01*
X41432341Y-109951659D01*
X41325996Y-109822078D01*
X41250811Y-109681416D01*
X41246976Y-109674242D01*
X41198313Y-109513823D01*
X41181883Y-109347000D01*
X41198313Y-109180177D01*
X41246976Y-109019758D01*
X41325995Y-108871924D01*
X41325996Y-108871922D01*
X41432341Y-108742341D01*
X41561922Y-108635996D01*
X41615983Y-108607100D01*
X41709758Y-108556976D01*
X41870177Y-108508313D01*
X41995196Y-108496000D01*
X42078804Y-108496000D01*
X42203823Y-108508313D01*
X42203823Y-108508313D01*
G37*
G36*
X58414228Y-107385703D02*
G01*
X58569100Y-107449853D01*
X58708481Y-107542985D01*
X58827015Y-107661519D01*
X58920147Y-107800900D01*
X58984297Y-107955772D01*
X59017000Y-108120184D01*
X59017000Y-108287816D01*
X58984297Y-108452228D01*
X58920147Y-108607100D01*
X58827015Y-108746481D01*
X58708481Y-108865015D01*
X58569100Y-108958147D01*
X58414228Y-109022297D01*
X58249816Y-109055000D01*
X58082184Y-109055000D01*
X57917772Y-109022297D01*
X57762900Y-108958147D01*
X57623519Y-108865015D01*
X57504985Y-108746481D01*
X57411853Y-108607100D01*
X57347703Y-108452228D01*
X57315000Y-108287816D01*
X57315000Y-108120184D01*
X57347703Y-107955772D01*
X57411853Y-107800900D01*
X57504985Y-107661519D01*
X57623519Y-107542985D01*
X57762900Y-107449853D01*
X57917772Y-107385703D01*
X58082184Y-107353000D01*
X58249816Y-107353000D01*
X58414228Y-107385703D01*
X58414228Y-107385703D01*
G37*
G36*
X36195000Y-108622000D02*
G01*
X34163000Y-108622000D01*
X34163000Y-106690000D01*
X36195000Y-106690000D01*
X36195000Y-108622000D01*
X36195000Y-108622000D01*
G37*
G36*
X65659000Y-108622000D02*
G01*
X63627000Y-108622000D01*
X63627000Y-106690000D01*
X65659000Y-106690000D01*
X65659000Y-108622000D01*
X65659000Y-108622000D01*
G37*
G36*
X49544562Y-105885181D02*
G01*
X49579481Y-105895774D01*
X49611663Y-105912976D01*
X49639873Y-105936127D01*
X49663024Y-105964337D01*
X49680226Y-105996519D01*
X49690819Y-106031438D01*
X49695000Y-106073895D01*
X49695000Y-107540105D01*
X49690819Y-107582562D01*
X49680226Y-107617481D01*
X49663024Y-107649663D01*
X49639873Y-107677873D01*
X49611663Y-107701024D01*
X49579481Y-107718226D01*
X49544562Y-107728819D01*
X49502105Y-107733000D01*
X48360895Y-107733000D01*
X48318438Y-107728819D01*
X48283519Y-107718226D01*
X48251337Y-107701024D01*
X48223127Y-107677873D01*
X48199976Y-107649663D01*
X48182774Y-107617481D01*
X48172181Y-107582562D01*
X48168000Y-107540105D01*
X48168000Y-106073895D01*
X48172181Y-106031438D01*
X48182774Y-105996519D01*
X48199976Y-105964337D01*
X48223127Y-105936127D01*
X48251337Y-105912976D01*
X48283519Y-105895774D01*
X48318438Y-105885181D01*
X48360895Y-105881000D01*
X49502105Y-105881000D01*
X49544562Y-105885181D01*
X49544562Y-105885181D01*
G37*
G36*
X52519562Y-105885181D02*
G01*
X52554481Y-105895774D01*
X52586663Y-105912976D01*
X52614873Y-105936127D01*
X52638024Y-105964337D01*
X52655226Y-105996519D01*
X52665819Y-106031438D01*
X52670000Y-106073895D01*
X52670000Y-107540105D01*
X52665819Y-107582562D01*
X52655226Y-107617481D01*
X52638024Y-107649663D01*
X52614873Y-107677873D01*
X52586663Y-107701024D01*
X52554481Y-107718226D01*
X52519562Y-107728819D01*
X52477105Y-107733000D01*
X51335895Y-107733000D01*
X51293438Y-107728819D01*
X51258519Y-107718226D01*
X51226337Y-107701024D01*
X51198127Y-107677873D01*
X51174976Y-107649663D01*
X51157774Y-107617481D01*
X51147181Y-107582562D01*
X51143000Y-107540105D01*
X51143000Y-106073895D01*
X51147181Y-106031438D01*
X51157774Y-105996519D01*
X51174976Y-105964337D01*
X51198127Y-105936127D01*
X51226337Y-105912976D01*
X51258519Y-105895774D01*
X51293438Y-105885181D01*
X51335895Y-105881000D01*
X52477105Y-105881000D01*
X52519562Y-105885181D01*
X52519562Y-105885181D01*
G37*
G36*
X32398562Y-106147681D02*
G01*
X32433481Y-106158274D01*
X32465663Y-106175476D01*
X32493873Y-106198627D01*
X32517024Y-106226837D01*
X32534226Y-106259019D01*
X32544819Y-106293938D01*
X32549000Y-106336395D01*
X32549000Y-107477605D01*
X32544819Y-107520062D01*
X32534226Y-107554981D01*
X32517024Y-107587163D01*
X32493873Y-107615373D01*
X32465663Y-107638524D01*
X32433481Y-107655726D01*
X32398562Y-107666319D01*
X32356105Y-107670500D01*
X30889895Y-107670500D01*
X30847438Y-107666319D01*
X30812519Y-107655726D01*
X30780337Y-107638524D01*
X30752127Y-107615373D01*
X30728976Y-107587163D01*
X30711774Y-107554981D01*
X30701181Y-107520062D01*
X30697000Y-107477605D01*
X30697000Y-106336395D01*
X30701181Y-106293938D01*
X30711774Y-106259019D01*
X30728976Y-106226837D01*
X30752127Y-106198627D01*
X30780337Y-106175476D01*
X30812519Y-106158274D01*
X30847438Y-106147681D01*
X30889895Y-106143500D01*
X32356105Y-106143500D01*
X32398562Y-106147681D01*
X32398562Y-106147681D01*
G37*
G36*
X58414228Y-104885703D02*
G01*
X58569100Y-104949853D01*
X58708481Y-105042985D01*
X58827015Y-105161519D01*
X58920147Y-105300900D01*
X58984297Y-105455772D01*
X59017000Y-105620184D01*
X59017000Y-105787816D01*
X58984297Y-105952228D01*
X58920147Y-106107100D01*
X58827015Y-106246481D01*
X58708481Y-106365015D01*
X58569100Y-106458147D01*
X58414228Y-106522297D01*
X58249816Y-106555000D01*
X58082184Y-106555000D01*
X57917772Y-106522297D01*
X57762900Y-106458147D01*
X57623519Y-106365015D01*
X57504985Y-106246481D01*
X57411853Y-106107100D01*
X57347703Y-105952228D01*
X57315000Y-105787816D01*
X57315000Y-105620184D01*
X57347703Y-105455772D01*
X57411853Y-105300900D01*
X57504985Y-105161519D01*
X57623519Y-105042985D01*
X57762900Y-104949853D01*
X57917772Y-104885703D01*
X58082184Y-104853000D01*
X58249816Y-104853000D01*
X58414228Y-104885703D01*
X58414228Y-104885703D01*
G37*
G36*
X34866562Y-102075181D02*
G01*
X34901481Y-102085774D01*
X34933663Y-102102976D01*
X34961873Y-102126127D01*
X34985024Y-102154337D01*
X35002226Y-102186519D01*
X35012819Y-102221438D01*
X35017000Y-102263895D01*
X35017000Y-103730105D01*
X35012819Y-103772562D01*
X35002226Y-103807481D01*
X34985024Y-103839663D01*
X34961873Y-103867873D01*
X34933663Y-103891024D01*
X34901481Y-103908226D01*
X34866562Y-103918819D01*
X34824105Y-103923000D01*
X33682895Y-103923000D01*
X33640438Y-103918819D01*
X33605519Y-103908226D01*
X33573337Y-103891024D01*
X33545127Y-103867873D01*
X33521976Y-103839663D01*
X33504774Y-103807481D01*
X33494181Y-103772562D01*
X33490000Y-103730105D01*
X33490000Y-102263895D01*
X33494181Y-102221438D01*
X33504774Y-102186519D01*
X33521976Y-102154337D01*
X33545127Y-102126127D01*
X33573337Y-102102976D01*
X33605519Y-102085774D01*
X33640438Y-102075181D01*
X33682895Y-102071000D01*
X34824105Y-102071000D01*
X34866562Y-102075181D01*
X34866562Y-102075181D01*
G37*
G36*
X31891562Y-102075181D02*
G01*
X31926481Y-102085774D01*
X31958663Y-102102976D01*
X31986873Y-102126127D01*
X32010024Y-102154337D01*
X32027226Y-102186519D01*
X32037819Y-102221438D01*
X32042000Y-102263895D01*
X32042000Y-103730105D01*
X32037819Y-103772562D01*
X32027226Y-103807481D01*
X32010024Y-103839663D01*
X31986873Y-103867873D01*
X31958663Y-103891024D01*
X31926481Y-103908226D01*
X31891562Y-103918819D01*
X31849105Y-103923000D01*
X30707895Y-103923000D01*
X30665438Y-103918819D01*
X30630519Y-103908226D01*
X30598337Y-103891024D01*
X30570127Y-103867873D01*
X30546976Y-103839663D01*
X30529774Y-103807481D01*
X30519181Y-103772562D01*
X30515000Y-103730105D01*
X30515000Y-102263895D01*
X30519181Y-102221438D01*
X30529774Y-102186519D01*
X30546976Y-102154337D01*
X30570127Y-102126127D01*
X30598337Y-102102976D01*
X30630519Y-102085774D01*
X30665438Y-102075181D01*
X30707895Y-102071000D01*
X31849105Y-102071000D01*
X31891562Y-102075181D01*
X31891562Y-102075181D01*
G37*
G36*
X58019928Y-102706764D02*
G01*
X58041009Y-102713160D01*
X58060445Y-102723548D01*
X58077476Y-102737524D01*
X58091452Y-102754555D01*
X58101840Y-102773991D01*
X58108236Y-102795072D01*
X58111000Y-102823140D01*
X58111000Y-103286860D01*
X58108236Y-103314928D01*
X58101840Y-103336009D01*
X58091452Y-103355445D01*
X58077476Y-103372476D01*
X58060445Y-103386452D01*
X58041009Y-103396840D01*
X58019928Y-103403236D01*
X57991860Y-103406000D01*
X56178140Y-103406000D01*
X56150072Y-103403236D01*
X56128991Y-103396840D01*
X56109555Y-103386452D01*
X56092524Y-103372476D01*
X56078548Y-103355445D01*
X56068160Y-103336009D01*
X56061764Y-103314928D01*
X56059000Y-103286860D01*
X56059000Y-102823140D01*
X56061764Y-102795072D01*
X56068160Y-102773991D01*
X56078548Y-102754555D01*
X56092524Y-102737524D01*
X56109555Y-102723548D01*
X56128991Y-102713160D01*
X56150072Y-102706764D01*
X56178140Y-102704000D01*
X57991860Y-102704000D01*
X58019928Y-102706764D01*
X58019928Y-102706764D01*
G37*
G36*
X53069928Y-102706764D02*
G01*
X53091009Y-102713160D01*
X53110445Y-102723548D01*
X53127476Y-102737524D01*
X53141452Y-102754555D01*
X53151840Y-102773991D01*
X53158236Y-102795072D01*
X53161000Y-102823140D01*
X53161000Y-103286860D01*
X53158236Y-103314928D01*
X53151840Y-103336009D01*
X53141452Y-103355445D01*
X53127476Y-103372476D01*
X53110445Y-103386452D01*
X53091009Y-103396840D01*
X53069928Y-103403236D01*
X53041860Y-103406000D01*
X51228140Y-103406000D01*
X51200072Y-103403236D01*
X51178991Y-103396840D01*
X51159555Y-103386452D01*
X51142524Y-103372476D01*
X51128548Y-103355445D01*
X51118160Y-103336009D01*
X51111764Y-103314928D01*
X51109000Y-103286860D01*
X51109000Y-102823140D01*
X51111764Y-102795072D01*
X51118160Y-102773991D01*
X51128548Y-102754555D01*
X51142524Y-102737524D01*
X51159555Y-102723548D01*
X51178991Y-102713160D01*
X51200072Y-102706764D01*
X51228140Y-102704000D01*
X53041860Y-102704000D01*
X53069928Y-102706764D01*
X53069928Y-102706764D01*
G37*
G36*
X60994228Y-101416703D02*
G01*
X61149100Y-101480853D01*
X61288481Y-101573985D01*
X61407015Y-101692519D01*
X61500147Y-101831900D01*
X61564297Y-101986772D01*
X61597000Y-102151184D01*
X61597000Y-102318816D01*
X61564297Y-102483228D01*
X61500147Y-102638100D01*
X61407015Y-102777481D01*
X61288481Y-102896015D01*
X61149100Y-102989147D01*
X60994228Y-103053297D01*
X60829816Y-103086000D01*
X60662184Y-103086000D01*
X60497772Y-103053297D01*
X60342900Y-102989147D01*
X60203519Y-102896015D01*
X60084985Y-102777481D01*
X59991853Y-102638100D01*
X59927703Y-102483228D01*
X59895000Y-102318816D01*
X59895000Y-102151184D01*
X59927703Y-101986772D01*
X59991853Y-101831900D01*
X60084985Y-101692519D01*
X60203519Y-101573985D01*
X60342900Y-101480853D01*
X60497772Y-101416703D01*
X60662184Y-101384000D01*
X60829816Y-101384000D01*
X60994228Y-101416703D01*
X60994228Y-101416703D01*
G37*
G36*
X63494228Y-101416703D02*
G01*
X63649100Y-101480853D01*
X63788481Y-101573985D01*
X63907015Y-101692519D01*
X64000147Y-101831900D01*
X64064297Y-101986772D01*
X64097000Y-102151184D01*
X64097000Y-102318816D01*
X64064297Y-102483228D01*
X64000147Y-102638100D01*
X63907015Y-102777481D01*
X63788481Y-102896015D01*
X63649100Y-102989147D01*
X63494228Y-103053297D01*
X63329816Y-103086000D01*
X63162184Y-103086000D01*
X62997772Y-103053297D01*
X62842900Y-102989147D01*
X62703519Y-102896015D01*
X62584985Y-102777481D01*
X62491853Y-102638100D01*
X62427703Y-102483228D01*
X62395000Y-102318816D01*
X62395000Y-102151184D01*
X62427703Y-101986772D01*
X62491853Y-101831900D01*
X62584985Y-101692519D01*
X62703519Y-101573985D01*
X62842900Y-101480853D01*
X62997772Y-101416703D01*
X63162184Y-101384000D01*
X63329816Y-101384000D01*
X63494228Y-101416703D01*
X63494228Y-101416703D01*
G37*
G36*
X45841228Y-101162703D02*
G01*
X45996100Y-101226853D01*
X46135481Y-101319985D01*
X46254015Y-101438519D01*
X46347147Y-101577900D01*
X46411297Y-101732772D01*
X46444000Y-101897184D01*
X46444000Y-102064816D01*
X46411297Y-102229228D01*
X46347147Y-102384100D01*
X46254015Y-102523481D01*
X46135481Y-102642015D01*
X45996100Y-102735147D01*
X45841228Y-102799297D01*
X45676816Y-102832000D01*
X45509184Y-102832000D01*
X45344772Y-102799297D01*
X45189900Y-102735147D01*
X45050519Y-102642015D01*
X44931985Y-102523481D01*
X44838853Y-102384100D01*
X44774703Y-102229228D01*
X44742000Y-102064816D01*
X44742000Y-101897184D01*
X44774703Y-101732772D01*
X44838853Y-101577900D01*
X44931985Y-101438519D01*
X45050519Y-101319985D01*
X45189900Y-101226853D01*
X45344772Y-101162703D01*
X45509184Y-101130000D01*
X45676816Y-101130000D01*
X45841228Y-101162703D01*
X45841228Y-101162703D01*
G37*
G36*
X42203823Y-101142313D02*
G01*
X42364242Y-101190976D01*
X42431361Y-101226852D01*
X42512078Y-101269996D01*
X42641659Y-101376341D01*
X42748004Y-101505922D01*
X42748005Y-101505924D01*
X42827024Y-101653758D01*
X42875687Y-101814177D01*
X42892117Y-101981000D01*
X42875687Y-102147823D01*
X42827024Y-102308242D01*
X42786477Y-102384100D01*
X42748004Y-102456078D01*
X42641659Y-102585659D01*
X42512078Y-102692004D01*
X42512076Y-102692005D01*
X42364242Y-102771024D01*
X42203823Y-102819687D01*
X42078804Y-102832000D01*
X41995196Y-102832000D01*
X41870177Y-102819687D01*
X41709758Y-102771024D01*
X41561924Y-102692005D01*
X41561922Y-102692004D01*
X41432341Y-102585659D01*
X41325996Y-102456078D01*
X41287523Y-102384100D01*
X41246976Y-102308242D01*
X41198313Y-102147823D01*
X41181883Y-101981000D01*
X41198313Y-101814177D01*
X41246976Y-101653758D01*
X41325995Y-101505924D01*
X41325996Y-101505922D01*
X41432341Y-101376341D01*
X41561922Y-101269996D01*
X41642639Y-101226852D01*
X41709758Y-101190976D01*
X41870177Y-101142313D01*
X41995196Y-101130000D01*
X42078804Y-101130000D01*
X42203823Y-101142313D01*
X42203823Y-101142313D01*
G37*
G36*
X48341228Y-101162703D02*
G01*
X48496100Y-101226853D01*
X48635481Y-101319985D01*
X48754015Y-101438519D01*
X48847147Y-101577900D01*
X48911297Y-101732772D01*
X48944000Y-101897184D01*
X48944000Y-102064816D01*
X48911297Y-102229228D01*
X48847147Y-102384100D01*
X48754015Y-102523481D01*
X48635481Y-102642015D01*
X48496100Y-102735147D01*
X48341228Y-102799297D01*
X48176816Y-102832000D01*
X48009184Y-102832000D01*
X47844772Y-102799297D01*
X47689900Y-102735147D01*
X47550519Y-102642015D01*
X47431985Y-102523481D01*
X47338853Y-102384100D01*
X47274703Y-102229228D01*
X47242000Y-102064816D01*
X47242000Y-101897184D01*
X47274703Y-101732772D01*
X47338853Y-101577900D01*
X47431985Y-101438519D01*
X47550519Y-101319985D01*
X47689900Y-101226853D01*
X47844772Y-101162703D01*
X48009184Y-101130000D01*
X48176816Y-101130000D01*
X48341228Y-101162703D01*
X48341228Y-101162703D01*
G37*
G36*
X53069928Y-101436764D02*
G01*
X53091009Y-101443160D01*
X53110445Y-101453548D01*
X53127476Y-101467524D01*
X53141452Y-101484555D01*
X53151840Y-101503991D01*
X53158236Y-101525072D01*
X53161000Y-101553140D01*
X53161000Y-102016860D01*
X53158236Y-102044928D01*
X53151840Y-102066009D01*
X53141452Y-102085445D01*
X53127476Y-102102476D01*
X53110445Y-102116452D01*
X53091009Y-102126840D01*
X53069928Y-102133236D01*
X53041860Y-102136000D01*
X51228140Y-102136000D01*
X51200072Y-102133236D01*
X51178991Y-102126840D01*
X51159555Y-102116452D01*
X51142524Y-102102476D01*
X51128548Y-102085445D01*
X51118160Y-102066009D01*
X51111764Y-102044928D01*
X51109000Y-102016860D01*
X51109000Y-101553140D01*
X51111764Y-101525072D01*
X51118160Y-101503991D01*
X51128548Y-101484555D01*
X51142524Y-101467524D01*
X51159555Y-101453548D01*
X51178991Y-101443160D01*
X51200072Y-101436764D01*
X51228140Y-101434000D01*
X53041860Y-101434000D01*
X53069928Y-101436764D01*
X53069928Y-101436764D01*
G37*
G36*
X58019928Y-101436764D02*
G01*
X58041009Y-101443160D01*
X58060445Y-101453548D01*
X58077476Y-101467524D01*
X58091452Y-101484555D01*
X58101840Y-101503991D01*
X58108236Y-101525072D01*
X58111000Y-101553140D01*
X58111000Y-102016860D01*
X58108236Y-102044928D01*
X58101840Y-102066009D01*
X58091452Y-102085445D01*
X58077476Y-102102476D01*
X58060445Y-102116452D01*
X58041009Y-102126840D01*
X58019928Y-102133236D01*
X57991860Y-102136000D01*
X56178140Y-102136000D01*
X56150072Y-102133236D01*
X56128991Y-102126840D01*
X56109555Y-102116452D01*
X56092524Y-102102476D01*
X56078548Y-102085445D01*
X56068160Y-102066009D01*
X56061764Y-102044928D01*
X56059000Y-102016860D01*
X56059000Y-101553140D01*
X56061764Y-101525072D01*
X56068160Y-101503991D01*
X56078548Y-101484555D01*
X56092524Y-101467524D01*
X56109555Y-101453548D01*
X56128991Y-101443160D01*
X56150072Y-101436764D01*
X56178140Y-101434000D01*
X57991860Y-101434000D01*
X58019928Y-101436764D01*
X58019928Y-101436764D01*
G37*
G36*
X31408823Y-99364313D02*
G01*
X31569242Y-99412976D01*
X31647373Y-99454738D01*
X31717078Y-99491996D01*
X31846659Y-99598341D01*
X31953004Y-99727922D01*
X31953005Y-99727924D01*
X32032024Y-99875758D01*
X32080687Y-100036177D01*
X32097117Y-100203000D01*
X32080687Y-100369823D01*
X32032024Y-100530242D01*
X31973199Y-100640295D01*
X31953004Y-100678078D01*
X31846659Y-100807659D01*
X31717078Y-100914004D01*
X31717076Y-100914005D01*
X31569242Y-100993024D01*
X31408823Y-101041687D01*
X31283804Y-101054000D01*
X31200196Y-101054000D01*
X31075177Y-101041687D01*
X30914758Y-100993024D01*
X30766924Y-100914005D01*
X30766922Y-100914004D01*
X30637341Y-100807659D01*
X30530996Y-100678078D01*
X30510801Y-100640295D01*
X30451976Y-100530242D01*
X30403313Y-100369823D01*
X30386883Y-100203000D01*
X30403313Y-100036177D01*
X30451976Y-99875758D01*
X30530995Y-99727924D01*
X30530996Y-99727922D01*
X30637341Y-99598341D01*
X30766922Y-99491996D01*
X30836627Y-99454738D01*
X30914758Y-99412976D01*
X31075177Y-99364313D01*
X31200196Y-99352000D01*
X31283804Y-99352000D01*
X31408823Y-99364313D01*
X31408823Y-99364313D01*
G37*
G36*
X39713000Y-101054000D02*
G01*
X38011000Y-101054000D01*
X38011000Y-99352000D01*
X39713000Y-99352000D01*
X39713000Y-101054000D01*
X39713000Y-101054000D01*
G37*
G36*
X53069928Y-100166764D02*
G01*
X53091009Y-100173160D01*
X53110445Y-100183548D01*
X53127476Y-100197524D01*
X53141452Y-100214555D01*
X53151840Y-100233991D01*
X53158236Y-100255072D01*
X53161000Y-100283140D01*
X53161000Y-100746860D01*
X53158236Y-100774928D01*
X53151840Y-100796009D01*
X53141452Y-100815445D01*
X53127476Y-100832476D01*
X53110445Y-100846452D01*
X53091009Y-100856840D01*
X53069928Y-100863236D01*
X53041860Y-100866000D01*
X51228140Y-100866000D01*
X51200072Y-100863236D01*
X51178991Y-100856840D01*
X51159555Y-100846452D01*
X51142524Y-100832476D01*
X51128548Y-100815445D01*
X51118160Y-100796009D01*
X51111764Y-100774928D01*
X51109000Y-100746860D01*
X51109000Y-100283140D01*
X51111764Y-100255072D01*
X51118160Y-100233991D01*
X51128548Y-100214555D01*
X51142524Y-100197524D01*
X51159555Y-100183548D01*
X51178991Y-100173160D01*
X51200072Y-100166764D01*
X51228140Y-100164000D01*
X53041860Y-100164000D01*
X53069928Y-100166764D01*
X53069928Y-100166764D01*
G37*
G36*
X58019928Y-100166764D02*
G01*
X58041009Y-100173160D01*
X58060445Y-100183548D01*
X58077476Y-100197524D01*
X58091452Y-100214555D01*
X58101840Y-100233991D01*
X58108236Y-100255072D01*
X58111000Y-100283140D01*
X58111000Y-100746860D01*
X58108236Y-100774928D01*
X58101840Y-100796009D01*
X58091452Y-100815445D01*
X58077476Y-100832476D01*
X58060445Y-100846452D01*
X58041009Y-100856840D01*
X58019928Y-100863236D01*
X57991860Y-100866000D01*
X56178140Y-100866000D01*
X56150072Y-100863236D01*
X56128991Y-100856840D01*
X56109555Y-100846452D01*
X56092524Y-100832476D01*
X56078548Y-100815445D01*
X56068160Y-100796009D01*
X56061764Y-100774928D01*
X56059000Y-100746860D01*
X56059000Y-100283140D01*
X56061764Y-100255072D01*
X56068160Y-100233991D01*
X56078548Y-100214555D01*
X56092524Y-100197524D01*
X56109555Y-100183548D01*
X56128991Y-100173160D01*
X56150072Y-100166764D01*
X56178140Y-100164000D01*
X57991860Y-100164000D01*
X58019928Y-100166764D01*
X58019928Y-100166764D01*
G37*
G36*
X60954228Y-99003703D02*
G01*
X61109100Y-99067853D01*
X61248481Y-99160985D01*
X61367015Y-99279519D01*
X61460147Y-99418900D01*
X61524297Y-99573772D01*
X61557000Y-99738184D01*
X61557000Y-99905816D01*
X61524297Y-100070228D01*
X61460147Y-100225100D01*
X61367015Y-100364481D01*
X61248481Y-100483015D01*
X61109100Y-100576147D01*
X60954228Y-100640297D01*
X60789816Y-100673000D01*
X60622184Y-100673000D01*
X60457772Y-100640297D01*
X60302900Y-100576147D01*
X60163519Y-100483015D01*
X60044985Y-100364481D01*
X59951853Y-100225100D01*
X59887703Y-100070228D01*
X59855000Y-99905816D01*
X59855000Y-99738184D01*
X59887703Y-99573772D01*
X59951853Y-99418900D01*
X60044985Y-99279519D01*
X60163519Y-99160985D01*
X60302900Y-99067853D01*
X60457772Y-99003703D01*
X60622184Y-98971000D01*
X60789816Y-98971000D01*
X60954228Y-99003703D01*
X60954228Y-99003703D01*
G37*
G36*
X63454228Y-99003703D02*
G01*
X63609100Y-99067853D01*
X63748481Y-99160985D01*
X63867015Y-99279519D01*
X63960147Y-99418900D01*
X64024297Y-99573772D01*
X64057000Y-99738184D01*
X64057000Y-99905816D01*
X64024297Y-100070228D01*
X63960147Y-100225100D01*
X63867015Y-100364481D01*
X63748481Y-100483015D01*
X63609100Y-100576147D01*
X63454228Y-100640297D01*
X63289816Y-100673000D01*
X63122184Y-100673000D01*
X62957772Y-100640297D01*
X62802900Y-100576147D01*
X62663519Y-100483015D01*
X62544985Y-100364481D01*
X62451853Y-100225100D01*
X62387703Y-100070228D01*
X62355000Y-99905816D01*
X62355000Y-99738184D01*
X62387703Y-99573772D01*
X62451853Y-99418900D01*
X62544985Y-99279519D01*
X62663519Y-99160985D01*
X62802900Y-99067853D01*
X62957772Y-99003703D01*
X63122184Y-98971000D01*
X63289816Y-98971000D01*
X63454228Y-99003703D01*
X63454228Y-99003703D01*
G37*
G36*
X46115562Y-98519181D02*
G01*
X46150481Y-98529774D01*
X46182663Y-98546976D01*
X46210873Y-98570127D01*
X46234024Y-98598337D01*
X46251226Y-98630519D01*
X46261819Y-98665438D01*
X46266000Y-98707895D01*
X46266000Y-100174105D01*
X46261819Y-100216562D01*
X46251226Y-100251481D01*
X46234024Y-100283663D01*
X46210873Y-100311873D01*
X46182663Y-100335024D01*
X46150481Y-100352226D01*
X46115562Y-100362819D01*
X46073105Y-100367000D01*
X44931895Y-100367000D01*
X44889438Y-100362819D01*
X44854519Y-100352226D01*
X44822337Y-100335024D01*
X44794127Y-100311873D01*
X44770976Y-100283663D01*
X44753774Y-100251481D01*
X44743181Y-100216562D01*
X44739000Y-100174105D01*
X44739000Y-98707895D01*
X44743181Y-98665438D01*
X44753774Y-98630519D01*
X44770976Y-98598337D01*
X44794127Y-98570127D01*
X44822337Y-98546976D01*
X44854519Y-98529774D01*
X44889438Y-98519181D01*
X44931895Y-98515000D01*
X46073105Y-98515000D01*
X46115562Y-98519181D01*
X46115562Y-98519181D01*
G37*
G36*
X49090562Y-98519181D02*
G01*
X49125481Y-98529774D01*
X49157663Y-98546976D01*
X49185873Y-98570127D01*
X49209024Y-98598337D01*
X49226226Y-98630519D01*
X49236819Y-98665438D01*
X49241000Y-98707895D01*
X49241000Y-100174105D01*
X49236819Y-100216562D01*
X49226226Y-100251481D01*
X49209024Y-100283663D01*
X49185873Y-100311873D01*
X49157663Y-100335024D01*
X49125481Y-100352226D01*
X49090562Y-100362819D01*
X49048105Y-100367000D01*
X47906895Y-100367000D01*
X47864438Y-100362819D01*
X47829519Y-100352226D01*
X47797337Y-100335024D01*
X47769127Y-100311873D01*
X47745976Y-100283663D01*
X47728774Y-100251481D01*
X47718181Y-100216562D01*
X47714000Y-100174105D01*
X47714000Y-98707895D01*
X47718181Y-98665438D01*
X47728774Y-98630519D01*
X47745976Y-98598337D01*
X47769127Y-98570127D01*
X47797337Y-98546976D01*
X47829519Y-98529774D01*
X47864438Y-98519181D01*
X47906895Y-98515000D01*
X49048105Y-98515000D01*
X49090562Y-98519181D01*
X49090562Y-98519181D01*
G37*
G36*
X58019928Y-98896764D02*
G01*
X58041009Y-98903160D01*
X58060445Y-98913548D01*
X58077476Y-98927524D01*
X58091452Y-98944555D01*
X58101840Y-98963991D01*
X58108236Y-98985072D01*
X58111000Y-99013140D01*
X58111000Y-99476860D01*
X58108236Y-99504928D01*
X58101840Y-99526009D01*
X58091452Y-99545445D01*
X58077476Y-99562476D01*
X58060445Y-99576452D01*
X58041009Y-99586840D01*
X58019928Y-99593236D01*
X57991860Y-99596000D01*
X56178140Y-99596000D01*
X56150072Y-99593236D01*
X56128991Y-99586840D01*
X56109555Y-99576452D01*
X56092524Y-99562476D01*
X56078548Y-99545445D01*
X56068160Y-99526009D01*
X56061764Y-99504928D01*
X56059000Y-99476860D01*
X56059000Y-99013140D01*
X56061764Y-98985072D01*
X56068160Y-98963991D01*
X56078548Y-98944555D01*
X56092524Y-98927524D01*
X56109555Y-98913548D01*
X56128991Y-98903160D01*
X56150072Y-98896764D01*
X56178140Y-98894000D01*
X57991860Y-98894000D01*
X58019928Y-98896764D01*
X58019928Y-98896764D01*
G37*
G36*
X53069928Y-98896764D02*
G01*
X53091009Y-98903160D01*
X53110445Y-98913548D01*
X53127476Y-98927524D01*
X53141452Y-98944555D01*
X53151840Y-98963991D01*
X53158236Y-98985072D01*
X53161000Y-99013140D01*
X53161000Y-99476860D01*
X53158236Y-99504928D01*
X53151840Y-99526009D01*
X53141452Y-99545445D01*
X53127476Y-99562476D01*
X53110445Y-99576452D01*
X53091009Y-99586840D01*
X53069928Y-99593236D01*
X53041860Y-99596000D01*
X51228140Y-99596000D01*
X51200072Y-99593236D01*
X51178991Y-99586840D01*
X51159555Y-99576452D01*
X51142524Y-99562476D01*
X51128548Y-99545445D01*
X51118160Y-99526009D01*
X51111764Y-99504928D01*
X51109000Y-99476860D01*
X51109000Y-99013140D01*
X51111764Y-98985072D01*
X51118160Y-98963991D01*
X51128548Y-98944555D01*
X51142524Y-98927524D01*
X51159555Y-98913548D01*
X51178991Y-98903160D01*
X51200072Y-98896764D01*
X51228140Y-98894000D01*
X53041860Y-98894000D01*
X53069928Y-98896764D01*
X53069928Y-98896764D01*
G37*
G36*
X35432655Y-95968591D02*
G01*
X35504525Y-95982887D01*
X35707624Y-96067013D01*
X35890409Y-96189146D01*
X36045854Y-96344591D01*
X36167987Y-96527376D01*
X36252113Y-96730475D01*
X36252113Y-96730476D01*
X36290939Y-96925665D01*
X36295000Y-96946084D01*
X36295000Y-97165916D01*
X36252113Y-97381525D01*
X36167987Y-97584624D01*
X36045854Y-97767409D01*
X35890409Y-97922854D01*
X35707624Y-98044987D01*
X35504525Y-98129113D01*
X35432655Y-98143409D01*
X35288918Y-98172000D01*
X35069082Y-98172000D01*
X34925345Y-98143409D01*
X34853475Y-98129113D01*
X34650376Y-98044987D01*
X34467591Y-97922854D01*
X34312146Y-97767409D01*
X34190013Y-97584624D01*
X34105887Y-97381525D01*
X34063000Y-97165916D01*
X34063000Y-96946084D01*
X34067062Y-96925665D01*
X34105887Y-96730476D01*
X34105887Y-96730475D01*
X34190013Y-96527376D01*
X34312146Y-96344591D01*
X34467591Y-96189146D01*
X34650376Y-96067013D01*
X34853475Y-95982887D01*
X34925345Y-95968591D01*
X35069082Y-95940000D01*
X35288918Y-95940000D01*
X35432655Y-95968591D01*
X35432655Y-95968591D01*
G37*
G36*
X64896655Y-95968591D02*
G01*
X64968525Y-95982887D01*
X65171624Y-96067013D01*
X65354409Y-96189146D01*
X65509854Y-96344591D01*
X65631987Y-96527376D01*
X65716113Y-96730475D01*
X65716113Y-96730476D01*
X65754939Y-96925665D01*
X65759000Y-96946084D01*
X65759000Y-97165916D01*
X65716113Y-97381525D01*
X65631987Y-97584624D01*
X65509854Y-97767409D01*
X65354409Y-97922854D01*
X65171624Y-98044987D01*
X64968525Y-98129113D01*
X64896655Y-98143409D01*
X64752918Y-98172000D01*
X64533082Y-98172000D01*
X64389345Y-98143409D01*
X64317475Y-98129113D01*
X64114376Y-98044987D01*
X63931591Y-97922854D01*
X63776146Y-97767409D01*
X63654013Y-97584624D01*
X63569887Y-97381525D01*
X63527000Y-97165916D01*
X63527000Y-96946084D01*
X63531062Y-96925665D01*
X63569887Y-96730476D01*
X63569887Y-96730475D01*
X63654013Y-96527376D01*
X63776146Y-96344591D01*
X63931591Y-96189146D01*
X64114376Y-96067013D01*
X64317475Y-95982887D01*
X64389345Y-95968591D01*
X64533082Y-95940000D01*
X64752918Y-95940000D01*
X64896655Y-95968591D01*
X64896655Y-95968591D01*
G37*
G36*
X48236395Y-95917546D02*
G01*
X48409466Y-95989234D01*
X48409467Y-95989235D01*
X48565227Y-96093310D01*
X48697690Y-96225773D01*
X48697691Y-96225775D01*
X48801766Y-96381534D01*
X48873454Y-96554605D01*
X48910000Y-96738333D01*
X48910000Y-96925667D01*
X48873454Y-97109395D01*
X48801766Y-97282466D01*
X48801765Y-97282467D01*
X48697690Y-97438227D01*
X48565227Y-97570690D01*
X48544373Y-97584624D01*
X48409466Y-97674766D01*
X48236395Y-97746454D01*
X48052667Y-97783000D01*
X47865333Y-97783000D01*
X47681605Y-97746454D01*
X47508534Y-97674766D01*
X47373627Y-97584624D01*
X47352773Y-97570690D01*
X47220310Y-97438227D01*
X47116235Y-97282467D01*
X47116234Y-97282466D01*
X47044546Y-97109395D01*
X47008000Y-96925667D01*
X47008000Y-96738333D01*
X47044546Y-96554605D01*
X47116234Y-96381534D01*
X47220309Y-96225775D01*
X47220310Y-96225773D01*
X47352773Y-96093310D01*
X47508533Y-95989235D01*
X47508534Y-95989234D01*
X47681605Y-95917546D01*
X47865333Y-95881000D01*
X48052667Y-95881000D01*
X48236395Y-95917546D01*
X48236395Y-95917546D01*
G37*
G36*
X53910000Y-97783000D02*
G01*
X52008000Y-97783000D01*
X52008000Y-95881000D01*
X53910000Y-95881000D01*
X53910000Y-97783000D01*
X53910000Y-97783000D01*
G37*
G36*
X50736395Y-95917546D02*
G01*
X50909466Y-95989234D01*
X50909467Y-95989235D01*
X51065227Y-96093310D01*
X51197690Y-96225773D01*
X51197691Y-96225775D01*
X51301766Y-96381534D01*
X51373454Y-96554605D01*
X51410000Y-96738333D01*
X51410000Y-96925667D01*
X51373454Y-97109395D01*
X51301766Y-97282466D01*
X51301765Y-97282467D01*
X51197690Y-97438227D01*
X51065227Y-97570690D01*
X51044373Y-97584624D01*
X50909466Y-97674766D01*
X50736395Y-97746454D01*
X50552667Y-97783000D01*
X50365333Y-97783000D01*
X50181605Y-97746454D01*
X50008534Y-97674766D01*
X49873627Y-97584624D01*
X49852773Y-97570690D01*
X49720310Y-97438227D01*
X49616235Y-97282467D01*
X49616234Y-97282466D01*
X49544546Y-97109395D01*
X49508000Y-96925667D01*
X49508000Y-96738333D01*
X49544546Y-96554605D01*
X49616234Y-96381534D01*
X49720309Y-96225775D01*
X49720310Y-96225773D01*
X49852773Y-96093310D01*
X50008533Y-95989235D01*
X50008534Y-95989234D01*
X50181605Y-95917546D01*
X50365333Y-95881000D01*
X50552667Y-95881000D01*
X50736395Y-95917546D01*
X50736395Y-95917546D01*
G37*
G36*
X49671562Y-92550181D02*
G01*
X49706481Y-92560774D01*
X49738663Y-92577976D01*
X49766873Y-92601127D01*
X49790024Y-92629337D01*
X49807226Y-92661519D01*
X49817819Y-92696438D01*
X49822000Y-92738895D01*
X49822000Y-94205105D01*
X49817819Y-94247562D01*
X49807226Y-94282481D01*
X49790024Y-94314663D01*
X49766873Y-94342873D01*
X49738663Y-94366024D01*
X49706481Y-94383226D01*
X49671562Y-94393819D01*
X49629105Y-94398000D01*
X48487895Y-94398000D01*
X48445438Y-94393819D01*
X48410519Y-94383226D01*
X48378337Y-94366024D01*
X48350127Y-94342873D01*
X48326976Y-94314663D01*
X48309774Y-94282481D01*
X48299181Y-94247562D01*
X48295000Y-94205105D01*
X48295000Y-92738895D01*
X48299181Y-92696438D01*
X48309774Y-92661519D01*
X48326976Y-92629337D01*
X48350127Y-92601127D01*
X48378337Y-92577976D01*
X48410519Y-92560774D01*
X48445438Y-92550181D01*
X48487895Y-92546000D01*
X49629105Y-92546000D01*
X49671562Y-92550181D01*
X49671562Y-92550181D01*
G37*
G36*
X52646562Y-92550181D02*
G01*
X52681481Y-92560774D01*
X52713663Y-92577976D01*
X52741873Y-92601127D01*
X52765024Y-92629337D01*
X52782226Y-92661519D01*
X52792819Y-92696438D01*
X52797000Y-92738895D01*
X52797000Y-94205105D01*
X52792819Y-94247562D01*
X52782226Y-94282481D01*
X52765024Y-94314663D01*
X52741873Y-94342873D01*
X52713663Y-94366024D01*
X52681481Y-94383226D01*
X52646562Y-94393819D01*
X52604105Y-94398000D01*
X51462895Y-94398000D01*
X51420438Y-94393819D01*
X51385519Y-94383226D01*
X51353337Y-94366024D01*
X51325127Y-94342873D01*
X51301976Y-94314663D01*
X51284774Y-94282481D01*
X51274181Y-94247562D01*
X51270000Y-94205105D01*
X51270000Y-92738895D01*
X51274181Y-92696438D01*
X51284774Y-92661519D01*
X51301976Y-92629337D01*
X51325127Y-92601127D01*
X51353337Y-92577976D01*
X51385519Y-92560774D01*
X51420438Y-92550181D01*
X51462895Y-92546000D01*
X52604105Y-92546000D01*
X52646562Y-92550181D01*
X52646562Y-92550181D01*
G37*
G36*
X52646562Y-90264181D02*
G01*
X52681481Y-90274774D01*
X52713663Y-90291976D01*
X52741873Y-90315127D01*
X52765024Y-90343337D01*
X52782226Y-90375519D01*
X52792819Y-90410438D01*
X52797000Y-90452895D01*
X52797000Y-91919105D01*
X52792819Y-91961562D01*
X52782226Y-91996481D01*
X52765024Y-92028663D01*
X52741873Y-92056873D01*
X52713663Y-92080024D01*
X52681481Y-92097226D01*
X52646562Y-92107819D01*
X52604105Y-92112000D01*
X51462895Y-92112000D01*
X51420438Y-92107819D01*
X51385519Y-92097226D01*
X51353337Y-92080024D01*
X51325127Y-92056873D01*
X51301976Y-92028663D01*
X51284774Y-91996481D01*
X51274181Y-91961562D01*
X51270000Y-91919105D01*
X51270000Y-90452895D01*
X51274181Y-90410438D01*
X51284774Y-90375519D01*
X51301976Y-90343337D01*
X51325127Y-90315127D01*
X51353337Y-90291976D01*
X51385519Y-90274774D01*
X51420438Y-90264181D01*
X51462895Y-90260000D01*
X52604105Y-90260000D01*
X52646562Y-90264181D01*
X52646562Y-90264181D01*
G37*
G36*
X49671562Y-90264181D02*
G01*
X49706481Y-90274774D01*
X49738663Y-90291976D01*
X49766873Y-90315127D01*
X49790024Y-90343337D01*
X49807226Y-90375519D01*
X49817819Y-90410438D01*
X49822000Y-90452895D01*
X49822000Y-91919105D01*
X49817819Y-91961562D01*
X49807226Y-91996481D01*
X49790024Y-92028663D01*
X49766873Y-92056873D01*
X49738663Y-92080024D01*
X49706481Y-92097226D01*
X49671562Y-92107819D01*
X49629105Y-92112000D01*
X48487895Y-92112000D01*
X48445438Y-92107819D01*
X48410519Y-92097226D01*
X48378337Y-92080024D01*
X48350127Y-92056873D01*
X48326976Y-92028663D01*
X48309774Y-91996481D01*
X48299181Y-91961562D01*
X48295000Y-91919105D01*
X48295000Y-90452895D01*
X48299181Y-90410438D01*
X48309774Y-90375519D01*
X48326976Y-90343337D01*
X48350127Y-90315127D01*
X48378337Y-90291976D01*
X48410519Y-90274774D01*
X48445438Y-90264181D01*
X48487895Y-90260000D01*
X49629105Y-90260000D01*
X49671562Y-90264181D01*
X49671562Y-90264181D01*
G37*
G36*
X55535603Y-87681416D02*
G01*
X55801578Y-87762099D01*
X55801580Y-87762100D01*
X56046700Y-87893119D01*
X56261556Y-88069444D01*
X56437881Y-88284299D01*
X56533241Y-88462705D01*
X56568901Y-88529421D01*
X56649584Y-88795396D01*
X56670000Y-89002684D01*
X56670000Y-89661315D01*
X56649584Y-89868603D01*
X56599063Y-90035147D01*
X56568900Y-90134582D01*
X56437881Y-90379701D01*
X56261556Y-90594556D01*
X56046701Y-90770881D01*
X55801581Y-90901900D01*
X55801579Y-90901901D01*
X55535604Y-90982584D01*
X55259000Y-91009827D01*
X54982397Y-90982584D01*
X54716422Y-90901901D01*
X54716420Y-90901900D01*
X54471300Y-90770881D01*
X54256444Y-90594556D01*
X54080119Y-90379701D01*
X53949100Y-90134581D01*
X53948317Y-90132000D01*
X53868416Y-89868604D01*
X53848000Y-89661316D01*
X53848000Y-89002685D01*
X53868416Y-88795397D01*
X53949099Y-88529422D01*
X54080120Y-88284299D01*
X54080121Y-88284298D01*
X54256444Y-88069444D01*
X54471299Y-87893119D01*
X54716419Y-87762100D01*
X54716421Y-87762099D01*
X54982396Y-87681416D01*
X55259000Y-87654173D01*
X55535603Y-87681416D01*
X55535603Y-87681416D01*
G37*
G36*
X45935603Y-87681416D02*
G01*
X46201578Y-87762099D01*
X46201580Y-87762100D01*
X46446700Y-87893119D01*
X46661556Y-88069444D01*
X46837881Y-88284299D01*
X46933241Y-88462705D01*
X46968901Y-88529421D01*
X47049584Y-88795396D01*
X47070000Y-89002684D01*
X47070000Y-89661315D01*
X47049584Y-89868603D01*
X46999063Y-90035147D01*
X46968900Y-90134582D01*
X46837881Y-90379701D01*
X46661556Y-90594556D01*
X46446701Y-90770881D01*
X46201581Y-90901900D01*
X46201579Y-90901901D01*
X45935604Y-90982584D01*
X45659000Y-91009827D01*
X45382397Y-90982584D01*
X45116422Y-90901901D01*
X45116420Y-90901900D01*
X44871300Y-90770881D01*
X44656444Y-90594556D01*
X44480119Y-90379701D01*
X44349100Y-90134581D01*
X44348317Y-90132000D01*
X44268416Y-89868604D01*
X44248000Y-89661316D01*
X44248000Y-89002685D01*
X44268416Y-88795397D01*
X44349099Y-88529422D01*
X44480120Y-88284299D01*
X44480121Y-88284298D01*
X44656444Y-88069444D01*
X44871299Y-87893119D01*
X45116419Y-87762100D01*
X45116421Y-87762099D01*
X45382396Y-87681416D01*
X45659000Y-87654173D01*
X45935603Y-87681416D01*
X45935603Y-87681416D01*
G37*
G36*
X42285228Y-88462703D02*
G01*
X42440100Y-88526853D01*
X42579481Y-88619985D01*
X42698015Y-88738519D01*
X42791147Y-88877900D01*
X42855297Y-89032772D01*
X42888000Y-89197184D01*
X42888000Y-89364816D01*
X42855297Y-89529228D01*
X42791147Y-89684100D01*
X42698015Y-89823481D01*
X42579481Y-89942015D01*
X42440100Y-90035147D01*
X42285228Y-90099297D01*
X42120816Y-90132000D01*
X41953184Y-90132000D01*
X41788772Y-90099297D01*
X41633900Y-90035147D01*
X41494519Y-89942015D01*
X41375985Y-89823481D01*
X41282853Y-89684100D01*
X41218703Y-89529228D01*
X41186000Y-89364816D01*
X41186000Y-89197184D01*
X41218703Y-89032772D01*
X41282853Y-88877900D01*
X41375985Y-88738519D01*
X41494519Y-88619985D01*
X41633900Y-88526853D01*
X41788772Y-88462703D01*
X41953184Y-88430000D01*
X42120816Y-88430000D01*
X42285228Y-88462703D01*
X42285228Y-88462703D01*
G37*
G36*
X35432655Y-87668591D02*
G01*
X35504525Y-87682887D01*
X35707624Y-87767013D01*
X35890409Y-87889146D01*
X36045854Y-88044591D01*
X36167987Y-88227376D01*
X36252113Y-88430475D01*
X36258524Y-88462705D01*
X36295000Y-88646082D01*
X36295000Y-88865918D01*
X36292616Y-88877903D01*
X36252113Y-89081525D01*
X36167987Y-89284624D01*
X36045854Y-89467409D01*
X35890409Y-89622854D01*
X35707624Y-89744987D01*
X35504525Y-89829113D01*
X35432655Y-89843409D01*
X35288918Y-89872000D01*
X35069082Y-89872000D01*
X34925345Y-89843409D01*
X34853475Y-89829113D01*
X34650376Y-89744987D01*
X34467591Y-89622854D01*
X34312146Y-89467409D01*
X34190013Y-89284624D01*
X34105887Y-89081525D01*
X34065384Y-88877903D01*
X34063000Y-88865918D01*
X34063000Y-88646082D01*
X34099476Y-88462705D01*
X34105887Y-88430475D01*
X34190013Y-88227376D01*
X34312146Y-88044591D01*
X34467591Y-87889146D01*
X34650376Y-87767013D01*
X34853475Y-87682887D01*
X34925345Y-87668591D01*
X35069082Y-87640000D01*
X35288918Y-87640000D01*
X35432655Y-87668591D01*
X35432655Y-87668591D01*
G37*
G36*
X64896655Y-87668591D02*
G01*
X64968525Y-87682887D01*
X65171624Y-87767013D01*
X65354409Y-87889146D01*
X65509854Y-88044591D01*
X65631987Y-88227376D01*
X65716113Y-88430475D01*
X65722524Y-88462705D01*
X65759000Y-88646082D01*
X65759000Y-88865918D01*
X65756616Y-88877903D01*
X65716113Y-89081525D01*
X65631987Y-89284624D01*
X65509854Y-89467409D01*
X65354409Y-89622854D01*
X65171624Y-89744987D01*
X64968525Y-89829113D01*
X64896655Y-89843409D01*
X64752918Y-89872000D01*
X64533082Y-89872000D01*
X64389345Y-89843409D01*
X64317475Y-89829113D01*
X64114376Y-89744987D01*
X63931591Y-89622854D01*
X63776146Y-89467409D01*
X63654013Y-89284624D01*
X63569887Y-89081525D01*
X63529384Y-88877903D01*
X63527000Y-88865918D01*
X63527000Y-88646082D01*
X63563476Y-88462705D01*
X63569887Y-88430475D01*
X63654013Y-88227376D01*
X63776146Y-88044591D01*
X63931591Y-87889146D01*
X64114376Y-87767013D01*
X64317475Y-87682887D01*
X64389345Y-87668591D01*
X64533082Y-87640000D01*
X64752918Y-87640000D01*
X64896655Y-87668591D01*
X64896655Y-87668591D01*
G37*
G36*
X65659000Y-86622000D02*
G01*
X63627000Y-86622000D01*
X63627000Y-84690000D01*
X65659000Y-84690000D01*
X65659000Y-86622000D01*
X65659000Y-86622000D01*
G37*
G36*
X36195000Y-86622000D02*
G01*
X34163000Y-86622000D01*
X34163000Y-84690000D01*
X36195000Y-84690000D01*
X36195000Y-86622000D01*
X36195000Y-86622000D01*
G37*
G36*
X42559562Y-83914181D02*
G01*
X42594481Y-83924774D01*
X42626663Y-83941976D01*
X42654873Y-83965127D01*
X42678024Y-83993337D01*
X42695226Y-84025519D01*
X42705819Y-84060438D01*
X42710000Y-84102895D01*
X42710000Y-85569105D01*
X42705819Y-85611562D01*
X42695226Y-85646481D01*
X42678024Y-85678663D01*
X42654873Y-85706873D01*
X42626663Y-85730024D01*
X42594481Y-85747226D01*
X42559562Y-85757819D01*
X42517105Y-85762000D01*
X41375895Y-85762000D01*
X41333438Y-85757819D01*
X41298519Y-85747226D01*
X41266337Y-85730024D01*
X41238127Y-85706873D01*
X41214976Y-85678663D01*
X41197774Y-85646481D01*
X41187181Y-85611562D01*
X41183000Y-85569105D01*
X41183000Y-84102895D01*
X41187181Y-84060438D01*
X41197774Y-84025519D01*
X41214976Y-83993337D01*
X41238127Y-83965127D01*
X41266337Y-83941976D01*
X41298519Y-83924774D01*
X41333438Y-83914181D01*
X41375895Y-83910000D01*
X42517105Y-83910000D01*
X42559562Y-83914181D01*
X42559562Y-83914181D01*
G37*
G36*
X45534562Y-83914181D02*
G01*
X45569481Y-83924774D01*
X45601663Y-83941976D01*
X45629873Y-83965127D01*
X45653024Y-83993337D01*
X45670226Y-84025519D01*
X45680819Y-84060438D01*
X45685000Y-84102895D01*
X45685000Y-85569105D01*
X45680819Y-85611562D01*
X45670226Y-85646481D01*
X45653024Y-85678663D01*
X45629873Y-85706873D01*
X45601663Y-85730024D01*
X45569481Y-85747226D01*
X45534562Y-85757819D01*
X45492105Y-85762000D01*
X44350895Y-85762000D01*
X44308438Y-85757819D01*
X44273519Y-85747226D01*
X44241337Y-85730024D01*
X44213127Y-85706873D01*
X44189976Y-85678663D01*
X44172774Y-85646481D01*
X44162181Y-85611562D01*
X44158000Y-85569105D01*
X44158000Y-84102895D01*
X44162181Y-84060438D01*
X44172774Y-84025519D01*
X44189976Y-83993337D01*
X44213127Y-83965127D01*
X44241337Y-83941976D01*
X44273519Y-83924774D01*
X44308438Y-83914181D01*
X44350895Y-83910000D01*
X45492105Y-83910000D01*
X45534562Y-83914181D01*
X45534562Y-83914181D01*
G37*
G36*
X34993562Y-81882181D02*
G01*
X35028481Y-81892774D01*
X35060663Y-81909976D01*
X35088873Y-81933127D01*
X35112024Y-81961337D01*
X35129226Y-81993519D01*
X35139819Y-82028438D01*
X35144000Y-82070895D01*
X35144000Y-83537105D01*
X35139819Y-83579562D01*
X35129226Y-83614481D01*
X35112024Y-83646663D01*
X35088873Y-83674873D01*
X35060663Y-83698024D01*
X35028481Y-83715226D01*
X34993562Y-83725819D01*
X34951105Y-83730000D01*
X33809895Y-83730000D01*
X33767438Y-83725819D01*
X33732519Y-83715226D01*
X33700337Y-83698024D01*
X33672127Y-83674873D01*
X33648976Y-83646663D01*
X33631774Y-83614481D01*
X33621181Y-83579562D01*
X33617000Y-83537105D01*
X33617000Y-82070895D01*
X33621181Y-82028438D01*
X33631774Y-81993519D01*
X33648976Y-81961337D01*
X33672127Y-81933127D01*
X33700337Y-81909976D01*
X33732519Y-81892774D01*
X33767438Y-81882181D01*
X33809895Y-81878000D01*
X34951105Y-81878000D01*
X34993562Y-81882181D01*
X34993562Y-81882181D01*
G37*
G36*
X32018562Y-81882181D02*
G01*
X32053481Y-81892774D01*
X32085663Y-81909976D01*
X32113873Y-81933127D01*
X32137024Y-81961337D01*
X32154226Y-81993519D01*
X32164819Y-82028438D01*
X32169000Y-82070895D01*
X32169000Y-83537105D01*
X32164819Y-83579562D01*
X32154226Y-83614481D01*
X32137024Y-83646663D01*
X32113873Y-83674873D01*
X32085663Y-83698024D01*
X32053481Y-83715226D01*
X32018562Y-83725819D01*
X31976105Y-83730000D01*
X30834895Y-83730000D01*
X30792438Y-83725819D01*
X30757519Y-83715226D01*
X30725337Y-83698024D01*
X30697127Y-83674873D01*
X30673976Y-83646663D01*
X30656774Y-83614481D01*
X30646181Y-83579562D01*
X30642000Y-83537105D01*
X30642000Y-82070895D01*
X30646181Y-82028438D01*
X30656774Y-81993519D01*
X30673976Y-81961337D01*
X30697127Y-81933127D01*
X30725337Y-81909976D01*
X30757519Y-81892774D01*
X30792438Y-81882181D01*
X30834895Y-81878000D01*
X31976105Y-81878000D01*
X32018562Y-81882181D01*
X32018562Y-81882181D01*
G37*
G36*
X58019928Y-80706764D02*
G01*
X58041009Y-80713160D01*
X58060445Y-80723548D01*
X58077476Y-80737524D01*
X58091452Y-80754555D01*
X58101840Y-80773991D01*
X58108236Y-80795072D01*
X58111000Y-80823140D01*
X58111000Y-81286860D01*
X58108236Y-81314928D01*
X58101840Y-81336009D01*
X58091452Y-81355445D01*
X58077476Y-81372476D01*
X58060445Y-81386452D01*
X58041009Y-81396840D01*
X58019928Y-81403236D01*
X57991860Y-81406000D01*
X56178140Y-81406000D01*
X56150072Y-81403236D01*
X56128991Y-81396840D01*
X56109555Y-81386452D01*
X56092524Y-81372476D01*
X56078548Y-81355445D01*
X56068160Y-81336009D01*
X56061764Y-81314928D01*
X56059000Y-81286860D01*
X56059000Y-80823140D01*
X56061764Y-80795072D01*
X56068160Y-80773991D01*
X56078548Y-80754555D01*
X56092524Y-80737524D01*
X56109555Y-80723548D01*
X56128991Y-80713160D01*
X56150072Y-80706764D01*
X56178140Y-80704000D01*
X57991860Y-80704000D01*
X58019928Y-80706764D01*
X58019928Y-80706764D01*
G37*
G36*
X53069928Y-80706764D02*
G01*
X53091009Y-80713160D01*
X53110445Y-80723548D01*
X53127476Y-80737524D01*
X53141452Y-80754555D01*
X53151840Y-80773991D01*
X53158236Y-80795072D01*
X53161000Y-80823140D01*
X53161000Y-81286860D01*
X53158236Y-81314928D01*
X53151840Y-81336009D01*
X53141452Y-81355445D01*
X53127476Y-81372476D01*
X53110445Y-81386452D01*
X53091009Y-81396840D01*
X53069928Y-81403236D01*
X53041860Y-81406000D01*
X51228140Y-81406000D01*
X51200072Y-81403236D01*
X51178991Y-81396840D01*
X51159555Y-81386452D01*
X51142524Y-81372476D01*
X51128548Y-81355445D01*
X51118160Y-81336009D01*
X51111764Y-81314928D01*
X51109000Y-81286860D01*
X51109000Y-80823140D01*
X51111764Y-80795072D01*
X51118160Y-80773991D01*
X51128548Y-80754555D01*
X51142524Y-80737524D01*
X51159555Y-80723548D01*
X51178991Y-80713160D01*
X51200072Y-80706764D01*
X51228140Y-80704000D01*
X53041860Y-80704000D01*
X53069928Y-80706764D01*
X53069928Y-80706764D01*
G37*
G36*
X42203823Y-79708313D02*
G01*
X42364242Y-79756976D01*
X42496906Y-79827886D01*
X42512078Y-79835996D01*
X42641659Y-79942341D01*
X42748004Y-80071922D01*
X42748005Y-80071924D01*
X42827024Y-80219758D01*
X42875687Y-80380177D01*
X42892117Y-80547000D01*
X42875687Y-80713823D01*
X42827024Y-80874242D01*
X42795360Y-80933481D01*
X42748004Y-81022078D01*
X42641659Y-81151659D01*
X42512078Y-81258004D01*
X42512076Y-81258005D01*
X42364242Y-81337024D01*
X42203823Y-81385687D01*
X42078804Y-81398000D01*
X41995196Y-81398000D01*
X41870177Y-81385687D01*
X41709758Y-81337024D01*
X41561924Y-81258005D01*
X41561922Y-81258004D01*
X41432341Y-81151659D01*
X41325996Y-81022078D01*
X41278640Y-80933481D01*
X41246976Y-80874242D01*
X41198313Y-80713823D01*
X41181883Y-80547000D01*
X41198313Y-80380177D01*
X41246976Y-80219758D01*
X41325995Y-80071924D01*
X41325996Y-80071922D01*
X41432341Y-79942341D01*
X41561922Y-79835996D01*
X41577094Y-79827886D01*
X41709758Y-79756976D01*
X41870177Y-79708313D01*
X41995196Y-79696000D01*
X42078804Y-79696000D01*
X42203823Y-79708313D01*
X42203823Y-79708313D01*
G37*
G36*
X48976228Y-79572703D02*
G01*
X49131100Y-79636853D01*
X49270481Y-79729985D01*
X49389015Y-79848519D01*
X49482147Y-79987900D01*
X49546297Y-80142772D01*
X49579000Y-80307184D01*
X49579000Y-80474816D01*
X49546297Y-80639228D01*
X49482147Y-80794100D01*
X49389015Y-80933481D01*
X49270481Y-81052015D01*
X49131100Y-81145147D01*
X48976228Y-81209297D01*
X48811816Y-81242000D01*
X48644184Y-81242000D01*
X48479772Y-81209297D01*
X48324900Y-81145147D01*
X48185519Y-81052015D01*
X48066985Y-80933481D01*
X47973853Y-80794100D01*
X47909703Y-80639228D01*
X47877000Y-80474816D01*
X47877000Y-80307184D01*
X47909703Y-80142772D01*
X47973853Y-79987900D01*
X48066985Y-79848519D01*
X48185519Y-79729985D01*
X48324900Y-79636853D01*
X48479772Y-79572703D01*
X48644184Y-79540000D01*
X48811816Y-79540000D01*
X48976228Y-79572703D01*
X48976228Y-79572703D01*
G37*
G36*
X46476228Y-79572703D02*
G01*
X46631100Y-79636853D01*
X46770481Y-79729985D01*
X46889015Y-79848519D01*
X46982147Y-79987900D01*
X47046297Y-80142772D01*
X47079000Y-80307184D01*
X47079000Y-80474816D01*
X47046297Y-80639228D01*
X46982147Y-80794100D01*
X46889015Y-80933481D01*
X46770481Y-81052015D01*
X46631100Y-81145147D01*
X46476228Y-81209297D01*
X46311816Y-81242000D01*
X46144184Y-81242000D01*
X45979772Y-81209297D01*
X45824900Y-81145147D01*
X45685519Y-81052015D01*
X45566985Y-80933481D01*
X45473853Y-80794100D01*
X45409703Y-80639228D01*
X45377000Y-80474816D01*
X45377000Y-80307184D01*
X45409703Y-80142772D01*
X45473853Y-79987900D01*
X45566985Y-79848519D01*
X45685519Y-79729985D01*
X45824900Y-79636853D01*
X45979772Y-79572703D01*
X46144184Y-79540000D01*
X46311816Y-79540000D01*
X46476228Y-79572703D01*
X46476228Y-79572703D01*
G37*
G36*
X63748228Y-79318703D02*
G01*
X63903100Y-79382853D01*
X64042481Y-79475985D01*
X64161015Y-79594519D01*
X64254147Y-79733900D01*
X64318297Y-79888772D01*
X64351000Y-80053184D01*
X64351000Y-80220816D01*
X64318297Y-80385228D01*
X64254147Y-80540100D01*
X64161015Y-80679481D01*
X64042481Y-80798015D01*
X63903100Y-80891147D01*
X63748228Y-80955297D01*
X63583816Y-80988000D01*
X63416184Y-80988000D01*
X63251772Y-80955297D01*
X63096900Y-80891147D01*
X62957519Y-80798015D01*
X62838985Y-80679481D01*
X62745853Y-80540100D01*
X62681703Y-80385228D01*
X62649000Y-80220816D01*
X62649000Y-80053184D01*
X62681703Y-79888772D01*
X62745853Y-79733900D01*
X62838985Y-79594519D01*
X62957519Y-79475985D01*
X63096900Y-79382853D01*
X63251772Y-79318703D01*
X63416184Y-79286000D01*
X63583816Y-79286000D01*
X63748228Y-79318703D01*
X63748228Y-79318703D01*
G37*
G36*
X61248228Y-79318703D02*
G01*
X61403100Y-79382853D01*
X61542481Y-79475985D01*
X61661015Y-79594519D01*
X61754147Y-79733900D01*
X61818297Y-79888772D01*
X61851000Y-80053184D01*
X61851000Y-80220816D01*
X61818297Y-80385228D01*
X61754147Y-80540100D01*
X61661015Y-80679481D01*
X61542481Y-80798015D01*
X61403100Y-80891147D01*
X61248228Y-80955297D01*
X61083816Y-80988000D01*
X60916184Y-80988000D01*
X60751772Y-80955297D01*
X60596900Y-80891147D01*
X60457519Y-80798015D01*
X60338985Y-80679481D01*
X60245853Y-80540100D01*
X60181703Y-80385228D01*
X60149000Y-80220816D01*
X60149000Y-80053184D01*
X60181703Y-79888772D01*
X60245853Y-79733900D01*
X60338985Y-79594519D01*
X60457519Y-79475985D01*
X60596900Y-79382853D01*
X60751772Y-79318703D01*
X60916184Y-79286000D01*
X61083816Y-79286000D01*
X61248228Y-79318703D01*
X61248228Y-79318703D01*
G37*
G36*
X39840000Y-80607000D02*
G01*
X38138000Y-80607000D01*
X38138000Y-78905000D01*
X39840000Y-78905000D01*
X39840000Y-80607000D01*
X39840000Y-80607000D01*
G37*
G36*
X31535823Y-78917313D02*
G01*
X31696242Y-78965976D01*
X31828906Y-79036886D01*
X31844078Y-79044996D01*
X31973659Y-79151341D01*
X32080004Y-79280922D01*
X32080005Y-79280924D01*
X32159024Y-79428758D01*
X32207687Y-79589177D01*
X32224117Y-79756000D01*
X32207687Y-79922823D01*
X32159024Y-80083242D01*
X32088114Y-80215906D01*
X32080004Y-80231078D01*
X31973659Y-80360659D01*
X31844078Y-80467004D01*
X31844076Y-80467005D01*
X31696242Y-80546024D01*
X31535823Y-80594687D01*
X31410804Y-80607000D01*
X31327196Y-80607000D01*
X31202177Y-80594687D01*
X31041758Y-80546024D01*
X30893924Y-80467005D01*
X30893922Y-80467004D01*
X30764341Y-80360659D01*
X30657996Y-80231078D01*
X30649886Y-80215906D01*
X30578976Y-80083242D01*
X30530313Y-79922823D01*
X30513883Y-79756000D01*
X30530313Y-79589177D01*
X30578976Y-79428758D01*
X30657995Y-79280924D01*
X30657996Y-79280922D01*
X30764341Y-79151341D01*
X30893922Y-79044996D01*
X30909094Y-79036886D01*
X31041758Y-78965976D01*
X31202177Y-78917313D01*
X31327196Y-78905000D01*
X31410804Y-78905000D01*
X31535823Y-78917313D01*
X31535823Y-78917313D01*
G37*
G36*
X53069928Y-79436764D02*
G01*
X53091009Y-79443160D01*
X53110445Y-79453548D01*
X53127476Y-79467524D01*
X53141452Y-79484555D01*
X53151840Y-79503991D01*
X53158236Y-79525072D01*
X53161000Y-79553140D01*
X53161000Y-80016860D01*
X53158236Y-80044928D01*
X53151840Y-80066009D01*
X53141452Y-80085445D01*
X53127476Y-80102476D01*
X53110445Y-80116452D01*
X53091009Y-80126840D01*
X53069928Y-80133236D01*
X53041860Y-80136000D01*
X51228140Y-80136000D01*
X51200072Y-80133236D01*
X51178991Y-80126840D01*
X51159555Y-80116452D01*
X51142524Y-80102476D01*
X51128548Y-80085445D01*
X51118160Y-80066009D01*
X51111764Y-80044928D01*
X51109000Y-80016860D01*
X51109000Y-79553140D01*
X51111764Y-79525072D01*
X51118160Y-79503991D01*
X51128548Y-79484555D01*
X51142524Y-79467524D01*
X51159555Y-79453548D01*
X51178991Y-79443160D01*
X51200072Y-79436764D01*
X51228140Y-79434000D01*
X53041860Y-79434000D01*
X53069928Y-79436764D01*
X53069928Y-79436764D01*
G37*
G36*
X58019928Y-79436764D02*
G01*
X58041009Y-79443160D01*
X58060445Y-79453548D01*
X58077476Y-79467524D01*
X58091452Y-79484555D01*
X58101840Y-79503991D01*
X58108236Y-79525072D01*
X58111000Y-79553140D01*
X58111000Y-80016860D01*
X58108236Y-80044928D01*
X58101840Y-80066009D01*
X58091452Y-80085445D01*
X58077476Y-80102476D01*
X58060445Y-80116452D01*
X58041009Y-80126840D01*
X58019928Y-80133236D01*
X57991860Y-80136000D01*
X56178140Y-80136000D01*
X56150072Y-80133236D01*
X56128991Y-80126840D01*
X56109555Y-80116452D01*
X56092524Y-80102476D01*
X56078548Y-80085445D01*
X56068160Y-80066009D01*
X56061764Y-80044928D01*
X56059000Y-80016860D01*
X56059000Y-79553140D01*
X56061764Y-79525072D01*
X56068160Y-79503991D01*
X56078548Y-79484555D01*
X56092524Y-79467524D01*
X56109555Y-79453548D01*
X56128991Y-79443160D01*
X56150072Y-79436764D01*
X56178140Y-79434000D01*
X57991860Y-79434000D01*
X58019928Y-79436764D01*
X58019928Y-79436764D01*
G37*
G36*
X58019928Y-78166764D02*
G01*
X58041009Y-78173160D01*
X58060445Y-78183548D01*
X58077476Y-78197524D01*
X58091452Y-78214555D01*
X58101840Y-78233991D01*
X58108236Y-78255072D01*
X58111000Y-78283140D01*
X58111000Y-78746860D01*
X58108236Y-78774928D01*
X58101840Y-78796009D01*
X58091452Y-78815445D01*
X58077476Y-78832476D01*
X58060445Y-78846452D01*
X58041009Y-78856840D01*
X58019928Y-78863236D01*
X57991860Y-78866000D01*
X56178140Y-78866000D01*
X56150072Y-78863236D01*
X56128991Y-78856840D01*
X56109555Y-78846452D01*
X56092524Y-78832476D01*
X56078548Y-78815445D01*
X56068160Y-78796009D01*
X56061764Y-78774928D01*
X56059000Y-78746860D01*
X56059000Y-78283140D01*
X56061764Y-78255072D01*
X56068160Y-78233991D01*
X56078548Y-78214555D01*
X56092524Y-78197524D01*
X56109555Y-78183548D01*
X56128991Y-78173160D01*
X56150072Y-78166764D01*
X56178140Y-78164000D01*
X57991860Y-78164000D01*
X58019928Y-78166764D01*
X58019928Y-78166764D01*
G37*
G36*
X53069928Y-78166764D02*
G01*
X53091009Y-78173160D01*
X53110445Y-78183548D01*
X53127476Y-78197524D01*
X53141452Y-78214555D01*
X53151840Y-78233991D01*
X53158236Y-78255072D01*
X53161000Y-78283140D01*
X53161000Y-78746860D01*
X53158236Y-78774928D01*
X53151840Y-78796009D01*
X53141452Y-78815445D01*
X53127476Y-78832476D01*
X53110445Y-78846452D01*
X53091009Y-78856840D01*
X53069928Y-78863236D01*
X53041860Y-78866000D01*
X51228140Y-78866000D01*
X51200072Y-78863236D01*
X51178991Y-78856840D01*
X51159555Y-78846452D01*
X51142524Y-78832476D01*
X51128548Y-78815445D01*
X51118160Y-78796009D01*
X51111764Y-78774928D01*
X51109000Y-78746860D01*
X51109000Y-78283140D01*
X51111764Y-78255072D01*
X51118160Y-78233991D01*
X51128548Y-78214555D01*
X51142524Y-78197524D01*
X51159555Y-78183548D01*
X51178991Y-78173160D01*
X51200072Y-78166764D01*
X51228140Y-78164000D01*
X53041860Y-78164000D01*
X53069928Y-78166764D01*
X53069928Y-78166764D01*
G37*
G36*
X63708228Y-76905703D02*
G01*
X63863100Y-76969853D01*
X64002481Y-77062985D01*
X64121015Y-77181519D01*
X64214147Y-77320900D01*
X64278297Y-77475772D01*
X64311000Y-77640184D01*
X64311000Y-77807816D01*
X64278297Y-77972228D01*
X64214147Y-78127100D01*
X64121015Y-78266481D01*
X64002481Y-78385015D01*
X63863100Y-78478147D01*
X63708228Y-78542297D01*
X63543816Y-78575000D01*
X63376184Y-78575000D01*
X63211772Y-78542297D01*
X63056900Y-78478147D01*
X62917519Y-78385015D01*
X62798985Y-78266481D01*
X62705853Y-78127100D01*
X62641703Y-77972228D01*
X62609000Y-77807816D01*
X62609000Y-77640184D01*
X62641703Y-77475772D01*
X62705853Y-77320900D01*
X62798985Y-77181519D01*
X62917519Y-77062985D01*
X63056900Y-76969853D01*
X63211772Y-76905703D01*
X63376184Y-76873000D01*
X63543816Y-76873000D01*
X63708228Y-76905703D01*
X63708228Y-76905703D01*
G37*
G36*
X61208228Y-76905703D02*
G01*
X61363100Y-76969853D01*
X61502481Y-77062985D01*
X61621015Y-77181519D01*
X61714147Y-77320900D01*
X61778297Y-77475772D01*
X61811000Y-77640184D01*
X61811000Y-77807816D01*
X61778297Y-77972228D01*
X61714147Y-78127100D01*
X61621015Y-78266481D01*
X61502481Y-78385015D01*
X61363100Y-78478147D01*
X61208228Y-78542297D01*
X61043816Y-78575000D01*
X60876184Y-78575000D01*
X60711772Y-78542297D01*
X60556900Y-78478147D01*
X60417519Y-78385015D01*
X60298985Y-78266481D01*
X60205853Y-78127100D01*
X60141703Y-77972228D01*
X60109000Y-77807816D01*
X60109000Y-77640184D01*
X60141703Y-77475772D01*
X60205853Y-77320900D01*
X60298985Y-77181519D01*
X60417519Y-77062985D01*
X60556900Y-76969853D01*
X60711772Y-76905703D01*
X60876184Y-76873000D01*
X61043816Y-76873000D01*
X61208228Y-76905703D01*
X61208228Y-76905703D01*
G37*
G36*
X49471562Y-76704181D02*
G01*
X49506481Y-76714774D01*
X49538663Y-76731976D01*
X49566873Y-76755127D01*
X49590024Y-76783337D01*
X49607226Y-76815519D01*
X49617819Y-76850438D01*
X49622000Y-76892895D01*
X49622000Y-78359105D01*
X49617819Y-78401562D01*
X49607226Y-78436481D01*
X49590024Y-78468663D01*
X49566873Y-78496873D01*
X49538663Y-78520024D01*
X49506481Y-78537226D01*
X49471562Y-78547819D01*
X49429105Y-78552000D01*
X48287895Y-78552000D01*
X48245438Y-78547819D01*
X48210519Y-78537226D01*
X48178337Y-78520024D01*
X48150127Y-78496873D01*
X48126976Y-78468663D01*
X48109774Y-78436481D01*
X48099181Y-78401562D01*
X48095000Y-78359105D01*
X48095000Y-76892895D01*
X48099181Y-76850438D01*
X48109774Y-76815519D01*
X48126976Y-76783337D01*
X48150127Y-76755127D01*
X48178337Y-76731976D01*
X48210519Y-76714774D01*
X48245438Y-76704181D01*
X48287895Y-76700000D01*
X49429105Y-76700000D01*
X49471562Y-76704181D01*
X49471562Y-76704181D01*
G37*
G36*
X46496562Y-76704181D02*
G01*
X46531481Y-76714774D01*
X46563663Y-76731976D01*
X46591873Y-76755127D01*
X46615024Y-76783337D01*
X46632226Y-76815519D01*
X46642819Y-76850438D01*
X46647000Y-76892895D01*
X46647000Y-78359105D01*
X46642819Y-78401562D01*
X46632226Y-78436481D01*
X46615024Y-78468663D01*
X46591873Y-78496873D01*
X46563663Y-78520024D01*
X46531481Y-78537226D01*
X46496562Y-78547819D01*
X46454105Y-78552000D01*
X45312895Y-78552000D01*
X45270438Y-78547819D01*
X45235519Y-78537226D01*
X45203337Y-78520024D01*
X45175127Y-78496873D01*
X45151976Y-78468663D01*
X45134774Y-78436481D01*
X45124181Y-78401562D01*
X45120000Y-78359105D01*
X45120000Y-76892895D01*
X45124181Y-76850438D01*
X45134774Y-76815519D01*
X45151976Y-76783337D01*
X45175127Y-76755127D01*
X45203337Y-76731976D01*
X45235519Y-76714774D01*
X45270438Y-76704181D01*
X45312895Y-76700000D01*
X46454105Y-76700000D01*
X46496562Y-76704181D01*
X46496562Y-76704181D01*
G37*
G36*
X58019928Y-76896764D02*
G01*
X58041009Y-76903160D01*
X58060445Y-76913548D01*
X58077476Y-76927524D01*
X58091452Y-76944555D01*
X58101840Y-76963991D01*
X58108236Y-76985072D01*
X58111000Y-77013140D01*
X58111000Y-77476860D01*
X58108236Y-77504928D01*
X58101840Y-77526009D01*
X58091452Y-77545445D01*
X58077476Y-77562476D01*
X58060445Y-77576452D01*
X58041009Y-77586840D01*
X58019928Y-77593236D01*
X57991860Y-77596000D01*
X56178140Y-77596000D01*
X56150072Y-77593236D01*
X56128991Y-77586840D01*
X56109555Y-77576452D01*
X56092524Y-77562476D01*
X56078548Y-77545445D01*
X56068160Y-77526009D01*
X56061764Y-77504928D01*
X56059000Y-77476860D01*
X56059000Y-77013140D01*
X56061764Y-76985072D01*
X56068160Y-76963991D01*
X56078548Y-76944555D01*
X56092524Y-76927524D01*
X56109555Y-76913548D01*
X56128991Y-76903160D01*
X56150072Y-76896764D01*
X56178140Y-76894000D01*
X57991860Y-76894000D01*
X58019928Y-76896764D01*
X58019928Y-76896764D01*
G37*
G36*
X53069928Y-76896764D02*
G01*
X53091009Y-76903160D01*
X53110445Y-76913548D01*
X53127476Y-76927524D01*
X53141452Y-76944555D01*
X53151840Y-76963991D01*
X53158236Y-76985072D01*
X53161000Y-77013140D01*
X53161000Y-77476860D01*
X53158236Y-77504928D01*
X53151840Y-77526009D01*
X53141452Y-77545445D01*
X53127476Y-77562476D01*
X53110445Y-77576452D01*
X53091009Y-77586840D01*
X53069928Y-77593236D01*
X53041860Y-77596000D01*
X51228140Y-77596000D01*
X51200072Y-77593236D01*
X51178991Y-77586840D01*
X51159555Y-77576452D01*
X51142524Y-77562476D01*
X51128548Y-77545445D01*
X51118160Y-77526009D01*
X51111764Y-77504928D01*
X51109000Y-77476860D01*
X51109000Y-77013140D01*
X51111764Y-76985072D01*
X51118160Y-76963991D01*
X51128548Y-76944555D01*
X51142524Y-76927524D01*
X51159555Y-76913548D01*
X51178991Y-76903160D01*
X51200072Y-76896764D01*
X51228140Y-76894000D01*
X53041860Y-76894000D01*
X53069928Y-76896764D01*
X53069928Y-76896764D01*
G37*
G36*
X64896655Y-73968591D02*
G01*
X64968525Y-73982887D01*
X65171624Y-74067013D01*
X65354409Y-74189146D01*
X65509854Y-74344591D01*
X65631987Y-74527376D01*
X65716113Y-74730475D01*
X65716113Y-74730476D01*
X65754939Y-74925665D01*
X65759000Y-74946084D01*
X65759000Y-75165916D01*
X65716113Y-75381525D01*
X65631987Y-75584624D01*
X65509854Y-75767409D01*
X65354409Y-75922854D01*
X65171624Y-76044987D01*
X64968525Y-76129113D01*
X64896655Y-76143409D01*
X64752918Y-76172000D01*
X64533082Y-76172000D01*
X64389345Y-76143409D01*
X64317475Y-76129113D01*
X64114376Y-76044987D01*
X63931591Y-75922854D01*
X63776146Y-75767409D01*
X63654013Y-75584624D01*
X63569887Y-75381525D01*
X63527000Y-75165916D01*
X63527000Y-74946084D01*
X63531062Y-74925665D01*
X63569887Y-74730476D01*
X63569887Y-74730475D01*
X63654013Y-74527376D01*
X63776146Y-74344591D01*
X63931591Y-74189146D01*
X64114376Y-74067013D01*
X64317475Y-73982887D01*
X64389345Y-73968591D01*
X64533082Y-73940000D01*
X64752918Y-73940000D01*
X64896655Y-73968591D01*
X64896655Y-73968591D01*
G37*
G36*
X35432655Y-73968591D02*
G01*
X35504525Y-73982887D01*
X35707624Y-74067013D01*
X35890409Y-74189146D01*
X36045854Y-74344591D01*
X36167987Y-74527376D01*
X36252113Y-74730475D01*
X36252113Y-74730476D01*
X36290939Y-74925665D01*
X36295000Y-74946084D01*
X36295000Y-75165916D01*
X36252113Y-75381525D01*
X36167987Y-75584624D01*
X36045854Y-75767409D01*
X35890409Y-75922854D01*
X35707624Y-76044987D01*
X35504525Y-76129113D01*
X35432655Y-76143409D01*
X35288918Y-76172000D01*
X35069082Y-76172000D01*
X34925345Y-76143409D01*
X34853475Y-76129113D01*
X34650376Y-76044987D01*
X34467591Y-75922854D01*
X34312146Y-75767409D01*
X34190013Y-75584624D01*
X34105887Y-75381525D01*
X34063000Y-75165916D01*
X34063000Y-74946084D01*
X34067062Y-74925665D01*
X34105887Y-74730476D01*
X34105887Y-74730475D01*
X34190013Y-74527376D01*
X34312146Y-74344591D01*
X34467591Y-74189146D01*
X34650376Y-74067013D01*
X34853475Y-73982887D01*
X34925345Y-73968591D01*
X35069082Y-73940000D01*
X35288918Y-73940000D01*
X35432655Y-73968591D01*
X35432655Y-73968591D01*
G37*
G36*
X53910000Y-75783000D02*
G01*
X52008000Y-75783000D01*
X52008000Y-73881000D01*
X53910000Y-73881000D01*
X53910000Y-75783000D01*
X53910000Y-75783000D01*
G37*
G36*
X48236395Y-73917546D02*
G01*
X48409466Y-73989234D01*
X48409467Y-73989235D01*
X48565227Y-74093310D01*
X48697690Y-74225773D01*
X48697691Y-74225775D01*
X48801766Y-74381534D01*
X48873454Y-74554605D01*
X48910000Y-74738333D01*
X48910000Y-74925667D01*
X48873454Y-75109395D01*
X48801766Y-75282466D01*
X48801765Y-75282467D01*
X48697690Y-75438227D01*
X48565227Y-75570690D01*
X48544373Y-75584624D01*
X48409466Y-75674766D01*
X48236395Y-75746454D01*
X48052667Y-75783000D01*
X47865333Y-75783000D01*
X47681605Y-75746454D01*
X47508534Y-75674766D01*
X47373627Y-75584624D01*
X47352773Y-75570690D01*
X47220310Y-75438227D01*
X47116235Y-75282467D01*
X47116234Y-75282466D01*
X47044546Y-75109395D01*
X47008000Y-74925667D01*
X47008000Y-74738333D01*
X47044546Y-74554605D01*
X47116234Y-74381534D01*
X47220309Y-74225775D01*
X47220310Y-74225773D01*
X47352773Y-74093310D01*
X47508533Y-73989235D01*
X47508534Y-73989234D01*
X47681605Y-73917546D01*
X47865333Y-73881000D01*
X48052667Y-73881000D01*
X48236395Y-73917546D01*
X48236395Y-73917546D01*
G37*
G36*
X50736395Y-73917546D02*
G01*
X50909466Y-73989234D01*
X50909467Y-73989235D01*
X51065227Y-74093310D01*
X51197690Y-74225773D01*
X51197691Y-74225775D01*
X51301766Y-74381534D01*
X51373454Y-74554605D01*
X51410000Y-74738333D01*
X51410000Y-74925667D01*
X51373454Y-75109395D01*
X51301766Y-75282466D01*
X51301765Y-75282467D01*
X51197690Y-75438227D01*
X51065227Y-75570690D01*
X51044373Y-75584624D01*
X50909466Y-75674766D01*
X50736395Y-75746454D01*
X50552667Y-75783000D01*
X50365333Y-75783000D01*
X50181605Y-75746454D01*
X50008534Y-75674766D01*
X49873627Y-75584624D01*
X49852773Y-75570690D01*
X49720310Y-75438227D01*
X49616235Y-75282467D01*
X49616234Y-75282466D01*
X49544546Y-75109395D01*
X49508000Y-74925667D01*
X49508000Y-74738333D01*
X49544546Y-74554605D01*
X49616234Y-74381534D01*
X49720309Y-74225775D01*
X49720310Y-74225773D01*
X49852773Y-74093310D01*
X50008533Y-73989235D01*
X50008534Y-73989234D01*
X50181605Y-73917546D01*
X50365333Y-73881000D01*
X50552667Y-73881000D01*
X50736395Y-73917546D01*
X50736395Y-73917546D01*
G37*
G36*
X53535562Y-70608181D02*
G01*
X53570481Y-70618774D01*
X53602663Y-70635976D01*
X53630873Y-70659127D01*
X53654024Y-70687337D01*
X53671226Y-70719519D01*
X53681819Y-70754438D01*
X53686000Y-70796895D01*
X53686000Y-72263105D01*
X53681819Y-72305562D01*
X53671226Y-72340481D01*
X53654024Y-72372663D01*
X53630873Y-72400873D01*
X53602663Y-72424024D01*
X53570481Y-72441226D01*
X53535562Y-72451819D01*
X53493105Y-72456000D01*
X52351895Y-72456000D01*
X52309438Y-72451819D01*
X52274519Y-72441226D01*
X52242337Y-72424024D01*
X52214127Y-72400873D01*
X52190976Y-72372663D01*
X52173774Y-72340481D01*
X52163181Y-72305562D01*
X52159000Y-72263105D01*
X52159000Y-70796895D01*
X52163181Y-70754438D01*
X52173774Y-70719519D01*
X52190976Y-70687337D01*
X52214127Y-70659127D01*
X52242337Y-70635976D01*
X52274519Y-70618774D01*
X52309438Y-70608181D01*
X52351895Y-70604000D01*
X53493105Y-70604000D01*
X53535562Y-70608181D01*
X53535562Y-70608181D01*
G37*
G36*
X50560562Y-70608181D02*
G01*
X50595481Y-70618774D01*
X50627663Y-70635976D01*
X50655873Y-70659127D01*
X50679024Y-70687337D01*
X50696226Y-70719519D01*
X50706819Y-70754438D01*
X50711000Y-70796895D01*
X50711000Y-72263105D01*
X50706819Y-72305562D01*
X50696226Y-72340481D01*
X50679024Y-72372663D01*
X50655873Y-72400873D01*
X50627663Y-72424024D01*
X50595481Y-72441226D01*
X50560562Y-72451819D01*
X50518105Y-72456000D01*
X49376895Y-72456000D01*
X49334438Y-72451819D01*
X49299519Y-72441226D01*
X49267337Y-72424024D01*
X49239127Y-72400873D01*
X49215976Y-72372663D01*
X49198774Y-72340481D01*
X49188181Y-72305562D01*
X49184000Y-72263105D01*
X49184000Y-70796895D01*
X49188181Y-70754438D01*
X49198774Y-70719519D01*
X49215976Y-70687337D01*
X49239127Y-70659127D01*
X49267337Y-70635976D01*
X49299519Y-70618774D01*
X49334438Y-70608181D01*
X49376895Y-70604000D01*
X50518105Y-70604000D01*
X50560562Y-70608181D01*
X50560562Y-70608181D01*
G37*
G36*
X49798562Y-67814181D02*
G01*
X49833481Y-67824774D01*
X49865663Y-67841976D01*
X49893873Y-67865127D01*
X49917024Y-67893337D01*
X49934226Y-67925519D01*
X49944819Y-67960438D01*
X49949000Y-68002895D01*
X49949000Y-69469105D01*
X49944819Y-69511562D01*
X49934226Y-69546481D01*
X49917024Y-69578663D01*
X49893873Y-69606873D01*
X49865663Y-69630024D01*
X49833481Y-69647226D01*
X49798562Y-69657819D01*
X49756105Y-69662000D01*
X48614895Y-69662000D01*
X48572438Y-69657819D01*
X48537519Y-69647226D01*
X48505337Y-69630024D01*
X48477127Y-69606873D01*
X48453976Y-69578663D01*
X48436774Y-69546481D01*
X48426181Y-69511562D01*
X48422000Y-69469105D01*
X48422000Y-68002895D01*
X48426181Y-67960438D01*
X48436774Y-67925519D01*
X48453976Y-67893337D01*
X48477127Y-67865127D01*
X48505337Y-67841976D01*
X48537519Y-67824774D01*
X48572438Y-67814181D01*
X48614895Y-67810000D01*
X49756105Y-67810000D01*
X49798562Y-67814181D01*
X49798562Y-67814181D01*
G37*
G36*
X52773562Y-67814181D02*
G01*
X52808481Y-67824774D01*
X52840663Y-67841976D01*
X52868873Y-67865127D01*
X52892024Y-67893337D01*
X52909226Y-67925519D01*
X52919819Y-67960438D01*
X52924000Y-68002895D01*
X52924000Y-69469105D01*
X52919819Y-69511562D01*
X52909226Y-69546481D01*
X52892024Y-69578663D01*
X52868873Y-69606873D01*
X52840663Y-69630024D01*
X52808481Y-69647226D01*
X52773562Y-69657819D01*
X52731105Y-69662000D01*
X51589895Y-69662000D01*
X51547438Y-69657819D01*
X51512519Y-69647226D01*
X51480337Y-69630024D01*
X51452127Y-69606873D01*
X51428976Y-69578663D01*
X51411774Y-69546481D01*
X51401181Y-69511562D01*
X51397000Y-69469105D01*
X51397000Y-68002895D01*
X51401181Y-67960438D01*
X51411774Y-67925519D01*
X51428976Y-67893337D01*
X51452127Y-67865127D01*
X51480337Y-67841976D01*
X51512519Y-67824774D01*
X51547438Y-67814181D01*
X51589895Y-67810000D01*
X52731105Y-67810000D01*
X52773562Y-67814181D01*
X52773562Y-67814181D01*
G37*
G36*
X45935603Y-65681416D02*
G01*
X46201578Y-65762099D01*
X46201580Y-65762100D01*
X46446700Y-65893119D01*
X46661556Y-66069444D01*
X46837881Y-66284299D01*
X46916013Y-66430475D01*
X46968901Y-66529421D01*
X47049584Y-66795396D01*
X47070000Y-67002684D01*
X47070000Y-67661315D01*
X47049584Y-67868603D01*
X47008847Y-68002895D01*
X46968900Y-68134582D01*
X46837881Y-68379701D01*
X46661556Y-68594556D01*
X46446701Y-68770881D01*
X46201581Y-68901900D01*
X46201579Y-68901901D01*
X45935604Y-68982584D01*
X45659000Y-69009827D01*
X45382397Y-68982584D01*
X45116422Y-68901901D01*
X45116420Y-68901900D01*
X44871300Y-68770881D01*
X44656444Y-68594556D01*
X44480119Y-68379701D01*
X44349100Y-68134581D01*
X44349099Y-68134579D01*
X44268416Y-67868604D01*
X44248000Y-67661316D01*
X44248000Y-67002685D01*
X44268416Y-66795397D01*
X44349099Y-66529422D01*
X44480120Y-66284299D01*
X44480121Y-66284298D01*
X44656444Y-66069444D01*
X44871299Y-65893119D01*
X45116419Y-65762100D01*
X45116421Y-65762099D01*
X45382396Y-65681416D01*
X45659000Y-65654173D01*
X45935603Y-65681416D01*
X45935603Y-65681416D01*
G37*
G36*
X55535603Y-65681416D02*
G01*
X55801578Y-65762099D01*
X55801580Y-65762100D01*
X56046700Y-65893119D01*
X56261556Y-66069444D01*
X56437881Y-66284299D01*
X56516013Y-66430475D01*
X56568901Y-66529421D01*
X56649584Y-66795396D01*
X56670000Y-67002684D01*
X56670000Y-67661315D01*
X56649584Y-67868603D01*
X56608847Y-68002895D01*
X56568900Y-68134582D01*
X56437881Y-68379701D01*
X56261556Y-68594556D01*
X56046701Y-68770881D01*
X55801581Y-68901900D01*
X55801579Y-68901901D01*
X55535604Y-68982584D01*
X55259000Y-69009827D01*
X54982397Y-68982584D01*
X54716422Y-68901901D01*
X54716420Y-68901900D01*
X54471300Y-68770881D01*
X54256444Y-68594556D01*
X54080119Y-68379701D01*
X53949100Y-68134581D01*
X53949099Y-68134579D01*
X53868416Y-67868604D01*
X53848000Y-67661316D01*
X53848000Y-67002685D01*
X53868416Y-66795397D01*
X53949099Y-66529422D01*
X54080120Y-66284299D01*
X54080121Y-66284298D01*
X54256444Y-66069444D01*
X54471299Y-65893119D01*
X54716419Y-65762100D01*
X54716421Y-65762099D01*
X54982396Y-65681416D01*
X55259000Y-65654173D01*
X55535603Y-65681416D01*
X55535603Y-65681416D01*
G37*
G36*
X42285228Y-67028703D02*
G01*
X42440100Y-67092853D01*
X42579481Y-67185985D01*
X42698015Y-67304519D01*
X42791147Y-67443900D01*
X42855297Y-67598772D01*
X42888000Y-67763184D01*
X42888000Y-67930816D01*
X42855297Y-68095228D01*
X42791147Y-68250100D01*
X42698015Y-68389481D01*
X42579481Y-68508015D01*
X42440100Y-68601147D01*
X42285228Y-68665297D01*
X42120816Y-68698000D01*
X41953184Y-68698000D01*
X41788772Y-68665297D01*
X41633900Y-68601147D01*
X41494519Y-68508015D01*
X41375985Y-68389481D01*
X41282853Y-68250100D01*
X41218703Y-68095228D01*
X41186000Y-67930816D01*
X41186000Y-67763184D01*
X41218703Y-67598772D01*
X41282853Y-67443900D01*
X41375985Y-67304519D01*
X41494519Y-67185985D01*
X41633900Y-67092853D01*
X41788772Y-67028703D01*
X41953184Y-66996000D01*
X42120816Y-66996000D01*
X42285228Y-67028703D01*
X42285228Y-67028703D01*
G37*
G36*
X64896655Y-65668591D02*
G01*
X64968525Y-65682887D01*
X65171624Y-65767013D01*
X65354409Y-65889146D01*
X65509854Y-66044591D01*
X65631987Y-66227376D01*
X65716113Y-66430475D01*
X65716113Y-66430476D01*
X65735795Y-66529421D01*
X65759000Y-66646084D01*
X65759000Y-66865916D01*
X65716113Y-67081525D01*
X65631987Y-67284624D01*
X65509854Y-67467409D01*
X65354409Y-67622854D01*
X65171624Y-67744987D01*
X64968525Y-67829113D01*
X64903858Y-67841976D01*
X64752918Y-67872000D01*
X64533082Y-67872000D01*
X64382142Y-67841976D01*
X64317475Y-67829113D01*
X64114376Y-67744987D01*
X63931591Y-67622854D01*
X63776146Y-67467409D01*
X63654013Y-67284624D01*
X63569887Y-67081525D01*
X63527000Y-66865916D01*
X63527000Y-66646084D01*
X63550206Y-66529421D01*
X63569887Y-66430476D01*
X63569887Y-66430475D01*
X63654013Y-66227376D01*
X63776146Y-66044591D01*
X63931591Y-65889146D01*
X64114376Y-65767013D01*
X64317475Y-65682887D01*
X64389345Y-65668591D01*
X64533082Y-65640000D01*
X64752918Y-65640000D01*
X64896655Y-65668591D01*
X64896655Y-65668591D01*
G37*
G36*
X35432655Y-65668591D02*
G01*
X35504525Y-65682887D01*
X35707624Y-65767013D01*
X35890409Y-65889146D01*
X36045854Y-66044591D01*
X36167987Y-66227376D01*
X36252113Y-66430475D01*
X36252113Y-66430476D01*
X36271795Y-66529421D01*
X36295000Y-66646084D01*
X36295000Y-66865916D01*
X36252113Y-67081525D01*
X36167987Y-67284624D01*
X36045854Y-67467409D01*
X35890409Y-67622854D01*
X35707624Y-67744987D01*
X35504525Y-67829113D01*
X35439858Y-67841976D01*
X35288918Y-67872000D01*
X35069082Y-67872000D01*
X34918142Y-67841976D01*
X34853475Y-67829113D01*
X34650376Y-67744987D01*
X34467591Y-67622854D01*
X34312146Y-67467409D01*
X34190013Y-67284624D01*
X34105887Y-67081525D01*
X34063000Y-66865916D01*
X34063000Y-66646084D01*
X34086206Y-66529421D01*
X34105887Y-66430476D01*
X34105887Y-66430475D01*
X34190013Y-66227376D01*
X34312146Y-66044591D01*
X34467591Y-65889146D01*
X34650376Y-65767013D01*
X34853475Y-65682887D01*
X34925345Y-65668591D01*
X35069082Y-65640000D01*
X35288918Y-65640000D01*
X35432655Y-65668591D01*
X35432655Y-65668591D01*
G37*
G36*
X65659000Y-64622000D02*
G01*
X63627000Y-64622000D01*
X63627000Y-62690000D01*
X65659000Y-62690000D01*
X65659000Y-64622000D01*
X65659000Y-64622000D01*
G37*
G36*
X36195000Y-64622000D02*
G01*
X34163000Y-64622000D01*
X34163000Y-62690000D01*
X36195000Y-62690000D01*
X36195000Y-64622000D01*
X36195000Y-64622000D01*
G37*
G36*
X45915562Y-62451181D02*
G01*
X45950481Y-62461774D01*
X45982663Y-62478976D01*
X46010873Y-62502127D01*
X46034024Y-62530337D01*
X46051226Y-62562519D01*
X46061819Y-62597438D01*
X46066000Y-62639895D01*
X46066000Y-64106105D01*
X46061819Y-64148562D01*
X46051226Y-64183481D01*
X46034024Y-64215663D01*
X46010873Y-64243873D01*
X45982663Y-64267024D01*
X45950481Y-64284226D01*
X45915562Y-64294819D01*
X45873105Y-64299000D01*
X44731895Y-64299000D01*
X44689438Y-64294819D01*
X44654519Y-64284226D01*
X44622337Y-64267024D01*
X44594127Y-64243873D01*
X44570976Y-64215663D01*
X44553774Y-64183481D01*
X44543181Y-64148562D01*
X44539000Y-64106105D01*
X44539000Y-62639895D01*
X44543181Y-62597438D01*
X44553774Y-62562519D01*
X44570976Y-62530337D01*
X44594127Y-62502127D01*
X44622337Y-62478976D01*
X44654519Y-62461774D01*
X44689438Y-62451181D01*
X44731895Y-62447000D01*
X45873105Y-62447000D01*
X45915562Y-62451181D01*
X45915562Y-62451181D01*
G37*
G36*
X42940562Y-62451181D02*
G01*
X42975481Y-62461774D01*
X43007663Y-62478976D01*
X43035873Y-62502127D01*
X43059024Y-62530337D01*
X43076226Y-62562519D01*
X43086819Y-62597438D01*
X43091000Y-62639895D01*
X43091000Y-64106105D01*
X43086819Y-64148562D01*
X43076226Y-64183481D01*
X43059024Y-64215663D01*
X43035873Y-64243873D01*
X43007663Y-64267024D01*
X42975481Y-64284226D01*
X42940562Y-64294819D01*
X42898105Y-64299000D01*
X41756895Y-64299000D01*
X41714438Y-64294819D01*
X41679519Y-64284226D01*
X41647337Y-64267024D01*
X41619127Y-64243873D01*
X41595976Y-64215663D01*
X41578774Y-64183481D01*
X41568181Y-64148562D01*
X41564000Y-64106105D01*
X41564000Y-62639895D01*
X41568181Y-62597438D01*
X41578774Y-62562519D01*
X41595976Y-62530337D01*
X41619127Y-62502127D01*
X41647337Y-62478976D01*
X41679519Y-62461774D01*
X41714438Y-62451181D01*
X41756895Y-62447000D01*
X42898105Y-62447000D01*
X42940562Y-62451181D01*
X42940562Y-62451181D01*
G37*
G36*
X34993562Y-59530181D02*
G01*
X35028481Y-59540774D01*
X35060663Y-59557976D01*
X35088873Y-59581127D01*
X35112024Y-59609337D01*
X35129226Y-59641519D01*
X35139819Y-59676438D01*
X35144000Y-59718895D01*
X35144000Y-61185105D01*
X35139819Y-61227562D01*
X35129226Y-61262481D01*
X35112024Y-61294663D01*
X35088873Y-61322873D01*
X35060663Y-61346024D01*
X35028481Y-61363226D01*
X34993562Y-61373819D01*
X34951105Y-61378000D01*
X33809895Y-61378000D01*
X33767438Y-61373819D01*
X33732519Y-61363226D01*
X33700337Y-61346024D01*
X33672127Y-61322873D01*
X33648976Y-61294663D01*
X33631774Y-61262481D01*
X33621181Y-61227562D01*
X33617000Y-61185105D01*
X33617000Y-59718895D01*
X33621181Y-59676438D01*
X33631774Y-59641519D01*
X33648976Y-59609337D01*
X33672127Y-59581127D01*
X33700337Y-59557976D01*
X33732519Y-59540774D01*
X33767438Y-59530181D01*
X33809895Y-59526000D01*
X34951105Y-59526000D01*
X34993562Y-59530181D01*
X34993562Y-59530181D01*
G37*
G36*
X32018562Y-59530181D02*
G01*
X32053481Y-59540774D01*
X32085663Y-59557976D01*
X32113873Y-59581127D01*
X32137024Y-59609337D01*
X32154226Y-59641519D01*
X32164819Y-59676438D01*
X32169000Y-59718895D01*
X32169000Y-61185105D01*
X32164819Y-61227562D01*
X32154226Y-61262481D01*
X32137024Y-61294663D01*
X32113873Y-61322873D01*
X32085663Y-61346024D01*
X32053481Y-61363226D01*
X32018562Y-61373819D01*
X31976105Y-61378000D01*
X30834895Y-61378000D01*
X30792438Y-61373819D01*
X30757519Y-61363226D01*
X30725337Y-61346024D01*
X30697127Y-61322873D01*
X30673976Y-61294663D01*
X30656774Y-61262481D01*
X30646181Y-61227562D01*
X30642000Y-61185105D01*
X30642000Y-59718895D01*
X30646181Y-59676438D01*
X30656774Y-59641519D01*
X30673976Y-59609337D01*
X30697127Y-59581127D01*
X30725337Y-59557976D01*
X30757519Y-59540774D01*
X30792438Y-59530181D01*
X30834895Y-59526000D01*
X31976105Y-59526000D01*
X32018562Y-59530181D01*
X32018562Y-59530181D01*
G37*
G36*
X58019928Y-58706764D02*
G01*
X58041009Y-58713160D01*
X58060445Y-58723548D01*
X58077476Y-58737524D01*
X58091452Y-58754555D01*
X58101840Y-58773991D01*
X58108236Y-58795072D01*
X58111000Y-58823140D01*
X58111000Y-59286860D01*
X58108236Y-59314928D01*
X58101840Y-59336009D01*
X58091452Y-59355445D01*
X58077476Y-59372476D01*
X58060445Y-59386452D01*
X58041009Y-59396840D01*
X58019928Y-59403236D01*
X57991860Y-59406000D01*
X56178140Y-59406000D01*
X56150072Y-59403236D01*
X56128991Y-59396840D01*
X56109555Y-59386452D01*
X56092524Y-59372476D01*
X56078548Y-59355445D01*
X56068160Y-59336009D01*
X56061764Y-59314928D01*
X56059000Y-59286860D01*
X56059000Y-58823140D01*
X56061764Y-58795072D01*
X56068160Y-58773991D01*
X56078548Y-58754555D01*
X56092524Y-58737524D01*
X56109555Y-58723548D01*
X56128991Y-58713160D01*
X56150072Y-58706764D01*
X56178140Y-58704000D01*
X57991860Y-58704000D01*
X58019928Y-58706764D01*
X58019928Y-58706764D01*
G37*
G36*
X53069928Y-58706764D02*
G01*
X53091009Y-58713160D01*
X53110445Y-58723548D01*
X53127476Y-58737524D01*
X53141452Y-58754555D01*
X53151840Y-58773991D01*
X53158236Y-58795072D01*
X53161000Y-58823140D01*
X53161000Y-59286860D01*
X53158236Y-59314928D01*
X53151840Y-59336009D01*
X53141452Y-59355445D01*
X53127476Y-59372476D01*
X53110445Y-59386452D01*
X53091009Y-59396840D01*
X53069928Y-59403236D01*
X53041860Y-59406000D01*
X51228140Y-59406000D01*
X51200072Y-59403236D01*
X51178991Y-59396840D01*
X51159555Y-59386452D01*
X51142524Y-59372476D01*
X51128548Y-59355445D01*
X51118160Y-59336009D01*
X51111764Y-59314928D01*
X51109000Y-59286860D01*
X51109000Y-58823140D01*
X51111764Y-58795072D01*
X51118160Y-58773991D01*
X51128548Y-58754555D01*
X51142524Y-58737524D01*
X51159555Y-58723548D01*
X51178991Y-58713160D01*
X51200072Y-58706764D01*
X51228140Y-58704000D01*
X53041860Y-58704000D01*
X53069928Y-58706764D01*
X53069928Y-58706764D01*
G37*
G36*
X42203823Y-57708313D02*
G01*
X42364242Y-57756976D01*
X42496906Y-57827886D01*
X42512078Y-57835996D01*
X42641659Y-57942341D01*
X42748004Y-58071922D01*
X42748005Y-58071924D01*
X42827024Y-58219758D01*
X42827025Y-58219761D01*
X42836083Y-58249620D01*
X42875687Y-58380177D01*
X42892117Y-58547000D01*
X42875687Y-58713823D01*
X42827024Y-58874242D01*
X42779860Y-58962480D01*
X42748004Y-59022078D01*
X42641659Y-59151659D01*
X42512078Y-59258004D01*
X42512076Y-59258005D01*
X42364242Y-59337024D01*
X42203823Y-59385687D01*
X42078804Y-59398000D01*
X41995196Y-59398000D01*
X41870177Y-59385687D01*
X41709758Y-59337024D01*
X41561924Y-59258005D01*
X41561922Y-59258004D01*
X41432341Y-59151659D01*
X41325996Y-59022078D01*
X41294140Y-58962480D01*
X41246976Y-58874242D01*
X41198313Y-58713823D01*
X41181883Y-58547000D01*
X41198313Y-58380177D01*
X41237917Y-58249620D01*
X41246975Y-58219761D01*
X41246976Y-58219758D01*
X41325995Y-58071924D01*
X41325996Y-58071922D01*
X41432341Y-57942341D01*
X41561922Y-57835996D01*
X41577094Y-57827886D01*
X41709758Y-57756976D01*
X41870177Y-57708313D01*
X41995196Y-57696000D01*
X42078804Y-57696000D01*
X42203823Y-57708313D01*
X42203823Y-57708313D01*
G37*
G36*
X46349228Y-57601703D02*
G01*
X46504100Y-57665853D01*
X46643481Y-57758985D01*
X46762015Y-57877519D01*
X46855147Y-58016900D01*
X46919297Y-58171772D01*
X46952000Y-58336184D01*
X46952000Y-58503816D01*
X46919297Y-58668228D01*
X46855147Y-58823100D01*
X46762015Y-58962481D01*
X46643481Y-59081015D01*
X46504100Y-59174147D01*
X46349228Y-59238297D01*
X46184816Y-59271000D01*
X46017184Y-59271000D01*
X45852772Y-59238297D01*
X45697900Y-59174147D01*
X45558519Y-59081015D01*
X45439985Y-58962481D01*
X45346853Y-58823100D01*
X45282703Y-58668228D01*
X45250000Y-58503816D01*
X45250000Y-58336184D01*
X45282703Y-58171772D01*
X45346853Y-58016900D01*
X45439985Y-57877519D01*
X45558519Y-57758985D01*
X45697900Y-57665853D01*
X45852772Y-57601703D01*
X46017184Y-57569000D01*
X46184816Y-57569000D01*
X46349228Y-57601703D01*
X46349228Y-57601703D01*
G37*
G36*
X48849228Y-57601703D02*
G01*
X49004100Y-57665853D01*
X49143481Y-57758985D01*
X49262015Y-57877519D01*
X49355147Y-58016900D01*
X49419297Y-58171772D01*
X49452000Y-58336184D01*
X49452000Y-58503816D01*
X49419297Y-58668228D01*
X49355147Y-58823100D01*
X49262015Y-58962481D01*
X49143481Y-59081015D01*
X49004100Y-59174147D01*
X48849228Y-59238297D01*
X48684816Y-59271000D01*
X48517184Y-59271000D01*
X48352772Y-59238297D01*
X48197900Y-59174147D01*
X48058519Y-59081015D01*
X47939985Y-58962481D01*
X47846853Y-58823100D01*
X47782703Y-58668228D01*
X47750000Y-58503816D01*
X47750000Y-58336184D01*
X47782703Y-58171772D01*
X47846853Y-58016900D01*
X47939985Y-57877519D01*
X48058519Y-57758985D01*
X48197900Y-57665853D01*
X48352772Y-57601703D01*
X48517184Y-57569000D01*
X48684816Y-57569000D01*
X48849228Y-57601703D01*
X48849228Y-57601703D01*
G37*
G36*
X61121228Y-57347703D02*
G01*
X61276100Y-57411853D01*
X61415481Y-57504985D01*
X61534015Y-57623519D01*
X61627147Y-57762900D01*
X61691297Y-57917772D01*
X61724000Y-58082184D01*
X61724000Y-58249816D01*
X61691297Y-58414228D01*
X61627147Y-58569100D01*
X61534015Y-58708481D01*
X61415481Y-58827015D01*
X61276100Y-58920147D01*
X61121228Y-58984297D01*
X60956816Y-59017000D01*
X60789184Y-59017000D01*
X60624772Y-58984297D01*
X60469900Y-58920147D01*
X60330519Y-58827015D01*
X60211985Y-58708481D01*
X60118853Y-58569100D01*
X60054703Y-58414228D01*
X60022000Y-58249816D01*
X60022000Y-58082184D01*
X60054703Y-57917772D01*
X60118853Y-57762900D01*
X60211985Y-57623519D01*
X60330519Y-57504985D01*
X60469900Y-57411853D01*
X60624772Y-57347703D01*
X60789184Y-57315000D01*
X60956816Y-57315000D01*
X61121228Y-57347703D01*
X61121228Y-57347703D01*
G37*
G36*
X63621228Y-57347703D02*
G01*
X63776100Y-57411853D01*
X63915481Y-57504985D01*
X64034015Y-57623519D01*
X64127147Y-57762900D01*
X64191297Y-57917772D01*
X64224000Y-58082184D01*
X64224000Y-58249816D01*
X64191297Y-58414228D01*
X64127147Y-58569100D01*
X64034015Y-58708481D01*
X63915481Y-58827015D01*
X63776100Y-58920147D01*
X63621228Y-58984297D01*
X63456816Y-59017000D01*
X63289184Y-59017000D01*
X63124772Y-58984297D01*
X62969900Y-58920147D01*
X62830519Y-58827015D01*
X62711985Y-58708481D01*
X62618853Y-58569100D01*
X62554703Y-58414228D01*
X62522000Y-58249816D01*
X62522000Y-58082184D01*
X62554703Y-57917772D01*
X62618853Y-57762900D01*
X62711985Y-57623519D01*
X62830519Y-57504985D01*
X62969900Y-57411853D01*
X63124772Y-57347703D01*
X63289184Y-57315000D01*
X63456816Y-57315000D01*
X63621228Y-57347703D01*
X63621228Y-57347703D01*
G37*
G36*
X39713000Y-58255000D02*
G01*
X38011000Y-58255000D01*
X38011000Y-56553000D01*
X39713000Y-56553000D01*
X39713000Y-58255000D01*
X39713000Y-58255000D01*
G37*
G36*
X31408823Y-56565313D02*
G01*
X31569242Y-56613976D01*
X31701906Y-56684886D01*
X31717078Y-56692996D01*
X31846659Y-56799341D01*
X31953004Y-56928922D01*
X31953005Y-56928924D01*
X32032024Y-57076758D01*
X32080687Y-57237177D01*
X32097117Y-57404000D01*
X32080687Y-57570823D01*
X32064701Y-57623520D01*
X32038980Y-57708313D01*
X32032024Y-57731242D01*
X31976032Y-57835995D01*
X31953004Y-57879078D01*
X31846659Y-58008659D01*
X31717078Y-58115004D01*
X31717076Y-58115005D01*
X31569242Y-58194024D01*
X31408823Y-58242687D01*
X31283804Y-58255000D01*
X31200196Y-58255000D01*
X31075177Y-58242687D01*
X30914758Y-58194024D01*
X30766924Y-58115005D01*
X30766922Y-58115004D01*
X30637341Y-58008659D01*
X30530996Y-57879078D01*
X30507968Y-57835995D01*
X30451976Y-57731242D01*
X30445021Y-57708313D01*
X30419299Y-57623520D01*
X30403313Y-57570823D01*
X30386883Y-57404000D01*
X30403313Y-57237177D01*
X30451976Y-57076758D01*
X30530995Y-56928924D01*
X30530996Y-56928922D01*
X30637341Y-56799341D01*
X30766922Y-56692996D01*
X30782094Y-56684886D01*
X30914758Y-56613976D01*
X31075177Y-56565313D01*
X31200196Y-56553000D01*
X31283804Y-56553000D01*
X31408823Y-56565313D01*
X31408823Y-56565313D01*
G37*
G36*
X58019928Y-57436764D02*
G01*
X58041009Y-57443160D01*
X58060445Y-57453548D01*
X58077476Y-57467524D01*
X58091452Y-57484555D01*
X58101840Y-57503991D01*
X58108236Y-57525072D01*
X58111000Y-57553140D01*
X58111000Y-58016860D01*
X58108236Y-58044928D01*
X58101840Y-58066009D01*
X58091452Y-58085445D01*
X58077476Y-58102476D01*
X58060445Y-58116452D01*
X58041009Y-58126840D01*
X58019928Y-58133236D01*
X57991860Y-58136000D01*
X56178140Y-58136000D01*
X56150072Y-58133236D01*
X56128991Y-58126840D01*
X56109555Y-58116452D01*
X56092524Y-58102476D01*
X56078548Y-58085445D01*
X56068160Y-58066009D01*
X56061764Y-58044928D01*
X56059000Y-58016860D01*
X56059000Y-57553140D01*
X56061764Y-57525072D01*
X56068160Y-57503991D01*
X56078548Y-57484555D01*
X56092524Y-57467524D01*
X56109555Y-57453548D01*
X56128991Y-57443160D01*
X56150072Y-57436764D01*
X56178140Y-57434000D01*
X57991860Y-57434000D01*
X58019928Y-57436764D01*
X58019928Y-57436764D01*
G37*
G36*
X53069928Y-57436764D02*
G01*
X53091009Y-57443160D01*
X53110445Y-57453548D01*
X53127476Y-57467524D01*
X53141452Y-57484555D01*
X53151840Y-57503991D01*
X53158236Y-57525072D01*
X53161000Y-57553140D01*
X53161000Y-58016860D01*
X53158236Y-58044928D01*
X53151840Y-58066009D01*
X53141452Y-58085445D01*
X53127476Y-58102476D01*
X53110445Y-58116452D01*
X53091009Y-58126840D01*
X53069928Y-58133236D01*
X53041860Y-58136000D01*
X51228140Y-58136000D01*
X51200072Y-58133236D01*
X51178991Y-58126840D01*
X51159555Y-58116452D01*
X51142524Y-58102476D01*
X51128548Y-58085445D01*
X51118160Y-58066009D01*
X51111764Y-58044928D01*
X51109000Y-58016860D01*
X51109000Y-57553140D01*
X51111764Y-57525072D01*
X51118160Y-57503991D01*
X51128548Y-57484555D01*
X51142524Y-57467524D01*
X51159555Y-57453548D01*
X51178991Y-57443160D01*
X51200072Y-57436764D01*
X51228140Y-57434000D01*
X53041860Y-57434000D01*
X53069928Y-57436764D01*
X53069928Y-57436764D01*
G37*
G36*
X53069928Y-56166764D02*
G01*
X53091009Y-56173160D01*
X53110445Y-56183548D01*
X53127476Y-56197524D01*
X53141452Y-56214555D01*
X53151840Y-56233991D01*
X53158236Y-56255072D01*
X53161000Y-56283140D01*
X53161000Y-56746860D01*
X53158236Y-56774928D01*
X53151840Y-56796009D01*
X53141452Y-56815445D01*
X53127476Y-56832476D01*
X53110445Y-56846452D01*
X53091009Y-56856840D01*
X53069928Y-56863236D01*
X53041860Y-56866000D01*
X51228140Y-56866000D01*
X51200072Y-56863236D01*
X51178991Y-56856840D01*
X51159555Y-56846452D01*
X51142524Y-56832476D01*
X51128548Y-56815445D01*
X51118160Y-56796009D01*
X51111764Y-56774928D01*
X51109000Y-56746860D01*
X51109000Y-56283140D01*
X51111764Y-56255072D01*
X51118160Y-56233991D01*
X51128548Y-56214555D01*
X51142524Y-56197524D01*
X51159555Y-56183548D01*
X51178991Y-56173160D01*
X51200072Y-56166764D01*
X51228140Y-56164000D01*
X53041860Y-56164000D01*
X53069928Y-56166764D01*
X53069928Y-56166764D01*
G37*
G36*
X58019928Y-56166764D02*
G01*
X58041009Y-56173160D01*
X58060445Y-56183548D01*
X58077476Y-56197524D01*
X58091452Y-56214555D01*
X58101840Y-56233991D01*
X58108236Y-56255072D01*
X58111000Y-56283140D01*
X58111000Y-56746860D01*
X58108236Y-56774928D01*
X58101840Y-56796009D01*
X58091452Y-56815445D01*
X58077476Y-56832476D01*
X58060445Y-56846452D01*
X58041009Y-56856840D01*
X58019928Y-56863236D01*
X57991860Y-56866000D01*
X56178140Y-56866000D01*
X56150072Y-56863236D01*
X56128991Y-56856840D01*
X56109555Y-56846452D01*
X56092524Y-56832476D01*
X56078548Y-56815445D01*
X56068160Y-56796009D01*
X56061764Y-56774928D01*
X56059000Y-56746860D01*
X56059000Y-56283140D01*
X56061764Y-56255072D01*
X56068160Y-56233991D01*
X56078548Y-56214555D01*
X56092524Y-56197524D01*
X56109555Y-56183548D01*
X56128991Y-56173160D01*
X56150072Y-56166764D01*
X56178140Y-56164000D01*
X57991860Y-56164000D01*
X58019928Y-56166764D01*
X58019928Y-56166764D01*
G37*
G36*
X63581228Y-54934703D02*
G01*
X63736100Y-54998853D01*
X63875481Y-55091985D01*
X63994015Y-55210519D01*
X64087147Y-55349900D01*
X64151297Y-55504772D01*
X64184000Y-55669184D01*
X64184000Y-55836816D01*
X64151297Y-56001228D01*
X64087147Y-56156100D01*
X63994015Y-56295481D01*
X63875481Y-56414015D01*
X63736100Y-56507147D01*
X63581228Y-56571297D01*
X63416816Y-56604000D01*
X63249184Y-56604000D01*
X63084772Y-56571297D01*
X62929900Y-56507147D01*
X62790519Y-56414015D01*
X62671985Y-56295481D01*
X62578853Y-56156100D01*
X62514703Y-56001228D01*
X62482000Y-55836816D01*
X62482000Y-55669184D01*
X62514703Y-55504772D01*
X62578853Y-55349900D01*
X62671985Y-55210519D01*
X62790519Y-55091985D01*
X62929900Y-54998853D01*
X63084772Y-54934703D01*
X63249184Y-54902000D01*
X63416816Y-54902000D01*
X63581228Y-54934703D01*
X63581228Y-54934703D01*
G37*
G36*
X61081228Y-54934703D02*
G01*
X61236100Y-54998853D01*
X61375481Y-55091985D01*
X61494015Y-55210519D01*
X61587147Y-55349900D01*
X61651297Y-55504772D01*
X61684000Y-55669184D01*
X61684000Y-55836816D01*
X61651297Y-56001228D01*
X61587147Y-56156100D01*
X61494015Y-56295481D01*
X61375481Y-56414015D01*
X61236100Y-56507147D01*
X61081228Y-56571297D01*
X60916816Y-56604000D01*
X60749184Y-56604000D01*
X60584772Y-56571297D01*
X60429900Y-56507147D01*
X60290519Y-56414015D01*
X60171985Y-56295481D01*
X60078853Y-56156100D01*
X60014703Y-56001228D01*
X59982000Y-55836816D01*
X59982000Y-55669184D01*
X60014703Y-55504772D01*
X60078853Y-55349900D01*
X60171985Y-55210519D01*
X60290519Y-55091985D01*
X60429900Y-54998853D01*
X60584772Y-54934703D01*
X60749184Y-54902000D01*
X60916816Y-54902000D01*
X61081228Y-54934703D01*
X61081228Y-54934703D01*
G37*
G36*
X49471562Y-54704181D02*
G01*
X49506481Y-54714774D01*
X49538663Y-54731976D01*
X49566873Y-54755127D01*
X49590024Y-54783337D01*
X49607226Y-54815519D01*
X49617819Y-54850438D01*
X49622000Y-54892895D01*
X49622000Y-56359105D01*
X49617819Y-56401562D01*
X49607226Y-56436481D01*
X49590024Y-56468663D01*
X49566873Y-56496873D01*
X49538663Y-56520024D01*
X49506481Y-56537226D01*
X49471562Y-56547819D01*
X49429105Y-56552000D01*
X48287895Y-56552000D01*
X48245438Y-56547819D01*
X48210519Y-56537226D01*
X48178337Y-56520024D01*
X48150127Y-56496873D01*
X48126976Y-56468663D01*
X48109774Y-56436481D01*
X48099181Y-56401562D01*
X48095000Y-56359105D01*
X48095000Y-54892895D01*
X48099181Y-54850438D01*
X48109774Y-54815519D01*
X48126976Y-54783337D01*
X48150127Y-54755127D01*
X48178337Y-54731976D01*
X48210519Y-54714774D01*
X48245438Y-54704181D01*
X48287895Y-54700000D01*
X49429105Y-54700000D01*
X49471562Y-54704181D01*
X49471562Y-54704181D01*
G37*
G36*
X46496562Y-54704181D02*
G01*
X46531481Y-54714774D01*
X46563663Y-54731976D01*
X46591873Y-54755127D01*
X46615024Y-54783337D01*
X46632226Y-54815519D01*
X46642819Y-54850438D01*
X46647000Y-54892895D01*
X46647000Y-56359105D01*
X46642819Y-56401562D01*
X46632226Y-56436481D01*
X46615024Y-56468663D01*
X46591873Y-56496873D01*
X46563663Y-56520024D01*
X46531481Y-56537226D01*
X46496562Y-56547819D01*
X46454105Y-56552000D01*
X45312895Y-56552000D01*
X45270438Y-56547819D01*
X45235519Y-56537226D01*
X45203337Y-56520024D01*
X45175127Y-56496873D01*
X45151976Y-56468663D01*
X45134774Y-56436481D01*
X45124181Y-56401562D01*
X45120000Y-56359105D01*
X45120000Y-54892895D01*
X45124181Y-54850438D01*
X45134774Y-54815519D01*
X45151976Y-54783337D01*
X45175127Y-54755127D01*
X45203337Y-54731976D01*
X45235519Y-54714774D01*
X45270438Y-54704181D01*
X45312895Y-54700000D01*
X46454105Y-54700000D01*
X46496562Y-54704181D01*
X46496562Y-54704181D01*
G37*
G36*
X58019928Y-54896764D02*
G01*
X58041009Y-54903160D01*
X58060445Y-54913548D01*
X58077476Y-54927524D01*
X58091452Y-54944555D01*
X58101840Y-54963991D01*
X58108236Y-54985072D01*
X58111000Y-55013140D01*
X58111000Y-55476860D01*
X58108236Y-55504928D01*
X58101840Y-55526009D01*
X58091452Y-55545445D01*
X58077476Y-55562476D01*
X58060445Y-55576452D01*
X58041009Y-55586840D01*
X58019928Y-55593236D01*
X57991860Y-55596000D01*
X56178140Y-55596000D01*
X56150072Y-55593236D01*
X56128991Y-55586840D01*
X56109555Y-55576452D01*
X56092524Y-55562476D01*
X56078548Y-55545445D01*
X56068160Y-55526009D01*
X56061764Y-55504928D01*
X56059000Y-55476860D01*
X56059000Y-55013140D01*
X56061764Y-54985072D01*
X56068160Y-54963991D01*
X56078548Y-54944555D01*
X56092524Y-54927524D01*
X56109555Y-54913548D01*
X56128991Y-54903160D01*
X56150072Y-54896764D01*
X56178140Y-54894000D01*
X57991860Y-54894000D01*
X58019928Y-54896764D01*
X58019928Y-54896764D01*
G37*
G36*
X53069928Y-54896764D02*
G01*
X53091009Y-54903160D01*
X53110445Y-54913548D01*
X53127476Y-54927524D01*
X53141452Y-54944555D01*
X53151840Y-54963991D01*
X53158236Y-54985072D01*
X53161000Y-55013140D01*
X53161000Y-55476860D01*
X53158236Y-55504928D01*
X53151840Y-55526009D01*
X53141452Y-55545445D01*
X53127476Y-55562476D01*
X53110445Y-55576452D01*
X53091009Y-55586840D01*
X53069928Y-55593236D01*
X53041860Y-55596000D01*
X51228140Y-55596000D01*
X51200072Y-55593236D01*
X51178991Y-55586840D01*
X51159555Y-55576452D01*
X51142524Y-55562476D01*
X51128548Y-55545445D01*
X51118160Y-55526009D01*
X51111764Y-55504928D01*
X51109000Y-55476860D01*
X51109000Y-55013140D01*
X51111764Y-54985072D01*
X51118160Y-54963991D01*
X51128548Y-54944555D01*
X51142524Y-54927524D01*
X51159555Y-54913548D01*
X51178991Y-54903160D01*
X51200072Y-54896764D01*
X51228140Y-54894000D01*
X53041860Y-54894000D01*
X53069928Y-54896764D01*
X53069928Y-54896764D01*
G37*
G36*
X35432655Y-51968591D02*
G01*
X35504525Y-51982887D01*
X35707624Y-52067013D01*
X35890409Y-52189146D01*
X36045854Y-52344591D01*
X36167987Y-52527376D01*
X36252113Y-52730475D01*
X36252113Y-52730476D01*
X36290939Y-52925665D01*
X36295000Y-52946084D01*
X36295000Y-53165916D01*
X36252113Y-53381525D01*
X36167987Y-53584624D01*
X36045854Y-53767409D01*
X35890409Y-53922854D01*
X35707624Y-54044987D01*
X35504525Y-54129113D01*
X35432655Y-54143409D01*
X35288918Y-54172000D01*
X35069082Y-54172000D01*
X34925345Y-54143409D01*
X34853475Y-54129113D01*
X34650376Y-54044987D01*
X34467591Y-53922854D01*
X34312146Y-53767409D01*
X34190013Y-53584624D01*
X34105887Y-53381525D01*
X34063000Y-53165916D01*
X34063000Y-52946084D01*
X34067062Y-52925665D01*
X34105887Y-52730476D01*
X34105887Y-52730475D01*
X34190013Y-52527376D01*
X34312146Y-52344591D01*
X34467591Y-52189146D01*
X34650376Y-52067013D01*
X34853475Y-51982887D01*
X34925345Y-51968591D01*
X35069082Y-51940000D01*
X35288918Y-51940000D01*
X35432655Y-51968591D01*
X35432655Y-51968591D01*
G37*
G36*
X64896655Y-51968591D02*
G01*
X64968525Y-51982887D01*
X65171624Y-52067013D01*
X65354409Y-52189146D01*
X65509854Y-52344591D01*
X65631987Y-52527376D01*
X65716113Y-52730475D01*
X65716113Y-52730476D01*
X65754939Y-52925665D01*
X65759000Y-52946084D01*
X65759000Y-53165916D01*
X65716113Y-53381525D01*
X65631987Y-53584624D01*
X65509854Y-53767409D01*
X65354409Y-53922854D01*
X65171624Y-54044987D01*
X64968525Y-54129113D01*
X64896655Y-54143409D01*
X64752918Y-54172000D01*
X64533082Y-54172000D01*
X64389345Y-54143409D01*
X64317475Y-54129113D01*
X64114376Y-54044987D01*
X63931591Y-53922854D01*
X63776146Y-53767409D01*
X63654013Y-53584624D01*
X63569887Y-53381525D01*
X63527000Y-53165916D01*
X63527000Y-52946084D01*
X63531062Y-52925665D01*
X63569887Y-52730476D01*
X63569887Y-52730475D01*
X63654013Y-52527376D01*
X63776146Y-52344591D01*
X63931591Y-52189146D01*
X64114376Y-52067013D01*
X64317475Y-51982887D01*
X64389345Y-51968591D01*
X64533082Y-51940000D01*
X64752918Y-51940000D01*
X64896655Y-51968591D01*
X64896655Y-51968591D01*
G37*
G36*
X53910000Y-53783000D02*
G01*
X52008000Y-53783000D01*
X52008000Y-51881000D01*
X53910000Y-51881000D01*
X53910000Y-53783000D01*
X53910000Y-53783000D01*
G37*
G36*
X50736395Y-51917546D02*
G01*
X50909466Y-51989234D01*
X50909467Y-51989235D01*
X51065227Y-52093310D01*
X51197690Y-52225773D01*
X51197691Y-52225775D01*
X51301766Y-52381534D01*
X51373454Y-52554605D01*
X51410000Y-52738333D01*
X51410000Y-52925667D01*
X51373454Y-53109395D01*
X51301766Y-53282466D01*
X51301765Y-53282467D01*
X51197690Y-53438227D01*
X51065227Y-53570690D01*
X51044373Y-53584624D01*
X50909466Y-53674766D01*
X50736395Y-53746454D01*
X50552667Y-53783000D01*
X50365333Y-53783000D01*
X50181605Y-53746454D01*
X50008534Y-53674766D01*
X49873627Y-53584624D01*
X49852773Y-53570690D01*
X49720310Y-53438227D01*
X49616235Y-53282467D01*
X49616234Y-53282466D01*
X49544546Y-53109395D01*
X49508000Y-52925667D01*
X49508000Y-52738333D01*
X49544546Y-52554605D01*
X49616234Y-52381534D01*
X49720309Y-52225775D01*
X49720310Y-52225773D01*
X49852773Y-52093310D01*
X50008533Y-51989235D01*
X50008534Y-51989234D01*
X50181605Y-51917546D01*
X50365333Y-51881000D01*
X50552667Y-51881000D01*
X50736395Y-51917546D01*
X50736395Y-51917546D01*
G37*
G36*
X48236395Y-51917546D02*
G01*
X48409466Y-51989234D01*
X48409467Y-51989235D01*
X48565227Y-52093310D01*
X48697690Y-52225773D01*
X48697691Y-52225775D01*
X48801766Y-52381534D01*
X48873454Y-52554605D01*
X48910000Y-52738333D01*
X48910000Y-52925667D01*
X48873454Y-53109395D01*
X48801766Y-53282466D01*
X48801765Y-53282467D01*
X48697690Y-53438227D01*
X48565227Y-53570690D01*
X48544373Y-53584624D01*
X48409466Y-53674766D01*
X48236395Y-53746454D01*
X48052667Y-53783000D01*
X47865333Y-53783000D01*
X47681605Y-53746454D01*
X47508534Y-53674766D01*
X47373627Y-53584624D01*
X47352773Y-53570690D01*
X47220310Y-53438227D01*
X47116235Y-53282467D01*
X47116234Y-53282466D01*
X47044546Y-53109395D01*
X47008000Y-52925667D01*
X47008000Y-52738333D01*
X47044546Y-52554605D01*
X47116234Y-52381534D01*
X47220309Y-52225775D01*
X47220310Y-52225773D01*
X47352773Y-52093310D01*
X47508533Y-51989235D01*
X47508534Y-51989234D01*
X47681605Y-51917546D01*
X47865333Y-51881000D01*
X48052667Y-51881000D01*
X48236395Y-51917546D01*
X48236395Y-51917546D01*
G37*
G36*
X50560562Y-48608181D02*
G01*
X50595481Y-48618774D01*
X50627663Y-48635976D01*
X50655873Y-48659127D01*
X50679024Y-48687337D01*
X50696226Y-48719519D01*
X50706819Y-48754438D01*
X50711000Y-48796895D01*
X50711000Y-50263105D01*
X50706819Y-50305562D01*
X50696226Y-50340481D01*
X50679024Y-50372663D01*
X50655873Y-50400873D01*
X50627663Y-50424024D01*
X50595481Y-50441226D01*
X50560562Y-50451819D01*
X50518105Y-50456000D01*
X49376895Y-50456000D01*
X49334438Y-50451819D01*
X49299519Y-50441226D01*
X49267337Y-50424024D01*
X49239127Y-50400873D01*
X49215976Y-50372663D01*
X49198774Y-50340481D01*
X49188181Y-50305562D01*
X49184000Y-50263105D01*
X49184000Y-48796895D01*
X49188181Y-48754438D01*
X49198774Y-48719519D01*
X49215976Y-48687337D01*
X49239127Y-48659127D01*
X49267337Y-48635976D01*
X49299519Y-48618774D01*
X49334438Y-48608181D01*
X49376895Y-48604000D01*
X50518105Y-48604000D01*
X50560562Y-48608181D01*
X50560562Y-48608181D01*
G37*
G36*
X53535562Y-48608181D02*
G01*
X53570481Y-48618774D01*
X53602663Y-48635976D01*
X53630873Y-48659127D01*
X53654024Y-48687337D01*
X53671226Y-48719519D01*
X53681819Y-48754438D01*
X53686000Y-48796895D01*
X53686000Y-50263105D01*
X53681819Y-50305562D01*
X53671226Y-50340481D01*
X53654024Y-50372663D01*
X53630873Y-50400873D01*
X53602663Y-50424024D01*
X53570481Y-50441226D01*
X53535562Y-50451819D01*
X53493105Y-50456000D01*
X52351895Y-50456000D01*
X52309438Y-50451819D01*
X52274519Y-50441226D01*
X52242337Y-50424024D01*
X52214127Y-50400873D01*
X52190976Y-50372663D01*
X52173774Y-50340481D01*
X52163181Y-50305562D01*
X52159000Y-50263105D01*
X52159000Y-48796895D01*
X52163181Y-48754438D01*
X52173774Y-48719519D01*
X52190976Y-48687337D01*
X52214127Y-48659127D01*
X52242337Y-48635976D01*
X52274519Y-48618774D01*
X52309438Y-48608181D01*
X52351895Y-48604000D01*
X53493105Y-48604000D01*
X53535562Y-48608181D01*
X53535562Y-48608181D01*
G37*
G36*
X49798562Y-45814181D02*
G01*
X49833481Y-45824774D01*
X49865663Y-45841976D01*
X49893873Y-45865127D01*
X49917024Y-45893337D01*
X49934226Y-45925519D01*
X49944819Y-45960438D01*
X49949000Y-46002895D01*
X49949000Y-47469105D01*
X49944819Y-47511562D01*
X49934226Y-47546481D01*
X49917024Y-47578663D01*
X49893873Y-47606873D01*
X49865663Y-47630024D01*
X49833481Y-47647226D01*
X49798562Y-47657819D01*
X49756105Y-47662000D01*
X48614895Y-47662000D01*
X48572438Y-47657819D01*
X48537519Y-47647226D01*
X48505337Y-47630024D01*
X48477127Y-47606873D01*
X48453976Y-47578663D01*
X48436774Y-47546481D01*
X48426181Y-47511562D01*
X48422000Y-47469105D01*
X48422000Y-46002895D01*
X48426181Y-45960438D01*
X48436774Y-45925519D01*
X48453976Y-45893337D01*
X48477127Y-45865127D01*
X48505337Y-45841976D01*
X48537519Y-45824774D01*
X48572438Y-45814181D01*
X48614895Y-45810000D01*
X49756105Y-45810000D01*
X49798562Y-45814181D01*
X49798562Y-45814181D01*
G37*
G36*
X52773562Y-45814181D02*
G01*
X52808481Y-45824774D01*
X52840663Y-45841976D01*
X52868873Y-45865127D01*
X52892024Y-45893337D01*
X52909226Y-45925519D01*
X52919819Y-45960438D01*
X52924000Y-46002895D01*
X52924000Y-47469105D01*
X52919819Y-47511562D01*
X52909226Y-47546481D01*
X52892024Y-47578663D01*
X52868873Y-47606873D01*
X52840663Y-47630024D01*
X52808481Y-47647226D01*
X52773562Y-47657819D01*
X52731105Y-47662000D01*
X51589895Y-47662000D01*
X51547438Y-47657819D01*
X51512519Y-47647226D01*
X51480337Y-47630024D01*
X51452127Y-47606873D01*
X51428976Y-47578663D01*
X51411774Y-47546481D01*
X51401181Y-47511562D01*
X51397000Y-47469105D01*
X51397000Y-46002895D01*
X51401181Y-45960438D01*
X51411774Y-45925519D01*
X51428976Y-45893337D01*
X51452127Y-45865127D01*
X51480337Y-45841976D01*
X51512519Y-45824774D01*
X51547438Y-45814181D01*
X51589895Y-45810000D01*
X52731105Y-45810000D01*
X52773562Y-45814181D01*
X52773562Y-45814181D01*
G37*
G36*
X45935603Y-43681416D02*
G01*
X46201578Y-43762099D01*
X46201580Y-43762100D01*
X46446700Y-43893119D01*
X46661556Y-44069444D01*
X46837881Y-44284299D01*
X46916013Y-44430475D01*
X46968901Y-44529421D01*
X47049584Y-44795396D01*
X47070000Y-45002684D01*
X47070000Y-45661315D01*
X47049584Y-45868603D01*
X47008847Y-46002895D01*
X46968900Y-46134582D01*
X46837881Y-46379701D01*
X46661556Y-46594556D01*
X46446701Y-46770881D01*
X46201581Y-46901900D01*
X46201579Y-46901901D01*
X45935604Y-46982584D01*
X45659000Y-47009827D01*
X45382397Y-46982584D01*
X45116422Y-46901901D01*
X45116420Y-46901900D01*
X44871300Y-46770881D01*
X44656444Y-46594556D01*
X44480119Y-46379701D01*
X44349100Y-46134581D01*
X44349099Y-46134579D01*
X44268416Y-45868604D01*
X44248000Y-45661316D01*
X44248000Y-45002685D01*
X44268416Y-44795397D01*
X44349099Y-44529422D01*
X44480120Y-44284299D01*
X44480121Y-44284298D01*
X44656444Y-44069444D01*
X44871299Y-43893119D01*
X45116419Y-43762100D01*
X45116421Y-43762099D01*
X45382396Y-43681416D01*
X45659000Y-43654173D01*
X45935603Y-43681416D01*
X45935603Y-43681416D01*
G37*
G36*
X55535603Y-43681416D02*
G01*
X55801578Y-43762099D01*
X55801580Y-43762100D01*
X56046700Y-43893119D01*
X56261556Y-44069444D01*
X56437881Y-44284299D01*
X56516013Y-44430475D01*
X56568901Y-44529421D01*
X56649584Y-44795396D01*
X56670000Y-45002684D01*
X56670000Y-45661315D01*
X56649584Y-45868603D01*
X56608847Y-46002895D01*
X56568900Y-46134582D01*
X56437881Y-46379701D01*
X56261556Y-46594556D01*
X56046701Y-46770881D01*
X55801581Y-46901900D01*
X55801579Y-46901901D01*
X55535604Y-46982584D01*
X55259000Y-47009827D01*
X54982397Y-46982584D01*
X54716422Y-46901901D01*
X54716420Y-46901900D01*
X54471300Y-46770881D01*
X54256444Y-46594556D01*
X54080119Y-46379701D01*
X53949100Y-46134581D01*
X53949099Y-46134579D01*
X53868416Y-45868604D01*
X53848000Y-45661316D01*
X53848000Y-45002685D01*
X53868416Y-44795397D01*
X53949099Y-44529422D01*
X54080120Y-44284299D01*
X54080121Y-44284298D01*
X54256444Y-44069444D01*
X54471299Y-43893119D01*
X54716419Y-43762100D01*
X54716421Y-43762099D01*
X54982396Y-43681416D01*
X55259000Y-43654173D01*
X55535603Y-43681416D01*
X55535603Y-43681416D01*
G37*
G36*
X42285228Y-45028703D02*
G01*
X42440100Y-45092853D01*
X42579481Y-45185985D01*
X42698015Y-45304519D01*
X42791147Y-45443900D01*
X42855297Y-45598772D01*
X42888000Y-45763184D01*
X42888000Y-45930816D01*
X42855297Y-46095228D01*
X42791147Y-46250100D01*
X42698015Y-46389481D01*
X42579481Y-46508015D01*
X42440100Y-46601147D01*
X42285228Y-46665297D01*
X42120816Y-46698000D01*
X41953184Y-46698000D01*
X41788772Y-46665297D01*
X41633900Y-46601147D01*
X41494519Y-46508015D01*
X41375985Y-46389481D01*
X41282853Y-46250100D01*
X41218703Y-46095228D01*
X41186000Y-45930816D01*
X41186000Y-45763184D01*
X41218703Y-45598772D01*
X41282853Y-45443900D01*
X41375985Y-45304519D01*
X41494519Y-45185985D01*
X41633900Y-45092853D01*
X41788772Y-45028703D01*
X41953184Y-44996000D01*
X42120816Y-44996000D01*
X42285228Y-45028703D01*
X42285228Y-45028703D01*
G37*
G36*
X64896655Y-43668591D02*
G01*
X64968525Y-43682887D01*
X65171624Y-43767013D01*
X65354409Y-43889146D01*
X65509854Y-44044591D01*
X65631987Y-44227376D01*
X65716113Y-44430475D01*
X65716113Y-44430476D01*
X65735795Y-44529421D01*
X65759000Y-44646084D01*
X65759000Y-44865916D01*
X65716113Y-45081525D01*
X65631987Y-45284624D01*
X65509854Y-45467409D01*
X65354409Y-45622854D01*
X65171624Y-45744987D01*
X64968525Y-45829113D01*
X64903858Y-45841976D01*
X64752918Y-45872000D01*
X64533082Y-45872000D01*
X64382142Y-45841976D01*
X64317475Y-45829113D01*
X64114376Y-45744987D01*
X63931591Y-45622854D01*
X63776146Y-45467409D01*
X63654013Y-45284624D01*
X63569887Y-45081525D01*
X63527000Y-44865916D01*
X63527000Y-44646084D01*
X63550206Y-44529421D01*
X63569887Y-44430476D01*
X63569887Y-44430475D01*
X63654013Y-44227376D01*
X63776146Y-44044591D01*
X63931591Y-43889146D01*
X64114376Y-43767013D01*
X64317475Y-43682887D01*
X64389345Y-43668591D01*
X64533082Y-43640000D01*
X64752918Y-43640000D01*
X64896655Y-43668591D01*
X64896655Y-43668591D01*
G37*
G36*
X35432655Y-43668591D02*
G01*
X35504525Y-43682887D01*
X35707624Y-43767013D01*
X35890409Y-43889146D01*
X36045854Y-44044591D01*
X36167987Y-44227376D01*
X36252113Y-44430475D01*
X36252113Y-44430476D01*
X36271795Y-44529421D01*
X36295000Y-44646084D01*
X36295000Y-44865916D01*
X36252113Y-45081525D01*
X36167987Y-45284624D01*
X36045854Y-45467409D01*
X35890409Y-45622854D01*
X35707624Y-45744987D01*
X35504525Y-45829113D01*
X35439858Y-45841976D01*
X35288918Y-45872000D01*
X35069082Y-45872000D01*
X34918142Y-45841976D01*
X34853475Y-45829113D01*
X34650376Y-45744987D01*
X34467591Y-45622854D01*
X34312146Y-45467409D01*
X34190013Y-45284624D01*
X34105887Y-45081525D01*
X34063000Y-44865916D01*
X34063000Y-44646084D01*
X34086206Y-44529421D01*
X34105887Y-44430476D01*
X34105887Y-44430475D01*
X34190013Y-44227376D01*
X34312146Y-44044591D01*
X34467591Y-43889146D01*
X34650376Y-43767013D01*
X34853475Y-43682887D01*
X34925345Y-43668591D01*
X35069082Y-43640000D01*
X35288918Y-43640000D01*
X35432655Y-43668591D01*
X35432655Y-43668591D01*
G37*
G36*
X65659000Y-42622000D02*
G01*
X63627000Y-42622000D01*
X63627000Y-40690000D01*
X65659000Y-40690000D01*
X65659000Y-42622000D01*
X65659000Y-42622000D01*
G37*
G36*
X36195000Y-42622000D02*
G01*
X34163000Y-42622000D01*
X34163000Y-40690000D01*
X36195000Y-40690000D01*
X36195000Y-42622000D01*
X36195000Y-42622000D01*
G37*
G36*
X42686562Y-40480181D02*
G01*
X42721481Y-40490774D01*
X42753663Y-40507976D01*
X42781873Y-40531127D01*
X42805024Y-40559337D01*
X42822226Y-40591519D01*
X42832819Y-40626438D01*
X42837000Y-40668895D01*
X42837000Y-42135105D01*
X42832819Y-42177562D01*
X42822226Y-42212481D01*
X42805024Y-42244663D01*
X42781873Y-42272873D01*
X42753663Y-42296024D01*
X42721481Y-42313226D01*
X42686562Y-42323819D01*
X42644105Y-42328000D01*
X41502895Y-42328000D01*
X41460438Y-42323819D01*
X41425519Y-42313226D01*
X41393337Y-42296024D01*
X41365127Y-42272873D01*
X41341976Y-42244663D01*
X41324774Y-42212481D01*
X41314181Y-42177562D01*
X41310000Y-42135105D01*
X41310000Y-40668895D01*
X41314181Y-40626438D01*
X41324774Y-40591519D01*
X41341976Y-40559337D01*
X41365127Y-40531127D01*
X41393337Y-40507976D01*
X41425519Y-40490774D01*
X41460438Y-40480181D01*
X41502895Y-40476000D01*
X42644105Y-40476000D01*
X42686562Y-40480181D01*
X42686562Y-40480181D01*
G37*
G36*
X45661562Y-40480181D02*
G01*
X45696481Y-40490774D01*
X45728663Y-40507976D01*
X45756873Y-40531127D01*
X45780024Y-40559337D01*
X45797226Y-40591519D01*
X45807819Y-40626438D01*
X45812000Y-40668895D01*
X45812000Y-42135105D01*
X45807819Y-42177562D01*
X45797226Y-42212481D01*
X45780024Y-42244663D01*
X45756873Y-42272873D01*
X45728663Y-42296024D01*
X45696481Y-42313226D01*
X45661562Y-42323819D01*
X45619105Y-42328000D01*
X44477895Y-42328000D01*
X44435438Y-42323819D01*
X44400519Y-42313226D01*
X44368337Y-42296024D01*
X44340127Y-42272873D01*
X44316976Y-42244663D01*
X44299774Y-42212481D01*
X44289181Y-42177562D01*
X44285000Y-42135105D01*
X44285000Y-40668895D01*
X44289181Y-40626438D01*
X44299774Y-40591519D01*
X44316976Y-40559337D01*
X44340127Y-40531127D01*
X44368337Y-40507976D01*
X44400519Y-40490774D01*
X44435438Y-40480181D01*
X44477895Y-40476000D01*
X45619105Y-40476000D01*
X45661562Y-40480181D01*
X45661562Y-40480181D01*
G37*
M02*
