M48
; DRILL file {KiCad 5.1.4} date Sat 28 Sep 2019 21:30:08 BST
; FORMAT={-:-/ absolute / inch / decimal}
; #@! TF.CreationDate,2019-09-28T21:30:08+01:00
; #@! TF.GenerationSoftware,Kicad,Pcbnew,5.1.4
; #@! TF.FileFunction,Plated,1,2,PTH
FMAT,2
INCH
T1C0.0157
T2C0.0295
T3C0.0315
T4C0.0394
T5C0.0433
T6C0.0480
T7C0.0559
T8C0.0563
%
G90
G05
T1
X1.8625Y-3.2625
X2.13Y-2.275
X2.1325Y-3.1425
X2.1498Y-4.0327
X2.1575Y-4.63
X2.315Y-3.1825
X2.3225Y-2.3211
X2.3675Y-4.19
X2.37Y-3.7875
X2.3975Y-4.745
T2
X2.42Y-4.835
X2.42Y-4.885
X2.42Y-4.935
T3
X2.29Y-4.1616
X2.29Y-4.26
X2.595Y-5.105
X2.6737Y-5.105
X1.795Y-4.015
X1.8934Y-4.015
X2.39Y-3.93
X2.4884Y-3.93
X1.9Y-5.175
X2.2Y-5.175
X1.41Y-5.2916
X1.41Y-5.39
X2.605Y-4.9075
X2.705Y-4.9075
X1.655Y-1.805
X1.655Y-2.305
X2.3916Y-4.025
X2.49Y-4.025
X1.655Y-2.6711
X1.655Y-3.1711
X1.23Y-2.26
X1.53Y-2.26
X1.82Y-3.165
X1.9184Y-3.165
X2.4Y-3.06
X2.4984Y-3.06
X2.295Y-4.365
X2.295Y-4.4634
X1.655Y-3.515
X1.655Y-4.015
X1.56Y-5.39
X1.66Y-5.39
X1.79Y-5.39
X1.89Y-5.39
X2.395Y-2.195
X2.4934Y-2.195
X1.24Y-4.805
X1.54Y-4.805
X1.3016Y-5.175
X1.4Y-5.175
X1.9Y-5.075
X2.2Y-5.075
X2.3966Y-2.29
X2.495Y-2.29
X1.815Y-2.3
X1.9134Y-2.3
X2.3663Y-5.105
X2.445Y-5.105
X2.1275Y-4.7875
X2.2259Y-4.7875
X1.9516Y-4.94
X2.05Y-4.94
X2.4016Y-3.155
X2.5Y-3.155
X1.655Y-4.305
X1.655Y-4.805
X1.235Y-3.14
X1.535Y-3.14
X1.23Y-3.945
X1.53Y-3.945
T4
X1.8881Y-4.6784
X1.9866Y-4.6784
X2.085Y-4.6784
X1.8881Y-3.8123
X1.9866Y-3.8123
X2.085Y-3.8123
X2.58Y-5.425
X2.58Y-5.525
X2.58Y-5.625
X2.58Y-5.725
X2.58Y-5.825
X2.68Y-5.425
X2.68Y-5.525
X2.68Y-5.625
X2.68Y-5.725
X2.68Y-5.825
X1.8881Y-2.9461
X1.9866Y-2.9461
X2.085Y-2.9461
X1.8881Y-2.08
X1.9866Y-2.08
X2.085Y-2.08
T5
X2.045Y-5.425
X2.445Y-5.425
X2.295Y-5.29
X2.695Y-5.29
T6
X1.385Y-4.2384
X1.99Y-5.695
X2.545Y-2.5061
X2.545Y-3.3723
X1.385Y-3.3723
X1.385Y-2.5061
X2.545Y-4.2384
X1.42Y-5.695
X1.385Y-1.64
X2.545Y-1.64
T7
X2.112Y-5.695
X2.545Y-2.6282
X2.545Y-3.4943
X1.385Y-3.4943
X1.385Y-2.6282
X2.545Y-4.3605
X1.542Y-5.695
X1.385Y-1.762
X2.545Y-1.762
X1.385Y-4.3605
T8
X2.545Y-2.955
X2.545Y-3.8211
X1.8688Y-5.695
X1.385Y-2.0888
X2.545Y-2.0888
X2.4388Y-5.695
X1.385Y-3.8211
X1.385Y-2.955
X2.545Y-4.6872
X1.385Y-4.6872
T5
G00X1.7976Y-2.6371
M15
G01X1.7976Y-2.6646
M16
G05
G00X2.1756Y-2.6371
M15
G01X2.1756Y-2.6646
M16
G05
G00X1.7976Y-1.7709
M15
G01X1.7976Y-1.7985
M16
G05
G00X2.1756Y-1.7709
M15
G01X2.1756Y-1.7985
M16
G05
G00X1.7976Y-4.3694
M15
G01X1.7976Y-4.3969
M16
G05
G00X2.1756Y-4.3694
M15
G01X2.1756Y-4.3969
M16
G05
G00X1.7976Y-3.5032
M15
G01X1.7976Y-3.5308
M16
G05
G00X2.1756Y-3.5032
M15
G01X2.1756Y-3.5308
M16
G05
T0
M30
